<?xml version="1.0" encoding="UTF-8" standalone="no"?>
<!-- Created with Inkscape (http://www.inkscape.org/) -->

<svg
   width="35.247524mm"
   height="11.558265mm"
   viewBox="0 0 35.247524 11.558265"
   version="1.1"
   id="svg1"
   xmlns="http://www.w3.org/2000/svg"
   xmlns:svg="http://www.w3.org/2000/svg">
  <defs
     id="defs1" />
  <g
     id="layer1"
     transform="translate(-68.2625,-41.539583)">
    <g
       id="g1454"
       transform="matrix(0.26458333,0,0,0.26458333,58.81079,-21.987139)">
		<polygon
   style="clip-rule:evenodd;fill:#4c6186;fill-rule:evenodd"
   points="42.454,272.683 35.723,272.683 35.723,271.057 42.454,271.057 "
   id="polygon1453" />

	</g>
    <g
       id="g1455"
       transform="matrix(0.26458333,0,0,0.26458333,58.81079,-21.987139)">
		<polygon
   style="clip-rule:evenodd;fill:#7894ae;fill-rule:evenodd"
   points="45.514,266.377 35.723,269.581 35.723,268.837 45.295,265.704 "
   id="polygon1454" />

	</g>
    <g
       id="g1456"
       transform="matrix(0.26458333,0,0,0.26458333,58.81079,-21.987139)">
		<polygon
   style="clip-rule:evenodd;fill:#7894ae;fill-rule:evenodd"
   points="111.763,262.016 111.373,262.016 111.373,240.736 111.763,240.736 "
   id="polygon1455" />

	</g>
    <g
       id="g1457"
       transform="matrix(0.26458333,0,0,0.26458333,58.81079,-21.987139)">
		<polygon
   style="clip-rule:evenodd;fill:#4c6186;fill-rule:evenodd"
   points="114.086,260.734 111.07,260.734 111.07,259.224 114.086,259.224 "
   id="polygon1456" />

	</g>
    <g
       id="g1458"
       transform="matrix(0.26458333,0,0,0.26458333,58.81079,-21.987139)">
		<polygon
   style="clip-rule:evenodd;fill:#7894ae;fill-rule:evenodd"
   points="65.28,265.21 61.462,265.21 61.462,261.775 65.28,261.775 "
   id="polygon1457" />

	</g>
    <g
       id="g1459"
       transform="matrix(0.26458333,0,0,0.26458333,58.81079,-21.987139)">
		<polygon
   style="clip-rule:evenodd;fill:#4c6186;fill-rule:evenodd"
   points="71.71,266.179 57.449,266.179 57.449,265.064 71.71,265.064 "
   id="polygon1458" />

	</g>
    <g
       id="g1460"
       transform="matrix(0.26458333,0,0,0.26458333,58.81079,-21.987139)">
		<path
   style="clip-rule:evenodd;fill:#4c6186;fill-rule:evenodd"
   d="m 40.098,276.669 c 2.214,0.277 4.257,-0.393 6.295,-1.095 l -0.293,5.672 c -2.001,-0.753 -4.001,-1.323 -6.002,-1.017 z"
   id="path1459" />

	</g>
    <g
       id="g1461"
       transform="matrix(0.26458333,0,0,0.26458333,58.81079,-21.987139)">
		<path
   style="clip-rule:evenodd;fill:#7894ae;fill-rule:evenodd"
   d="m 40.098,276.669 c 2.077,0.26 4.002,-0.313 5.915,-0.964 l -0.21,4.058 C 43.901,279.048 42,278.496 40.098,278.706 Z"
   id="path1460" />

	</g>
    <g
       id="g1462"
       transform="matrix(0.26458333,0,0,0.26458333,58.81079,-21.987139)">
		<path
   style="clip-rule:evenodd;fill:#4c6186;fill-rule:evenodd"
   d="m 38.744,276.289 h 0.679 c 0.513,0 0.933,0.375 0.933,0.833 v 2.652 c 0,0.459 -0.42,0.834 -0.933,0.834 h -0.679 c -0.514,0 -0.933,-0.375 -0.933,-0.834 v -2.652 c 0,-0.458 0.42,-0.833 0.933,-0.833 z"
   id="path1461" />

	</g>
    <g
       id="g1463"
       transform="matrix(0.26458333,0,0,0.26458333,58.81079,-21.987139)">
		<path
   style="clip-rule:evenodd;fill:#7894ae;fill-rule:evenodd"
   d="m 38.744,276.289 h 0.679 c 0.156,0 0.303,0.034 0.433,0.096 v 2.063 c 0,0.459 -0.42,0.834 -0.933,0.834 h -0.679 c -0.156,0 -0.304,-0.036 -0.433,-0.097 v -2.062 c 0,-0.459 0.42,-0.834 0.933,-0.834 z"
   id="path1462" />

	</g>
    <g
       id="g1464"
       transform="matrix(0.26458333,0,0,0.26458333,58.81079,-21.987139)">
		<path
   style="clip-rule:evenodd;fill:#7894ae;fill-rule:evenodd"
   d="m 44.621,265.572 121.629,0.334 c -6.239,5.623 -12.595,9.292 -16.123,11.157 H 42.904 l -0.744,-4.382 h -2.57 z"
   id="path1463" />

	</g>
    <g
       id="g1465"
       transform="matrix(0.26458333,0,0,0.26458333,58.81079,-21.987139)">
		<path
   style="clip-rule:evenodd;fill:#a3b9c6;fill-rule:evenodd"
   d="m 44.621,265.572 121.629,0.334 c -1.154,1.04 -2.313,2.012 -3.456,2.919 -0.724,0.275 -1.486,0.544 -2.297,0.808 -7.48,2.56 -25.171,3.691 -50.609,3.691 H 42.269 l -0.109,-0.642 h -2.57 z"
   id="path1464" />

	</g>
    <g
       id="g1466"
       transform="matrix(0.26458333,0,0,0.26458333,58.81079,-21.987139)">
		<path
   style="clip-rule:evenodd;fill:#4c6186;fill-rule:evenodd"
   d="m 160.03,270.919 c -3.973,2.872 -7.561,4.906 -9.903,6.145 h -17.288 c 9.611,-1.727 19.742,-4.179 27.191,-6.145 z"
   id="path1465" />

	</g>
    <g
       id="g1467"
       transform="matrix(0.26458333,0,0,0.26458333,58.81079,-21.987139)">
		<path
   style="clip-rule:evenodd;fill:#c12025;fill-rule:evenodd"
   d="m 42.904,277.064 c 0.141,0.67 1.477,6.181 2.117,6.222 l 78.663,0.498 c 4.87,0.031 13.656,-0.326 17.951,-2.391 4.296,-2.065 5.661,-2.886 8.492,-4.329 z"
   id="path1466" />

	</g>
    <g
       id="g1468"
       transform="matrix(0.26458333,0,0,0.26458333,58.81079,-21.987139)">
		<path
   style="clip-rule:evenodd;fill:#9a2429;fill-rule:evenodd"
   d="m 43.438,279.212 c 0.484,1.801 1.175,4.048 1.582,4.074 l 78.663,0.498 c 4.87,0.031 13.656,-0.326 17.951,-2.391 4.296,-2.065 5.661,-2.886 8.492,-4.328 H 132.84 c -7.073,1.27 -13.863,2.148 -19.098,2.148 H 43.438 Z"
   id="path1467" />

	</g>
    <g
       id="g1469"
       transform="matrix(0.26458333,0,0,0.26458333,58.81079,-21.987139)">
		<polygon
   style="clip-rule:evenodd;fill:#7894ae;fill-rule:evenodd"
   points="42.454,273.338 35.723,273.338 35.723,272.682 42.454,272.682 "
   id="polygon1468" />

	</g>
    <g
       id="g1470"
       transform="matrix(0.26458333,0,0,0.26458333,58.81079,-21.987139)">
		<polygon
   style="clip-rule:evenodd;fill:#d3e0e9;fill-rule:evenodd"
   points="118.381,254.853 115.284,265.766 138.633,265.83 131.156,254.853 "
   id="polygon1469" />

	</g>
    <g
       id="g1471"
       transform="matrix(0.26458333,0,0,0.26458333,58.81079,-21.987139)">
		<polygon
   style="clip-rule:evenodd;fill:#a3b9c6;fill-rule:evenodd"
   points="136.475,265.824 129.388,255.419 118.22,255.419 115.284,265.766 "
   id="polygon1470" />

	</g>
    <g
       id="g1472"
       transform="matrix(0.26458333,0,0,0.26458333,58.81079,-21.987139)">
		<polygon
   style="clip-rule:evenodd;fill:#7894ae;fill-rule:evenodd"
   points="118.381,254.853 115.284,265.766 110.625,265.754 115.698,254.853 "
   id="polygon1471" />

	</g>
    <g
       id="g1473"
       transform="matrix(0.26458333,0,0,0.26458333,58.81079,-21.987139)">
		<polygon
   style="clip-rule:evenodd;fill:#a3b9c6;fill-rule:evenodd"
   points="110.625,265.754 74.322,265.654 76.89,262.016 112.364,262.016 "
   id="polygon1472" />

	</g>
    <g
       id="g1474"
       transform="matrix(0.26458333,0,0,0.26458333,58.81079,-21.987139)">
		<path
   style="clip-rule:evenodd;fill:#4c6186;fill-rule:evenodd"
   d="m 121.215,256.776 h 2.293 c 0.308,0 0.559,0.251 0.559,0.559 v 1.401 c 0,0.308 -0.251,0.559 -0.559,0.559 h -2.293 c -0.308,0 -0.559,-0.251 -0.559,-0.559 v -1.401 c 0,-0.308 0.252,-0.559 0.559,-0.559 z"
   id="path1473" />

	</g>
    <g
       id="g1475"
       transform="matrix(0.26458333,0,0,0.26458333,58.81079,-21.987139)">
		<path
   style="clip-rule:evenodd;fill:#4c6186;fill-rule:evenodd"
   d="m 127.031,256.776 h 2.293 c 0.308,0 0.559,0.251 0.559,0.559 v 1.401 c 0,0.308 -0.251,0.559 -0.559,0.559 h -2.293 c -0.308,0 -0.559,-0.251 -0.559,-0.559 v -1.401 c 0,-0.308 0.252,-0.559 0.559,-0.559 z"
   id="path1474" />

	</g>
    <g
       id="g1476"
       transform="matrix(0.26458333,0,0,0.26458333,58.81079,-21.987139)">
		<path
   style="clip-rule:evenodd;fill:#4c6186;fill-rule:evenodd"
   d="m 115.75,256.776 h 1.429 c 0.192,0 0.261,0.251 0.155,0.559 l -0.484,1.401 c -0.106,0.308 -0.35,0.559 -0.542,0.559 h -1.428 c -0.192,0 -0.262,-0.251 -0.155,-0.559 l 0.484,-1.401 c 0.105,-0.308 0.349,-0.559 0.541,-0.559 z"
   id="path1475" />

	</g>
    <g
       id="g1477"
       transform="matrix(0.26458333,0,0,0.26458333,58.81079,-21.987139)">
		<polygon
   style="clip-rule:evenodd;fill:#7894ae;fill-rule:evenodd"
   points="67.475,262.054 59.579,264.332 58.761,261.496 66.657,259.218 "
   id="polygon1476" />

	</g>
    <g
       id="g1478"
       transform="matrix(0.26458333,0,0,0.26458333,58.81079,-21.987139)">
		<polygon
   style="clip-rule:evenodd;fill:#4c6186;fill-rule:evenodd"
   points="58.817,261.69 66.405,259.501 67.168,262.143 59.579,264.333 "
   id="polygon1477" />

	</g>
    <g
       id="g1479"
       transform="matrix(0.26458333,0,0,0.26458333,58.81079,-21.987139)">
		<polygon
   style="clip-rule:evenodd;fill:#4c6186;fill-rule:evenodd"
   points="69.113,261.279 67.394,261.775 66.736,259.497 68.456,259.001 "
   id="polygon1478" />

	</g>
    <g
       id="g1480"
       transform="matrix(0.26458333,0,0,0.26458333,58.81079,-21.987139)">
		<polygon
   style="clip-rule:evenodd;fill:#7894ae;fill-rule:evenodd"
   points="68.955,265.064 65.957,265.064 65.957,263.516 68.955,263.516 "
   id="polygon1479" />

	</g>
    <g
       id="g1481"
       transform="matrix(0.26458333,0,0,0.26458333,58.81079,-21.987139)">
		<path
   style="clip-rule:evenodd;fill:#4c6186;fill-rule:evenodd"
   d="m 107.543,263.17 c 0.457,0 0.828,0.371 0.828,0.828 0,0.457 -0.371,0.828 -0.828,0.828 -0.458,0 -0.828,-0.371 -0.828,-0.828 0,-0.457 0.37,-0.828 0.828,-0.828 z"
   id="path1480" />

	</g>
    <g
       id="g1482"
       transform="matrix(0.26458333,0,0,0.26458333,58.81079,-21.987139)">
		<path
   style="clip-rule:evenodd;fill:#4c6186;fill-rule:evenodd"
   d="m 96.574,263.17 c 0.457,0 0.828,0.371 0.828,0.828 0,0.457 -0.371,0.828 -0.828,0.828 -0.457,0 -0.828,-0.371 -0.828,-0.828 0,-0.457 0.371,-0.828 0.828,-0.828 z"
   id="path1481" />

	</g>
    <g
       id="g1483"
       transform="matrix(0.26458333,0,0,0.26458333,58.81079,-21.987139)">
		<path
   style="clip-rule:evenodd;fill:#4c6186;fill-rule:evenodd"
   d="m 85.605,263.17 c 0.457,0 0.828,0.371 0.828,0.828 0,0.457 -0.371,0.828 -0.828,0.828 -0.458,0 -0.828,-0.371 -0.828,-0.828 0,-0.457 0.371,-0.828 0.828,-0.828 z"
   id="path1482" />

	</g>
    <g
       id="g1484"
       transform="matrix(0.26458333,0,0,0.26458333,58.81079,-21.987139)">
		<path
   style="clip-rule:evenodd;fill:#4c6186;fill-rule:evenodd"
   d="m 130.556,269.401 c 0.458,0 0.828,0.371 0.828,0.828 0,0.457 -0.371,0.828 -0.828,0.828 -0.457,0 -0.828,-0.371 -0.828,-0.828 0,-0.458 0.371,-0.828 0.828,-0.828 z"
   id="path1483" />

	</g>
    <g
       id="g1485"
       transform="matrix(0.26458333,0,0,0.26458333,58.81079,-21.987139)">
		<path
   style="clip-rule:evenodd;fill:#4c6186;fill-rule:evenodd"
   d="m 119.588,269.401 c 0.458,0 0.828,0.371 0.828,0.828 0,0.457 -0.37,0.828 -0.828,0.828 -0.457,0 -0.828,-0.371 -0.828,-0.828 0,-0.458 0.37,-0.828 0.828,-0.828 z"
   id="path1484" />

	</g>
    <g
       id="g1486"
       transform="matrix(0.26458333,0,0,0.26458333,58.81079,-21.987139)">
		<path
   style="clip-rule:evenodd;fill:#4c6186;fill-rule:evenodd"
   d="m 120.627,251.737 h 2.324 v 0.284 0.624 c 0.81,-0.888 1.83,-0.874 2.115,-0.363 0.575,1.031 -0.234,1.71 -0.471,2.52 h -3.584 c -0.232,-0.585 -0.107,-1.151 0.41,-1.646 h -0.794 z"
   id="path1485" />

	</g>
    <g
       id="g1487"
       transform="matrix(0.26458333,0,0,0.26458333,58.81079,-21.987139)">
		<polygon
   style="clip-rule:evenodd;fill:#7894ae;fill-rule:evenodd"
   points="122.952,252.645 120.968,252.645 120.968,249.808 122.952,249.808 "
   id="polygon1486" />

	</g>
    <g
       id="g1488"
       transform="matrix(0.26458333,0,0,0.26458333,58.81079,-21.987139)">
		<polygon
   style="clip-rule:evenodd;fill:#7894ae;fill-rule:evenodd"
   points="120.968,251.737 119.153,251.737 119.153,250.489 120.968,250.489 "
   id="polygon1487" />

	</g>
    <g
       id="g1489"
       transform="matrix(0.26458333,0,0,0.26458333,58.81079,-21.987139)">
		<polygon
   style="clip-rule:evenodd;fill:#4c6186;fill-rule:evenodd"
   points="129.302,250.819 122.952,250.819 122.952,250.535 129.302,250.535 "
   id="polygon1488" />

	</g>
    <g
       id="g1490"
       transform="matrix(0.26458333,0,0,0.26458333,58.81079,-21.987139)">
		<polygon
   style="clip-rule:evenodd;fill:#4c6186;fill-rule:evenodd"
   points="125.277,251.329 122.952,251.329 122.952,250.955 125.277,250.955 "
   id="polygon1489" />

	</g>
    <g
       id="g1491"
       transform="matrix(0.26458333,0,0,0.26458333,58.81079,-21.987139)">
		<path
   style="clip-rule:evenodd;fill:#d3e0e9;fill-rule:evenodd"
   d="m 44.6,265.603 h 11.201 l 110.449,0.304 c -0.192,0.174 -0.385,0.344 -0.577,0.513 H 44.022 Z"
   id="path1490" />

	</g>
    <g
       id="g1492"
       transform="matrix(0.26458333,0,0,0.26458333,58.81079,-21.987139)">
		<polygon
   style="clip-rule:evenodd;fill:#d3e0e9;fill-rule:evenodd"
   points="115.698,254.853 118.381,254.853 124.801,254.853 131.168,254.87 131.604,255.51 115.392,255.51 "
   id="polygon1491" />

	</g>
    <g
       id="g1493"
       transform="matrix(0.26458333,0,0,0.26458333,58.81079,-21.987139)">
		<polygon
   style="clip-rule:evenodd;fill:#d3e0e9;fill-rule:evenodd"
   points="76.89,262.016 112.364,262.016 112.127,262.526 76.529,262.526 "
   id="polygon1492" />

	</g>
    <g
       id="g1494"
       transform="matrix(0.26458333,0,0,0.26458333,58.81079,-21.987139)">
		<path
   style="clip-rule:evenodd;fill:#4c6186;fill-rule:evenodd"
   d="m 89.832,258.891 h -2.324 v 0.283 0.624 c -0.81,-0.888 -1.83,-0.875 -2.115,-0.363 -0.575,1.032 0.234,1.71 0.471,2.519 h 3.584 c 0.232,-0.584 0.107,-1.151 -0.41,-1.646 h 0.794 z"
   id="path1493" />

	</g>
    <g
       id="g1495"
       transform="matrix(0.26458333,0,0,0.26458333,58.81079,-21.987139)">
		<polygon
   style="clip-rule:evenodd;fill:#7894ae;fill-rule:evenodd"
   points="87.507,259.799 89.491,259.799 89.491,256.961 87.507,256.961 "
   id="polygon1494" />

	</g>
    <g
       id="g1496"
       transform="matrix(0.26458333,0,0,0.26458333,58.81079,-21.987139)">
		<polygon
   style="clip-rule:evenodd;fill:#7894ae;fill-rule:evenodd"
   points="89.491,258.891 91.306,258.891 91.306,257.642 89.491,257.642 "
   id="polygon1495" />

	</g>
    <g
       id="g1497"
       transform="matrix(0.26458333,0,0,0.26458333,58.81079,-21.987139)">
		<polygon
   style="clip-rule:evenodd;fill:#4c6186;fill-rule:evenodd"
   points="81.157,257.972 87.507,257.972 87.507,257.689 81.157,257.689 "
   id="polygon1496" />

	</g>
    <g
       id="g1498"
       transform="matrix(0.26458333,0,0,0.26458333,58.81079,-21.987139)">
		<polygon
   style="clip-rule:evenodd;fill:#4c6186;fill-rule:evenodd"
   points="85.182,258.482 87.507,258.482 87.507,258.108 85.182,258.108 "
   id="polygon1497" />

	</g>
    <g
       id="g1499"
       transform="matrix(0.26458333,0,0,0.26458333,58.81079,-21.987139)">
		<polygon
   style="clip-rule:evenodd;fill:#7894ae;fill-rule:evenodd"
   points="83.984,262.016 77.821,262.016 77.821,261.426 83.984,261.426 "
   id="polygon1498" />

	</g>
    <g
       id="g1500"
       transform="matrix(0.26458333,0,0,0.26458333,58.81079,-21.987139)">
		<polygon
   style="clip-rule:evenodd;fill:#7894ae;fill-rule:evenodd"
   points="102.473,262.016 91.546,262.016 91.546,261.426 102.473,261.426 "
   id="polygon1499" />

	</g>
    <g
       id="g1501"
       transform="matrix(0.26458333,0,0,0.26458333,58.81079,-21.987139)">
		<polygon
   style="clip-rule:evenodd;fill:#7894ae;fill-rule:evenodd"
   points="99.673,261.425 94.346,261.425 94.346,260.206 99.673,260.206 "
   id="polygon1500" />

	</g>
    <g
       id="g1502"
       transform="matrix(0.26458333,0,0,0.26458333,58.81079,-21.987139)">
		<path
   style="clip-rule:evenodd;fill:#4c6186;fill-rule:evenodd"
   d="m 41.672,273.471 67.19,-0.147 c -0.107,0.173 -0.924,0.794 -1.03,0.964 H 42.294 l -0.134,-0.789 h -0.499 z"
   id="path1501" />

	</g>
    <g
       id="g1503"
       transform="matrix(0.26458333,0,0,0.26458333,58.81079,-21.987139)">
		<path
   style="clip-rule:evenodd;fill:#231f20;fill-rule:evenodd"
   d="m 134.081,265.813 z m 0.197,0 h 22.386 z m 0.155,-2.897 h 5.232 z m 5.429,0 h 5.388 z m 5.584,0 h 5.388 z m 5.584,0 h 5.387 z m 5.585,0 h 0.05 z m -22.182,1.035 h 5.232 z m 5.429,0 h 5.388 z m 5.584,0 h 5.388 z m 5.584,0 h 5.387 z m 5.585,0 h 0.05 z m -22.182,1.077 h 5.232 z m 5.429,0 h 5.388 z m 5.584,0 h 5.388 z m 5.584,0 h 5.387 z m 5.585,0 h 0.05 z m -16.95,-2.177 c 0.065,0 0.131,0 0.197,0 v 0.065 0.682 0.353 0.724 0.353 0.434 0.351 c -0.066,0 -0.132,0 -0.197,0 v -0.352 -0.433 -0.354 -0.722 -0.354 -0.681 z m -5.584,0 h 0.197 v 2.584 0.378 h -0.197 v -0.379 z m 11.169,0 c 0.065,0 0.131,0 0.196,0 v 0.065 0.71 0.325 0.751 0.326 0.461 0.324 c -0.065,0 -0.131,0 -0.196,0 v -0.325 -0.461 -0.327 -0.75 -0.327 -0.708 z m 5.584,0 c 0.065,0 0.131,0 0.197,0 v 0.065 0.736 0.299 0.778 0.298 0.489 0.297 c -0.066,0 -0.131,0 -0.197,0 v -0.298 -0.487 -0.299 -0.777 -0.299 -0.736 z m 5.584,0 c 0.066,0 0.131,0 0.197,0 v 0.065 0.764 0.271 0.805 0.271 0.516 0.27 c -0.066,0 -0.131,0 -0.197,0 v -0.271 -0.515 -0.272 -0.804 -0.272 -0.763 z"
   id="path1502" />

	</g>
    <g
       id="g1504"
       transform="matrix(0.26458333,0,0,0.26458333,58.81079,-21.987139)">
		<path
   style="fill:#231f20"
   d="m 156.723,265.922 h -22.75 v -3.18 h 0.413 v 2.963 h 5.171 v -0.569 h -5.124 v -0.217 h 5.124 v -0.859 h -5.124 v -0.217 h 5.124 v -0.818 h -5.124 v -0.217 h 5.124 v -0.065 h 0.413 v 0.065 h 5.171 v -0.065 h 0.413 v 0.065 h 5.171 v -0.065 h 0.413 v 0.065 h 5.171 v -0.065 h 0.413 v 3.179 z m -5.585,-0.217 h 5.171 v -0.569 h -5.171 z m -5.584,0 h 5.171 v -0.569 h -5.171 z m -5.584,0 h 5.171 v -0.569 h -5.171 z m 11.168,-0.786 h 5.171 v -0.859 h -5.171 z m -5.584,0 h 5.171 v -0.859 h -5.171 z m -5.584,0 h 5.171 v -0.859 h -5.171 z m 11.168,-1.076 h 5.171 v -0.818 h -5.171 z m -5.584,0 h 5.171 v -0.818 h -5.171 z m -5.584,0 h 5.171 v -0.818 h -5.171 z"
   id="path1503" />

	</g>
    <g
       id="g1505"
       transform="matrix(0.26458333,0,0,0.26458333,58.81079,-21.987139)">
		<path
   style="clip-rule:evenodd;fill:#7894ae;fill-rule:evenodd"
   d="m 164.489,266.351 h 3.732 v 3.282 h -7.724 c 1.313,-1.005 2.654,-2.098 3.992,-3.282 z"
   id="path1504" />

	</g>
    <g
       id="g1506"
       transform="matrix(0.26458333,0,0,0.26458333,58.81079,-21.987139)">
		<path
   style="clip-rule:evenodd;fill:#4c6186;fill-rule:evenodd"
   d="m 168.808,266.01 h -0.452 c -0.074,0 -0.134,0.074 -0.134,0.164 v 3.794 c 0,0.09 0.06,0.164 0.134,0.164 h 0.452 c 0.074,0 0.134,-0.074 0.134,-0.164 v -3.794 c 0,-0.09 -0.06,-0.164 -0.134,-0.164 z"
   id="path1505" />

	</g>
    <g
       id="g1507"
       transform="matrix(0.26458333,0,0,0.26458333,58.81079,-21.987139)">
		<path
   style="clip-rule:evenodd;fill:#231f20;fill-rule:evenodd"
   d="m 88.206,265.813 z m 0.19,0 H 109.9 Z m 0.149,-2.897 h 5.026 z m 5.215,0 h 5.175 z m 5.364,0 h 5.175 z m 5.364,0 h 5.175 z m 5.364,0 h 0.047 z m -21.307,1.035 h 5.026 z m 5.215,0 h 5.175 z m 5.364,0 h 5.175 z m 5.364,0 h 5.175 z m 5.364,0 h 0.047 z m -21.307,1.077 h 5.026 z m 5.215,0 h 5.175 z m 5.364,0 h 5.175 z m 5.364,0 h 5.175 z m 5.364,0 h 0.047 z M 93.57,262.851 c 0.063,0 0.126,0 0.189,0 v 0.065 0.682 0.353 0.724 0.353 0.434 0.351 c -0.063,0 -0.126,0 -0.189,0 v -0.352 -0.433 -0.354 -0.722 -0.354 -0.681 z m -5.364,0 h 0.189 v 2.584 0.378 h -0.189 v -0.379 z m 10.729,0 c 0.063,0 0.126,0 0.189,0 v 0.065 0.71 0.325 0.751 0.326 0.461 0.324 c -0.063,0 -0.126,0 -0.189,0 v -0.325 -0.461 -0.327 -0.75 -0.327 -0.708 z m 5.363,0 c 0.063,0 0.126,0 0.189,0 v 0.065 0.736 0.299 0.778 0.298 0.489 0.297 c -0.063,0 -0.126,0 -0.189,0 v -0.298 -0.487 -0.299 -0.777 -0.299 -0.736 z m 5.364,0 c 0.063,0 0.126,0 0.189,0 v 0.065 0.764 0.271 0.805 0.271 0.516 0.27 c -0.064,0 -0.126,0 -0.189,0 v -0.271 -0.515 -0.272 -0.804 -0.272 -0.763 z"
   id="path1506" />

	</g>
    <g
       id="g1508"
       transform="matrix(0.26458333,0,0,0.26458333,58.81079,-21.987139)">
		<path
   style="fill:#231f20"
   d="m 109.959,265.922 h -21.86 v -3.18 h 0.405 v 2.963 h 4.959 v -0.569 h -4.918 v -0.217 h 4.918 v -0.859 h -4.918 v -0.217 h 4.918 v -0.818 h -4.918 v -0.217 h 4.918 v -0.065 h 0.405 v 0.065 h 4.959 v -0.065 h 0.405 v 0.065 h 4.959 v -0.065 h 0.405 v 0.065 h 4.959 v -0.065 h 0.405 v 3.179 z m -5.364,-0.217 h 4.959 v -0.569 h -4.959 z m -5.364,0 h 4.959 v -0.569 h -4.959 z m -5.363,0 h 4.959 v -0.569 h -4.959 z m 10.727,-0.786 h 4.959 v -0.859 h -4.959 z m -5.364,0 h 4.959 v -0.859 h -4.959 z m -5.363,0 h 4.959 v -0.859 h -4.959 z m 10.727,-1.076 h 4.959 v -0.818 h -4.959 z m -5.364,0 h 4.959 v -0.818 h -4.959 z m -5.363,0 h 4.959 v -0.818 h -4.959 z"
   id="path1507" />

	</g>
    <g
       id="g1509"
       transform="matrix(0.26458333,0,0,0.26458333,58.81079,-21.987139)">
		<path
   style="clip-rule:evenodd;fill:#231f20;fill-rule:evenodd"
   d="m 66.701,265.813 z m 0.189,0 h 21.504 z m 0.149,-2.897 h 5.026 z m 5.215,0 h 5.176 z m 5.364,0 h 5.175 z m 5.364,0 h 5.175 z m 5.364,0 h 0.048 z m -21.307,1.035 h 5.026 z m 5.215,0 h 5.176 z m 5.364,0 h 5.175 z m 5.364,0 h 5.175 z m 5.364,0 h 0.048 z m -21.307,1.077 h 5.026 z m 5.215,0 h 5.176 z m 5.364,0 h 5.175 z m 5.364,0 h 5.175 z m 5.364,0 h 0.048 z m -16.281,-2.177 c 0.063,0 0.126,0 0.189,0 v 0.065 0.682 0.353 0.724 0.353 0.434 0.351 c -0.063,0 -0.126,0 -0.189,0 v -0.352 -0.433 -0.354 -0.722 -0.354 -0.681 z m -5.364,0 h 0.189 v 2.584 0.378 h -0.189 v -0.379 z m 10.728,0 c 0.062,0 0.126,0 0.189,0 v 0.065 0.71 0.325 0.751 0.326 0.461 0.324 c -0.063,0 -0.126,0 -0.189,0 v -0.325 -0.461 -0.327 -0.75 -0.327 -0.708 z m 5.364,0 c 0.063,0 0.126,0 0.189,0 v 0.065 0.736 0.299 0.778 0.298 0.489 0.297 c -0.063,0 -0.126,0 -0.189,0 v -0.298 -0.487 -0.299 -0.777 -0.299 -0.736 z m 5.364,0 c 0.064,0 0.126,0 0.189,0 v 0.065 0.764 0.271 0.805 0.271 0.516 0.27 c -0.063,0 -0.126,0 -0.189,0 v -0.271 -0.515 -0.272 -0.804 -0.272 -0.763 z"
   id="path1508" />

	</g>
    <g
       id="g1510"
       transform="matrix(0.26458333,0,0,0.26458333,58.81079,-21.987139)">
		<path
   style="fill:#231f20"
   d="M 88.454,265.922 H 66.593 v -3.18 h 0.405 v 2.963 h 4.959 v -0.569 h -4.918 v -0.217 h 4.918 v -0.859 h -4.918 v -0.217 h 4.918 v -0.818 h -4.918 v -0.217 h 4.918 v -0.065 h 0.405 v 0.065 h 4.959 v -0.065 h 0.405 v 0.065 h 4.959 v -0.065 h 0.405 v 0.065 h 4.958 v -0.065 h 0.405 v 3.179 z m -5.364,-0.217 h 4.958 v -0.569 H 83.09 Z m -5.364,0 h 4.959 v -0.569 h -4.959 z m -5.364,0 h 4.959 v -0.569 h -4.959 z m 10.728,-0.786 h 4.958 V 264.06 H 83.09 Z m -5.364,0 h 4.959 v -0.859 h -4.959 z m -5.364,0 h 4.959 v -0.859 h -4.959 z m 10.728,-1.076 h 4.958 v -0.818 H 83.09 Z m -5.364,0 h 4.959 v -0.818 h -4.959 z m -5.364,0 h 4.959 v -0.818 h -4.959 z"
   id="path1509" />

	</g>
    <g
       id="g1511"
       transform="matrix(0.26458333,0,0,0.26458333,58.81079,-21.987139)">
		<path
   style="clip-rule:evenodd;fill:#231f20;fill-rule:evenodd"
   d="m 45.006,265.813 z m 0.19,0 H 66.7 Z m 0.149,-2.897 h 5.026 z m 5.215,0 h 5.175 z m 5.364,0 h 5.175 z m 5.364,0 h 5.175 z m 5.364,0 H 66.7 Z m -21.307,1.035 h 5.026 z m 5.215,0 h 5.175 z m 5.364,0 h 5.175 z m 5.364,0 h 5.175 z m 5.364,0 H 66.7 Z m -21.307,1.077 h 5.026 z m 5.215,0 h 5.175 z m 5.364,0 h 5.175 z m 5.364,0 h 5.175 z m 5.364,0 H 66.7 Z M 50.37,262.851 c 0.063,0 0.126,0 0.189,0 v 0.065 0.682 0.353 0.724 0.353 0.434 0.351 c -0.063,0 -0.126,0 -0.189,0 v -0.352 -0.433 -0.354 -0.722 -0.354 -0.681 z m -5.364,0 h 0.189 v 2.584 0.378 h -0.189 v -0.379 z m 10.729,0 c 0.063,0 0.126,0 0.189,0 v 0.065 0.71 0.325 0.751 0.326 0.461 0.324 c -0.063,0 -0.126,0 -0.189,0 v -0.325 -0.461 -0.327 -0.75 -0.327 -0.708 z m 5.364,0 c 0.063,0 0.126,0 0.189,0 v 0.065 0.736 0.299 0.778 0.298 0.489 0.297 c -0.063,0 -0.126,0 -0.189,0 v -0.298 -0.487 -0.299 -0.777 -0.299 -0.736 z m 5.363,0 c 0.063,0 0.126,0 0.189,0 v 0.065 0.764 0.271 0.805 0.271 0.516 0.27 c -0.063,0 -0.126,0 -0.189,0 v -0.271 -0.515 -0.272 -0.804 -0.272 -0.763 z"
   id="path1510" />

	</g>
    <g
       id="g1512"
       transform="matrix(0.26458333,0,0,0.26458333,58.81079,-21.987139)">
		<path
   style="fill:#231f20"
   d="M 66.76,265.922 H 44.898 v -3.18 h 0.405 v 2.963 h 4.959 v -0.569 h -4.918 v -0.217 h 4.918 v -0.859 h -4.918 v -0.217 h 4.918 v -0.818 h -4.918 v -0.217 h 4.918 v -0.065 h 0.405 v 0.065 h 4.959 v -0.065 h 0.404 v 0.065 h 4.959 v -0.065 h 0.405 v 0.065 h 4.959 v -0.065 h 0.405 v 3.179 z m -5.364,-0.217 h 4.959 v -0.569 h -4.959 z m -5.365,0 h 4.959 v -0.569 h -4.959 z m -5.364,0 h 4.959 v -0.569 h -4.959 z m 10.729,-0.786 h 4.959 v -0.859 h -4.959 z m -5.365,0 h 4.959 v -0.859 h -4.959 z m -5.364,0 h 4.959 v -0.859 h -4.959 z m 10.729,-1.076 h 4.959 v -0.818 h -4.959 z m -5.365,0 h 4.959 v -0.818 h -4.959 z m -5.364,0 h 4.959 v -0.818 h -4.959 z"
   id="path1511" />

	</g>
    <g
       id="g1513"
       transform="matrix(0.26458333,0,0,0.26458333,58.81079,-21.987139)">
		<polygon
   style="clip-rule:evenodd;fill:#7894ae;fill-rule:evenodd"
   points="68.433,259.81 67.09,260.198 66.986,259.838 68.329,259.451 "
   id="polygon1512" />

	</g>
    <g
       id="g1514"
       transform="matrix(0.26458333,0,0,0.26458333,58.81079,-21.987139)">
		<polygon
   style="clip-rule:evenodd;fill:#7894ae;fill-rule:evenodd"
   points="68.589,260.391 67.256,260.775 67.153,260.416 68.484,260.031 "
   id="polygon1513" />

	</g>
    <g
       id="g1515"
       transform="matrix(0.26458333,0,0,0.26458333,58.81079,-21.987139)">
		<polygon
   style="clip-rule:evenodd;fill:#7894ae;fill-rule:evenodd"
   points="68.744,260.971 67.423,261.353 67.319,260.993 68.639,260.612 "
   id="polygon1514" />

	</g>
    <g
       id="g1516"
       transform="matrix(0.26458333,0,0,0.26458333,58.81079,-21.987139)">
		<polygon
   style="clip-rule:evenodd;fill:#7894ae;fill-rule:evenodd"
   points="114.426,240.655 108.711,240.655 108.711,240.101 114.426,240.101 "
   id="polygon1515" />

	</g>
    <g
       id="g1517"
       transform="matrix(0.26458333,0,0,0.26458333,58.81079,-21.987139)">
		<polygon
   style="clip-rule:evenodd;fill:#7894ae;fill-rule:evenodd"
   points="114.426,244.408 111.373,244.408 111.373,243.854 114.426,243.854 "
   id="polygon1516" />

	</g>
    <g
       id="g1518"
       transform="matrix(0.26458333,0,0,0.26458333,58.81079,-21.987139)">
		<polygon
   style="clip-rule:evenodd;fill:#7894ae;fill-rule:evenodd"
   points="111.537,246.13 108.484,246.13 108.484,245.577 111.537,245.577 "
   id="polygon1517" />

	</g>
    <g
       id="g1519"
       transform="matrix(0.26458333,0,0,0.26458333,58.81079,-21.987139)">
		<path
   style="clip-rule:evenodd;fill:#a3b9c6;fill-rule:evenodd"
   d="m 108.664,242.692 c 0.744,0 1.347,0.603 1.347,1.347 0,0.744 -0.603,1.347 -1.347,1.347 -0.744,0 -1.347,-0.603 -1.347,-1.347 0,-0.744 0.603,-1.347 1.347,-1.347 z"
   id="path1518" />

	</g>
    <g
       id="g1520"
       transform="matrix(0.26458333,0,0,0.26458333,58.81079,-21.987139)">
		<path
   style="clip-rule:evenodd;fill:#a3b9c6;fill-rule:evenodd"
   d="m 114.072,241.861 c 0.422,0 0.764,0.342 0.764,0.763 0,0.422 -0.342,0.763 -0.764,0.763 -0.422,0 -0.763,-0.342 -0.763,-0.763 0,-0.422 0.342,-0.763 0.763,-0.763 z"
   id="path1519" />

	</g>
    <g
       id="g1521"
       transform="matrix(0.26458333,0,0,0.26458333,58.81079,-21.987139)">
		<path
   style="clip-rule:evenodd;fill:#4c6186;fill-rule:evenodd"
   d="m 103.694,267.661 h 4.771 c 0.224,0 0.407,0.183 0.407,0.406 v 0 c 0,0.224 -0.183,0.406 -0.407,0.406 h -4.771 c -0.224,0 -0.406,-0.182 -0.406,-0.406 v 0 c 0,-0.224 0.183,-0.406 0.406,-0.406 z"
   id="path1520" />

	</g>
    <g
       id="g1522"
       transform="matrix(0.26458333,0,0,0.26458333,58.81079,-21.987139)">
		<path
   style="clip-rule:evenodd;fill:#4c6186;fill-rule:evenodd"
   d="m 88.263,267.661 h 4.771 c 0.224,0 0.407,0.183 0.407,0.406 v 0 c 0,0.224 -0.183,0.406 -0.407,0.406 h -4.771 c -0.224,0 -0.406,-0.182 -0.406,-0.406 v 0 c -0.001,-0.224 0.182,-0.406 0.406,-0.406 z"
   id="path1521" />

	</g>
    <g
       id="g1523"
       transform="matrix(0.26458333,0,0,0.26458333,58.81079,-21.987139)">
		<path
   style="clip-rule:evenodd;fill:#4c6186;fill-rule:evenodd"
   d="m 72.831,267.661 h 4.771 c 0.224,0 0.406,0.183 0.406,0.406 v 0 c 0,0.224 -0.183,0.406 -0.406,0.406 h -4.771 c -0.224,0 -0.407,-0.182 -0.407,-0.406 v 0 c 0,-0.224 0.183,-0.406 0.407,-0.406 z"
   id="path1522" />

	</g>
    <g
       id="g1524"
       transform="matrix(0.26458333,0,0,0.26458333,58.81079,-21.987139)">
		<polygon
   style="clip-rule:evenodd;fill:#7894ae;fill-rule:evenodd"
   points="36.379,269.367 36.379,273.338 35.723,273.338 35.723,269.581 "
   id="polygon1523" />

	</g>
    <g
       id="g1525"
       transform="matrix(0.26458333,0,0,0.26458333,58.81079,-21.987139)">
		<path
   style="clip-rule:evenodd;fill:#4c6186;fill-rule:evenodd"
   d="m 114.492,261.132 c 0.99,0.234 1.522,1.442 1.187,2.697 -0.336,1.255 -1.411,2.083 -2.402,1.848 -0.991,-0.234 -1.522,-1.442 -1.187,-2.697 0.335,-1.255 1.411,-2.083 2.402,-1.848 z m -0.261,0.978 c 0.565,0.133 0.867,0.821 0.676,1.537 -0.191,0.715 -0.804,1.187 -1.369,1.053 -0.565,-0.134 -0.868,-0.822 -0.676,-1.537 0.191,-0.716 0.804,-1.187 1.369,-1.053 z"
   id="path1524" />

	</g>
    <g
       id="g1526"
       transform="matrix(0.26458333,0,0,0.26458333,58.81079,-21.987139)">
		<path
   style="clip-rule:evenodd;fill:#c12025;fill-rule:evenodd"
   d="m 114.247,260.666 c 0.991,0.234 1.522,1.442 1.187,2.697 -0.335,1.255 -1.411,2.083 -2.401,1.849 -0.991,-0.234 -1.523,-1.442 -1.187,-2.697 0.335,-1.255 1.411,-2.083 2.401,-1.849 z m -0.261,0.978 c 0.565,0.134 0.867,0.822 0.676,1.537 -0.191,0.715 -0.804,1.187 -1.368,1.053 -0.565,-0.134 -0.868,-0.822 -0.677,-1.537 0.192,-0.715 0.804,-1.187 1.369,-1.053 z"
   id="path1525" />

	</g>
    <g
       id="g1527"
       transform="matrix(0.26458333,0,0,0.26458333,58.81079,-21.987139)">
		<polygon
   style="clip-rule:evenodd;fill:#a3b9c6;fill-rule:evenodd"
   points="114.145,261.849 113.757,261.758 114.094,260.496 114.482,260.587 "
   id="polygon1526" />

	</g>
    <g
       id="g1528"
       transform="matrix(0.26458333,0,0,0.26458333,58.81079,-21.987139)">
		<polygon
   style="clip-rule:evenodd;fill:#a3b9c6;fill-rule:evenodd"
   points="113.215,265.329 112.826,265.237 113.164,263.975 113.552,264.067 "
   id="polygon1527" />

	</g>
    <g
       id="g1529"
       transform="matrix(0.26458333,0,0,0.26458333,58.81079,-21.987139)">
		<path
   style="fill:#ffffff"
   d="m 123.488,265.163 v -3.77 c -0.06,0.072 -0.144,0.128 -0.253,0.168 -0.109,0.04 -0.217,0.06 -0.323,0.06 v -0.525 c 0.15,-0.021 0.292,-0.081 0.426,-0.182 0.135,-0.1 0.238,-0.234 0.308,-0.398 h 0.549 v 4.649 h -0.707 z"
   id="path1528" />

	</g>
    <g
       id="g1530"
       transform="matrix(0.26458333,0,0,0.26458333,58.81079,-21.987139)">
		<path
   style="fill:#ffffff"
   d="m 125.835,265.217 c -0.615,0 -0.922,-0.32 -0.922,-0.959 v -0.583 h 0.663 v 0.509 c 0,0.215 0.041,0.348 0.123,0.399 0.033,0.02 0.082,0.029 0.151,0.029 0.004,0 0.009,0 0.016,0 0.155,0 0.232,-0.152 0.232,-0.457 v -1.189 c 0,-0.169 -0.018,-0.295 -0.053,-0.379 -0.035,-0.084 -0.104,-0.125 -0.206,-0.125 -0.183,0 -0.275,0.15 -0.275,0.451 l -0.622,-0.026 v -2.371 h 1.718 v 0.634 h -1.067 v 0.943 c 0.033,-0.065 0.094,-0.118 0.181,-0.158 0.088,-0.041 0.183,-0.06 0.287,-0.06 0.271,0 0.459,0.119 0.565,0.358 0.105,0.238 0.159,0.616 0.159,1.134 0,0.519 -0.018,0.879 -0.054,1.081 -0.037,0.201 -0.09,0.355 -0.16,0.46 -0.135,0.205 -0.381,0.309 -0.736,0.309 z"
   id="path1529" />

	</g>
    <g
       id="g1532"
       transform="matrix(0.26458333,0,0,0.26458333,58.81079,-21.987139)">
		<path
   style="clip-rule:evenodd;fill:#4c6186;fill-rule:evenodd"
   d="m 117.596,259.789 c 0.132,0 0.239,0.107 0.239,0.238 0,0.132 -0.107,0.239 -0.239,0.239 -0.132,0 -0.238,-0.107 -0.238,-0.239 0,-0.131 0.107,-0.238 0.238,-0.238 z"
   id="path1531" />

	</g>
    <g
       id="g1533"
       transform="matrix(0.26458333,0,0,0.26458333,58.81079,-21.987139)">
		<path
   style="clip-rule:evenodd;fill:#4c6186;fill-rule:evenodd"
   d="m 121.798,259.789 c 0.132,0 0.239,0.107 0.239,0.238 0,0.132 -0.107,0.239 -0.239,0.239 -0.132,0 -0.238,-0.107 -0.238,-0.239 0,-0.131 0.107,-0.238 0.238,-0.238 z"
   id="path1532" />

	</g>
    <g
       id="g1534"
       transform="matrix(0.26458333,0,0,0.26458333,58.81079,-21.987139)">
		<path
   style="clip-rule:evenodd;fill:#4c6186;fill-rule:evenodd"
   d="m 126.001,259.789 c 0.132,0 0.239,0.107 0.239,0.238 0,0.132 -0.107,0.239 -0.239,0.239 -0.132,0 -0.238,-0.107 -0.238,-0.239 -0.001,-0.131 0.106,-0.238 0.238,-0.238 z"
   id="path1533" />

	</g>
    <g
       id="g1535"
       transform="matrix(0.26458333,0,0,0.26458333,58.81079,-21.987139)">
		<path
   style="clip-rule:evenodd;fill:#4c6186;fill-rule:evenodd"
   d="m 130.203,259.789 c 0.132,0 0.239,0.107 0.239,0.238 0,0.132 -0.107,0.239 -0.239,0.239 -0.132,0 -0.238,-0.107 -0.238,-0.239 -0.001,-0.131 0.106,-0.238 0.238,-0.238 z"
   id="path1534" />

	</g>
    <g
       id="g1536"
       transform="matrix(0.26458333,0,0,0.26458333,58.81079,-21.987139)">
		<path
   style="clip-rule:evenodd;fill:#7894ae;fill-rule:evenodd"
   d="m 117.666,259.786 h 17.847 c 0.066,0 0.12,0.054 0.12,0.12 v 0 c 0,0.066 -0.054,0.12 -0.12,0.12 h -17.847 c -0.066,0 -0.12,-0.054 -0.12,-0.12 v 0 c 0,-0.066 0.054,-0.12 0.12,-0.12 z"
   id="path1535" />

	</g>
    <g
       id="g1537"
       transform="matrix(0.26458333,0,0,0.26458333,58.81079,-21.987139)">
		<path
   style="clip-rule:evenodd;fill:#7894ae;fill-rule:evenodd"
   d="m 50.091,267.526 h 2.44 c 0.317,0 0.576,0.259 0.576,0.576 v 1.352 c 0,0.317 -0.259,0.576 -0.576,0.576 h -2.44 c -0.317,0 -0.576,-0.259 -0.576,-0.576 v -1.352 c 0,-0.317 0.259,-0.576 0.576,-0.576 z"
   id="path1536" />

	</g>
    <g
       id="g1538"
       transform="matrix(0.26458333,0,0,0.26458333,58.81079,-21.987139)">
		<path
   style="clip-rule:evenodd;fill:#d3e0e9;fill-rule:evenodd"
   d="m 50.302,267.285 h 2.44 c 0.317,0 0.576,0.259 0.576,0.576 v 1.352 c 0,0.317 -0.259,0.576 -0.576,0.576 h -2.44 c -0.317,0 -0.576,-0.259 -0.576,-0.576 v -1.352 c 0,-0.317 0.259,-0.576 0.576,-0.576 z"
   id="path1537" />

	</g>
    <g
       id="g1539"
       transform="matrix(0.26458333,0,0,0.26458333,58.81079,-21.987139)">
		<path
   style="clip-rule:evenodd;fill:#a3b9c6;fill-rule:evenodd"
   d="m 52.883,269.77 c -0.045,0.012 -0.092,0.018 -0.141,0.018 h -2.44 c -0.317,0 -0.576,-0.259 -0.576,-0.576 v -1.352 c 0,-0.131 0.045,-0.252 0.119,-0.349 0.045,-0.011 0.092,-0.017 0.141,-0.017 h 2.44 c 0.317,0 0.576,0.259 0.576,0.576 v 1.352 c 0,0.131 -0.045,0.251 -0.119,0.348 z"
   id="path1538" />

	</g>
    <g
       id="g1540"
       transform="matrix(0.26458333,0,0,0.26458333,58.81079,-21.987139)">
		<path
   style="clip-rule:evenodd;fill:#d3e0e9;fill-rule:evenodd"
   d="m 41.672,272.655 67.417,0.304 c -0.107,0.173 -0.213,0.344 -0.32,0.513 H 42.294 l -0.134,-0.789 h -0.499 z"
   id="path1539" />

	</g>
  </g>
</svg>
