<?xml version="1.0" encoding="UTF-8" standalone="no"?>
<!-- Created with Inkscape (http://www.inkscape.org/) -->

<svg
   width="62.007221mm"
   height="11.40243mm"
   viewBox="0 0 62.00722 11.402429"
   version="1.1"
   id="svg1"
   xmlns="http://www.w3.org/2000/svg"
   xmlns:svg="http://www.w3.org/2000/svg">
  <defs
     id="defs1" />
  <g
     id="layer1"
     transform="translate(-88.900001,-42.8625)">
    <g
       id="g584"
       transform="matrix(0.26458333,0,0,0.26458333,40.77044,-10.064485)">
		<path
   style="clip-rule:evenodd;fill:#4d6987;fill-rule:evenodd"
   d="m 320.408,200.414 v 0 c 0.162,0 0.295,0.173 0.295,0.385 v 18.24 c 0,0.212 -0.133,0.385 -0.295,0.385 v 0 c -0.162,0 -0.295,-0.173 -0.295,-0.385 v -18.24 c 0,-0.211 0.132,-0.385 0.295,-0.385 z"
   id="path583" />

	</g>
    <g
       id="g585"
       transform="matrix(0.26458333,0,0,0.26458333,40.77044,-10.064485)">
		<polygon
   style="clip-rule:evenodd;fill:#4d6987;fill-rule:evenodd"
   points="321.476,203.08 319.339,203.08 319.339,202.842 321.476,202.842 "
   id="polygon584" />

	</g>
    <g
       id="g586"
       transform="matrix(0.26458333,0,0,0.26458333,40.77044,-10.064485)">
		<path
   style="clip-rule:evenodd;fill:#4d6987;fill-rule:evenodd"
   d="m 326.895,202.471 v 0 c 0.162,0 0.294,0.154 0.294,0.343 v 16.266 c 0,0.189 -0.132,0.343 -0.294,0.343 v 0 c -0.162,0 -0.295,-0.154 -0.295,-0.343 v -16.266 c 10e-4,-0.188 0.133,-0.343 0.295,-0.343 z"
   id="path585" />

	</g>
    <g
       id="g587"
       transform="matrix(0.26458333,0,0,0.26458333,40.77044,-10.064485)">
		<polygon
   style="clip-rule:evenodd;fill:#4d6987;fill-rule:evenodd"
   points="327.586,203.08 326.205,203.08 326.205,202.842 327.586,202.842 "
   id="polygon586" />

	</g>
    <g
       id="g588"
       transform="matrix(0.26458333,0,0,0.26458333,40.77044,-10.064485)">
		<path
   style="clip-rule:evenodd;fill:#4d6987;fill-rule:evenodd"
   d="m 329.625,201.403 v 0 c 0.162,0 0.294,0.164 0.294,0.365 v 17.291 c 0,0.201 -0.132,0.365 -0.294,0.365 v 0 c -0.162,0 -0.295,-0.164 -0.295,-0.365 v -17.291 c 0,-0.2 0.133,-0.365 0.295,-0.365 z"
   id="path587" />

	</g>
    <g
       id="g589"
       transform="matrix(0.26458333,0,0,0.26458333,40.77044,-10.064485)">
		<polygon
   style="clip-rule:evenodd;fill:#4d6987;fill-rule:evenodd"
   points="330.196,203.777 329.053,203.777 329.053,201.918 330.196,201.918 "
   id="polygon588" />

	</g>
    <g
       id="g590"
       transform="matrix(0.26458333,0,0,0.26458333,40.77044,-10.064485)">
		<path
   style="clip-rule:evenodd;fill:#4d6987;fill-rule:evenodd"
   d="m 337.616,201.403 v 0 c 0.162,0 0.294,0.164 0.294,0.365 v 17.291 c 0,0.201 -0.132,0.365 -0.294,0.365 v 0 c -0.162,0 -0.295,-0.164 -0.295,-0.365 v -17.291 c 0,-0.2 0.132,-0.365 0.295,-0.365 z"
   id="path589" />

	</g>
    <g
       id="g591"
       transform="matrix(0.26458333,0,0,0.26458333,40.77044,-10.064485)">
		<polygon
   style="clip-rule:evenodd;fill:#4d6987;fill-rule:evenodd"
   points="338.594,203.777 336.636,203.777 336.636,203.373 338.594,203.373 "
   id="polygon590" />

	</g>
    <g
       id="g592"
       transform="matrix(0.26458333,0,0,0.26458333,40.77044,-10.064485)">
		<polygon
   style="clip-rule:evenodd;fill:#4d6987;fill-rule:evenodd"
   points="338.903,202.835 336.328,202.835 336.328,202.432 338.903,202.432 "
   id="polygon591" />

	</g>
    <g
       id="g593"
       transform="matrix(0.26458333,0,0,0.26458333,40.77044,-10.064485)">
		<polygon
   style="clip-rule:evenodd;fill:#4d6987;fill-rule:evenodd"
   points="338.903,202.433 338.515,202.433 338.515,201.958 338.903,201.958 "
   id="polygon592" />

	</g>
    <g
       id="g594"
       transform="matrix(0.26458333,0,0,0.26458333,40.77044,-10.064485)">
		<path
   style="clip-rule:evenodd;fill:#4d6987;fill-rule:evenodd"
   d="m 341.042,203.049 v 0 c 0.162,0 0.294,0.149 0.294,0.332 v 15.712 c 0,0.182 -0.132,0.331 -0.294,0.331 v 0 c -0.162,0 -0.295,-0.149 -0.295,-0.331 v -15.712 c 0,-0.182 0.132,-0.332 0.295,-0.332 z"
   id="path593" />

	</g>
    <g
       id="g595"
       transform="matrix(0.26458333,0,0,0.26458333,40.77044,-10.064485)">
		<path
   style="clip-rule:evenodd;fill:#4d6987;fill-rule:evenodd"
   d="m 332.773,200.039 v 0 c 0.084,0 0.152,0.176 0.152,0.392 v 18.601 c 0,0.216 -0.069,0.392 -0.152,0.392 v 0 c -0.084,0 -0.153,-0.176 -0.153,-0.392 v -18.601 c 10e-4,-0.216 0.069,-0.392 0.153,-0.392 z"
   id="path594" />

	</g>
    <g
       id="g596"
       transform="matrix(0.26458333,0,0,0.26458333,40.77044,-10.064485)">
		<polygon
   style="clip-rule:evenodd;fill:#4d6987;fill-rule:evenodd"
   points="333.258,203.08 332.289,203.08 332.289,202.842 333.258,202.842 "
   id="polygon595" />

	</g>
    <g
       id="g597"
       transform="matrix(0.26458333,0,0,0.26458333,40.77044,-10.064485)">
		<path
   style="clip-rule:evenodd;fill:#6987a1;fill-rule:evenodd"
   d="m 183.548,225.047 c 10.299,-3.937 26.211,-5.813 37.943,-5.813 h 192.222 c 1.406,0 2.552,1.147 2.552,2.552 v 16.003 c 0,5.61 -5.802,5.923 -9.833,4.864 -2.689,-0.707 -4.768,-2.374 -9.006,-2.374 H 184.459 c -1.405,0 -2.552,-1.147 -2.552,-2.552 v -10.296 c 0,-1.079 0.633,-1.998 1.641,-2.384 z"
   id="path596" />

	</g>
    <g
       id="g598"
       transform="matrix(0.26458333,0,0,0.26458333,40.77044,-10.064485)">
		<path
   style="clip-rule:evenodd;fill:#8cabba;fill-rule:evenodd"
   d="m 407.253,242.844 c -0.28,-0.057 -0.555,-0.12 -0.821,-0.191 -2.689,-0.707 -4.768,-2.374 -9.006,-2.374 H 185.838 c -0.142,-0.324 -0.221,-0.684 -0.221,-1.064 V 228.92 c 0,-1.079 0.602,-1.999 1.56,-2.384 9.791,-3.937 24.917,-5.813 36.071,-5.813 H 405.98 c 1.336,0 5.117,1.148 5.117,2.552 v 16.003 c -10e-4,1.579 -3.13,2.739 -3.844,3.566 z"
   id="path597" />

	</g>
    <g
       id="g599"
       transform="matrix(0.26458333,0,0,0.26458333,40.77044,-10.064485)">
		<path
   style="clip-rule:evenodd;fill:#a0bfce;fill-rule:evenodd"
   d="m 405.695,242.433 c -2.357,-0.782 -4.426,-2.153 -8.268,-2.153 H 192.466 c -0.109,-0.284 -0.171,-0.594 -0.171,-0.919 v -9.886 c 0,-1.036 0.578,-1.919 1.498,-2.289 9.406,-3.78 23.936,-5.581 34.65,-5.581 h 171.446 c 1.283,0 4.916,1.101 4.916,2.45 v 15.366 c -0.001,1.27 1.977,2.259 0.89,3.012 z"
   id="path598" />

	</g>
    <g
       id="g600"
       transform="matrix(0.26458333,0,0,0.26458333,40.77044,-10.064485)">
		<path
   style="clip-rule:evenodd;fill:#9a2429;fill-rule:evenodd"
   d="m 416.265,225.926 v 11.864 c 0,5.61 -5.802,5.923 -9.833,4.864 -2.689,-0.707 -4.768,-2.374 -9.006,-2.374 H 184.459 c -1.405,0 -2.552,-1.147 -2.552,-2.552 v -10.296 c 0,-0.563 0.173,-1.083 0.481,-1.506 z"
   id="path599" />

	</g>
    <g
       id="g601"
       transform="matrix(0.26458333,0,0,0.26458333,40.77044,-10.064485)">
		<path
   style="clip-rule:evenodd;fill:#c12025;fill-rule:evenodd"
   d="m 188.806,225.926 h 222.291 v 4.762 c 0,6.719 -15.97,5.486 -20.439,5.486 H 203.763 c -5.349,0 -14.877,0.453 -14.921,-5.497 z"
   id="path600" />

	</g>
    <g
       id="g602"
       transform="matrix(0.26458333,0,0,0.26458333,40.77044,-10.064485)">
		<path
   style="clip-rule:evenodd;fill:#ffffff;fill-rule:evenodd"
   d="m 181.907,228.147 h 5.4 c 0.474,0 0.862,0.383 0.862,0.852 v 9.289 c 0,0.469 -0.388,0.852 -0.862,0.852 h -4.971 c -0.27,-0.405 -0.428,-0.89 -0.428,-1.412 v -9.581 z"
   id="path601" />

	</g>
    <g
       id="g603"
       transform="matrix(0.26458333,0,0,0.26458333,40.77044,-10.064485)">
		<path
   style="clip-rule:evenodd;fill:#8cabba;fill-rule:evenodd"
   d="m 416.265,236.197 v 1.593 c 0,5.61 -5.802,5.923 -9.833,4.864 -1.942,-0.511 -3.566,-1.522 -5.915,-2.045 v -4.412 z"
   id="path602" />

	</g>
    <g
       id="g604"
       transform="matrix(0.26458333,0,0,0.26458333,40.77044,-10.064485)">
		<path
   style="clip-rule:evenodd;fill:#a3b9c6;fill-rule:evenodd"
   d="m 400.517,238.775 v -2.577 h 13.585 c -0.581,4.762 -5.971,4.988 -9.781,3.987 -1.306,-0.344 -2.468,-0.915 -3.804,-1.41 z"
   id="path603" />

	</g>
    <g
       id="g605"
       transform="matrix(0.26458333,0,0,0.26458333,40.77044,-10.064485)">
		<path
   style="clip-rule:evenodd;fill:#c9d5dc;fill-rule:evenodd"
   d="m 400.517,237.533 v -1.335 h 10.28 c -1.759,2.571 -5.89,2.566 -8.981,1.754 -0.446,-0.118 -0.875,-0.261 -1.299,-0.419 z"
   id="path604" />

	</g>
    <g
       id="g606"
       transform="matrix(0.26458333,0,0,0.26458333,40.77044,-10.064485)">
		<path
   style="clip-rule:evenodd;fill:#8cabba;fill-rule:evenodd"
   d="m 352.657,211.428 h -29.793 c -0.803,0 -1.458,0.655 -1.458,1.458 v 6.348 h 32.71 v -6.348 c -10e-4,-0.803 -0.656,-1.458 -1.459,-1.458 z"
   id="path605" />

	</g>
    <g
       id="g607"
       transform="matrix(0.26458333,0,0,0.26458333,40.77044,-10.064485)">
		<path
   style="clip-rule:evenodd;fill:#6987a1;fill-rule:evenodd"
   d="m 321.541,212.275 c -0.086,0.186 -0.135,0.393 -0.135,0.611 v 6.348 h 28.886 v -5.513 c 0,-0.803 -0.655,-1.458 -1.458,-1.458 h -27.102 c -0.065,0 -0.128,0.003 -0.191,0.012 z"
   id="path606" />

	</g>
    <g
       id="g608"
       transform="matrix(0.26458333,0,0,0.26458333,40.77044,-10.064485)">
		<path
   style="clip-rule:evenodd;fill:#4d6987;fill-rule:evenodd"
   d="m 333.107,219.234 v -5.04 c 0,-0.803 -0.655,-1.458 -1.458,-1.458 h -10.235 c -0.005,0.05 -0.008,0.1 -0.008,0.15 v 6.348 z"
   id="path607" />

	</g>
    <g
       id="g609"
       transform="matrix(0.26458333,0,0,0.26458333,40.77044,-10.064485)">
		<path
   style="clip-rule:evenodd;fill:#8cabba;fill-rule:evenodd"
   d="m 406.776,221.231 h 9.427 c 0.04,0.179 0.062,0.365 0.062,0.556 v 2.208 h -9.489 z"
   id="path608" />

	</g>
    <g
       id="g610"
       transform="matrix(0.26458333,0,0,0.26458333,40.77044,-10.064485)">
		<path
   style="clip-rule:evenodd;fill:#a0bfce;fill-rule:evenodd"
   d="m 406.776,221.231 h 6.718 c 1.364,0.466 1.566,1.21 1.566,2.045 v 0.719 h -8.284 z"
   id="path609" />

	</g>
    <g
       id="g611"
       transform="matrix(0.26458333,0,0,0.26458333,40.77044,-10.064485)">
		<path
   style="clip-rule:evenodd;fill:#8cabba;fill-rule:evenodd"
   d="m 391.618,222.479 h -1.071 c -0.036,0 -0.066,0.067 -0.066,0.15 v 1.248 c 0,0.083 0.029,0.15 0.066,0.15 h 1.071 c 0.037,0 0.066,-0.067 0.066,-0.15 v -1.248 c 0,-0.083 -0.03,-0.15 -0.066,-0.15 z"
   id="path610" />

	</g>
    <g
       id="g612"
       transform="matrix(0.26458333,0,0,0.26458333,40.77044,-10.064485)">
		<polygon
   style="clip-rule:evenodd;fill:#6987a1;fill-rule:evenodd"
   points="410.8,219.263 408.236,219.263 408.236,217.553 410.8,217.553 "
   id="polygon611" />

	</g>
    <g
       id="g613"
       transform="matrix(0.26458333,0,0,0.26458333,40.77044,-10.064485)">
		<polygon
   style="clip-rule:evenodd;fill:#8cabba;fill-rule:evenodd"
   points="410.8,219.263 408.833,219.263 408.833,217.553 410.8,217.553 "
   id="polygon612" />

	</g>
    <g
       id="g614"
       transform="matrix(0.26458333,0,0,0.26458333,40.77044,-10.064485)">
		<polygon
   style="clip-rule:evenodd;fill:#6987a1;fill-rule:evenodd"
   points="410.136,217.553 408.901,217.553 408.901,215.843 410.136,215.843 "
   id="polygon613" />

	</g>
    <g
       id="g615"
       transform="matrix(0.26458333,0,0,0.26458333,40.77044,-10.064485)">
		<polygon
   style="clip-rule:evenodd;fill:#8cabba;fill-rule:evenodd"
   points="410.136,217.553 409.498,217.553 409.498,215.843 410.136,215.843 "
   id="polygon614" />

	</g>
    <g
       id="g616"
       transform="matrix(0.26458333,0,0,0.26458333,40.77044,-10.064485)">
		<path
   style="clip-rule:evenodd;fill:#c9d5dc;fill-rule:evenodd"
   d="m 403.414,222.6 h -9.526 c -0.052,0 -0.095,0.043 -0.095,0.095 v 1.139 c 0,0.052 0.043,0.095 0.095,0.095 h 9.526 c 0.052,0 0.095,-0.043 0.095,-0.095 v -1.139 c 0,-0.052 -0.043,-0.095 -0.095,-0.095 z"
   id="path615" />

	</g>
    <g
       id="g617"
       transform="matrix(0.26458333,0,0,0.26458333,40.77044,-10.064485)">
		<path
   style="clip-rule:evenodd;fill:#39506e;fill-rule:evenodd"
   d="m 403.556,222.425 h -9.521 c -0.054,0 -0.098,0.044 -0.098,0.097 v 1.135 c 0,0.054 0.044,0.097 0.098,0.097 h 9.521 c 0.054,0 0.097,-0.044 0.097,-0.097 v -1.135 c 0,-0.053 -0.043,-0.097 -0.097,-0.097 z"
   id="path616" />

	</g>
    <g
       id="g618"
       transform="matrix(0.26458333,0,0,0.26458333,40.77044,-10.064485)">
		<path
   style="clip-rule:evenodd;fill:#c9d5dc;fill-rule:evenodd"
   d="m 375.63,219.234 v 2.551 c 0,0.78 -0.66,1.419 -1.467,1.419 h -19.606 v -3.97 z"
   id="path617" />

	</g>
    <g
       id="g619"
       transform="matrix(0.26458333,0,0,0.26458333,40.77044,-10.064485)">
		<path
   style="clip-rule:evenodd;fill:#c9d5dc;fill-rule:evenodd"
   d="m 340.281,219.234 v 2.551 c 0,0.78 -0.661,1.419 -1.467,1.419 h -19.606 v -3.97 z"
   id="path618" />

	</g>
    <g
       id="g620"
       transform="matrix(0.26458333,0,0,0.26458333,40.77044,-10.064485)">
		<path
   style="clip-rule:evenodd;fill:#c9d5dc;fill-rule:evenodd"
   d="m 288.164,219.234 v 2.551 c 0,0.78 -0.661,1.419 -1.467,1.419 H 267.09 v -3.97 z"
   id="path619" />

	</g>
    <g
       id="g621"
       transform="matrix(0.26458333,0,0,0.26458333,40.77044,-10.064485)">
		<path
   style="clip-rule:evenodd;fill:#c9d5dc;fill-rule:evenodd"
   d="m 250,219.234 v 2.551 c 0,0.78 -0.66,1.419 -1.467,1.419 h -19.606 v -3.97 z"
   id="path620" />

	</g>
    <g
       id="g622"
       transform="matrix(0.26458333,0,0,0.26458333,40.77044,-10.064485)">
		<path
   style="clip-rule:evenodd;fill:#4d6987;fill-rule:evenodd"
   d="m 375.794,219.234 v 2.451 c 0,0.75 -0.66,1.363 -1.467,1.363 h -19.606 v -3.815 h 21.073 z"
   id="path621" />

	</g>
    <g
       id="g623"
       transform="matrix(0.26458333,0,0,0.26458333,40.77044,-10.064485)">
		<path
   style="clip-rule:evenodd;fill:#4d6987;fill-rule:evenodd"
   d="m 340.445,219.234 v 2.451 c 0,0.75 -0.66,1.363 -1.467,1.363 h -19.606 v -3.815 h 21.073 z"
   id="path622" />

	</g>
    <g
       id="g624"
       transform="matrix(0.26458333,0,0,0.26458333,40.77044,-10.064485)">
		<path
   style="clip-rule:evenodd;fill:#4d6987;fill-rule:evenodd"
   d="m 288.328,219.234 v 2.451 c 0,0.75 -0.66,1.363 -1.467,1.363 h -19.606 v -3.815 h 21.073 z"
   id="path623" />

	</g>
    <g
       id="g625"
       transform="matrix(0.26458333,0,0,0.26458333,40.77044,-10.064485)">
		<path
   style="clip-rule:evenodd;fill:#4d6987;fill-rule:evenodd"
   d="m 250.164,219.234 v 2.451 c 0,0.75 -0.66,1.363 -1.467,1.363 h -19.606 v -3.815 h 21.073 z"
   id="path624" />

	</g>
    <g
       id="g626"
       transform="matrix(0.26458333,0,0,0.26458333,40.77044,-10.064485)">
		<path
   style="clip-rule:evenodd;fill:#c9d5dc;fill-rule:evenodd"
   d="m 376.08,219.234 v 2.129 c 0,0.75 -0.66,1.364 -1.467,1.364 h -19.606 v -3.492 h 21.073 z"
   id="path625" />

	</g>
    <g
       id="g627"
       transform="matrix(0.26458333,0,0,0.26458333,40.77044,-10.064485)">
		<path
   style="clip-rule:evenodd;fill:#c9d5dc;fill-rule:evenodd"
   d="m 340.731,219.234 v 2.129 c 0,0.75 -0.66,1.364 -1.467,1.364 h -19.606 v -3.492 h 21.073 z"
   id="path626" />

	</g>
    <g
       id="g628"
       transform="matrix(0.26458333,0,0,0.26458333,40.77044,-10.064485)">
		<path
   style="clip-rule:evenodd;fill:#c9d5dc;fill-rule:evenodd"
   d="m 288.614,219.234 v 2.129 c 0,0.75 -0.66,1.364 -1.467,1.364 H 267.54 v -3.492 h 21.074 z"
   id="path627" />

	</g>
    <g
       id="g629"
       transform="matrix(0.26458333,0,0,0.26458333,40.77044,-10.064485)">
		<path
   style="clip-rule:evenodd;fill:#c9d5dc;fill-rule:evenodd"
   d="m 250.45,219.234 v 2.129 c 0,0.75 -0.66,1.364 -1.467,1.364 h -19.606 v -3.492 h 21.073 z"
   id="path628" />

	</g>
    <g
       id="g630"
       transform="matrix(0.26458333,0,0,0.26458333,40.77044,-10.064485)">
		<path
   style="clip-rule:evenodd;fill:#6987a1;fill-rule:evenodd"
   d="m 374.344,222.727 h -19.337 v -3.492 h 20.804 v 2.129 c 0,0.749 -0.66,1.363 -1.467,1.363 z"
   id="path629" />

	</g>
    <g
       id="g631"
       transform="matrix(0.26458333,0,0,0.26458333,40.77044,-10.064485)">
		<path
   style="clip-rule:evenodd;fill:#6987a1;fill-rule:evenodd"
   d="m 338.995,222.727 h -19.337 v -3.492 h 20.804 v 2.129 c 0,0.749 -0.661,1.363 -1.467,1.363 z"
   id="path630" />

	</g>
    <g
       id="g632"
       transform="matrix(0.26458333,0,0,0.26458333,40.77044,-10.064485)">
		<path
   style="clip-rule:evenodd;fill:#6987a1;fill-rule:evenodd"
   d="M 286.878,222.727 H 267.54 v -3.492 h 20.804 v 2.129 c 0.001,0.749 -0.66,1.363 -1.466,1.363 z"
   id="path631" />

	</g>
    <g
       id="g633"
       transform="matrix(0.26458333,0,0,0.26458333,40.77044,-10.064485)">
		<path
   style="clip-rule:evenodd;fill:#6987a1;fill-rule:evenodd"
   d="m 248.714,222.727 h -19.337 v -3.492 h 20.804 v 2.129 c 0,0.749 -0.66,1.363 -1.467,1.363 z"
   id="path632" />

	</g>
    <g
       id="g634"
       transform="matrix(0.26458333,0,0,0.26458333,40.77044,-10.064485)">
		<path
   style="clip-rule:evenodd;fill:#c9d5dc;fill-rule:evenodd"
   d="m 376.08,220.723 v 0.64 c 0,0.75 -0.66,1.364 -1.467,1.364 h -19.606 v -2.004 z"
   id="path633" />

	</g>
    <g
       id="g635"
       transform="matrix(0.26458333,0,0,0.26458333,40.77044,-10.064485)">
		<path
   style="clip-rule:evenodd;fill:#c9d5dc;fill-rule:evenodd"
   d="m 340.731,220.723 v 0.64 c 0,0.75 -0.66,1.364 -1.467,1.364 h -19.606 v -2.004 z"
   id="path634" />

	</g>
    <g
       id="g636"
       transform="matrix(0.26458333,0,0,0.26458333,40.77044,-10.064485)">
		<path
   style="clip-rule:evenodd;fill:#c9d5dc;fill-rule:evenodd"
   d="m 288.614,220.723 v 0.64 c 0,0.75 -0.66,1.364 -1.467,1.364 H 267.54 v -2.004 z"
   id="path635" />

	</g>
    <g
       id="g637"
       transform="matrix(0.26458333,0,0,0.26458333,40.77044,-10.064485)">
		<path
   style="clip-rule:evenodd;fill:#c9d5dc;fill-rule:evenodd"
   d="m 250.45,220.723 v 0.64 c 0,0.75 -0.66,1.364 -1.467,1.364 h -19.606 v -2.004 z"
   id="path636" />

	</g>
    <g
       id="g638"
       transform="matrix(0.26458333,0,0,0.26458333,40.77044,-10.064485)">
		<path
   style="clip-rule:evenodd;fill:#8cabba;fill-rule:evenodd"
   d="m 374.344,222.727 h -19.337 v -2.004 h 20.804 v 0.64 c 0,0.75 -0.66,1.364 -1.467,1.364 z"
   id="path637" />

	</g>
    <g
       id="g639"
       transform="matrix(0.26458333,0,0,0.26458333,40.77044,-10.064485)">
		<path
   style="clip-rule:evenodd;fill:#a0bfce;fill-rule:evenodd"
   d="m 374.344,222.727 h -19.337 v -1.122 h 20.781 c -0.123,0.635 -0.725,1.122 -1.444,1.122 z"
   id="path638" />

	</g>
    <g
       id="g640"
       transform="matrix(0.26458333,0,0,0.26458333,40.77044,-10.064485)">
		<path
   style="clip-rule:evenodd;fill:#8cabba;fill-rule:evenodd"
   d="m 338.995,222.727 h -19.337 v -2.004 h 20.804 v 0.64 c 0,0.75 -0.661,1.364 -1.467,1.364 z"
   id="path639" />

	</g>
    <g
       id="g641"
       transform="matrix(0.26458333,0,0,0.26458333,40.77044,-10.064485)">
		<path
   style="clip-rule:evenodd;fill:#a0bfce;fill-rule:evenodd"
   d="m 338.995,222.727 h -19.337 v -1.122 h 20.781 c -0.124,0.635 -0.726,1.122 -1.444,1.122 z"
   id="path640" />

	</g>
    <g
       id="g642"
       transform="matrix(0.26458333,0,0,0.26458333,40.77044,-10.064485)">
		<path
   style="clip-rule:evenodd;fill:#8cabba;fill-rule:evenodd"
   d="M 286.878,222.727 H 267.54 v -2.004 h 20.804 v 0.64 c 0.001,0.75 -0.66,1.364 -1.466,1.364 z"
   id="path641" />

	</g>
    <g
       id="g643"
       transform="matrix(0.26458333,0,0,0.26458333,40.77044,-10.064485)">
		<path
   style="clip-rule:evenodd;fill:#a0bfce;fill-rule:evenodd"
   d="M 286.878,222.727 H 267.54 v -1.122 h 20.781 c -0.123,0.635 -0.725,1.122 -1.443,1.122 z"
   id="path642" />

	</g>
    <g
       id="g644"
       transform="matrix(0.26458333,0,0,0.26458333,40.77044,-10.064485)">
		<path
   style="clip-rule:evenodd;fill:#8cabba;fill-rule:evenodd"
   d="m 248.714,222.727 h -19.337 v -2.004 h 20.804 v 0.64 c 0,0.75 -0.66,1.364 -1.467,1.364 z"
   id="path643" />

	</g>
    <g
       id="g645"
       transform="matrix(0.26458333,0,0,0.26458333,40.77044,-10.064485)">
		<path
   style="clip-rule:evenodd;fill:#a0bfce;fill-rule:evenodd"
   d="m 248.714,222.727 h -19.337 v -1.122 h 20.781 c -0.123,0.635 -0.725,1.122 -1.444,1.122 z"
   id="path644" />

	</g>
    <g
       id="g646"
       transform="matrix(0.26458333,0,0,0.26458333,40.77044,-10.064485)">
		<path
   style="clip-rule:evenodd;fill:#c9d5dc;fill-rule:evenodd"
   d="m 391.516,222.538 h -0.886 c -0.059,0 -0.107,0.11 -0.107,0.245 v 0.927 c 0,0.135 0.048,0.245 0.107,0.245 h 0.886 c 0.059,0 0.107,-0.11 0.107,-0.245 v -0.927 c 0.001,-0.135 -0.047,-0.245 -0.107,-0.245 z"
   id="path645" />

	</g>
    <g
       id="g647"
       transform="matrix(0.26458333,0,0,0.26458333,40.77044,-10.064485)">
		<path
   style="clip-rule:evenodd;fill:#39506e;fill-rule:evenodd"
   d="m 391.667,222.416 h -0.886 c -0.059,0 -0.107,0.11 -0.107,0.245 v 0.927 c 0,0.135 0.048,0.245 0.107,0.245 h 0.886 c 0.059,0 0.107,-0.11 0.107,-0.245 v -0.927 c 0,-0.135 -0.048,-0.245 -0.107,-0.245 z"
   id="path646" />

	</g>
    <g
       id="g648"
       transform="matrix(0.26458333,0,0,0.26458333,40.77044,-10.064485)">
		<path
   style="clip-rule:evenodd;fill:#c9d5dc;fill-rule:evenodd"
   d="m 382.549,222.538 h -0.886 c -0.059,0 -0.107,0.11 -0.107,0.245 v 0.927 c 0,0.135 0.049,0.245 0.107,0.245 h 0.886 c 0.059,0 0.107,-0.11 0.107,-0.245 v -0.927 c 10e-4,-0.135 -0.047,-0.245 -0.107,-0.245 z"
   id="path647" />

	</g>
    <g
       id="g649"
       transform="matrix(0.26458333,0,0,0.26458333,40.77044,-10.064485)">
		<path
   style="clip-rule:evenodd;fill:#39506e;fill-rule:evenodd"
   d="m 382.7,222.416 h -0.886 c -0.059,0 -0.107,0.11 -0.107,0.245 v 0.927 c 0,0.135 0.048,0.245 0.107,0.245 h 0.886 c 0.059,0 0.107,-0.11 0.107,-0.245 v -0.927 c 0,-0.135 -0.048,-0.245 -0.107,-0.245 z"
   id="path648" />

	</g>
    <g
       id="g650"
       transform="matrix(0.26458333,0,0,0.26458333,40.77044,-10.064485)">
		<path
   style="clip-rule:evenodd;fill:#c9d5dc;fill-rule:evenodd"
   d="m 389.73,222.538 h -0.886 c -0.059,0 -0.107,0.11 -0.107,0.245 v 0.927 c 0,0.135 0.048,0.245 0.107,0.245 h 0.886 c 0.059,0 0.107,-0.11 0.107,-0.245 v -0.927 c 0,-0.135 -0.048,-0.245 -0.107,-0.245 z"
   id="path649" />

	</g>
    <g
       id="g651"
       transform="matrix(0.26458333,0,0,0.26458333,40.77044,-10.064485)">
		<path
   style="clip-rule:evenodd;fill:#39506e;fill-rule:evenodd"
   d="m 389.88,222.416 h -0.886 c -0.059,0 -0.107,0.11 -0.107,0.245 v 0.927 c 0,0.135 0.048,0.245 0.107,0.245 h 0.886 c 0.059,0 0.107,-0.11 0.107,-0.245 v -0.927 c 10e-4,-0.135 -0.047,-0.245 -0.107,-0.245 z"
   id="path650" />

	</g>
    <g
       id="g652"
       transform="matrix(0.26458333,0,0,0.26458333,40.77044,-10.064485)">
		<path
   style="clip-rule:evenodd;fill:#c9d5dc;fill-rule:evenodd"
   d="m 380.763,222.538 h -0.886 c -0.059,0 -0.107,0.11 -0.107,0.245 v 0.927 c 0,0.135 0.048,0.245 0.107,0.245 h 0.886 c 0.059,0 0.107,-0.11 0.107,-0.245 v -0.927 c 0,-0.135 -0.048,-0.245 -0.107,-0.245 z"
   id="path651" />

	</g>
    <g
       id="g653"
       transform="matrix(0.26458333,0,0,0.26458333,40.77044,-10.064485)">
		<path
   style="clip-rule:evenodd;fill:#39506e;fill-rule:evenodd"
   d="m 380.913,222.416 h -0.886 c -0.059,0 -0.107,0.11 -0.107,0.245 v 0.927 c 0,0.135 0.048,0.245 0.107,0.245 h 0.886 c 0.059,0 0.107,-0.11 0.107,-0.245 v -0.927 c 0.001,-0.135 -0.047,-0.245 -0.107,-0.245 z"
   id="path652" />

	</g>
    <g
       id="g654"
       transform="matrix(0.26458333,0,0,0.26458333,40.77044,-10.064485)">
		<path
   style="clip-rule:evenodd;fill:#c9d5dc;fill-rule:evenodd"
   d="m 386.906,221.513 h -0.886 c -0.059,0 -0.107,0.11 -0.107,0.245 v 0.927 c 0,0.135 0.048,0.245 0.107,0.245 h 0.886 c 0.059,0 0.107,-0.11 0.107,-0.245 v -0.927 c 0,-0.135 -0.048,-0.245 -0.107,-0.245 z"
   id="path653" />

	</g>
    <g
       id="g655"
       transform="matrix(0.26458333,0,0,0.26458333,40.77044,-10.064485)">
		<path
   style="clip-rule:evenodd;fill:#39506e;fill-rule:evenodd"
   d="m 387.057,221.391 h -0.886 c -0.059,0 -0.107,0.11 -0.107,0.245 v 0.927 c 0,0.135 0.048,0.245 0.107,0.245 h 0.886 c 0.059,0 0.107,-0.11 0.107,-0.245 v -0.927 c 0,-0.136 -0.048,-0.245 -0.107,-0.245 z"
   id="path654" />

	</g>
    <g
       id="g656"
       transform="matrix(0.26458333,0,0,0.26458333,40.77044,-10.064485)">
		<path
   style="clip-rule:evenodd;fill:#c9d5dc;fill-rule:evenodd"
   d="m 385.119,221.513 h -0.886 c -0.059,0 -0.107,0.11 -0.107,0.245 v 0.927 c 0,0.135 0.049,0.245 0.107,0.245 h 0.886 c 0.059,0 0.107,-0.11 0.107,-0.245 v -0.927 c 10e-4,-0.135 -0.047,-0.245 -0.107,-0.245 z"
   id="path655" />

	</g>
    <g
       id="g657"
       transform="matrix(0.26458333,0,0,0.26458333,40.77044,-10.064485)">
		<path
   style="clip-rule:evenodd;fill:#39506e;fill-rule:evenodd"
   d="m 385.27,221.391 h -0.886 c -0.059,0 -0.107,0.11 -0.107,0.245 v 0.927 c 0,0.135 0.048,0.245 0.107,0.245 h 0.886 c 0.059,0 0.107,-0.11 0.107,-0.245 v -0.927 c 0,-0.136 -0.048,-0.245 -0.107,-0.245 z"
   id="path656" />

	</g>
    <g
       id="g658"
       transform="matrix(0.26458333,0,0,0.26458333,40.77044,-10.064485)">
		<path
   style="clip-rule:evenodd;fill:#c9d5dc;fill-rule:evenodd"
   d="m 374.899,223.929 h -0.886 c -0.059,0 -0.107,0.11 -0.107,0.245 v 0.927 c 0,0.135 0.048,0.245 0.107,0.245 h 0.886 c 0.059,0 0.107,-0.11 0.107,-0.245 v -0.927 c 0.001,-0.135 -0.048,-0.245 -0.107,-0.245 z"
   id="path657" />

	</g>
    <g
       id="g659"
       transform="matrix(0.26458333,0,0,0.26458333,40.77044,-10.064485)">
		<path
   style="clip-rule:evenodd;fill:#39506e;fill-rule:evenodd"
   d="m 375.05,223.806 h -0.886 c -0.059,0 -0.107,0.11 -0.107,0.245 v 0.927 c 0,0.135 0.048,0.245 0.107,0.245 h 0.886 c 0.059,0 0.107,-0.11 0.107,-0.245 v -0.927 c 0,-0.135 -0.048,-0.245 -0.107,-0.245 z"
   id="path658" />

	</g>
    <g
       id="g660"
       transform="matrix(0.26458333,0,0,0.26458333,40.77044,-10.064485)">
		<path
   style="clip-rule:evenodd;fill:#c9d5dc;fill-rule:evenodd"
   d="m 283.98,223.929 h -0.886 c -0.059,0 -0.107,0.11 -0.107,0.245 v 0.927 c 0,0.135 0.048,0.245 0.107,0.245 h 0.886 c 0.059,0 0.107,-0.11 0.107,-0.245 v -0.927 c 0,-0.135 -0.048,-0.245 -0.107,-0.245 z"
   id="path659" />

	</g>
    <g
       id="g661"
       transform="matrix(0.26458333,0,0,0.26458333,40.77044,-10.064485)">
		<path
   style="clip-rule:evenodd;fill:#39506e;fill-rule:evenodd"
   d="m 284.13,223.806 h -0.886 c -0.059,0 -0.107,0.11 -0.107,0.245 v 0.927 c 0,0.135 0.048,0.245 0.107,0.245 h 0.886 c 0.059,0 0.107,-0.11 0.107,-0.245 v -0.927 c 0,-0.135 -0.048,-0.245 -0.107,-0.245 z"
   id="path660" />

	</g>
    <g
       id="g662"
       transform="matrix(0.26458333,0,0,0.26458333,40.77044,-10.064485)">
		<path
   style="clip-rule:evenodd;fill:#c9d5dc;fill-rule:evenodd"
   d="m 372.943,223.929 h -0.886 c -0.059,0 -0.107,0.11 -0.107,0.245 v 0.927 c 0,0.135 0.048,0.245 0.107,0.245 h 0.886 c 0.059,0 0.107,-0.11 0.107,-0.245 v -0.927 c 0,-0.135 -0.048,-0.245 -0.107,-0.245 z"
   id="path661" />

	</g>
    <g
       id="g663"
       transform="matrix(0.26458333,0,0,0.26458333,40.77044,-10.064485)">
		<path
   style="clip-rule:evenodd;fill:#39506e;fill-rule:evenodd"
   d="m 373.094,223.806 h -0.886 c -0.059,0 -0.107,0.11 -0.107,0.245 v 0.927 c 0,0.135 0.048,0.245 0.107,0.245 h 0.886 c 0.059,0 0.107,-0.11 0.107,-0.245 v -0.927 c 0,-0.135 -0.048,-0.245 -0.107,-0.245 z"
   id="path662" />

	</g>
    <g
       id="g664"
       transform="matrix(0.26458333,0,0,0.26458333,40.77044,-10.064485)">
		<path
   style="clip-rule:evenodd;fill:#c9d5dc;fill-rule:evenodd"
   d="m 282.023,223.929 h -0.886 c -0.059,0 -0.107,0.11 -0.107,0.245 v 0.927 c 0,0.135 0.048,0.245 0.107,0.245 h 0.886 c 0.059,0 0.107,-0.11 0.107,-0.245 v -0.927 c 10e-4,-0.135 -0.048,-0.245 -0.107,-0.245 z"
   id="path663" />

	</g>
    <g
       id="g665"
       transform="matrix(0.26458333,0,0,0.26458333,40.77044,-10.064485)">
		<path
   style="clip-rule:evenodd;fill:#39506e;fill-rule:evenodd"
   d="m 282.174,223.806 h -0.886 c -0.059,0 -0.107,0.11 -0.107,0.245 v 0.927 c 0,0.135 0.048,0.245 0.107,0.245 h 0.886 c 0.059,0 0.107,-0.11 0.107,-0.245 v -0.927 c 0,-0.135 -0.048,-0.245 -0.107,-0.245 z"
   id="path664" />

	</g>
    <g
       id="g666"
       transform="matrix(0.26458333,0,0,0.26458333,40.77044,-10.064485)">
		<path
   style="clip-rule:evenodd;fill:#c9d5dc;fill-rule:evenodd"
   d="m 370.987,223.929 h -0.886 c -0.059,0 -0.107,0.11 -0.107,0.245 v 0.927 c 0,0.135 0.048,0.245 0.107,0.245 h 0.886 c 0.059,0 0.107,-0.11 0.107,-0.245 v -0.927 c 0,-0.135 -0.048,-0.245 -0.107,-0.245 z"
   id="path665" />

	</g>
    <g
       id="g667"
       transform="matrix(0.26458333,0,0,0.26458333,40.77044,-10.064485)">
		<path
   style="clip-rule:evenodd;fill:#39506e;fill-rule:evenodd"
   d="m 371.138,223.806 h -0.886 c -0.059,0 -0.107,0.11 -0.107,0.245 v 0.927 c 0,0.135 0.048,0.245 0.107,0.245 h 0.886 c 0.059,0 0.107,-0.11 0.107,-0.245 v -0.927 c 0,-0.135 -0.048,-0.245 -0.107,-0.245 z"
   id="path666" />

	</g>
    <g
       id="g668"
       transform="matrix(0.26458333,0,0,0.26458333,40.77044,-10.064485)">
		<path
   style="clip-rule:evenodd;fill:#c9d5dc;fill-rule:evenodd"
   d="m 280.067,223.929 h -0.886 c -0.059,0 -0.107,0.11 -0.107,0.245 v 0.927 c 0,0.135 0.048,0.245 0.107,0.245 h 0.886 c 0.059,0 0.107,-0.11 0.107,-0.245 v -0.927 c 0,-0.135 -0.048,-0.245 -0.107,-0.245 z"
   id="path667" />

	</g>
    <g
       id="g669"
       transform="matrix(0.26458333,0,0,0.26458333,40.77044,-10.064485)">
		<path
   style="clip-rule:evenodd;fill:#39506e;fill-rule:evenodd"
   d="m 280.218,223.806 h -0.886 c -0.059,0 -0.107,0.11 -0.107,0.245 v 0.927 c 0,0.135 0.048,0.245 0.107,0.245 h 0.886 c 0.059,0 0.107,-0.11 0.107,-0.245 v -0.927 c 0,-0.135 -0.048,-0.245 -0.107,-0.245 z"
   id="path668" />

	</g>
    <g
       id="g670"
       transform="matrix(0.26458333,0,0,0.26458333,40.77044,-10.064485)">
		<path
   style="clip-rule:evenodd;fill:#c9d5dc;fill-rule:evenodd"
   d="m 369.031,223.929 h -0.886 c -0.059,0 -0.107,0.11 -0.107,0.245 v 0.927 c 0,0.135 0.048,0.245 0.107,0.245 h 0.886 c 0.059,0 0.107,-0.11 0.107,-0.245 v -0.927 c 0,-0.135 -0.048,-0.245 -0.107,-0.245 z"
   id="path669" />

	</g>
    <g
       id="g671"
       transform="matrix(0.26458333,0,0,0.26458333,40.77044,-10.064485)">
		<path
   style="clip-rule:evenodd;fill:#39506e;fill-rule:evenodd"
   d="m 369.181,223.806 h -0.886 c -0.059,0 -0.107,0.11 -0.107,0.245 v 0.927 c 0,0.135 0.048,0.245 0.107,0.245 h 0.886 c 0.059,0 0.107,-0.11 0.107,-0.245 v -0.927 c 10e-4,-0.135 -0.048,-0.245 -0.107,-0.245 z"
   id="path670" />

	</g>
    <g
       id="g672"
       transform="matrix(0.26458333,0,0,0.26458333,40.77044,-10.064485)">
		<path
   style="clip-rule:evenodd;fill:#c9d5dc;fill-rule:evenodd"
   d="m 278.111,223.929 h -0.886 c -0.059,0 -0.107,0.11 -0.107,0.245 v 0.927 c 0,0.135 0.048,0.245 0.107,0.245 h 0.886 c 0.059,0 0.107,-0.11 0.107,-0.245 v -0.927 c 0,-0.135 -0.048,-0.245 -0.107,-0.245 z"
   id="path671" />

	</g>
    <g
       id="g673"
       transform="matrix(0.26458333,0,0,0.26458333,40.77044,-10.064485)">
		<path
   style="clip-rule:evenodd;fill:#39506e;fill-rule:evenodd"
   d="m 278.261,223.806 h -0.886 c -0.059,0 -0.107,0.11 -0.107,0.245 v 0.927 c 0,0.135 0.048,0.245 0.107,0.245 h 0.886 c 0.059,0 0.107,-0.11 0.107,-0.245 v -0.927 c 0.001,-0.135 -0.047,-0.245 -0.107,-0.245 z"
   id="path672" />

	</g>
    <g
       id="g674"
       transform="matrix(0.26458333,0,0,0.26458333,40.77044,-10.064485)">
		<path
   style="clip-rule:evenodd;fill:#c9d5dc;fill-rule:evenodd"
   d="m 367.074,223.929 h -0.886 c -0.059,0 -0.107,0.11 -0.107,0.245 v 0.927 c 0,0.135 0.048,0.245 0.107,0.245 h 0.886 c 0.059,0 0.107,-0.11 0.107,-0.245 v -0.927 c 0.001,-0.135 -0.047,-0.245 -0.107,-0.245 z"
   id="path673" />

	</g>
    <g
       id="g675"
       transform="matrix(0.26458333,0,0,0.26458333,40.77044,-10.064485)">
		<path
   style="clip-rule:evenodd;fill:#39506e;fill-rule:evenodd"
   d="m 367.225,223.806 h -0.886 c -0.059,0 -0.107,0.11 -0.107,0.245 v 0.927 c 0,0.135 0.048,0.245 0.107,0.245 h 0.886 c 0.059,0 0.107,-0.11 0.107,-0.245 v -0.927 c 0.001,-0.135 -0.048,-0.245 -0.107,-0.245 z"
   id="path674" />

	</g>
    <g
       id="g676"
       transform="matrix(0.26458333,0,0,0.26458333,40.77044,-10.064485)">
		<path
   style="clip-rule:evenodd;fill:#c9d5dc;fill-rule:evenodd"
   d="m 276.154,223.929 h -0.886 c -0.059,0 -0.107,0.11 -0.107,0.245 v 0.927 c 0,0.135 0.048,0.245 0.107,0.245 h 0.886 c 0.059,0 0.107,-0.11 0.107,-0.245 v -0.927 c 10e-4,-0.135 -0.047,-0.245 -0.107,-0.245 z"
   id="path675" />

	</g>
    <g
       id="g677"
       transform="matrix(0.26458333,0,0,0.26458333,40.77044,-10.064485)">
		<path
   style="clip-rule:evenodd;fill:#39506e;fill-rule:evenodd"
   d="m 276.305,223.806 h -0.886 c -0.059,0 -0.107,0.11 -0.107,0.245 v 0.927 c 0,0.135 0.048,0.245 0.107,0.245 h 0.886 c 0.059,0 0.107,-0.11 0.107,-0.245 v -0.927 c 0.001,-0.135 -0.048,-0.245 -0.107,-0.245 z"
   id="path676" />

	</g>
    <g
       id="g678"
       transform="matrix(0.26458333,0,0,0.26458333,40.77044,-10.064485)">
		<path
   style="clip-rule:evenodd;fill:#c9d5dc;fill-rule:evenodd"
   d="m 219.346,223.929 h -0.886 c -0.059,0 -0.107,0.11 -0.107,0.245 v 0.927 c 0,0.135 0.048,0.245 0.107,0.245 h 0.886 c 0.059,0 0.107,-0.11 0.107,-0.245 v -0.927 c 0,-0.135 -0.048,-0.245 -0.107,-0.245 z"
   id="path677" />

	</g>
    <g
       id="g679"
       transform="matrix(0.26458333,0,0,0.26458333,40.77044,-10.064485)">
		<path
   style="clip-rule:evenodd;fill:#39506e;fill-rule:evenodd"
   d="m 219.496,223.806 h -0.886 c -0.059,0 -0.107,0.11 -0.107,0.245 v 0.927 c 0,0.135 0.048,0.245 0.107,0.245 h 0.886 c 0.059,0 0.107,-0.11 0.107,-0.245 v -0.927 c 0.001,-0.135 -0.047,-0.245 -0.107,-0.245 z"
   id="path678" />

	</g>
    <g
       id="g680"
       transform="matrix(0.26458333,0,0,0.26458333,40.77044,-10.064485)">
		<path
   style="clip-rule:evenodd;fill:#c9d5dc;fill-rule:evenodd"
   d="m 365.118,223.929 h -0.886 c -0.059,0 -0.107,0.11 -0.107,0.245 v 0.927 c 0,0.135 0.049,0.245 0.107,0.245 h 0.886 c 0.059,0 0.107,-0.11 0.107,-0.245 v -0.927 c 10e-4,-0.135 -0.048,-0.245 -0.107,-0.245 z"
   id="path679" />

	</g>
    <g
       id="g681"
       transform="matrix(0.26458333,0,0,0.26458333,40.77044,-10.064485)">
		<path
   style="clip-rule:evenodd;fill:#39506e;fill-rule:evenodd"
   d="m 365.269,223.806 h -0.886 c -0.059,0 -0.107,0.11 -0.107,0.245 v 0.927 c 0,0.135 0.048,0.245 0.107,0.245 h 0.886 c 0.059,0 0.107,-0.11 0.107,-0.245 v -0.927 c 0,-0.135 -0.048,-0.245 -0.107,-0.245 z"
   id="path680" />

	</g>
    <g
       id="g682"
       transform="matrix(0.26458333,0,0,0.26458333,40.77044,-10.064485)">
		<path
   style="clip-rule:evenodd;fill:#c9d5dc;fill-rule:evenodd"
   d="m 274.198,223.929 h -0.886 c -0.059,0 -0.107,0.11 -0.107,0.245 v 0.927 c 0,0.135 0.048,0.245 0.107,0.245 h 0.886 c 0.059,0 0.107,-0.11 0.107,-0.245 v -0.927 c 10e-4,-0.135 -0.047,-0.245 -0.107,-0.245 z"
   id="path681" />

	</g>
    <g
       id="g683"
       transform="matrix(0.26458333,0,0,0.26458333,40.77044,-10.064485)">
		<path
   style="clip-rule:evenodd;fill:#39506e;fill-rule:evenodd"
   d="m 274.349,223.806 h -0.886 c -0.059,0 -0.107,0.11 -0.107,0.245 v 0.927 c 0,0.135 0.048,0.245 0.107,0.245 h 0.886 c 0.059,0 0.107,-0.11 0.107,-0.245 v -0.927 c 10e-4,-0.135 -0.048,-0.245 -0.107,-0.245 z"
   id="path682" />

	</g>
    <g
       id="g684"
       transform="matrix(0.26458333,0,0,0.26458333,40.77044,-10.064485)">
		<path
   style="clip-rule:evenodd;fill:#c9d5dc;fill-rule:evenodd"
   d="m 217.39,223.929 h -0.886 c -0.059,0 -0.107,0.11 -0.107,0.245 v 0.927 c 0,0.135 0.048,0.245 0.107,0.245 h 0.886 c 0.059,0 0.107,-0.11 0.107,-0.245 v -0.927 c 0,-0.135 -0.048,-0.245 -0.107,-0.245 z"
   id="path683" />

	</g>
    <g
       id="g685"
       transform="matrix(0.26458333,0,0,0.26458333,40.77044,-10.064485)">
		<path
   style="clip-rule:evenodd;fill:#39506e;fill-rule:evenodd"
   d="m 217.54,223.806 h -0.886 c -0.059,0 -0.107,0.11 -0.107,0.245 v 0.927 c 0,0.135 0.048,0.245 0.107,0.245 h 0.886 c 0.059,0 0.107,-0.11 0.107,-0.245 v -0.927 c 0.001,-0.135 -0.047,-0.245 -0.107,-0.245 z"
   id="path684" />

	</g>
    <g
       id="g686"
       transform="matrix(0.26458333,0,0,0.26458333,40.77044,-10.064485)">
		<path
   style="clip-rule:evenodd;fill:#c9d5dc;fill-rule:evenodd"
   d="m 363.162,223.929 h -0.886 c -0.059,0 -0.107,0.11 -0.107,0.245 v 0.927 c 0,0.135 0.048,0.245 0.107,0.245 h 0.886 c 0.059,0 0.107,-0.11 0.107,-0.245 v -0.927 c 0,-0.135 -0.048,-0.245 -0.107,-0.245 z"
   id="path685" />

	</g>
    <g
       id="g687"
       transform="matrix(0.26458333,0,0,0.26458333,40.77044,-10.064485)">
		<path
   style="clip-rule:evenodd;fill:#39506e;fill-rule:evenodd"
   d="m 363.313,223.806 h -0.886 c -0.059,0 -0.107,0.11 -0.107,0.245 v 0.927 c 0,0.135 0.048,0.245 0.107,0.245 h 0.886 c 0.059,0 0.107,-0.11 0.107,-0.245 v -0.927 c 0,-0.135 -0.048,-0.245 -0.107,-0.245 z"
   id="path686" />

	</g>
    <g
       id="g688"
       transform="matrix(0.26458333,0,0,0.26458333,40.77044,-10.064485)">
		<path
   style="clip-rule:evenodd;fill:#c9d5dc;fill-rule:evenodd"
   d="m 272.242,223.929 h -0.886 c -0.059,0 -0.107,0.11 -0.107,0.245 v 0.927 c 0,0.135 0.048,0.245 0.107,0.245 h 0.886 c 0.059,0 0.107,-0.11 0.107,-0.245 v -0.927 c 0.001,-0.135 -0.048,-0.245 -0.107,-0.245 z"
   id="path687" />

	</g>
    <g
       id="g689"
       transform="matrix(0.26458333,0,0,0.26458333,40.77044,-10.064485)">
		<path
   style="clip-rule:evenodd;fill:#39506e;fill-rule:evenodd"
   d="m 272.393,223.806 h -0.886 c -0.059,0 -0.107,0.11 -0.107,0.245 v 0.927 c 0,0.135 0.048,0.245 0.107,0.245 h 0.886 c 0.059,0 0.107,-0.11 0.107,-0.245 v -0.927 c 0,-0.135 -0.048,-0.245 -0.107,-0.245 z"
   id="path688" />

	</g>
    <g
       id="g690"
       transform="matrix(0.26458333,0,0,0.26458333,40.77044,-10.064485)">
		<path
   style="clip-rule:evenodd;fill:#c9d5dc;fill-rule:evenodd"
   d="m 215.434,223.929 h -0.886 c -0.059,0 -0.107,0.11 -0.107,0.245 v 0.927 c 0,0.135 0.048,0.245 0.107,0.245 h 0.886 c 0.059,0 0.107,-0.11 0.107,-0.245 v -0.927 c 0,-0.135 -0.048,-0.245 -0.107,-0.245 z"
   id="path689" />

	</g>
    <g
       id="g691"
       transform="matrix(0.26458333,0,0,0.26458333,40.77044,-10.064485)">
		<path
   style="clip-rule:evenodd;fill:#39506e;fill-rule:evenodd"
   d="m 215.584,223.806 h -0.886 c -0.059,0 -0.107,0.11 -0.107,0.245 v 0.927 c 0,0.135 0.048,0.245 0.107,0.245 h 0.886 c 0.059,0 0.107,-0.11 0.107,-0.245 v -0.927 c 0.001,-0.135 -0.048,-0.245 -0.107,-0.245 z"
   id="path690" />

	</g>
    <g
       id="g692"
       transform="matrix(0.26458333,0,0,0.26458333,40.77044,-10.064485)">
		<path
   style="clip-rule:evenodd;fill:#c9d5dc;fill-rule:evenodd"
   d="m 359.723,223.929 h -0.886 c -0.059,0 -0.107,0.11 -0.107,0.245 v 0.927 c 0,0.135 0.048,0.245 0.107,0.245 h 0.886 c 0.059,0 0.107,-0.11 0.107,-0.245 v -0.927 c 0.001,-0.135 -0.048,-0.245 -0.107,-0.245 z"
   id="path691" />

	</g>
    <g
       id="g693"
       transform="matrix(0.26458333,0,0,0.26458333,40.77044,-10.064485)">
		<path
   style="clip-rule:evenodd;fill:#39506e;fill-rule:evenodd"
   d="m 359.874,223.806 h -0.886 c -0.059,0 -0.107,0.11 -0.107,0.245 v 0.927 c 0,0.135 0.048,0.245 0.107,0.245 h 0.886 c 0.059,0 0.107,-0.11 0.107,-0.245 v -0.927 c 0,-0.135 -0.048,-0.245 -0.107,-0.245 z"
   id="path692" />

	</g>
    <g
       id="g694"
       transform="matrix(0.26458333,0,0,0.26458333,40.77044,-10.064485)">
		<path
   style="clip-rule:evenodd;fill:#c9d5dc;fill-rule:evenodd"
   d="m 356.284,223.929 h -0.886 c -0.059,0 -0.107,0.11 -0.107,0.245 v 0.927 c 0,0.135 0.048,0.245 0.107,0.245 h 0.886 c 0.059,0 0.107,-0.11 0.107,-0.245 v -0.927 c 10e-4,-0.135 -0.047,-0.245 -0.107,-0.245 z"
   id="path693" />

	</g>
    <g
       id="g695"
       transform="matrix(0.26458333,0,0,0.26458333,40.77044,-10.064485)">
		<path
   style="clip-rule:evenodd;fill:#39506e;fill-rule:evenodd"
   d="m 356.435,223.806 h -0.886 c -0.059,0 -0.107,0.11 -0.107,0.245 v 0.927 c 0,0.135 0.048,0.245 0.107,0.245 h 0.886 c 0.059,0 0.107,-0.11 0.107,-0.245 v -0.927 c 0.001,-0.135 -0.048,-0.245 -0.107,-0.245 z"
   id="path694" />

	</g>
    <g
       id="g696"
       transform="matrix(0.26458333,0,0,0.26458333,40.77044,-10.064485)">
		<path
   style="clip-rule:evenodd;fill:#c9d5dc;fill-rule:evenodd"
   d="m 352.846,223.929 h -0.886 c -0.059,0 -0.107,0.11 -0.107,0.245 v 0.927 c 0,0.135 0.048,0.245 0.107,0.245 h 0.886 c 0.059,0 0.107,-0.11 0.107,-0.245 v -0.927 c 0,-0.135 -0.048,-0.245 -0.107,-0.245 z"
   id="path695" />

	</g>
    <g
       id="g697"
       transform="matrix(0.26458333,0,0,0.26458333,40.77044,-10.064485)">
		<path
   style="clip-rule:evenodd;fill:#39506e;fill-rule:evenodd"
   d="m 352.996,223.806 h -0.886 c -0.059,0 -0.107,0.11 -0.107,0.245 v 0.927 c 0,0.135 0.048,0.245 0.107,0.245 h 0.886 c 0.059,0 0.107,-0.11 0.107,-0.245 v -0.927 c 10e-4,-0.135 -0.048,-0.245 -0.107,-0.245 z"
   id="path696" />

	</g>
    <g
       id="g698"
       transform="matrix(0.26458333,0,0,0.26458333,40.77044,-10.064485)">
		<path
   style="clip-rule:evenodd;fill:#c9d5dc;fill-rule:evenodd"
   d="m 352.448,219.234 v 3.641 c 0,0.201 -0.164,0.365 -0.365,0.365 h -5.103 c -1.807,0 -3.281,-1.474 -3.281,-3.281 v -0.724 h 8.749 z"
   id="path697" />

	</g>
    <g
       id="g699"
       transform="matrix(0.26458333,0,0,0.26458333,40.77044,-10.064485)">
		<path
   style="clip-rule:evenodd;fill:#c9d5dc;fill-rule:evenodd"
   d="m 316.618,219.234 v 3.641 c 0,0.201 -0.164,0.365 -0.365,0.365 h -5.102 c -1.807,0 -3.281,-1.474 -3.281,-3.281 v -0.724 h 8.748 z"
   id="path698" />

	</g>
    <g
       id="g700"
       transform="matrix(0.26458333,0,0,0.26458333,40.77044,-10.064485)">
		<path
   style="clip-rule:evenodd;fill:#c9d5dc;fill-rule:evenodd"
   d="m 264.501,219.234 v 3.641 c 0,0.201 -0.164,0.365 -0.365,0.365 h -5.103 c -1.807,0 -3.281,-1.474 -3.281,-3.281 v -0.724 h 8.749 z"
   id="path699" />

	</g>
    <g
       id="g701"
       transform="matrix(0.26458333,0,0,0.26458333,40.77044,-10.064485)">
		<path
   style="clip-rule:evenodd;fill:#c9d5dc;fill-rule:evenodd"
   d="m 226.338,219.234 v 3.641 c 0,0.201 -0.164,0.365 -0.365,0.365 h -5.103 c -1.807,0 -3.281,-1.474 -3.281,-3.281 v -0.724 h 8.749 z"
   id="path700" />

	</g>
    <g
       id="g702"
       transform="matrix(0.26458333,0,0,0.26458333,40.77044,-10.064485)">
		<path
   style="clip-rule:evenodd;fill:#4d6987;fill-rule:evenodd"
   d="m 352.045,223.02 h -3.7 c -1.997,0 -3.625,-1.393 -3.625,-3.101 v -0.685 h 7.729 v 3.442 c -0.001,0.19 -0.182,0.345 -0.404,0.344 z"
   id="path701" />

	</g>
    <g
       id="g703"
       transform="matrix(0.26458333,0,0,0.26458333,40.77044,-10.064485)">
		<path
   style="clip-rule:evenodd;fill:#4d6987;fill-rule:evenodd"
   d="m 316.215,223.02 h -3.7 c -1.997,0 -3.625,-1.393 -3.625,-3.101 v -0.685 h 7.729 v 3.442 c -0.001,0.19 -0.182,0.345 -0.404,0.344 z"
   id="path702" />

	</g>
    <g
       id="g704"
       transform="matrix(0.26458333,0,0,0.26458333,40.77044,-10.064485)">
		<path
   style="clip-rule:evenodd;fill:#4d6987;fill-rule:evenodd"
   d="m 264.098,223.02 h -3.7 c -1.997,0 -3.625,-1.393 -3.625,-3.101 v -0.685 h 7.729 v 3.442 c -0.001,0.19 -0.182,0.345 -0.404,0.344 z"
   id="path703" />

	</g>
    <g
       id="g705"
       transform="matrix(0.26458333,0,0,0.26458333,40.77044,-10.064485)">
		<path
   style="clip-rule:evenodd;fill:#4d6987;fill-rule:evenodd"
   d="m 225.935,223.02 h -3.7 c -1.997,0 -3.626,-1.393 -3.626,-3.101 v -0.685 h 7.729 v 3.442 c 0,0.19 -0.181,0.345 -0.403,0.344 z"
   id="path704" />

	</g>
    <g
       id="g706"
       transform="matrix(0.26458333,0,0,0.26458333,40.77044,-10.064485)">
		<path
   style="clip-rule:evenodd;fill:#39506e;fill-rule:evenodd"
   d="m 352.448,219.234 v 3.641 c 0,0.201 -0.181,0.365 -0.403,0.365 h -1.229 c 0.222,0 0.403,-0.164 0.403,-0.365 v -2.436 z"
   id="path705" />

	</g>
    <g
       id="g707"
       transform="matrix(0.26458333,0,0,0.26458333,40.77044,-10.064485)">
		<path
   style="clip-rule:evenodd;fill:#39506e;fill-rule:evenodd"
   d="m 316.618,219.234 v 3.641 c 0,0.201 -0.181,0.365 -0.403,0.365 h -1.229 c 0.222,0 0.403,-0.164 0.403,-0.365 v -2.436 z"
   id="path706" />

	</g>
    <g
       id="g708"
       transform="matrix(0.26458333,0,0,0.26458333,40.77044,-10.064485)">
		<path
   style="clip-rule:evenodd;fill:#39506e;fill-rule:evenodd"
   d="m 264.501,219.234 v 3.641 c 0,0.201 -0.181,0.365 -0.403,0.365 h -1.229 c 0.222,0 0.403,-0.164 0.403,-0.365 v -2.436 z"
   id="path707" />

	</g>
    <g
       id="g709"
       transform="matrix(0.26458333,0,0,0.26458333,40.77044,-10.064485)">
		<path
   style="clip-rule:evenodd;fill:#39506e;fill-rule:evenodd"
   d="m 226.338,219.234 v 3.641 c 0,0.201 -0.181,0.365 -0.403,0.365 h -1.23 c 0.222,0 0.403,-0.164 0.403,-0.365 v -2.436 z"
   id="path708" />

	</g>
    <g
       id="g710"
       transform="matrix(0.26458333,0,0,0.26458333,40.77044,-10.064485)">
		<polygon
   style="clip-rule:evenodd;fill:#39506e;fill-rule:evenodd"
   points="212.881,225.926 213.182,225.926 213.182,219.513 212.881,219.513 "
   id="polygon709" />

	</g>
    <g
       id="g711"
       transform="matrix(0.26458333,0,0,0.26458333,40.77044,-10.064485)">
		<polygon
   style="clip-rule:evenodd;fill:#c9d5dc;fill-rule:evenodd"
   points="212.58,225.926 212.881,225.926 212.881,219.513 212.58,219.513 "
   id="polygon710" />

	</g>
    <g
       id="g712"
       transform="matrix(0.26458333,0,0,0.26458333,40.77044,-10.064485)">
		<path
   style="clip-rule:evenodd;fill:#ea1d26;fill-rule:evenodd"
   d="m 195.925,225.926 h 208.773 v 3.722 c 0,5.252 -11.12,4.288 -15.401,4.288 H 210.254 c -5.125,0 -14.251,0.354 -14.295,-4.297 z"
   id="path711" />

	</g>
    <g
       id="g713"
       transform="matrix(0.26458333,0,0,0.26458333,40.77044,-10.064485)">
		<path
   style="clip-rule:evenodd;fill:#c12025;fill-rule:evenodd"
   d="m 199.301,232.475 h 10.913 c 0.492,0 0.895,0.403 0.895,0.895 v 0 c 0,0.492 -0.403,0.895 -0.895,0.895 h -10.913 c -0.493,0 -0.895,-0.403 -0.895,-0.895 v 0 c 0,-0.493 0.403,-0.895 0.895,-0.895 z"
   id="path712" />

	</g>
    <g
       id="g714"
       transform="matrix(0.26458333,0,0,0.26458333,40.77044,-10.064485)">
		<path
   style="clip-rule:evenodd;fill:#c12025;fill-rule:evenodd"
   d="m 188.169,232.475 h 5.181 c 0.493,0 0.895,0.403 0.895,0.895 v 0 c 0,0.492 -0.403,0.895 -0.895,0.895 h -5.181 z"
   id="path713" />

	</g>
    <g
       id="g715"
       transform="matrix(0.26458333,0,0,0.26458333,40.77044,-10.064485)">
		<polygon
   style="clip-rule:evenodd;fill:#9a2429;fill-rule:evenodd"
   points="189.487,233.936 194.038,233.892 195.925,229.615 199.448,229.615 199.448,237.125 188.471,237.125 "
   id="polygon714" />

	</g>
    <g
       id="g716"
       transform="matrix(0.26458333,0,0,0.26458333,40.77044,-10.064485)">
		<path
   style="clip-rule:evenodd;fill:#9a2429;fill-rule:evenodd"
   d="m 199.301,232.475 h 10.913 c 0.492,0 0.895,0.403 0.895,0.895 v 0 c 0,0.492 -0.403,0.895 -0.895,0.895 h -10.913 c -0.493,0 -0.895,-0.403 -0.895,-0.895 v 0 c 0,-0.493 0.403,-0.895 0.895,-0.895 z"
   id="path715" />

	</g>
    <g
       id="g717"
       transform="matrix(0.26458333,0,0,0.26458333,40.77044,-10.064485)">
		<path
   style="clip-rule:evenodd;fill:#9a2429;fill-rule:evenodd"
   d="m 188.169,232.475 h 5.181 c 0.493,0 0.895,0.403 0.895,0.895 v 0 c 0,0.492 -0.403,0.895 -0.895,0.895 h -5.181 z"
   id="path716" />

	</g>
    <g
       id="g718"
       transform="matrix(0.26458333,0,0,0.26458333,40.77044,-10.064485)">
		<path
   style="clip-rule:evenodd;fill:#c12025;fill-rule:evenodd"
   d="m 199.301,232.475 h 10.913 c 0.396,0 0.733,0.26 0.85,0.617 -0.042,0.661 -0.514,0.844 -0.811,0.844 H 199.34 c -0.396,0 -0.645,-0.734 -0.763,-1.092 0.165,-0.224 0.428,-0.369 0.724,-0.369 z"
   id="path717" />

	</g>
    <g
       id="g719"
       transform="matrix(0.26458333,0,0,0.26458333,40.77044,-10.064485)">
		<path
   style="clip-rule:evenodd;fill:#c12025;fill-rule:evenodd"
   d="m 188.427,232.475 h 4.922 c 0.396,0 0.733,0.26 0.85,0.617 -0.042,0.661 -0.514,0.844 -0.811,0.844 h -4.962 v -1.461 z"
   id="path718" />

	</g>
    <g
       id="g720"
       transform="matrix(0.26458333,0,0,0.26458333,40.77044,-10.064485)">
		<path
   style="clip-rule:evenodd;fill:#f7a292;fill-rule:evenodd"
   d="m 199.702,232.77 h 10.057 c 0.371,0 0.687,0.103 0.797,0.25 -0.153,0.088 -0.4,0.147 -0.678,0.147 h -10.176 v -0.062 -0.269 z"
   id="path719" />

	</g>
    <g
       id="g721"
       transform="matrix(0.26458333,0,0,0.26458333,40.77044,-10.064485)">
		<path
   style="clip-rule:evenodd;fill:#f7a292;fill-rule:evenodd"
   d="m 188.61,232.77 h 4.266 c 0.379,0 0.703,0.103 0.815,0.25 -0.156,0.088 -0.409,0.147 -0.693,0.147 h -4.388 z"
   id="path720" />

	</g>
    <g
       id="g722"
       transform="matrix(0.26458333,0,0,0.26458333,40.77044,-10.064485)">
		<polygon
   style="clip-rule:evenodd;fill:#9a2429;fill-rule:evenodd"
   points="208.013,240.28 193.002,240.28 195.871,233.753 210.882,233.753 "
   id="polygon721" />

	</g>
    <g
       id="g723"
       transform="matrix(0.26458333,0,0,0.26458333,40.77044,-10.064485)">
		<path
   style="clip-rule:evenodd;fill:#f7a292;fill-rule:evenodd"
   d="m 320.355,227.566 h -0.886 c -0.059,0 -0.107,0.11 -0.107,0.245 v 0.927 c 0,0.135 0.048,0.245 0.107,0.245 h 0.886 c 0.059,0 0.107,-0.11 0.107,-0.245 v -0.927 c 0,-0.135 -0.048,-0.245 -0.107,-0.245 z"
   id="path722" />

	</g>
    <g
       id="g724"
       transform="matrix(0.26458333,0,0,0.26458333,40.77044,-10.064485)">
		<path
   style="clip-rule:evenodd;fill:#9a2429;fill-rule:evenodd"
   d="m 320.505,227.444 h -0.886 c -0.059,0 -0.107,0.11 -0.107,0.245 v 0.928 c 0,0.135 0.048,0.245 0.107,0.245 h 0.886 c 0.059,0 0.107,-0.11 0.107,-0.245 v -0.928 c 10e-4,-0.135 -0.048,-0.245 -0.107,-0.245 z"
   id="path723" />

	</g>
    <g
       id="g725"
       transform="matrix(0.26458333,0,0,0.26458333,40.77044,-10.064485)">
		<path
   style="clip-rule:evenodd;fill:#f7a292;fill-rule:evenodd"
   d="m 366.181,227.566 h -0.886 c -0.059,0 -0.107,0.11 -0.107,0.245 v 0.927 c 0,0.135 0.048,0.245 0.107,0.245 h 0.886 c 0.059,0 0.107,-0.11 0.107,-0.245 v -0.927 c 10e-4,-0.135 -0.048,-0.245 -0.107,-0.245 z"
   id="path724" />

	</g>
    <g
       id="g726"
       transform="matrix(0.26458333,0,0,0.26458333,40.77044,-10.064485)">
		<path
   style="clip-rule:evenodd;fill:#9a2429;fill-rule:evenodd"
   d="m 366.332,227.444 h -0.886 c -0.059,0 -0.107,0.11 -0.107,0.245 v 0.928 c 0,0.135 0.049,0.245 0.107,0.245 h 0.886 c 0.059,0 0.107,-0.11 0.107,-0.245 v -0.928 c 0,-0.135 -0.048,-0.245 -0.107,-0.245 z"
   id="path725" />

	</g>
    <g
       id="g727"
       transform="matrix(0.26458333,0,0,0.26458333,40.77044,-10.064485)">
		<path
   style="clip-rule:evenodd;fill:#f7a292;fill-rule:evenodd"
   d="m 373.805,227.566 h -0.885 c -0.059,0 -0.107,0.11 -0.107,0.245 v 0.927 c 0,0.135 0.048,0.245 0.107,0.245 h 0.885 c 0.059,0 0.107,-0.11 0.107,-0.245 v -0.927 c 0,-0.135 -0.048,-0.245 -0.107,-0.245 z"
   id="path726" />

	</g>
    <g
       id="g728"
       transform="matrix(0.26458333,0,0,0.26458333,40.77044,-10.064485)">
		<path
   style="clip-rule:evenodd;fill:#9a2429;fill-rule:evenodd"
   d="m 373.955,227.444 h -0.886 c -0.059,0 -0.107,0.11 -0.107,0.245 v 0.928 c 0,0.135 0.048,0.245 0.107,0.245 h 0.886 c 0.059,0 0.107,-0.11 0.107,-0.245 v -0.928 c 10e-4,-0.135 -0.047,-0.245 -0.107,-0.245 z"
   id="path727" />

	</g>
    <g
       id="g729"
       transform="matrix(0.26458333,0,0,0.26458333,40.77044,-10.064485)">
		<polygon
   style="clip-rule:evenodd;fill:#a0bfce;fill-rule:evenodd"
   points="354.115,217.998 321.406,217.998 321.406,217.831 354.115,217.831 "
   id="polygon728" />

	</g>
    <g
       id="g730"
       transform="matrix(0.26458333,0,0,0.26458333,40.77044,-10.064485)">
		<polygon
   style="clip-rule:evenodd;fill:#4d6987;fill-rule:evenodd"
   points="354.115,218.164 321.406,218.164 321.406,217.997 354.115,217.997 "
   id="polygon729" />

	</g>
    <g
       id="g731"
       transform="matrix(0.26458333,0,0,0.26458333,40.77044,-10.064485)">
		<polygon
   style="clip-rule:evenodd;fill:#4d6987;fill-rule:evenodd"
   points="337.3,219.234 335.987,219.234 335.987,216.722 337.3,216.722 "
   id="polygon730" />

	</g>
    <g
       id="g732"
       transform="matrix(0.26458333,0,0,0.26458333,40.77044,-10.064485)">
		<polygon
   style="clip-rule:evenodd;fill:#6987a1;fill-rule:evenodd"
   points="337.129,219.234 336.159,219.234 336.159,216.945 337.129,216.945 "
   id="polygon731" />

	</g>
    <g
       id="g733"
       transform="matrix(0.26458333,0,0,0.26458333,40.77044,-10.064485)">
		<polygon
   style="clip-rule:evenodd;fill:#c12025;fill-rule:evenodd"
   points="199.448,235.526 196.25,235.526 196.25,232.835 199.448,232.835 "
   id="polygon732" />

	</g>
    <g
       id="g734"
       transform="matrix(0.26458333,0,0,0.26458333,40.77044,-10.064485)">
		<polygon
   style="clip-rule:evenodd;fill:#c12025;fill-rule:evenodd"
   points="199.448,230.901 196.25,230.901 196.25,229.904 199.448,229.904 "
   id="polygon733" />

	</g>
    <g
       id="g735"
       transform="matrix(0.26458333,0,0,0.26458333,40.77044,-10.064485)">
		<polygon
   style="clip-rule:evenodd;fill:#ea1d26;fill-rule:evenodd"
   points="199.448,233.105 196.25,233.105 196.25,230.901 199.448,230.901 "
   id="polygon734" />

	</g>
    <g
       id="g736"
       transform="matrix(0.26458333,0,0,0.26458333,40.77044,-10.064485)">
		<polygon
   style="clip-rule:evenodd;fill:#f7a292;fill-rule:evenodd"
   points="199.448,236.615 199.153,236.615 199.153,229.904 199.448,229.904 "
   id="polygon735" />

	</g>
    <g
       id="g737"
       transform="matrix(0.26458333,0,0,0.26458333,40.77044,-10.064485)">
		<polygon
   style="clip-rule:evenodd;fill:#f7a292;fill-rule:evenodd"
   points="199.448,231.743 196.25,231.743 196.25,230.901 199.448,230.901 "
   id="polygon736" />

	</g>
    <g
       id="g738"
       transform="matrix(0.26458333,0,0,0.26458333,40.77044,-10.064485)">
		<path
   style="clip-rule:evenodd;fill:#c9d5dc;fill-rule:evenodd"
   d="m 406.776,221.231 h 1.622 c 1.363,0.466 2.699,1.21 2.699,2.045 v 0.719 h -4.32 v -2.764 z"
   id="path737" />

	</g>
    <g
       id="g739"
       transform="matrix(0.26458333,0,0,0.26458333,40.77044,-10.064485)">
		<polygon
   style="clip-rule:evenodd;fill:#9a2429;fill-rule:evenodd"
   points="188.398,230.375 187.081,230.375 187.081,230.017 188.398,230.017 "
   id="polygon738" />

	</g>
    <g
       id="g740"
       transform="matrix(0.26458333,0,0,0.26458333,40.77044,-10.064485)">
		<polygon
   style="clip-rule:evenodd;fill:#9a2429;fill-rule:evenodd"
   points="188.398,236.806 187.081,236.806 187.081,236.449 188.398,236.449 "
   id="polygon739" />

	</g>
    <g
       id="g741"
       transform="matrix(0.26458333,0,0,0.26458333,40.77044,-10.064485)">
		<polygon
   style="clip-rule:evenodd;fill:#9a2429;fill-rule:evenodd"
   points="188.398,231.089 187.081,231.089 187.081,230.732 188.398,230.732 "
   id="polygon740" />

	</g>
    <g
       id="g742"
       transform="matrix(0.26458333,0,0,0.26458333,40.77044,-10.064485)">
		<polygon
   style="clip-rule:evenodd;fill:#9a2429;fill-rule:evenodd"
   points="188.398,237.521 187.081,237.521 187.081,237.164 188.398,237.164 "
   id="polygon741" />

	</g>
    <g
       id="g743"
       transform="matrix(0.26458333,0,0,0.26458333,40.77044,-10.064485)">
		<polygon
   style="clip-rule:evenodd;fill:#9a2429;fill-rule:evenodd"
   points="185.417,239.14 185.043,239.14 185.043,228.147 185.417,228.147 "
   id="polygon742" />

	</g>
    <g
       id="g744"
       transform="matrix(0.26458333,0,0,0.26458333,40.77044,-10.064485)">
		<path
   style="clip-rule:evenodd;fill:#c12025;fill-rule:evenodd"
   d="m 181.907,228.521 h 5.086 c 0.437,0 0.794,0.357 0.794,0.794 v 8.657 c 0,0.437 -0.357,0.794 -0.794,0.794 h -4.865 c -0.142,-0.318 -0.221,-0.669 -0.221,-1.038 z"
   id="path743" />

	</g>
    <g
       id="g745"
       transform="matrix(0.26458333,0,0,0.26458333,40.77044,-10.064485)">
		<path
   style="clip-rule:evenodd;fill:#9a2429;fill-rule:evenodd"
   d="m 187.129,238.753 c -0.044,0.008 -0.09,0.012 -0.136,0.012 h -4.864 c -0.142,-0.318 -0.222,-0.669 -0.222,-1.038 v -8.776 h 4.51 c 0.437,0 0.794,0.357 0.794,0.794 v 8.657 c 0,0.127 -0.029,0.246 -0.082,0.351 z"
   id="path744" />

	</g>
  </g>
</svg>
