<?xml version="1.0" encoding="UTF-8" standalone="no"?>
<!-- Created with Inkscape (http://www.inkscape.org/) -->

<svg
   width="37.599937mm"
   height="14.869847mm"
   viewBox="0 0 37.599937 14.869847"
   version="1.1"
   id="svg1"
   xmlns="http://www.w3.org/2000/svg"
   xmlns:svg="http://www.w3.org/2000/svg">
  <defs
     id="defs1" />
  <g
     id="layer1"
     transform="translate(-68.791667,-42.597917)">
    <g
       id="g1152"
       transform="matrix(0.26458333,0,0,0.26458333,57.689486,30.054815)">
		<path
   style="fill:#4c6186"
   d="m 46.169,88.628 h -2.723 c -0.141,0 -0.255,-0.114 -0.255,-0.255 v -5.835 c 0,-0.141 0.114,-0.255 0.255,-0.255 h 2.723 c 0.141,0 0.255,0.114 0.255,0.255 v 5.835 c 0,0.141 -0.113,0.255 -0.255,0.255 z m -2.468,-0.51 h 2.213 v -5.325 h -2.213 z m 16.987,0.485 c -0.106,0 -0.205,-0.067 -0.241,-0.173 l -0.432,-1.264 -3.726,1.273 c -0.134,0.046 -0.278,-0.025 -0.324,-0.159 -0.046,-0.133 0.025,-0.278 0.159,-0.324 l 5.901,-2.017 c 0.133,-0.047 0.278,0.025 0.324,0.159 0.046,0.133 -0.025,0.278 -0.159,0.324 l -1.693,0.579 0.432,1.264 c 0.046,0.133 -0.025,0.278 -0.159,0.324 -0.027,0.009 -0.055,0.014 -0.082,0.014 z"
   id="path1151" />

	</g>
    <g
       id="g1153"
       transform="matrix(0.26458333,0,0,0.26458333,57.689486,30.054815)">
		<path
   style="fill:#4c6186"
   d="m 56.605,88.257 c 0.044,0.11 -0.008,0.235 -0.118,0.279 -0.11,0.044 -0.235,-0.008 -0.279,-0.118 l -1.026,-2.52 c -0.044,-0.11 0.008,-0.235 0.118,-0.279 0.029,-0.012 0.06,-0.016 0.088,-0.015 l 6.06,0.094 c 0.015,0 0.03,0.002 0.044,0.005 v -0.001 l 6.998,1.587 c 0.115,0.026 1.214,0.674 1.188,0.789 -0.026,0.115 -1.29,0.187 -1.405,0.162 l -6.542,-1.931 -6.032,-0.272 z"
   id="path1152" />

	</g>
    <g
       id="g1154"
       transform="matrix(0.26458333,0,0,0.26458333,57.689486,30.054815)">
		<path
   style="clip-rule:evenodd;fill:#4c6186;fill-rule:evenodd"
   d="m 52.333,85.628 c 1.5,0 2.624,1.209 2.624,2.152 0,0.943 -1.124,1.263 -2.624,1.263 -1.5,0 -2.63,0.596 -2.63,-1.278 0,-1.874 1.13,-2.137 2.63,-2.137 z"
   id="path1153" />

	</g>
    <g
       id="g1155"
       transform="matrix(0.26458333,0,0,0.26458333,57.689486,30.054815)">
		<path
   style="clip-rule:evenodd;fill:#7894ae;fill-rule:evenodd"
   d="m 52.333,85.628 c 1.249,0 2.236,0.838 2.532,1.662 -0.431,0.121 -0.969,0.173 -1.567,0.173 -1.5,0 -2.63,0.596 -2.63,-1.278 0,-0.109 0.004,-0.213 0.012,-0.312 0.445,-0.198 1.016,-0.245 1.653,-0.245 z"
   id="path1154" />

	</g>
    <g
       id="g1156"
       transform="matrix(0.26458333,0,0,0.26458333,57.689486,30.054815)">
		<path
   style="clip-rule:evenodd;fill:#a3b9c6;fill-rule:evenodd"
   d="m 52.333,85.628 c 1.098,0 1.992,0.646 2.394,1.363 l -0.161,0.002 c -1.648,0 -2.895,0.645 -2.93,-1.339 0.221,-0.019 0.454,-0.026 0.697,-0.026 z"
   id="path1155" />

	</g>
    <g
       id="g1157"
       transform="matrix(0.26458333,0,0,0.26458333,57.689486,30.054815)">
		<polygon
   style="clip-rule:evenodd;fill:#7894ae;fill-rule:evenodd"
   points="98.95,75.153 101.822,79.596 121.147,79.596 122.924,76.387 134.666,76.387 138.827,85.653 87.947,85.35 89.589,81.489 90.574,75.153 "
   id="polygon1156" />

	</g>
    <g
       id="g1158"
       transform="matrix(0.26458333,0,0,0.26458333,57.689486,30.054815)">
		<polygon
   style="clip-rule:evenodd;fill:#a3b9c6;fill-rule:evenodd"
   points="98.95,75.153 101.822,79.596 105.189,79.596 121.147,79.596 122.924,76.387 134.666,76.387 138.827,85.653 91.624,85.372 91.313,85.35 92.955,81.489 92.873,75.153 "
   id="polygon1157" />

	</g>
    <g
       id="g1159"
       transform="matrix(0.26458333,0,0,0.26458333,57.689486,30.054815)">
		<path
   style="clip-rule:evenodd;fill:#d3e0e9;fill-rule:evenodd"
   d="m 150.028,82.399 h 6.554 c 0.193,0 0.351,0.187 0.351,0.415 v 1.997 c 0,0.229 -0.158,0.415 -0.351,0.415 h -6.554 c -0.193,0 -0.35,-0.187 -0.35,-0.415 v -1.997 c -0.001,-0.228 0.157,-0.415 0.35,-0.415 z"
   id="path1158" />

	</g>
    <g
       id="g1160"
       transform="matrix(0.26458333,0,0,0.26458333,57.689486,30.054815)">
		<path
   style="clip-rule:evenodd;fill:#a3b9c6;fill-rule:evenodd"
   d="m 156.289,85.225 h -6.262 c -0.193,0 -0.35,-0.187 -0.35,-0.415 v -1.997 c 0,-0.088 0.024,-0.171 0.064,-0.238 h 6.263 c 0.193,0 0.351,0.187 0.351,0.415 v 1.997 c -10e-4,0.089 -0.025,0.171 -0.066,0.238 z"
   id="path1159" />

	</g>
    <g
       id="g1161"
       transform="matrix(0.26458333,0,0,0.26458333,57.689486,30.054815)">
		<path
   style="clip-rule:evenodd;fill:#7894ae;fill-rule:evenodd"
   d="m 153.894,85.225 h -3.866 c -0.193,0 -0.35,-0.187 -0.35,-0.415 v -1.997 c 0,-0.052 0.009,-0.102 0.024,-0.148 h 3.865 c 0.193,0 0.351,0.186 0.351,0.415 v 1.997 c -0.001,0.052 -0.009,0.102 -0.024,0.148 z"
   id="path1160" />

	</g>
    <g
       id="g1162"
       transform="matrix(0.26458333,0,0,0.26458333,57.689486,30.054815)">
		<polygon
   style="clip-rule:evenodd;fill:#d3e0e9;fill-rule:evenodd"
   points="129.141,76.387 134.666,76.387 138.827,85.653 133.583,85.622 "
   id="polygon1161" />

	</g>
    <g
       id="g1163"
       transform="matrix(0.26458333,0,0,0.26458333,57.689486,30.054815)">
		<path
   style="fill:#231f20"
   d="m 159.55,85.299 h -26.083 v -0.216 h 3.08 v -0.421 h -3.383 v -0.216 h 3.383 V 83.79 h -3.799 v -0.216 h 3.799 v -0.623 h -4.198 v -0.216 h 4.198 v -0.053 h 0.375 v 0.053 h 4.15 v -0.053 h 0.375 v 0.053 h 4.15 v -0.053 h 0.375 v 0.053 h 4.15 v -0.053 h 0.375 v 0.053 h 4.15 v -0.053 h 0.375 v 0.053 h 4.132 v 0.216 h -4.132 v 0.623 h 4.132 v 0.216 h -4.132 v 0.657 h 4.132 v 0.216 h -4.132 v 0.421 h 4.15 v -2.401 h 0.375 v 2.616 z m -9.051,-0.216 h 4.15 v -0.421 h -4.15 z m -4.525,0 h 4.15 v -0.421 h -4.15 z m -4.526,0 h 4.15 v -0.421 h -4.15 z m -4.525,0 h 4.15 v -0.421 h -4.15 z m 13.576,-0.637 h 4.15 V 83.79 h -4.15 z m -4.525,0 h 4.15 V 83.79 h -4.15 z m -4.526,0 h 4.15 V 83.79 h -4.15 z m -4.525,0 h 4.15 V 83.79 h -4.15 z m 13.576,-0.872 h 4.15 v -0.623 h -4.15 z m -4.525,0 h 4.15 v -0.623 h -4.15 z m -4.526,0 h 4.15 v -0.623 h -4.15 z m -4.525,0 h 4.15 v -0.623 h -4.15 z"
   id="path1162" />

	</g>
    <g
       id="g1164"
       transform="matrix(0.26458333,0,0,0.26458333,57.689486,30.054815)">
		<path
   style="fill:#7e95b2"
   d="m 131.376,74.687 c -0.102,0 -0.184,-0.083 -0.184,-0.184 V 57.294 c 0,-0.102 0.083,-0.184 0.184,-0.184 0.101,0 0.184,0.083 0.184,0.184 v 17.209 c 0,0.101 -0.082,0.184 -0.184,0.184 z m -4.938,0 c -0.102,0 -0.184,-0.083 -0.184,-0.184 v -14.44 c 0,-0.102 0.083,-0.184 0.184,-0.184 0.101,0 0.184,0.083 0.184,0.184 v 14.44 c 0,0.101 -0.082,0.184 -0.184,0.184 z"
   id="path1163" />

	</g>
    <g
       id="g1165"
       transform="matrix(0.26458333,0,0,0.26458333,57.689486,30.054815)">
		<polygon
   style="clip-rule:evenodd;fill:#7894ae;fill-rule:evenodd"
   points="157.352,80.088 154.41,80.088 154.41,80.377 157.352,80.377 "
   id="polygon1164" />

	</g>
    <g
       id="g1166"
       transform="matrix(0.26458333,0,0,0.26458333,57.689486,30.054815)">
		<path
   style="clip-rule:evenodd;fill:#c9d5dc;fill-rule:evenodd"
   d="m 153.699,79.338 h -0.961 c -0.666,0 -1.211,0.545 -1.211,1.211 v 1.407 c 0,0.131 0.022,0.257 0.061,0.375 h 3.261 c 0.039,-0.118 0.061,-0.244 0.061,-0.375 v -1.407 c 0,-0.666 -0.545,-1.211 -1.211,-1.211 z"
   id="path1165" />

	</g>
    <g
       id="g1167"
       transform="matrix(0.26458333,0,0,0.26458333,57.689486,30.054815)">
		<path
   style="clip-rule:evenodd;fill:#7894ae;fill-rule:evenodd"
   d="m 151.691,79.943 c -0.103,0.178 -0.164,0.385 -0.164,0.605 v 1.407 c 0,0.131 0.022,0.257 0.061,0.375 h 2.724 v -1.263 c 0,-0.666 -0.545,-1.211 -1.211,-1.211 h -0.961 c -0.159,0.001 -0.31,0.031 -0.449,0.087 z"
   id="path1166" />

	</g>
    <g
       id="g1168"
       transform="matrix(0.26458333,0,0,0.26458333,57.689486,30.054815)">
		<polygon
   style="clip-rule:evenodd;fill:#4c6186;fill-rule:evenodd"
   points="155.077,80.998 151.364,80.998 150.865,82.381 155.616,82.381 "
   id="polygon1167" />

	</g>
    <g
       id="g1169"
       transform="matrix(0.26458333,0,0,0.26458333,57.689486,30.054815)">
		<polygon
   style="clip-rule:evenodd;fill:#7894ae;fill-rule:evenodd"
   points="154.955,81.186 154.683,81.186 155.105,82.252 155.377,82.252 "
   id="polygon1168" />

	</g>
    <g
       id="g1170"
       transform="matrix(0.26458333,0,0,0.26458333,57.689486,30.054815)">
		<path
   style="clip-rule:evenodd;fill:#7894ae;fill-rule:evenodd"
   d="m 154.327,81.186 c -0.09,0 -0.181,0 -0.272,0 0.085,0.356 0.17,0.711 0.255,1.066 0.091,0 0.181,0 0.272,0 -0.085,-0.355 -0.17,-0.71 -0.255,-1.066 z"
   id="path1169" />

	</g>
    <g
       id="g1171"
       transform="matrix(0.26458333,0,0,0.26458333,57.689486,30.054815)">
		<path
   style="clip-rule:evenodd;fill:#7894ae;fill-rule:evenodd"
   d="m 153.698,81.186 c -0.09,0 -0.181,0 -0.272,0 0.029,0.356 0.059,0.711 0.088,1.066 0.091,0 0.181,0 0.272,0 -0.028,-0.355 -0.058,-0.71 -0.088,-1.066 z"
   id="path1170" />

	</g>
    <g
       id="g1172"
       transform="matrix(0.26458333,0,0,0.26458333,57.689486,30.054815)">
		<path
   style="clip-rule:evenodd;fill:#7894ae;fill-rule:evenodd"
   d="m 153.07,81.186 c -0.091,0 -0.181,0 -0.272,0 -0.026,0.356 -0.052,0.711 -0.078,1.066 0.091,0 0.181,0 0.272,0 0.026,-0.355 0.052,-0.71 0.078,-1.066 z"
   id="path1171" />

	</g>
    <g
       id="g1173"
       transform="matrix(0.26458333,0,0,0.26458333,57.689486,30.054815)">
		<path
   style="clip-rule:evenodd;fill:#7894ae;fill-rule:evenodd"
   d="m 152.441,81.186 c -0.091,0 -0.181,0 -0.272,0 -0.081,0.356 -0.163,0.711 -0.244,1.066 0.091,0 0.181,0 0.272,0 0.082,-0.355 0.163,-0.71 0.244,-1.066 z"
   id="path1172" />

	</g>
    <g
       id="g1174"
       transform="matrix(0.26458333,0,0,0.26458333,57.689486,30.054815)">
		<polygon
   style="clip-rule:evenodd;fill:#7894ae;fill-rule:evenodd"
   points="151.813,81.186 151.541,81.186 151.13,82.252 151.402,82.252 "
   id="polygon1173" />

	</g>
    <g
       id="g1175"
       transform="matrix(0.26458333,0,0,0.26458333,57.689486,30.054815)">
		<polygon
   style="clip-rule:evenodd;fill:#7894ae;fill-rule:evenodd"
   points="180.517,82.938 180.427,82.902 181.821,80.84 181.801,81.046 180.518,82.946 "
   id="polygon1174" />

	</g>
    <g
       id="g1176"
       transform="matrix(0.26458333,0,0,0.26458333,57.689486,30.054815)">
		<polygon
   style="clip-rule:evenodd;fill:#7894ae;fill-rule:evenodd"
   points="182.485,77.024 182.338,77.024 182.338,77.384 182.485,77.384 "
   id="polygon1175" />

	</g>
    <g
       id="g1177"
       transform="matrix(0.26458333,0,0,0.26458333,57.689486,30.054815)">
		<polygon
   style="clip-rule:evenodd;fill:#7894ae;fill-rule:evenodd"
   points="181.305,77.153 182.485,77.153 182.485,77.254 181.305,77.254 "
   id="polygon1176" />

	</g>
    <g
       id="g1178"
       transform="matrix(0.26458333,0,0,0.26458333,57.689486,30.054815)">
		<polygon
   style="clip-rule:evenodd;fill:#7894ae;fill-rule:evenodd"
   points="181.673,77.642 181.821,77.642 181.821,77.743 181.673,77.743 "
   id="polygon1177" />

	</g>
    <g
       id="g1179"
       transform="matrix(0.26458333,0,0,0.26458333,57.689486,30.054815)">
		<polygon
   style="clip-rule:evenodd;fill:#7894ae;fill-rule:evenodd"
   points="181.472,77.024 181.325,77.024 181.325,77.384 181.472,77.384 "
   id="polygon1178" />

	</g>
    <g
       id="g1180"
       transform="matrix(0.26458333,0,0,0.26458333,57.689486,30.054815)">
		<polygon
   style="clip-rule:evenodd;fill:#7894ae;fill-rule:evenodd"
   points="181.821,77.153 181.968,77.153 181.968,82.665 181.821,82.665 "
   id="polygon1179" />

	</g>
    <g
       id="g1181"
       transform="matrix(0.26458333,0,0,0.26458333,57.689486,30.054815)">
		<polygon
   style="clip-rule:evenodd;fill:#a3b9c6;fill-rule:evenodd"
   points="120.224,74.206 128.322,74.206 128.322,77.467 120.224,77.467 "
   id="polygon1180" />

	</g>
    <g
       id="g1182"
       transform="matrix(0.26458333,0,0,0.26458333,57.689486,30.054815)">
		<path
   style="clip-rule:evenodd;fill:#4c6186;fill-rule:evenodd"
   d="m 43.123,88.174 0.9,7.924 c 0.093,0.814 0.744,1.431 1.562,1.479 15.979,0.94 39.534,4.527 46.166,4.562 l 65.104,0.336 c 3.573,0.018 7.792,-0.398 10.312,-2.931 l 16.904,-16.985 -26.429,0.047 1.319,2.286 -22.255,-0.002 -0.059,0.764 -68.467,-0.421 -1.596,3.009 z"
   id="path1181" />

	</g>
    <g
       id="g1183"
       transform="matrix(0.26458333,0,0,0.26458333,57.689486,30.054815)">
		<path
   style="clip-rule:evenodd;fill:#7894ae;fill-rule:evenodd"
   d="m 181.026,82.564 -23.383,0.042 1.319,2.286 -22.255,-0.002 -0.059,0.764 -68.467,-0.421 -1.596,3.009 -18.253,-0.052 c 7.898,7.44 32.195,10.863 63.562,10.674 9.909,-0.06 27.526,0.975 35.666,-0.247 20.806,-3.126 27.038,-8.278 33.466,-16.053 z"
   id="path1182" />

	</g>
    <g
       id="g1184"
       transform="matrix(0.26458333,0,0,0.26458333,57.689486,30.054815)">
		<path
   style="clip-rule:evenodd;fill:#a3b9c6;fill-rule:evenodd"
   d="m 157.95,82.605 h -0.307 l 0.123,0.214 c 0.063,-0.071 0.123,-0.142 0.184,-0.214 z m -2.287,2.286 -18.956,-0.002 -0.059,0.764 -68.467,-0.421 -1.596,3.009 -6.248,-0.018 c 10.036,5.845 26.58,9.664 45.288,9.664 22.065,0 41.122,-5.311 50.038,-12.996 z"
   id="path1183" />

	</g>
    <g
       id="g1185"
       transform="matrix(0.26458333,0,0,0.26458333,57.689486,30.054815)">
		<path
   style="clip-rule:evenodd;fill:#9a2429;fill-rule:evenodd"
   d="m 44.055,96.289 c 0.166,0.717 0.777,1.243 1.529,1.287 6.741,0.397 14.831,1.265 22.429,2.138 0.012,0.849 0.466,1.413 2.073,1.53 2.201,0.16 5.92,-0.334 7.708,-0.391 5.886,0.677 11.491,1.273 13.956,1.285 l 65.104,0.336 c 3.574,0.018 7.792,-0.398 10.312,-2.931 l 3.239,-3.254 z"
   id="path1184" />

	</g>
    <g
       id="g1186"
       transform="matrix(0.26458333,0,0,0.26458333,57.689486,30.054815)">
		<path
   style="clip-rule:evenodd;fill:#c12025;fill-rule:evenodd"
   d="m 159.194,96.289 h -88.48 c 11.075,1.829 25.211,2.669 41.18,2.573 9.909,-0.06 27.526,0.975 35.666,-0.247 4.514,-0.678 8.341,-1.451 11.634,-2.326 z"
   id="path1185" />

	</g>
    <g
       id="g1187"
       transform="matrix(0.26458333,0,0,0.26458333,57.689486,30.054815)">
		<path
   style="clip-rule:evenodd;fill:#ed1c24;fill-rule:evenodd"
   d="M 126.031,96.289 H 85.22 c 6.316,1.03 13.199,1.597 20.405,1.597 7.206,0 14.09,-0.567 20.406,-1.597 z"
   id="path1186" />

	</g>
    <g
       id="g1188"
       transform="matrix(0.26458333,0,0,0.26458333,57.689486,30.054815)">
		<polygon
   style="clip-rule:evenodd;fill:#ed1c24;fill-rule:evenodd"
   points="59.207,101.049 65.821,100.391 65.915,101.329 59.3,101.987 "
   id="polygon1187" />

	</g>
    <g
       id="g1189"
       transform="matrix(0.26458333,0,0,0.26458333,57.689486,30.054815)">
		<polygon
   style="clip-rule:evenodd;fill:#ed1c24;fill-rule:evenodd"
   points="62.18,97.333 60.878,100.883 62.74,100.698 65.146,97.343 "
   id="polygon1188" />

	</g>
    <g
       id="g1190"
       transform="matrix(0.26458333,0,0,0.26458333,57.689486,30.054815)">
		<path
   style="clip-rule:evenodd;fill:#ed1c24;fill-rule:evenodd"
   d="M 58.278,101.352 70.06,100.18 c 0.151,-0.015 0.285,0.09 0.3,0.233 v 0 c 0.014,0.143 -0.097,0.273 -0.248,0.288 l -11.782,1.172 c -0.151,0.015 -0.285,-0.09 -0.3,-0.233 v 0 c -0.014,-0.144 0.097,-0.273 0.248,-0.288 z"
   id="path1189" />

	</g>
    <g
       id="g1191"
       transform="matrix(0.26458333,0,0,0.26458333,57.689486,30.054815)">
		<path
   style="clip-rule:evenodd;fill:#6c8cc7;fill-rule:evenodd"
   d="m 59.666,101.617 c -0.225,-0.171 -0.451,-0.342 -0.676,-0.514 -0.092,-0.549 -0.184,-1.099 -0.276,-1.648 0.793,0.451 1.173,1.135 0.952,2.162 z"
   id="path1190" />

	</g>
    <g
       id="g1192"
       transform="matrix(0.26458333,0,0,0.26458333,57.689486,30.054815)">
		<path
   style="clip-rule:evenodd;fill:#6c8cc7;fill-rule:evenodd"
   d="m 59.635,101.301 c -0.187,0.212 -0.374,0.425 -0.562,0.637 0.018,0.557 0.037,1.113 0.055,1.67 0.688,-0.597 0.926,-1.343 0.507,-2.307 z"
   id="path1191" />

	</g>
    <g
       id="g1193"
       transform="matrix(0.26458333,0,0,0.26458333,57.689486,30.054815)">
		<polygon
   style="clip-rule:evenodd;fill:#9a2429;fill-rule:evenodd"
   points="51.401,98.564 54.391,98.564 54.391,102.956 51.401,102.956 "
   id="polygon1192" />

	</g>
    <g
       id="g1194"
       transform="matrix(0.26458333,0,0,0.26458333,57.689486,30.054815)">
		<polygon
   style="clip-rule:evenodd;fill:#9a2429;fill-rule:evenodd"
   points="45.884,100.011 45.884,99.08 45.884,98.46 47.019,98.46 47.019,99.08 47.225,99.08 47.225,97.22 47.895,97.22 47.895,99.08 48.566,99.08 48.566,100.011 47.019,100.011 47.019,100.579 45.884,100.579 "
   id="polygon1193" />

	</g>
    <g
       id="g1195"
       transform="matrix(0.26458333,0,0,0.26458333,57.689486,30.054815)">
		<polygon
   style="clip-rule:evenodd;fill:#9a2429;fill-rule:evenodd"
   points="129.228,98.786 120.401,99.704 94.88,99.622 84.144,98.487 82.439,101.187 94.52,101.306 119.403,101.139 127.132,101.082 "
   id="polygon1194" />

	</g>
    <g
       id="g1196"
       transform="matrix(0.26458333,0,0,0.26458333,57.689486,30.054815)">
		<polygon
   style="clip-rule:evenodd;fill:#ed1c24;fill-rule:evenodd"
   points="129.228,98.786 120.401,99.704 94.88,99.622 84.144,98.487 85.204,99.781 94.562,100.594 119.528,100.594 125.917,100.076 "
   id="polygon1195" />

	</g>
    <g
       id="g1197"
       transform="matrix(0.26458333,0,0,0.26458333,57.689486,30.054815)">
		<path
   style="clip-rule:evenodd;fill:#a3b9c6;fill-rule:evenodd"
   d="m 168.726,86.428 c 0.052,-0.039 0.103,-0.076 0.156,-0.112 l 0.395,2.631 c -0.613,0.187 -1.174,0.113 -1.45,-0.251 -0.422,-0.554 -0.019,-1.57 0.899,-2.268 z m 0.24,-0.167 c 0.748,-0.475 1.557,-0.578 2.009,-0.263 l -0.3,1.199 -0.556,0.093 -0.052,0.613 z"
   id="path1196" />

	</g>
    <g
       id="g1198"
       transform="matrix(0.26458333,0,0,0.26458333,57.689486,30.054815)">
		<path
   style="clip-rule:evenodd;fill:#4c6186;fill-rule:evenodd"
   d="m 168.892,86.709 c 0.037,-0.028 0.074,-0.055 0.112,-0.08 l 0.285,1.894 c -0.441,0.135 -0.845,0.081 -1.044,-0.18 -0.304,-0.4 -0.014,-1.132 0.647,-1.634 z m 0.172,-0.12 c 0.539,-0.342 1.121,-0.416 1.447,-0.19 l -0.216,0.863 -0.437,0.507 z"
   id="path1197" />

	</g>
    <g
       id="g1199"
       transform="matrix(0.26458333,0,0,0.26458333,57.689486,30.054815)">
		<polygon
   style="clip-rule:evenodd;fill:#a3b9c6;fill-rule:evenodd"
   points="168.847,86.084 169.31,89.166 170.514,88.564 "
   id="polygon1198" />

	</g>
    <g
       id="g1200"
       transform="matrix(0.26458333,0,0,0.26458333,57.689486,30.054815)">
		<polygon
   style="clip-rule:evenodd;fill:#a3b9c6;fill-rule:evenodd"
   points="170.514,88.564 170.068,87.902 170.12,87.289 170.676,87.196 171.139,85.343 171.833,88.378 169.958,89.213 169.991,88.826 "
   id="polygon1199" />

	</g>
    <g
       id="g1201"
       transform="matrix(0.26458333,0,0,0.26458333,57.689486,30.054815)">
		<polygon
   style="clip-rule:evenodd;fill:#c9d5dc;fill-rule:evenodd"
   points="168.847,86.084 170.252,88.695 170.514,88.564 "
   id="polygon1200" />

	</g>
    <g
       id="g1202"
       transform="matrix(0.26458333,0,0,0.26458333,57.689486,30.054815)">
		<polygon
   style="clip-rule:evenodd;fill:#c9d5dc;fill-rule:evenodd"
   points="171.139,85.343 171.833,88.378 171.336,88.6 "
   id="polygon1201" />

	</g>
    <g
       id="g1203"
       transform="matrix(0.26458333,0,0,0.26458333,57.689486,30.054815)">
		<polygon
   style="clip-rule:evenodd;fill:#4c6186;fill-rule:evenodd"
   points="90.574,75.153 97.011,75.153 100.098,81.571 89.554,81.571 89.589,81.489 "
   id="polygon1202" />

	</g>
    <g
       id="g1204"
       transform="matrix(0.26458333,0,0,0.26458333,57.689486,30.054815)">
		<polygon
   style="clip-rule:evenodd;fill:#7894ae;fill-rule:evenodd"
   points="100.098,81.571 92.92,81.571 92.955,81.489 92.873,75.153 97.011,75.153 "
   id="polygon1203" />

	</g>
    <g
       id="g1205"
       transform="matrix(0.26458333,0,0,0.26458333,57.689486,30.054815)">
		<polygon
   style="clip-rule:evenodd;fill:#d3e0e9;fill-rule:evenodd"
   points="97.011,75.153 98.95,75.153 101.802,79.565 100.098,81.571 "
   id="polygon1204" />

	</g>
    <g
       id="g1206"
       transform="matrix(0.26458333,0,0,0.26458333,57.689486,30.054815)">
		<polygon
   style="clip-rule:evenodd;fill:#a3b9c6;fill-rule:evenodd"
   points="109.777,73.802 135.66,73.802 135.66,74.57 109.777,74.57 "
   id="polygon1205" />

	</g>
    <g
       id="g1207"
       transform="matrix(0.26458333,0,0,0.26458333,57.689486,30.054815)">
		<path
   style="clip-rule:evenodd;fill:#4c6186;fill-rule:evenodd"
   d="m 109.777,74.571 h 14.104 l -0.988,1.817 h -12.426 z m 17.024,0 h 8.859 l -0.994,1.817 h -7.265 z"
   id="path1206" />

	</g>
    <g
       id="g1208"
       transform="matrix(0.26458333,0,0,0.26458333,57.689486,30.054815)">
		<polygon
   style="clip-rule:evenodd;fill:#7894ae;fill-rule:evenodd"
   points="110.466,76.387 122.924,76.387 121.147,79.596 110.466,79.596 "
   id="polygon1207" />

	</g>
    <g
       id="g1209"
       transform="matrix(0.26458333,0,0,0.26458333,57.689486,30.054815)">
		<path
   style="clip-rule:evenodd;fill:#4c6186;fill-rule:evenodd"
   d="m 68.908,82.778 9.597,-0.296 c -0.233,1.074 -0.764,2.12 -2.042,2.12 h -6.142 c -0.806,-0.354 -1.31,-0.911 -1.413,-1.824 z"
   id="path1208" />

	</g>
    <g
       id="g1210"
       transform="matrix(0.26458333,0,0,0.26458333,57.689486,30.054815)">
		<path
   style="clip-rule:evenodd;fill:#7894ae;fill-rule:evenodd"
   d="m 69.108,82.772 9.096,-0.281 c -0.311,0.724 -0.846,1.286 -1.783,1.286 h -6.142 c -0.531,-0.232 -0.93,-0.553 -1.171,-1.005 z"
   id="path1209" />

	</g>
    <g
       id="g1211"
       transform="matrix(0.26458333,0,0,0.26458333,57.689486,30.054815)">
		<polygon
   style="clip-rule:evenodd;fill:#4c6186;fill-rule:evenodd"
   points="111.217,73.802 110.393,67.376 112.344,67.329 114.93,73.802 "
   id="polygon1210" />

	</g>
    <g
       id="g1212"
       transform="matrix(0.26458333,0,0,0.26458333,57.689486,30.054815)">
		<polygon
   style="clip-rule:evenodd;fill:#7894ae;fill-rule:evenodd"
   points="115.676,65.898 117.151,65.898 117.151,67.329 115.676,67.329 "
   id="polygon1211" />

	</g>
    <g
       id="g1213"
       transform="matrix(0.26458333,0,0,0.26458333,57.689486,30.054815)">
		<polygon
   style="clip-rule:evenodd;fill:#4c6186;fill-rule:evenodd"
   points="113.772,65.325 119.055,65.325 119.055,65.611 117.185,65.897 115.689,65.897 113.772,65.611 "
   id="polygon1212" />

	</g>
    <g
       id="g1214"
       transform="matrix(0.26458333,0,0,0.26458333,57.689486,30.054815)">
		<polygon
   style="clip-rule:evenodd;fill:#7894ae;fill-rule:evenodd"
   points="109.528,60.163 109,56.168 109.815,56.226 110.678,60.398 "
   id="polygon1213" />

	</g>
    <g
       id="g1215"
       transform="matrix(0.26458333,0,0,0.26458333,57.689486,30.054815)">
		<polygon
   style="clip-rule:evenodd;fill:#7894ae;fill-rule:evenodd"
   points="109.315,50.928 109.576,50.928 109.576,56.42 109.315,56.42 "
   id="polygon1214" />

	</g>
    <g
       id="g1216"
       transform="matrix(0.26458333,0,0,0.26458333,57.689486,30.054815)">
		<path
   style="clip-rule:evenodd;fill:#4c6186;fill-rule:evenodd"
   d="m 109.446,47.407 v 0 c 0.227,0 0.412,0.036 0.412,0.08 v 3.361 c 0,0.044 -0.185,0.08 -0.412,0.08 v 0 c -0.228,0 -0.412,-0.036 -0.412,-0.08 v -3.361 c -0.001,-0.045 0.184,-0.08 0.412,-0.08 z"
   id="path1215" />

	</g>
    <g
       id="g1217"
       transform="matrix(0.26458333,0,0,0.26458333,57.689486,30.054815)">
		<polygon
   style="clip-rule:evenodd;fill:#7894ae;fill-rule:evenodd"
   points="111.779,50.613 111.422,50.613 111.422,51.49 111.779,51.49 "
   id="polygon1216" />

	</g>
    <g
       id="g1218"
       transform="matrix(0.26458333,0,0,0.26458333,57.689486,30.054815)">
		<polygon
   style="clip-rule:evenodd;fill:#7894ae;fill-rule:evenodd"
   points="109.315,50.928 111.601,50.928 111.601,51.175 109.315,51.175 "
   id="polygon1217" />

	</g>
    <g
       id="g1219"
       transform="matrix(0.26458333,0,0,0.26458333,57.689486,30.054815)">
		<path
   style="fill:#4c6186"
   d="m 110.422,67.636 -0.954,-7.527 1.182,0.032 2.025,7.433 z m -0.372,-7 0.821,6.478 1.142,-0.031 -1.754,-6.441 z"
   id="path1218" />

	</g>
    <g
       id="g1220"
       transform="matrix(0.26458333,0,0,0.26458333,57.689486,30.054815)">
		<polygon
   style="fill:#4c6186"
   points="110.329,62.273 111.312,62.938 110.391,64.093 111.685,64.966 110.668,66.191 112.167,66.998 112.064,67.188 110.333,66.257 111.366,65.012 110.077,64.141 110.998,62.986 109.999,62.311 110.616,61.648 109.668,61.125 110.416,60.438 110.563,60.597 110.035,61.081 110.962,61.592 "
   id="polygon1219" />

	</g>
    <g
       id="g1221"
       transform="matrix(0.26458333,0,0,0.26458333,57.689486,30.054815)">
		<path
   style="fill:#231f20"
   d="M 91.38,85.299 H 68.072 v -2.617 h 0.358 v 2.401 h 3.684 v -0.421 h -3.68 v -0.216 h 3.68 V 83.79 h -3.68 v -0.216 h 3.68 v -0.623 h -3.68 v -0.216 h 3.68 v -0.053 h 0.358 v 0.053 h 3.684 v -0.053 h 0.358 v 0.053 h 3.684 v -0.053 h 0.358 v 0.053 h 3.684 v -0.053 h 0.358 v 0.053 h 3.684 v -0.053 h 0.358 v 0.053 h 3.738 v 0.216 H 88.64 v 0.623 h 3.381 V 83.79 H 88.64 v 0.657 h 3.01 v 0.216 h -3.01 v 0.421 h 2.739 v 0.215 z m -6.781,-0.216 h 3.684 v -0.421 h -3.684 z m -4.042,0 h 3.684 v -0.421 h -3.684 z m -4.042,0 h 3.684 v -0.421 h -3.684 z m -4.043,0 h 3.684 v -0.421 h -3.684 z m 12.127,-0.637 h 3.684 V 83.79 h -3.684 z m -4.042,0 h 3.684 V 83.79 h -3.684 z m -4.042,0 h 3.684 V 83.79 h -3.684 z m -4.043,0 h 3.684 V 83.79 h -3.684 z m 12.127,-0.872 h 3.684 v -0.623 h -3.684 z m -4.042,0 h 3.684 v -0.623 h -3.684 z m -4.042,0 h 3.684 v -0.623 h -3.684 z m -4.043,0 h 3.684 v -0.623 h -3.684 z"
   id="path1220" />

	</g>
    <g
       id="g1222"
       transform="matrix(0.26458333,0,0,0.26458333,57.689486,30.054815)">
		<polygon
   style="clip-rule:evenodd;fill:#7894ae;fill-rule:evenodd"
   points="110.873,67.359 112.344,67.329 114.93,73.802 112.011,73.802 "
   id="polygon1221" />

	</g>
    <g
       id="g1223"
       transform="matrix(0.26458333,0,0,0.26458333,57.689486,30.054815)">
		<polygon
   style="clip-rule:evenodd;fill:#7894ae;fill-rule:evenodd"
   points="112.344,67.329 117.151,67.329 112.974,68.906 "
   id="polygon1222" />

	</g>
    <g
       id="g1224"
       transform="matrix(0.26458333,0,0,0.26458333,57.689486,30.054815)">
		<path
   style="fill:#231f20"
   d="m 121.136,79.705 h -0.35 v -0.533 h -3.456 v 0.533 h -0.35 v -0.533 h -3.456 v 0.533 h -0.35 v -0.533 h -3.456 v 0.533 h -0.35 v -0.533 h -3.456 v 0.533 h -0.35 v -0.533 h -3.456 v 0.533 h -0.35 v -2.513 h 0.35 v 0.053 h 3.456 v -0.053 h 0.35 v 0.053 h 3.456 v -0.053 h 0.35 v 0.053 h 3.456 v -0.053 h 0.35 v 0.053 h 3.456 v -0.053 h 0.35 v 0.053 h 3.456 v -0.053 h 0.35 v 0.053 h 1.254 v 0.216 h -1.254 v 0.623 h 0.789 V 78.3 h -0.789 v 0.657 h 0.306 v 0.216 h -0.306 z m -3.805,-0.749 h 3.456 v -0.657 h -3.456 z m -3.806,0 h 3.456 v -0.657 h -3.456 z m -3.805,0 h 3.456 v -0.657 h -3.456 z m -3.805,0 h 3.456 v -0.657 h -3.456 z m -3.806,0 h 3.456 v -0.657 h -3.456 z m 15.222,-0.873 h 3.456 V 77.46 h -3.456 z m -3.806,0 h 3.456 V 77.46 h -3.456 z m -3.805,0 h 3.456 V 77.46 h -3.456 z m -3.805,0 h 3.456 V 77.46 h -3.456 z m -3.806,0 h 3.456 V 77.46 h -3.456 z"
   id="path1223" />

	</g>
    <g
       id="g1225"
       transform="matrix(0.26458333,0,0,0.26458333,57.689486,30.054815)">
		<polygon
   style="clip-rule:evenodd;fill:#7894ae;fill-rule:evenodd"
   points="127.401,76.387 134.666,76.387 134.824,76.741 127.401,76.741 "
   id="polygon1224" />

	</g>
    <g
       id="g1226"
       transform="matrix(0.26458333,0,0,0.26458333,57.689486,30.054815)">
		<polygon
   style="clip-rule:evenodd;fill:#7894ae;fill-rule:evenodd"
   points="129.141,76.387 134.666,76.387 134.824,76.741 129.311,76.741 "
   id="polygon1225" />

	</g>
    <g
       id="g1227"
       transform="matrix(0.26458333,0,0,0.26458333,57.689486,30.054815)">
		<path
   style="fill:#231f20"
   d="m 125.484,73.846 h -0.35 v -0.533 h -3.456 v 0.533 h -0.35 v -0.533 h -3.456 v 0.533 h -0.35 v -0.533 h -3.455 v 0.533 h -0.35 v -0.533 h -3.455 v 0.533 h -0.35 v -2.513 h 0.35 v 0.052 h 3.455 v -0.053 h 0.35 v 0.053 h 3.455 v -0.053 h 0.35 v 0.053 h 3.456 v -0.053 h 0.35 v 0.053 h 3.456 v -0.053 h 0.35 z m -3.806,-0.749 h 3.456 V 72.44 h -3.456 z m -3.805,0 h 3.456 V 72.44 h -3.456 z m -3.805,0 h 3.455 V 72.44 h -3.455 z m -3.805,0 h 3.455 V 72.44 h -3.455 z m 11.415,-0.872 h 3.456 v -0.623 h -3.456 z m -3.805,0 h 3.456 v -0.623 h -3.456 z m -3.805,0 h 3.455 v -0.623 h -3.455 z m -3.805,0 h 3.455 v -0.623 h -3.455 z"
   id="path1226" />

	</g>
    <g
       id="g1228"
       transform="matrix(0.26458333,0,0,0.26458333,57.689486,30.054815)">
		<path
   style="clip-rule:evenodd;fill:#4c6186;fill-rule:evenodd"
   d="m 135.554,87.084 h 0.531 c 0.09,0 0.163,0.073 0.163,0.163 v 0.959 c 0,0.09 -0.073,0.163 -0.163,0.163 h -0.531 c -0.09,0 -0.163,-0.073 -0.163,-0.163 v -0.959 c 0,-0.089 0.073,-0.163 0.163,-0.163 z"
   id="path1227" />

	</g>
    <g
       id="g1229"
       transform="matrix(0.26458333,0,0,0.26458333,57.689486,30.054815)">
		<path
   style="clip-rule:evenodd;fill:#4c6186;fill-rule:evenodd"
   d="m 124.725,80.965 h 0.531 c 0.09,0 0.163,0.073 0.163,0.163 v 0.959 c 0,0.09 -0.073,0.163 -0.163,0.163 h -0.531 c -0.09,0 -0.163,-0.073 -0.163,-0.163 v -0.959 c 0,-0.09 0.074,-0.163 0.163,-0.163 z"
   id="path1228" />

	</g>
    <g
       id="g1230"
       transform="matrix(0.26458333,0,0,0.26458333,57.689486,30.054815)">
		<path
   style="clip-rule:evenodd;fill:#4c6186;fill-rule:evenodd"
   d="m 105.212,80.965 h 0.531 c 0.09,0 0.163,0.073 0.163,0.163 v 0.959 c 0,0.09 -0.073,0.163 -0.163,0.163 h -0.531 c -0.09,0 -0.163,-0.073 -0.163,-0.163 v -0.959 c 0,-0.09 0.073,-0.163 0.163,-0.163 z"
   id="path1229" />

	</g>
    <g
       id="g1231"
       transform="matrix(0.26458333,0,0,0.26458333,57.689486,30.054815)">
		<polygon
   style="clip-rule:evenodd;fill:#a3b9c6;fill-rule:evenodd"
   points="43.387,90.135 130.44,90.135 130.045,90.783 43.462,90.783 "
   id="polygon1230" />

	</g>
    <g
       id="g1232"
       transform="matrix(0.26458333,0,0,0.26458333,57.689486,30.054815)">
		<path
   style="fill:#7e95b2"
   d="m 93.462,79.051 c -0.102,0 -0.184,-0.083 -0.184,-0.184 V 61.658 c 0,-0.102 0.083,-0.184 0.184,-0.184 0.101,0 0.184,0.083 0.184,0.184 v 17.208 c 0,0.102 -0.082,0.185 -0.184,0.185 z"
   id="path1231" />

	</g>
    <g
       id="g1233"
       transform="matrix(0.26458333,0,0,0.26458333,57.689486,30.054815)">
		<polygon
   style="clip-rule:evenodd;fill:#7894ae;fill-rule:evenodd"
   points="110.771,53.483 110.415,53.483 110.415,54.36 110.771,54.36 "
   id="polygon1232" />

	</g>
    <g
       id="g1234"
       transform="matrix(0.26458333,0,0,0.26458333,57.689486,30.054815)">
		<polygon
   style="clip-rule:evenodd;fill:#7894ae;fill-rule:evenodd"
   points="109.315,53.798 110.593,53.798 110.593,54.044 109.315,54.044 "
   id="polygon1233" />

	</g>
    <g
       id="g1235"
       transform="matrix(0.26458333,0,0,0.26458333,57.689486,30.054815)">
		<polygon
   style="clip-rule:evenodd;fill:#7894ae;fill-rule:evenodd"
   points="114.15,59.564 113.794,59.564 113.794,60.441 114.15,60.441 "
   id="polygon1234" />

	</g>
    <g
       id="g1236"
       transform="matrix(0.26458333,0,0,0.26458333,57.689486,30.054815)">
		<polygon
   style="clip-rule:evenodd;fill:#7894ae;fill-rule:evenodd"
   points="110.103,59.879 113.973,59.879 113.973,60.126 110.103,60.126 "
   id="polygon1235" />

	</g>
    <g
       id="g1237"
       transform="matrix(0.26458333,0,0,0.26458333,57.689486,30.054815)">
		<polygon
   style="clip-rule:evenodd;fill:#9a2429;fill-rule:evenodd"
   points="54.312,97.316 53.806,97.316 53.806,101.174 54.312,101.174 "
   id="polygon1236" />

	</g>
    <g
       id="g1238"
       transform="matrix(0.26458333,0,0,0.26458333,57.689486,30.054815)">
		<polygon
   style="clip-rule:evenodd;fill:#a3b9c6;fill-rule:evenodd"
   points="158.313,83.766 182.906,83.73 182.259,84.38 158.687,84.414 "
   id="polygon1237" />

	</g>
    <g
       id="g1239"
       transform="matrix(0.26458333,0,0,0.26458333,57.689486,30.054815)">
		<polygon
   style="clip-rule:evenodd;fill:#4c6186;fill-rule:evenodd"
   points="158.547,84.172 182.504,84.134 181.857,84.784 158.921,84.82 "
   id="polygon1238" />

	</g>
    <g
       id="g1240"
       transform="matrix(0.26458333,0,0,0.26458333,57.689486,30.054815)">
		<path
   style="clip-rule:evenodd;fill:#4c6186;fill-rule:evenodd"
   d="m 127.089,78.055 h 0.531 c 0.09,0 0.163,0.073 0.163,0.163 v 0.959 c 0,0.09 -0.073,0.163 -0.163,0.163 h -0.531 c -0.09,0 -0.163,-0.073 -0.163,-0.163 v -0.959 c 0,-0.09 0.074,-0.163 0.163,-0.163 z"
   id="path1239" />

	</g>
    <g
       id="g1241"
       transform="matrix(0.26458333,0,0,0.26458333,57.689486,30.054815)">
		<polygon
   style="clip-rule:evenodd;fill:#4c6186;fill-rule:evenodd"
   points="41.961,84.233 42.318,84.233 42.318,85.111 41.961,85.111 "
   id="polygon1240" />

	</g>
    <g
       id="g1242"
       transform="matrix(0.26458333,0,0,0.26458333,57.689486,30.054815)">
		<polygon
   style="clip-rule:evenodd;fill:#4c6186;fill-rule:evenodd"
   points="46.009,84.548 42.139,84.548 42.139,84.795 46.009,84.795 "
   id="polygon1241" />

	</g>
    <g
       id="g1243"
       transform="matrix(0.26458333,0,0,0.26458333,57.689486,30.054815)">
		<polygon
   style="clip-rule:evenodd;fill:#4c6186;fill-rule:evenodd"
   points="41.961,86.388 42.318,86.388 42.318,87.265 41.961,87.265 "
   id="polygon1242" />

	</g>
    <g
       id="g1244"
       transform="matrix(0.26458333,0,0,0.26458333,57.689486,30.054815)">
		<polygon
   style="clip-rule:evenodd;fill:#4c6186;fill-rule:evenodd"
   points="46.009,86.703 42.139,86.703 42.139,86.95 46.009,86.95 "
   id="polygon1243" />

	</g>
    <g
       id="g1452"
       transform="matrix(0.26458333,0,0,0.26458333,57.689486,30.054815)">
		<path
   style="fill:#c9d5dc"
   d="m 143.751,92.079 c 0,0.737 -0.13,1.285 -0.388,1.646 -0.26,0.361 -0.677,0.543 -1.25,0.543 -0.573,0 -0.975,-0.166 -1.205,-0.497 -0.23,-0.33 -0.344,-0.854 -0.344,-1.571 v -0.481 h 1.05 v 0.511 c 0,0.404 0.031,0.684 0.094,0.841 0.063,0.156 0.2,0.234 0.411,0.234 0.213,0 0.354,-0.094 0.425,-0.283 0.071,-0.188 0.107,-0.518 0.107,-0.991 0,-0.473 -0.047,-0.81 -0.139,-1.011 -0.093,-0.2 -0.273,-0.301 -0.54,-0.301 h -0.318 v -0.852 h 0.31 c 0.263,0 0.443,-0.088 0.54,-0.266 0.097,-0.178 0.147,-0.468 0.147,-0.873 0,-0.405 -0.041,-0.677 -0.124,-0.817 -0.083,-0.139 -0.213,-0.208 -0.391,-0.208 -0.179,0 -0.303,0.073 -0.374,0.22 -0.071,0.146 -0.107,0.4 -0.107,0.762 v 0.223 h -1.084 v -0.23 c 0,-0.673 0.118,-1.164 0.357,-1.475 0.237,-0.311 0.633,-0.467 1.189,-0.467 0.557,0 0.965,0.16 1.228,0.481 0.261,0.321 0.393,0.807 0.393,1.461 0,0.404 -0.063,0.744 -0.188,1.018 -0.124,0.274 -0.314,0.458 -0.568,0.55 0.278,0.132 0.477,0.348 0.594,0.653 0.116,0.304 0.175,0.697 0.175,1.18 z"
   id="path1451" />

	</g>
    <g
       id="g1453"
       transform="matrix(0.26458333,0,0,0.26458333,57.689486,30.054815)">
		<path
   style="fill:#c9d5dc"
   d="m 146.111,94.268 c -0.974,0 -1.461,-0.507 -1.461,-1.519 v -0.924 h 1.051 v 0.807 c 0,0.34 0.066,0.551 0.196,0.631 0.051,0.032 0.13,0.047 0.238,0.047 0.006,0 0.014,0 0.026,0 0.245,0 0.368,-0.241 0.368,-0.724 v -1.883 c 0,-0.267 -0.028,-0.467 -0.084,-0.6 -0.056,-0.133 -0.164,-0.198 -0.325,-0.198 -0.29,0 -0.436,0.238 -0.436,0.715 l -0.986,-0.041 v -3.757 h 2.723 v 1.004 h -1.691 v 1.494 c 0.053,-0.103 0.148,-0.187 0.287,-0.251 0.139,-0.064 0.29,-0.096 0.454,-0.096 0.43,0 0.728,0.189 0.895,0.567 0.167,0.377 0.251,0.977 0.251,1.798 0,0.822 -0.029,1.392 -0.086,1.712 -0.059,0.319 -0.143,0.563 -0.254,0.73 -0.214,0.324 -0.603,0.488 -1.166,0.488 z"
   id="path1452" />

	</g>
    <g
       id="g1547"
       transform="matrix(0.26458333,0,0,0.26458333,57.689486,30.054815)">
		<polygon
   style="clip-rule:evenodd;fill:#d3e0e9;fill-rule:evenodd"
   points="63.706,90.135 130.44,90.135 130.138,90.783 63.763,90.783 "
   id="polygon1546" />

	</g>
    <g
       id="g1548"
       transform="matrix(0.26458333,0,0,0.26458333,57.689486,30.054815)">
		<polygon
   style="clip-rule:evenodd;fill:#4c6186;fill-rule:evenodd"
   points="43.387,90.499 130.44,90.499 130.048,91.147 43.46,91.147 "
   id="polygon1547" />

	</g>
    <g
       id="g1549"
       transform="matrix(0.26458333,0,0,0.26458333,57.689486,30.054815)">
		<polygon
   style="clip-rule:evenodd;fill:#d3e0e9;fill-rule:evenodd"
   points="133.563,85.634 133.274,86.255 67.638,86.255 67.982,85.607 129.225,85.607 "
   id="polygon1548" />

	</g>
    <g
       id="g1550"
       transform="matrix(0.26458333,0,0,0.26458333,57.689486,30.054815)">
		<polygon
   style="clip-rule:evenodd;fill:#4c6186;fill-rule:evenodd"
   points="67.711,85.915 133.286,86.08 132.936,86.728 67.367,86.563 "
   id="polygon1549" />

	</g>
    <g
       id="g1551"
       transform="matrix(0.26458333,0,0,0.26458333,57.689486,30.054815)">
		<polygon
   style="clip-rule:evenodd;fill:#a3b9c6;fill-rule:evenodd"
   points="110.466,76.387 122.924,76.387 122.732,76.733 110.466,76.733 "
   id="polygon1550" />

	</g>
  </g>
</svg>
