<?xml version="1.0" encoding="UTF-8" standalone="no"?>
<!-- Created with Inkscape (http://www.inkscape.org/) -->

<svg
   width="36.850639mm"
   height="21.719645mm"
   viewBox="0 0 36.850639 21.719644"
   version="1.1"
   id="svg1"
   xmlns="http://www.w3.org/2000/svg"
   xmlns:svg="http://www.w3.org/2000/svg">
  <defs
     id="defs1" />
  <g
     id="layer1"
     transform="translate(-78.581248,-40.745833)">
    <g
       id="g2"
       transform="matrix(0.26458333,0,0,0.26458333,68.871306,5.7105025)">
		<path
   style="clip-rule:evenodd;fill:#4c6186;fill-rule:evenodd"
   d="m 84.759,153.591 v 0 c 0.2,0 0.363,0.031 0.363,0.07 v 2.959 c 0,0.039 -0.163,0.071 -0.363,0.071 v 0 c -0.2,0 -0.363,-0.032 -0.363,-0.071 v -2.959 c 0,-0.039 0.163,-0.07 0.363,-0.07 z"
   id="path2" />

	</g>
    <g
       id="g3"
       transform="matrix(0.26458333,0,0,0.26458333,68.871306,5.7105025)">
		<polygon
   style="clip-rule:evenodd;fill:#4c6186;fill-rule:evenodd"
   points="91.272,164.434 121.984,164.434 121.984,169.308 123.938,181.419 88.738,181.419 "
   id="polygon2" />

	</g>
    <g
       id="g4"
       transform="matrix(0.26458333,0,0,0.26458333,68.871306,5.7105025)">
		<polygon
   style="clip-rule:evenodd;fill:#7894ae;fill-rule:evenodd"
   points="93.025,164.434 121.984,164.434 121.984,169.308 123.938,181.419 90.491,181.419 "
   id="polygon3" />

	</g>
    <g
       id="g5"
       transform="matrix(0.26458333,0,0,0.26458333,68.871306,5.7105025)">
		<path
   style="clip-rule:evenodd;fill:#a3b9c6;fill-rule:evenodd"
   d="m 121.984,169.302 v 0.006 l 1.954,12.111 h -3.994 c -4.307,-0.71 -7.476,-3.108 -7.476,-5.957 10e-4,-3.284 4.209,-5.969 9.516,-6.16 z"
   id="path4" />

	</g>
    <g
       id="g6"
       transform="matrix(0.26458333,0,0,0.26458333,68.871306,5.7105025)">
		<path
   style="clip-rule:evenodd;fill:#c9d5dc;fill-rule:evenodd"
   d="m 122.083,169.92 1.855,11.499 h -1.425 c -3.887,-0.861 -6.663,-3.133 -6.663,-5.8 0,-2.567 2.573,-4.77 6.233,-5.699 z"
   id="path5" />

	</g>
    <g
       id="g7"
       transform="matrix(0.26458333,0,0,0.26458333,68.871306,5.7105025)">
		<polygon
   style="clip-rule:evenodd;fill:#7894ae;fill-rule:evenodd"
   points="126.927,182.051 111.697,182.051 111.697,174.521 126.927,174.521 "
   id="polygon6" />

	</g>
    <g
       id="g8"
       transform="matrix(0.26458333,0,0,0.26458333,68.871306,5.7105025)">
		<polygon
   style="clip-rule:evenodd;fill:#a3b9c6;fill-rule:evenodd"
   points="126.927,182.051 124.295,182.051 124.295,174.521 126.927,174.521 "
   id="polygon7" />

	</g>
    <g
       id="g1245"
       transform="matrix(0.26458333,0,0,0.26458333,68.871306,5.7105025)">
		<path
   style="clip-rule:evenodd;fill:#d3e0e9;fill-rule:evenodd"
   d="m 130.945,178.871 h 8.375 c 0.246,0 0.448,0.239 0.448,0.53 v 2.552 c 0,0.292 -0.202,0.53 -0.448,0.53 h -8.375 c -0.246,0 -0.448,-0.239 -0.448,-0.53 v -2.552 c 0,-0.291 0.201,-0.53 0.448,-0.53 z"
   id="path1244" />

	</g>
    <g
       id="g1246"
       transform="matrix(0.26458333,0,0,0.26458333,68.871306,5.7105025)">
		<path
   style="clip-rule:evenodd;fill:#a3b9c6;fill-rule:evenodd"
   d="m 138.945,182.483 h -8.001 c -0.246,0 -0.448,-0.238 -0.448,-0.53 v -2.552 c 0,-0.112 0.031,-0.218 0.082,-0.304 h 8.002 c 0.246,0 0.448,0.238 0.448,0.53 v 2.551 c 0,0.115 -0.031,0.219 -0.083,0.305 z"
   id="path1245" />

	</g>
    <g
       id="g1247"
       transform="matrix(0.26458333,0,0,0.26458333,68.871306,5.7105025)">
		<path
   style="clip-rule:evenodd;fill:#7894ae;fill-rule:evenodd"
   d="m 134.072,182.483 h -3.128 c -0.246,0 -0.448,-0.238 -0.448,-0.53 v -2.436 h 3.128 c 0.246,0 0.448,0.238 0.448,0.53 z"
   id="path1246" />

	</g>
    <g
       id="g1248"
       transform="matrix(0.26458333,0,0,0.26458333,68.871306,5.7105025)">
		<polygon
   style="clip-rule:evenodd;fill:#7894ae;fill-rule:evenodd"
   points="136.55,176.43 140.127,176.43 140.127,176.079 136.55,176.079 "
   id="polygon1247" />

	</g>
    <g
       id="g1249"
       transform="matrix(0.26458333,0,0,0.26458333,68.871306,5.7105025)">
		<path
   style="clip-rule:evenodd;fill:#c9d5dc;fill-rule:evenodd"
   d="m 135.685,175.166 h -1.169 c -0.81,0 -1.473,0.663 -1.473,1.473 v 1.711 c 0,0.159 0.027,0.312 0.075,0.456 h 3.965 c 0.047,-0.144 0.075,-0.297 0.075,-0.456 v -1.711 c 0,-0.81 -0.663,-1.473 -1.473,-1.473 z"
   id="path1248" />

	</g>
    <g
       id="g1250"
       transform="matrix(0.26458333,0,0,0.26458333,68.871306,5.7105025)">
		<path
   style="clip-rule:evenodd;fill:#7894ae;fill-rule:evenodd"
   d="m 133.243,175.903 c -0.126,0.217 -0.199,0.469 -0.199,0.736 v 1.711 c 0,0.159 0.027,0.312 0.074,0.456 h 3.312 v -1.536 c 0,-0.81 -0.663,-1.473 -1.473,-1.473 h -1.169 c -0.192,0.001 -0.376,0.038 -0.545,0.106 z"
   id="path1249" />

	</g>
    <g
       id="g1251"
       transform="matrix(0.26458333,0,0,0.26458333,68.871306,5.7105025)">
		<polygon
   style="clip-rule:evenodd;fill:#4c6186;fill-rule:evenodd"
   points="132.238,178.867 138.016,178.867 137.361,177.185 132.846,177.185 "
   id="polygon1250" />

	</g>
    <g
       id="g1252"
       transform="matrix(0.26458333,0,0,0.26458333,68.871306,5.7105025)">
		<polygon
   style="clip-rule:evenodd;fill:#7894ae;fill-rule:evenodd"
   points="137.394,178.711 137.725,178.711 137.212,177.414 136.882,177.414 "
   id="polygon1251" />

	</g>
    <g
       id="g1253"
       transform="matrix(0.26458333,0,0,0.26458333,68.871306,5.7105025)">
		<path
   style="clip-rule:evenodd;fill:#7894ae;fill-rule:evenodd"
   d="m 136.448,177.414 c -0.11,0 -0.221,0 -0.331,0 0.103,0.432 0.207,0.865 0.31,1.297 0.11,0 0.221,0 0.331,0 -0.103,-0.432 -0.206,-0.864 -0.31,-1.297 z"
   id="path1252" />

	</g>
    <g
       id="g1254"
       transform="matrix(0.26458333,0,0,0.26458333,68.871306,5.7105025)">
		<path
   style="clip-rule:evenodd;fill:#7894ae;fill-rule:evenodd"
   d="m 135.685,177.414 c -0.11,0 -0.221,0 -0.331,0 0.036,0.432 0.072,0.865 0.107,1.297 0.11,0 0.221,0 0.331,0 -0.036,-0.432 -0.071,-0.864 -0.107,-1.297 z"
   id="path1253" />

	</g>
    <g
       id="g1255"
       transform="matrix(0.26458333,0,0,0.26458333,68.871306,5.7105025)">
		<path
   style="clip-rule:evenodd;fill:#7894ae;fill-rule:evenodd"
   d="m 134.919,177.414 c -0.11,0 -0.221,0 -0.331,0 -0.031,0.432 -0.063,0.865 -0.095,1.297 0.11,0 0.221,0 0.331,0 0.033,-0.432 0.064,-0.864 0.095,-1.297 z"
   id="path1254" />

	</g>
    <g
       id="g1256"
       transform="matrix(0.26458333,0,0,0.26458333,68.871306,5.7105025)">
		<path
   style="clip-rule:evenodd;fill:#7894ae;fill-rule:evenodd"
   d="m 134.156,177.414 c -0.11,0 -0.221,0 -0.331,0 -0.099,0.432 -0.198,0.865 -0.297,1.297 0.11,0 0.221,0 0.331,0 0.098,-0.432 0.198,-0.864 0.297,-1.297 z"
   id="path1255" />

	</g>
    <g
       id="g1257"
       transform="matrix(0.26458333,0,0,0.26458333,68.871306,5.7105025)">
		<polygon
   style="clip-rule:evenodd;fill:#7894ae;fill-rule:evenodd"
   points="132.56,178.711 132.891,178.711 133.391,177.414 133.06,177.414 "
   id="polygon1256" />

	</g>
    <g
       id="g1258"
       transform="matrix(0.26458333,0,0,0.26458333,68.871306,5.7105025)">
		<path
   style="clip-rule:evenodd;fill:#d3e0e9;fill-rule:evenodd"
   d="m 60.196,181.441 h 56.91 l 58.181,2.048 c -9.336,2.65 -32.226,5.474 -41.919,5.903 l -89.893,3.975 z"
   id="path1257" />

		<path
   style="fill:#7894ae"
   d="m 43.115,193.49 17.046,-12.157 h 56.944 l 58.872,2.071 -0.661,0.188 c -9.336,2.65 -32.06,5.47 -41.944,5.907 z m 17.115,-11.941 -16.396,11.693 89.528,-3.958 c 9.643,-0.426 31.511,-3.121 41.215,-5.712 L 117.101,181.55 H 60.23 Z"
   id="path1258" />

	</g>
    <g
       id="g1259"
       transform="matrix(0.26458333,0,0,0.26458333,68.871306,5.7105025)">
		<polygon
   style="clip-rule:evenodd;fill:#4d6987;fill-rule:evenodd"
   points="175.106,214.507 171.854,199.148 42.137,207.821 38.687,214.507 "
   id="polygon1258" />

	</g>
    <g
       id="g1260"
       transform="matrix(0.26458333,0,0,0.26458333,68.871306,5.7105025)">
		<path
   style="clip-rule:evenodd;fill:#a3b9c6;fill-rule:evenodd"
   d="m 110.755,159.23 c 1.571,0 2.844,1.273 2.844,2.844 0,1.571 -1.273,2.844 -2.844,2.844 -1.57,0 -2.844,-1.273 -2.844,-2.844 0,-1.571 1.274,-2.844 2.844,-2.844 z"
   id="path1259" />

	</g>
    <g
       id="g1261"
       transform="matrix(0.26458333,0,0,0.26458333,68.871306,5.7105025)">
		<path
   style="clip-rule:evenodd;fill:#c9d5dc;fill-rule:evenodd"
   d="m 110.985,159.238 c 1.387,0.112 2.494,1.218 2.605,2.604 -0.105,1.233 -1.137,2.2 -2.397,2.2 -1.329,0 -2.406,-1.077 -2.406,-2.407 0,-1.259 0.965,-2.292 2.198,-2.397 z"
   id="path1260" />

	</g>
    <g
       id="g1262"
       transform="matrix(0.26458333,0,0,0.26458333,68.871306,5.7105025)">
		<path
   style="clip-rule:evenodd;fill:#ffffff;fill-rule:evenodd"
   d="m 110.829,159.47 c 0.955,-0.074 1.828,0.558 2.054,1.489 0.062,0.849 -0.535,1.619 -1.392,1.756 -0.904,0.144 -1.753,-0.471 -1.897,-1.376 -0.137,-0.857 0.408,-1.664 1.235,-1.869 z"
   id="path1261" />

	</g>
    <g
       id="g1263"
       transform="matrix(0.26458333,0,0,0.26458333,68.871306,5.7105025)">
		<polygon
   style="clip-rule:evenodd;fill:#6f8fa7;fill-rule:evenodd"
   points="113.916,164.434 107.794,164.434 107.794,162.983 113.916,162.983 "
   id="polygon1262" />

	</g>
    <g
       id="g1264"
       transform="matrix(0.26458333,0,0,0.26458333,68.871306,5.7105025)">
		<polygon
   style="clip-rule:evenodd;fill:#d3e0e9;fill-rule:evenodd"
   points="113.916,163.409 107.794,163.409 107.794,162.983 113.916,162.983 "
   id="polygon1263" />

	</g>
    <g
       id="g1265"
       transform="matrix(0.26458333,0,0,0.26458333,68.871306,5.7105025)">
		<polygon
   style="clip-rule:evenodd;fill:#4c6186;fill-rule:evenodd"
   points="109.565,164.434 107.794,164.434 107.794,163.409 109.565,163.409 "
   id="polygon1264" />

	</g>
    <g
       id="g1266"
       transform="matrix(0.26458333,0,0,0.26458333,68.871306,5.7105025)">
		<path
   style="clip-rule:evenodd;fill:#a3b9c6;fill-rule:evenodd"
   d="m 97.482,150.156 c 1.571,0 2.844,1.273 2.844,2.844 0,1.571 -1.273,2.844 -2.844,2.844 -1.57,0 -2.844,-1.273 -2.844,-2.844 10e-4,-1.571 1.274,-2.844 2.844,-2.844 z"
   id="path1265" />

	</g>
    <g
       id="g1267"
       transform="matrix(0.26458333,0,0,0.26458333,68.871306,5.7105025)">
		<path
   style="clip-rule:evenodd;fill:#c9d5dc;fill-rule:evenodd"
   d="m 97.712,150.164 c 1.386,0.112 2.494,1.218 2.604,2.604 -0.105,1.233 -1.137,2.2 -2.397,2.2 -1.329,0 -2.406,-1.077 -2.406,-2.407 10e-4,-1.259 0.967,-2.292 2.199,-2.397 z"
   id="path1266" />

	</g>
    <g
       id="g1268"
       transform="matrix(0.26458333,0,0,0.26458333,68.871306,5.7105025)">
		<path
   style="clip-rule:evenodd;fill:#ffffff;fill-rule:evenodd"
   d="m 97.556,150.396 c 0.955,-0.074 1.828,0.558 2.054,1.489 0.062,0.85 -0.535,1.619 -1.392,1.756 -0.904,0.144 -1.753,-0.471 -1.898,-1.376 -0.136,-0.857 0.409,-1.664 1.236,-1.869 z"
   id="path1267" />

	</g>
    <g
       id="g1269"
       transform="matrix(0.26458333,0,0,0.26458333,68.871306,5.7105025)">
		<polygon
   style="clip-rule:evenodd;fill:#6f8fa7;fill-rule:evenodd"
   points="100.643,155.36 94.522,155.36 94.522,153.909 100.643,153.909 "
   id="polygon1268" />

	</g>
    <g
       id="g1270"
       transform="matrix(0.26458333,0,0,0.26458333,68.871306,5.7105025)">
		<polygon
   style="clip-rule:evenodd;fill:#d3e0e9;fill-rule:evenodd"
   points="100.643,154.335 94.522,154.335 94.522,153.909 100.643,153.909 "
   id="polygon1269" />

	</g>
    <g
       id="g1271"
       transform="matrix(0.26458333,0,0,0.26458333,68.871306,5.7105025)">
		<polygon
   style="clip-rule:evenodd;fill:#4c6186;fill-rule:evenodd"
   points="96.293,155.36 94.522,155.36 94.522,154.336 96.293,154.336 "
   id="polygon1270" />

	</g>
    <g
       id="g1272"
       transform="matrix(0.26458333,0,0,0.26458333,68.871306,5.7105025)">
		<polygon
   style="clip-rule:evenodd;fill:#4c6186;fill-rule:evenodd"
   points="44.032,164.834 42.184,164.834 42.184,163.781 44.032,163.781 "
   id="polygon1271" />

	</g>
    <g
       id="g1273"
       transform="matrix(0.26458333,0,0,0.26458333,68.871306,5.7105025)">
		<polygon
   style="clip-rule:evenodd;fill:#4c6186;fill-rule:evenodd"
   points="61.258,165.228 57.406,165.228 57.406,162.716 61.258,162.716 "
   id="polygon1272" />

	</g>
    <g
       id="g1276"
       transform="matrix(0.26458333,0,0,0.26458333,68.871306,5.7105025)">
		<polygon
   style="clip-rule:evenodd;fill:#4c6186;fill-rule:evenodd"
   points="41.759,197.341 45.192,189.391 42.993,181.518 50.011,167.395 48.078,167.305 41.283,181.441 43.475,193.366 "
   id="polygon1275" />

	</g>
    <g
       id="g1277"
       transform="matrix(0.26458333,0,0,0.26458333,68.871306,5.7105025)">
		<path
   style="clip-rule:evenodd;fill:#4c6186;fill-rule:evenodd"
   d="m 66.972,181.96 -6.766,-0.519 v -12.958 h -2.928 c -3.086,3.696 -6.291,8.284 -5.102,14.251 1.045,5.242 9.348,5.973 14.695,-0.527 z"
   id="path1276" />

	</g>
    <g
       id="g1278"
       transform="matrix(0.26458333,0,0,0.26458333,68.871306,5.7105025)">
		<path
   style="clip-rule:evenodd;fill:#d3e0e9;fill-rule:evenodd"
   d="m 41.202,163.781 h 1.963 l -1.516,3.736 h -0.447 c -0.547,0 -0.995,-0.448 -0.995,-0.995 v -1.746 c 0,-0.548 0.448,-0.995 0.995,-0.995 z"
   id="path1277" />

	</g>
    <g
       id="g1279"
       transform="matrix(0.26458333,0,0,0.26458333,68.871306,5.7105025)">
		<path
   style="clip-rule:evenodd;fill:#4c6186;fill-rule:evenodd"
   d="m 45.128,167.169 c -0.183,0.212 -0.452,0.348 -0.753,0.348 h -3.173 c -0.547,0 -0.995,-0.448 -0.995,-0.995 v -1.668 c 0.183,-0.212 0.452,-0.346 0.753,-0.346 h 3.173 c 0.547,0 0.995,0.448 0.995,0.995 z"
   id="path1278" />

	</g>
    <g
       id="g1280"
       transform="matrix(0.26458333,0,0,0.26458333,68.871306,5.7105025)">
		<path
   style="clip-rule:evenodd;fill:#7894ae;fill-rule:evenodd"
   d="m 40.553,164.596 c 0.124,-0.056 0.262,-0.088 0.407,-0.088 h 1.911 l -0.8,1.97 h -0.522 c -0.547,0 -0.995,-0.448 -0.995,-0.995 v -0.887 z"
   id="path1279" />

	</g>
    <g
       id="g1281"
       transform="matrix(0.26458333,0,0,0.26458333,68.871306,5.7105025)">
		<path
   style="clip-rule:evenodd;fill:#d3e0e9;fill-rule:evenodd"
   d="m 44.258,162.716 h 14.19 l -2.456,5.866 H 44.258 c -0.603,0 -1.098,-0.434 -1.098,-0.966 v -3.934 c 0,-0.532 0.494,-0.966 1.098,-0.966 z"
   id="path1280" />

	</g>
    <g
       id="g1282"
       transform="matrix(0.26458333,0,0,0.26458333,68.871306,5.7105025)">
		<path
   style="clip-rule:evenodd;fill:#4c6186;fill-rule:evenodd"
   d="m 61.971,168.459 c -0.158,0.077 -0.338,0.123 -0.531,0.123 H 44.258 c -0.604,0 -1.098,-0.434 -1.098,-0.966 v -3.738 c 0.158,-0.077 0.339,-0.121 0.531,-0.121 h 17.182 c 0.604,0 1.098,0.434 1.098,0.966 z"
   id="path1281" />

	</g>
    <g
       id="g1283"
       transform="matrix(0.26458333,0,0,0.26458333,68.871306,5.7105025)">
		<path
   style="clip-rule:evenodd;fill:#7894ae;fill-rule:evenodd"
   d="m 44.032,163.756 h 13.98 l -1.332,3.121 H 45.13 c -0.603,0 -1.098,-0.434 -1.098,-0.966 z"
   id="path1282" />

	</g>
    <g
       id="g1284"
       transform="matrix(0.26458333,0,0,0.26458333,68.871306,5.7105025)">
		<path
   style="clip-rule:evenodd;fill:#d3e0e9;fill-rule:evenodd"
   d="m 61.17,155.934 8.523,-1.121 c 0.525,-0.069 0.963,0.434 0.963,0.963 v 20.355 c 0,0.528 -0.438,1.024 -0.963,0.963 l -8.523,-0.996 c -0.526,-0.061 -0.963,-0.433 -0.963,-0.963 v -18.238 c 0,-0.53 0.438,-0.894 0.963,-0.963 z"
   id="path1283" />

	</g>
    <g
       id="g1285"
       transform="matrix(0.26458333,0,0,0.26458333,68.871306,5.7105025)">
		<path
   style="clip-rule:evenodd;fill:#4c6186;fill-rule:evenodd"
   d="m 69.572,177.079 -8.402,-0.982 c -0.526,-0.061 -0.963,-0.433 -0.963,-0.963 v -17.319 l 8.402,-1.105 c 0.525,-0.069 0.963,0.435 0.963,0.963 z"
   id="path1284" />

	</g>
    <g
       id="g1286"
       transform="matrix(0.26458333,0,0,0.26458333,68.871306,5.7105025)">
		<path
   style="clip-rule:evenodd;fill:#7894ae;fill-rule:evenodd"
   d="m 61.258,157.677 7.352,-0.967 c 0.525,-0.069 0.963,0.435 0.963,0.963 v 16.864 l -7.144,-0.733 c -0.639,-0.065 -1.17,-0.462 -1.17,-1.026 v -15.101 z"
   id="path1285" />

	</g>
    <g
       id="g1287"
       transform="matrix(0.26458333,0,0,0.26458333,68.871306,5.7105025)">
		<path
   style="fill:#4c6186"
   d="m 91.728,162.865 -3.187,-5.725 -0.242,0.389 v -7.547 h -0.266 l 0.266,-0.342 v -3.305 h -0.227 l 0.227,-0.333 v -8.203 l 2.198,5.417 h 0.31 l -0.194,0.286 0.943,2.325 h 0.35 l -0.229,0.295 1.36,3.352 h 0.288 l -0.175,0.28 2.962,7.298 z m -2.879,-6.219 2.943,5.286 3.737,-4.958 -2.713,-6.687 z m -0.041,-6.664 v 5.765 l 3.596,-5.765 z m 0.266,-0.51 h 3.411 l -1.171,-2.886 z m -0.266,-3.137 v 2.647 l 2.055,-2.647 z m 0.227,-0.51 h 1.97 l -0.737,-1.817 z m -0.227,-2.1 v 1.525 l 1.035,-1.525 z m 0,-0.51 h 1.137 l -1.137,-2.802 z"
   id="path1286" />

	</g>
    <g
       id="g1288"
       transform="matrix(0.26458333,0,0,0.26458333,68.871306,5.7105025)">
		<polygon
   style="clip-rule:evenodd;fill:#7894ae;fill-rule:evenodd"
   points="121.984,169.255 113.766,169.255 113.766,164.434 123.41,164.434 "
   id="polygon1287" />

	</g>
    <g
       id="g1289"
       transform="matrix(0.26458333,0,0,0.26458333,68.871306,5.7105025)">
		<polygon
   style="clip-rule:evenodd;fill:#4c6186;fill-rule:evenodd"
   points="104.156,164.434 91.484,164.434 92.435,157.415 102.678,157.415 "
   id="polygon1288" />

	</g>
    <g
       id="g1290"
       transform="matrix(0.26458333,0,0,0.26458333,68.871306,5.7105025)">
		<polygon
   style="clip-rule:evenodd;fill:#7894ae;fill-rule:evenodd"
   points="104.156,164.434 92.976,164.434 93.927,157.415 102.678,157.415 "
   id="polygon1289" />

	</g>
    <g
       id="g1291"
       transform="matrix(0.26458333,0,0,0.26458333,68.871306,5.7105025)">
		<polygon
   style="clip-rule:evenodd;fill:#c9d5dc;fill-rule:evenodd"
   points="104.156,164.434 97.82,164.434 98.554,157.415 102.678,157.415 "
   id="polygon1290" />

	</g>
    <g
       id="g1292"
       transform="matrix(0.26458333,0,0,0.26458333,68.871306,5.7105025)">
		<path
   style="clip-rule:evenodd;fill:#a3b9c6;fill-rule:evenodd"
   d="m 98.554,157.415 h 4.124 l 0.663,3.147 c -1.256,-1.25 -3.104,-1.848 -4.92,-1.877 z"
   id="path1291" />

	</g>
    <g
       id="g1293"
       transform="matrix(0.26458333,0,0,0.26458333,68.871306,5.7105025)">
		<polygon
   style="clip-rule:evenodd;fill:#d3e0e9;fill-rule:evenodd"
   points="103.946,157.521 83.509,157.521 83.509,156.622 103.946,156.622 "
   id="polygon1292" />

	</g>
    <g
       id="g1294"
       transform="matrix(0.26458333,0,0,0.26458333,68.871306,5.7105025)">
		<path
   style="clip-rule:evenodd;fill:#4c6186;fill-rule:evenodd"
   d="m 92.42,157.521 h 10.28 l 0.354,1.681 c -1.463,-1.017 -5.861,-1.056 -10.735,-0.935 z"
   id="path1293" />

	</g>
    <g
       id="g1295"
       transform="matrix(0.26458333,0,0,0.26458333,68.871306,5.7105025)">
		<polygon
   style="clip-rule:evenodd;fill:#7894ae;fill-rule:evenodd"
   points="102.203,156.622 92.962,156.622 92.962,155.353 102.203,155.353 "
   id="polygon1294" />

	</g>
    <g
       id="g1296"
       transform="matrix(0.26458333,0,0,0.26458333,68.871306,5.7105025)">
		<path
   style="clip-rule:evenodd;fill:#39506e;fill-rule:evenodd"
   d="m 42.137,197.341 128.086,-6.772 c 2.987,-0.158 5.438,2.359 5.438,5.24 v 0 c 0,2.882 -2.63,4.209 -5.438,5.24 -11.563,4.245 -21.499,6.771 -38.482,6.771 H 42.137 c -2.991,0 -5.438,-2.358 -5.438,-5.24 v 0 c 0,-2.881 2.451,-5.081 5.438,-5.239 z"
   id="path1295" />

	</g>
    <g
       id="g1297"
       transform="matrix(0.26458333,0,0,0.26458333,68.871306,5.7105025)">
		<path
   style="clip-rule:evenodd;fill:#4d6987;fill-rule:evenodd"
   d="m 42.137,197.341 128.086,-6.772 c 2.17,-0.115 4.057,1.183 4.927,3.007 0.003,0.069 0.005,0.138 0.005,0.208 v 0 c 0,2.882 -2.576,4.209 -5.326,5.24 -11.326,4.245 -21.058,6.771 -37.693,6.771 H 44.37 c -2.929,0 -5.326,-2.358 -5.326,-5.24 v 0 c 0,-0.97 0.273,-1.864 0.746,-2.628 0.711,-0.336 1.508,-0.542 2.347,-0.586 z"
   id="path1296" />

	</g>
    <g
       id="g1298"
       transform="matrix(0.26458333,0,0,0.26458333,68.871306,5.7105025)">
		<path
   style="clip-rule:evenodd;fill:#6987a1;fill-rule:evenodd"
   d="m 45.4,197.168 124.823,-6.599 c 0.089,-0.005 0.177,-0.006 0.266,-0.006 0.221,0.295 0.412,0.615 0.568,0.955 0.003,0.066 0.005,0.133 0.005,0.199 v 10e-4 c 0,2.771 -2.38,4.048 -4.921,5.039 -10.466,4.082 -19.459,6.512 -34.83,6.512 h -81.1 c -2.707,0 -4.921,-2.267 -4.921,-5.039 v -10e-4 c -0.002,-0.366 0.037,-0.72 0.11,-1.061 z"
   id="path1297" />

	</g>
    <g
       id="g1299"
       transform="matrix(0.26458333,0,0,0.26458333,68.871306,5.7105025)">
		<path
   style="clip-rule:evenodd;fill:#91abb4;fill-rule:evenodd"
   d="m 46.845,197.092 121.947,-6.447 c -0.385,2.253 -2.485,3.381 -4.713,4.276 -10.156,4.082 -18.884,6.512 -33.801,6.512 H 51.575 c -2.402,0 -4.406,-1.896 -4.73,-4.341 z"
   id="path1298" />

	</g>
    <g
       id="g1300"
       transform="matrix(0.26458333,0,0,0.26458333,68.871306,5.7105025)">
		<path
   style="clip-rule:evenodd;fill:#39506e;fill-rule:evenodd"
   d="m 42.137,197.341 128.086,-6.772 c 0.5,-0.026 0.985,0.023 1.445,0.136 -11.856,6.241 -30.39,8.838 -38.794,8.838 H 39.146 c 0.12,-0.583 0.34,-1.126 0.643,-1.616 0.712,-0.336 1.509,-0.542 2.348,-0.586 z"
   id="path1299" />

	</g>
    <g
       id="g1301"
       transform="matrix(0.26458333,0,0,0.26458333,68.871306,5.7105025)">
		<polygon
   style="clip-rule:evenodd;fill:#4c6186;fill-rule:evenodd"
   points="116.395,168.39 114.441,168.39 114.441,165.303 116.395,165.303 "
   id="polygon1300" />

	</g>
    <g
       id="g1302"
       transform="matrix(0.26458333,0,0,0.26458333,68.871306,5.7105025)">
		<polygon
   style="clip-rule:evenodd;fill:#4c6186;fill-rule:evenodd"
   points="119.413,168.39 117.459,168.39 117.459,165.303 119.978,165.303 "
   id="polygon1301" />

	</g>
    <g
       id="g1303"
       transform="matrix(0.26458333,0,0,0.26458333,68.871306,5.7105025)">
		<polygon
   style="clip-rule:evenodd;fill:#4c6186;fill-rule:evenodd"
   points="122.24,168.39 120.369,168.39 121.194,165.303 123.163,165.303 "
   id="polygon1302" />

	</g>
    <g
       id="g1304"
       transform="matrix(0.26458333,0,0,0.26458333,68.871306,5.7105025)">
		<polygon
   style="clip-rule:evenodd;fill:#d3e0e9;fill-rule:evenodd"
   points="126.927,174.975 111.659,174.975 111.659,174.521 126.927,174.521 "
   id="polygon1303" />

	</g>
    <g
       id="g1305"
       transform="matrix(0.26458333,0,0,0.26458333,68.871306,5.7105025)">
		<polygon
   style="clip-rule:evenodd;fill:#4c6186;fill-rule:evenodd"
   points="126.927,175.428 111.659,175.428 111.659,174.975 126.927,174.975 "
   id="polygon1304" />

	</g>
    <g
       id="g1306"
       transform="matrix(0.26458333,0,0,0.26458333,68.871306,5.7105025)">
		<path
   style="fill:#c9d5dc"
   d="m 97.138,176.444 v -1.281 H 95.35 v -0.812 l 1.594,-5.168 h 1.179 v 5.089 h 0.561 v 0.89 h -0.561 v 1.281 h -0.985 z m -0.935,-2.172 h 0.935 v -3.581 z"
   id="path1305" />

	</g>
    <g
       id="g1307"
       transform="matrix(0.26458333,0,0,0.26458333,68.871306,5.7105025)">
		<path
   style="fill:#c9d5dc"
   d="m 100.959,176.435 h -1.204 c 0.066,-0.94 0.208,-1.8 0.427,-2.584 0.218,-0.782 0.415,-1.428 0.59,-1.933 0.174,-0.505 0.297,-0.862 0.37,-1.069 0.073,-0.208 0.131,-0.37 0.173,-0.487 0.044,-0.117 0.067,-0.187 0.073,-0.212 h -2.061 v -0.968 h 3.201 v 0.803 c -0.014,0.129 -0.058,0.297 -0.132,0.501 -0.073,0.206 -0.171,0.466 -0.293,0.781 -0.655,1.715 -1.037,3.438 -1.144,5.168 z"
   id="path1306" />

	</g>
    <g
       id="g1308"
       transform="matrix(0.26458333,0,0,0.26458333,68.871306,5.7105025)">
		<path
   style="fill:#c9d5dc"
   d="m 104.758,176.523 c -0.959,0 -1.439,-0.5 -1.439,-1.497 v -0.91 h 1.035 v 0.795 c 0,0.335 0.065,0.543 0.192,0.622 0.051,0.031 0.128,0.047 0.235,0.047 0.006,0 0.014,0 0.025,0 0.242,0 0.363,-0.238 0.363,-0.713 v -1.855 c 0,-0.263 -0.028,-0.46 -0.083,-0.591 -0.055,-0.131 -0.162,-0.196 -0.321,-0.196 -0.286,0 -0.429,0.235 -0.429,0.705 l -0.972,-0.041 v -3.701 h 2.682 v 0.989 h -1.665 v 1.471 c 0.052,-0.101 0.146,-0.184 0.283,-0.247 0.137,-0.064 0.286,-0.094 0.447,-0.094 0.423,0 0.717,0.186 0.882,0.558 0.164,0.371 0.247,0.962 0.247,1.771 0,0.81 -0.028,1.372 -0.084,1.687 -0.058,0.314 -0.141,0.554 -0.25,0.719 -0.209,0.319 -0.594,0.481 -1.148,0.481 z"
   id="path1307" />

	</g>
    <g
       id="g1309"
       transform="matrix(0.26458333,0,0,0.26458333,68.871306,5.7105025)">
		<polygon
   style="clip-rule:evenodd;fill:#d3e0e9;fill-rule:evenodd"
   points="102.203,155.691 92.962,155.691 92.962,155.353 102.203,155.353 "
   id="polygon1308" />

	</g>
    <g
       id="g1310"
       transform="matrix(0.26458333,0,0,0.26458333,68.871306,5.7105025)">
		<polygon
   style="clip-rule:evenodd;fill:#4c6186;fill-rule:evenodd"
   points="96.813,156.622 92.962,156.622 92.962,155.691 96.813,155.691 "
   id="polygon1309" />

	</g>
    <g
       id="g1311"
       transform="matrix(0.26458333,0,0,0.26458333,68.871306,5.7105025)">
		<polygon
   style="clip-rule:evenodd;fill:#d3e0e9;fill-rule:evenodd"
   points="123.504,164.67 91.162,164.67 91.162,164.332 123.504,164.332 "
   id="polygon1310" />

	</g>
    <g
       id="g1312"
       transform="matrix(0.26458333,0,0,0.26458333,68.871306,5.7105025)">
		<polygon
   style="clip-rule:evenodd;fill:#4c6186;fill-rule:evenodd"
   points="123.163,165.007 92.939,165.007 92.992,164.67 123.163,164.67 "
   id="polygon1311" />

	</g>
    <g
       id="g1313"
       transform="matrix(0.26458333,0,0,0.26458333,68.871306,5.7105025)">
		<path
   style="clip-rule:evenodd;fill:#d3e0e9;fill-rule:evenodd"
   d="m 78.569,178.803 h 10.719 c 0.272,0 0.494,0.181 0.494,0.404 v 2.178 c 0,0.222 -0.222,0.404 -0.494,0.404 H 78.569 c -0.272,0 -0.494,-0.181 -0.494,-0.404 v -2.178 c 10e-4,-0.222 0.222,-0.404 0.494,-0.404 z"
   id="path1312" />

	</g>
    <g
       id="g1314"
       transform="matrix(0.26458333,0,0,0.26458333,68.871306,5.7105025)">
		<path
   style="clip-rule:evenodd;fill:#a3b9c6;fill-rule:evenodd"
   d="m 89.376,181.782 c -0.029,0.005 -0.058,0.007 -0.088,0.007 H 78.569 c -0.272,0 -0.494,-0.181 -0.494,-0.404 v -2.178 c 0,-0.021 0.002,-0.042 0.006,-0.062 0.029,-0.005 0.058,-0.006 0.088,-0.006 h 10.72 c 0.272,0 0.493,0.181 0.493,0.404 v 2.178 c 10e-4,0.021 -0.002,0.041 -0.006,0.061 z"
   id="path1313" />

	</g>
    <g
       id="g1315"
       transform="matrix(0.26458333,0,0,0.26458333,68.871306,5.7105025)">
		<path
   style="clip-rule:evenodd;fill:#7894ae;fill-rule:evenodd"
   d="m 86.82,181.789 h -8.251 c -0.272,0 -0.494,-0.181 -0.494,-0.404 v -2.178 c 0,-0.021 0.002,-0.042 0.006,-0.062 0.029,-0.005 0.058,-0.006 0.088,-0.006 h 8.251 c 0.272,0 0.493,0.181 0.493,0.404 v 2.178 c 0,0.021 -0.002,0.041 -0.006,0.061 -0.028,0.005 -0.057,0.007 -0.087,0.007 z"
   id="path1314" />

	</g>
    <g
       id="g1316"
       transform="matrix(0.26458333,0,0,0.26458333,68.871306,5.7105025)">
		<polygon
   style="clip-rule:evenodd;fill:#4c6186;fill-rule:evenodd"
   points="83.147,181.789 78.933,181.789 78.933,180.593 83.147,180.593 "
   id="polygon1315" />

	</g>
    <g
       id="g1317"
       transform="matrix(0.26458333,0,0,0.26458333,68.871306,5.7105025)">
		<polygon
   style="clip-rule:evenodd;fill:#4c6186;fill-rule:evenodd"
   points="69.572,173.281 60.528,172.447 60.528,169.284 69.572,169.284 "
   id="polygon1316" />

	</g>
    <g
       id="g1318"
       transform="matrix(0.26458333,0,0,0.26458333,68.871306,5.7105025)">
		<path
   style="clip-rule:evenodd;fill:#a3b9c6;fill-rule:evenodd"
   d="m 61.258,161.797 h 8.314 v -4.124 c 0,-0.528 -0.437,-1.032 -0.963,-0.963 l -7.352,0.967 v 4.12 z"
   id="path1317" />

	</g>
    <g
       id="g1319"
       transform="matrix(0.26458333,0,0,0.26458333,68.871306,5.7105025)">
		<path
   style="clip-rule:evenodd;fill:#d3e0e9;fill-rule:evenodd"
   d="m 103.284,178.803 h 10.72 c 0.272,0 0.493,0.181 0.493,0.404 v 2.178 c 0,0.222 -0.222,0.404 -0.493,0.404 h -10.72 c -0.272,0 -0.493,-0.181 -0.493,-0.404 v -2.178 c -10e-4,-0.222 0.221,-0.404 0.493,-0.404 z"
   id="path1318" />

	</g>
    <g
       id="g1320"
       transform="matrix(0.26458333,0,0,0.26458333,68.871306,5.7105025)">
		<path
   style="clip-rule:evenodd;fill:#a3b9c6;fill-rule:evenodd"
   d="m 114.091,181.782 c -0.029,0.005 -0.057,0.007 -0.088,0.007 h -10.72 c -0.272,0 -0.493,-0.181 -0.493,-0.404 v -2.178 c 0,-0.021 0.002,-0.042 0.006,-0.062 0.029,-0.005 0.058,-0.006 0.088,-0.006 h 10.72 c 0.272,0 0.493,0.181 0.493,0.404 v 2.178 c 0,0.021 -0.002,0.041 -0.006,0.061 z"
   id="path1319" />

	</g>
    <g
       id="g1321"
       transform="matrix(0.26458333,0,0,0.26458333,68.871306,5.7105025)">
		<path
   style="clip-rule:evenodd;fill:#7894ae;fill-rule:evenodd"
   d="m 111.535,181.789 h -8.251 c -0.272,0 -0.493,-0.181 -0.493,-0.404 v -2.178 c 0,-0.021 0.002,-0.042 0.006,-0.062 0.029,-0.005 0.058,-0.006 0.088,-0.006 h 8.251 c 0.272,0 0.493,0.181 0.493,0.404 v 2.178 c 0,0.021 -0.002,0.041 -0.006,0.061 -0.029,0.005 -0.058,0.007 -0.088,0.007 z"
   id="path1320" />

	</g>
    <g
       id="g1322"
       transform="matrix(0.26458333,0,0,0.26458333,68.871306,5.7105025)">
		<polygon
   style="clip-rule:evenodd;fill:#4c6186;fill-rule:evenodd"
   points="107.862,181.789 103.648,181.789 103.648,180.593 107.862,180.593 "
   id="polygon1321" />

	</g>
    <g
       id="g1323"
       transform="matrix(0.26458333,0,0,0.26458333,68.871306,5.7105025)">
		<path
   style="clip-rule:evenodd;fill:#7894ae;fill-rule:evenodd"
   d="m 42.357,196.931 88.717,-0.509 c 10.975,0.331 28.867,-3.07 33.724,-5.566 l -4.83,-3.599 c -13.342,1.451 -28.652,1.839 -40.451,1.879 l -74.326,0.255 -3.33,7.314 c 0.174,-0.025 0.318,0.238 0.496,0.226 z"
   id="path1322" />

	</g>
    <g
       id="g1324"
       transform="matrix(0.26458333,0,0,0.26458333,68.871306,5.7105025)">
		<path
   style="clip-rule:evenodd;fill:#a3b9c6;fill-rule:evenodd"
   d="m 163.918,190.201 -3.95,-2.943 c -13.342,1.451 -28.652,1.839 -40.451,1.879 l -74.326,0.255 -2.787,6.122 c 0.118,0.065 0.231,0.202 0.361,0.194 l 88.717,-0.509 c 10.162,0.306 26.252,-2.587 32.436,-4.998 z"
   id="path1323" />

	</g>
    <g
       id="g1325"
       transform="matrix(0.26458333,0,0,0.26458333,68.871306,5.7105025)">
		<path
   style="clip-rule:evenodd;fill:#d3e0e9;fill-rule:evenodd"
   d="m 46.544,191.177 c 26.116,0 52.231,0 78.346,0 15.65,-0.417 26.927,-1.798 35.078,-3.92 -13.342,1.451 -28.652,1.839 -40.451,1.879 l -74.326,0.255 z"
   id="path1324" />

	</g>
    <g
       id="g1326"
       transform="matrix(0.26458333,0,0,0.26458333,68.871306,5.7105025)">
		<polygon
   style="clip-rule:evenodd;fill:#d3e0e9;fill-rule:evenodd"
   points="50.135,196.437 48.01,196.437 48.01,193.558 50.135,193.558 "
   id="polygon1325" />

	</g>
    <g
       id="g1327"
       transform="matrix(0.26458333,0,0,0.26458333,68.871306,5.7105025)">
		<polygon
   style="clip-rule:evenodd;fill:#d3e0e9;fill-rule:evenodd"
   points="129.881,195.665 127.757,195.665 127.757,192.786 129.881,192.786 "
   id="polygon1326" />

	</g>
    <g
       id="g1328"
       transform="matrix(0.26458333,0,0,0.26458333,68.871306,5.7105025)">
		<polygon
   style="clip-rule:evenodd;fill:#d3e0e9;fill-rule:evenodd"
   points="53.68,196.437 51.555,196.437 51.555,193.558 53.68,193.558 "
   id="polygon1327" />

	</g>
    <g
       id="g1329"
       transform="matrix(0.26458333,0,0,0.26458333,68.871306,5.7105025)">
		<polygon
   style="clip-rule:evenodd;fill:#d3e0e9;fill-rule:evenodd"
   points="133.426,195.665 131.302,195.665 131.302,192.786 133.426,192.786 "
   id="polygon1328" />

	</g>
    <g
       id="g1330"
       transform="matrix(0.26458333,0,0,0.26458333,68.871306,5.7105025)">
		<polygon
   style="clip-rule:evenodd;fill:#39506e;fill-rule:evenodd"
   points="156.689,214.507 157.832,205.208 156.661,205.312 154.617,214.507 "
   id="polygon1329" />

	</g>
    <g
       id="g1331"
       transform="matrix(0.26458333,0,0,0.26458333,68.871306,5.7105025)">
		<polygon
   style="clip-rule:evenodd;fill:#39506e;fill-rule:evenodd"
   points="169.264,214.507 169.219,204.289 168.061,204.403 167.192,214.507 "
   id="polygon1330" />

	</g>
    <g
       id="g1332"
       transform="matrix(0.26458333,0,0,0.26458333,68.871306,5.7105025)">
		<polygon
   style="clip-rule:evenodd;fill:#39506e;fill-rule:evenodd"
   points="150.659,214.507 151.088,207.462 149.925,207.541 148.588,214.507 "
   id="polygon1331" />

	</g>
    <g
       id="g1333"
       transform="matrix(0.26458333,0,0,0.26458333,68.871306,5.7105025)">
		<polygon
   style="clip-rule:evenodd;fill:#39506e;fill-rule:evenodd"
   points="163.234,214.507 163.033,205.208 161.877,205.312 161.163,214.507 "
   id="polygon1332" />

	</g>
    <g
       id="g1334"
       transform="matrix(0.26458333,0,0,0.26458333,68.871306,5.7105025)">
		<polygon
   style="clip-rule:evenodd;fill:#39506e;fill-rule:evenodd"
   points="147.96,214.507 148.056,207.462 146.896,207.541 145.888,214.507 "
   id="polygon1333" />

	</g>
    <g
       id="g1335"
       transform="matrix(0.26458333,0,0,0.26458333,68.871306,5.7105025)">
		<polygon
   style="clip-rule:evenodd;fill:#39506e;fill-rule:evenodd"
   points="160.535,214.507 160.001,205.208 158.849,205.312 158.463,214.507 "
   id="polygon1334" />

	</g>
    <g
       id="g1336"
       transform="matrix(0.26458333,0,0,0.26458333,68.871306,5.7105025)">
		<polygon
   style="clip-rule:evenodd;fill:#39506e;fill-rule:evenodd"
   points="173.11,214.507 171.389,204.289 170.249,204.403 171.038,214.507 "
   id="polygon1335" />

	</g>
    <g
       id="g1337"
       transform="matrix(0.26458333,0,0,0.26458333,68.871306,5.7105025)">
		<polygon
   style="clip-rule:evenodd;fill:#39506e;fill-rule:evenodd"
   points="43.513,214.507 45.287,207.462 44.108,207.541 41.441,214.507 "
   id="polygon1336" />

	</g>
    <g
       id="g1338"
       transform="matrix(0.26458333,0,0,0.26458333,68.871306,5.7105025)">
		<polygon
   style="clip-rule:evenodd;fill:#39506e;fill-rule:evenodd"
   points="50.058,214.507 50.487,207.462 49.324,207.541 47.987,214.507 "
   id="polygon1337" />

	</g>
    <g
       id="g1339"
       transform="matrix(0.26458333,0,0,0.26458333,68.871306,5.7105025)">
		<polygon
   style="clip-rule:evenodd;fill:#39506e;fill-rule:evenodd"
   points="47.359,214.507 47.455,207.462 46.296,207.541 45.287,214.507 "
   id="polygon1338" />

	</g>
    <g
       id="g1340"
       transform="matrix(0.26458333,0,0,0.26458333,68.871306,5.7105025)">
		<polygon
   style="clip-rule:evenodd;fill:#39506e;fill-rule:evenodd"
   points="52.904,214.507 54.175,207.462 53.002,207.541 50.833,214.507 "
   id="polygon1339" />

	</g>
    <g
       id="g1341"
       transform="matrix(0.26458333,0,0,0.26458333,68.871306,5.7105025)">
		<polygon
   style="clip-rule:evenodd;fill:#39506e;fill-rule:evenodd"
   points="56.088,214.507 57.862,207.462 56.683,207.541 54.016,214.507 "
   id="polygon1340" />

	</g>
    <g
       id="g1342"
       transform="matrix(0.26458333,0,0,0.26458333,68.871306,5.7105025)">
		<polygon
   style="clip-rule:evenodd;fill:#39506e;fill-rule:evenodd"
   points="68.663,214.507 70.437,207.462 69.258,207.541 66.591,214.507 "
   id="polygon1341" />

	</g>
    <g
       id="g1343"
       transform="matrix(0.26458333,0,0,0.26458333,68.871306,5.7105025)">
		<polygon
   style="clip-rule:evenodd;fill:#39506e;fill-rule:evenodd"
   points="81.238,214.507 83.012,207.462 81.833,207.541 79.167,214.507 "
   id="polygon1342" />

	</g>
    <g
       id="g1344"
       transform="matrix(0.26458333,0,0,0.26458333,68.871306,5.7105025)">
		<polygon
   style="clip-rule:evenodd;fill:#39506e;fill-rule:evenodd"
   points="93.813,214.507 95.587,207.462 94.408,207.541 91.742,214.507 "
   id="polygon1343" />

	</g>
    <g
       id="g1345"
       transform="matrix(0.26458333,0,0,0.26458333,68.871306,5.7105025)">
		<polygon
   style="clip-rule:evenodd;fill:#39506e;fill-rule:evenodd"
   points="106.388,214.507 108.162,207.462 106.983,207.541 104.317,214.507 "
   id="polygon1344" />

	</g>
    <g
       id="g1346"
       transform="matrix(0.26458333,0,0,0.26458333,68.871306,5.7105025)">
		<polygon
   style="clip-rule:evenodd;fill:#39506e;fill-rule:evenodd"
   points="118.964,214.507 120.737,207.462 119.559,207.541 116.892,214.507 "
   id="polygon1345" />

	</g>
    <g
       id="g1347"
       transform="matrix(0.26458333,0,0,0.26458333,68.871306,5.7105025)">
		<polygon
   style="clip-rule:evenodd;fill:#39506e;fill-rule:evenodd"
   points="131.539,214.507 133.312,207.462 132.134,207.541 129.467,214.507 "
   id="polygon1346" />

	</g>
    <g
       id="g1348"
       transform="matrix(0.26458333,0,0,0.26458333,68.871306,5.7105025)">
		<polygon
   style="clip-rule:evenodd;fill:#39506e;fill-rule:evenodd"
   points="144.114,214.507 145.887,207.462 144.709,207.541 142.042,214.507 "
   id="polygon1347" />

	</g>
    <g
       id="g1349"
       transform="matrix(0.26458333,0,0,0.26458333,68.871306,5.7105025)">
		<polygon
   style="clip-rule:evenodd;fill:#39506e;fill-rule:evenodd"
   points="62.633,214.507 63.062,207.462 61.899,207.541 60.562,214.507 "
   id="polygon1348" />

	</g>
    <g
       id="g1350"
       transform="matrix(0.26458333,0,0,0.26458333,68.871306,5.7105025)">
		<polygon
   style="clip-rule:evenodd;fill:#39506e;fill-rule:evenodd"
   points="75.208,214.507 75.637,207.462 74.474,207.541 73.137,214.507 "
   id="polygon1349" />

	</g>
    <g
       id="g1351"
       transform="matrix(0.26458333,0,0,0.26458333,68.871306,5.7105025)">
		<polygon
   style="clip-rule:evenodd;fill:#39506e;fill-rule:evenodd"
   points="87.784,214.507 88.213,207.462 87.049,207.541 85.712,214.507 "
   id="polygon1350" />

	</g>
    <g
       id="g1352"
       transform="matrix(0.26458333,0,0,0.26458333,68.871306,5.7105025)">
		<polygon
   style="clip-rule:evenodd;fill:#39506e;fill-rule:evenodd"
   points="100.359,214.507 100.788,207.462 99.624,207.541 98.287,214.507 "
   id="polygon1351" />

	</g>
    <g
       id="g1353"
       transform="matrix(0.26458333,0,0,0.26458333,68.871306,5.7105025)">
		<polygon
   style="clip-rule:evenodd;fill:#39506e;fill-rule:evenodd"
   points="112.934,214.507 113.363,207.462 112.199,207.541 110.862,214.507 "
   id="polygon1352" />

	</g>
    <g
       id="g1354"
       transform="matrix(0.26458333,0,0,0.26458333,68.871306,5.7105025)">
		<polygon
   style="clip-rule:evenodd;fill:#39506e;fill-rule:evenodd"
   points="125.509,214.507 125.938,207.462 124.775,207.541 123.437,214.507 "
   id="polygon1353" />

	</g>
    <g
       id="g1355"
       transform="matrix(0.26458333,0,0,0.26458333,68.871306,5.7105025)">
		<polygon
   style="clip-rule:evenodd;fill:#39506e;fill-rule:evenodd"
   points="138.084,214.507 138.513,207.462 137.35,207.541 136.012,214.507 "
   id="polygon1354" />

	</g>
    <g
       id="g1356"
       transform="matrix(0.26458333,0,0,0.26458333,68.871306,5.7105025)">
		<polygon
   style="clip-rule:evenodd;fill:#39506e;fill-rule:evenodd"
   points="59.934,214.507 60.03,207.462 58.871,207.541 57.862,214.507 "
   id="polygon1355" />

	</g>
    <g
       id="g1357"
       transform="matrix(0.26458333,0,0,0.26458333,68.871306,5.7105025)">
		<polygon
   style="clip-rule:evenodd;fill:#39506e;fill-rule:evenodd"
   points="72.509,214.507 72.606,207.462 71.446,207.541 70.437,214.507 "
   id="polygon1356" />

	</g>
    <g
       id="g1358"
       transform="matrix(0.26458333,0,0,0.26458333,68.871306,5.7105025)">
		<polygon
   style="clip-rule:evenodd;fill:#39506e;fill-rule:evenodd"
   points="85.084,214.507 85.181,207.462 84.021,207.541 83.012,214.507 "
   id="polygon1357" />

	</g>
    <g
       id="g1359"
       transform="matrix(0.26458333,0,0,0.26458333,68.871306,5.7105025)">
		<polygon
   style="clip-rule:evenodd;fill:#39506e;fill-rule:evenodd"
   points="97.659,214.507 97.756,207.462 96.596,207.541 95.588,214.507 "
   id="polygon1358" />

	</g>
    <g
       id="g1360"
       transform="matrix(0.26458333,0,0,0.26458333,68.871306,5.7105025)">
		<polygon
   style="clip-rule:evenodd;fill:#39506e;fill-rule:evenodd"
   points="110.234,214.507 110.331,207.462 109.171,207.541 108.163,214.507 "
   id="polygon1359" />

	</g>
    <g
       id="g1361"
       transform="matrix(0.26458333,0,0,0.26458333,68.871306,5.7105025)">
		<polygon
   style="clip-rule:evenodd;fill:#39506e;fill-rule:evenodd"
   points="122.81,214.507 122.906,207.462 121.746,207.541 120.738,214.507 "
   id="polygon1360" />

	</g>
    <g
       id="g1362"
       transform="matrix(0.26458333,0,0,0.26458333,68.871306,5.7105025)">
		<polygon
   style="clip-rule:evenodd;fill:#39506e;fill-rule:evenodd"
   points="135.385,214.507 135.481,207.462 134.321,207.541 133.313,214.507 "
   id="polygon1361" />

	</g>
    <g
       id="g1363"
       transform="matrix(0.26458333,0,0,0.26458333,68.871306,5.7105025)">
		<polygon
   style="clip-rule:evenodd;fill:#39506e;fill-rule:evenodd"
   points="65.479,214.507 66.75,207.462 65.577,207.541 63.408,214.507 "
   id="polygon1362" />

	</g>
    <g
       id="g1364"
       transform="matrix(0.26458333,0,0,0.26458333,68.871306,5.7105025)">
		<polygon
   style="clip-rule:evenodd;fill:#39506e;fill-rule:evenodd"
   points="78.054,214.507 79.325,207.462 78.153,207.541 75.983,214.507 "
   id="polygon1363" />

	</g>
    <g
       id="g1365"
       transform="matrix(0.26458333,0,0,0.26458333,68.871306,5.7105025)">
		<polygon
   style="clip-rule:evenodd;fill:#39506e;fill-rule:evenodd"
   points="90.63,214.507 91.901,207.462 90.728,207.541 88.558,214.507 "
   id="polygon1364" />

	</g>
    <g
       id="g1366"
       transform="matrix(0.26458333,0,0,0.26458333,68.871306,5.7105025)">
		<polygon
   style="clip-rule:evenodd;fill:#39506e;fill-rule:evenodd"
   points="103.205,214.507 104.476,207.462 103.303,207.541 101.133,214.507 "
   id="polygon1365" />

	</g>
    <g
       id="g1367"
       transform="matrix(0.26458333,0,0,0.26458333,68.871306,5.7105025)">
		<polygon
   style="clip-rule:evenodd;fill:#39506e;fill-rule:evenodd"
   points="115.78,214.507 117.051,207.462 115.878,207.541 113.708,214.507 "
   id="polygon1366" />

	</g>
    <g
       id="g1368"
       transform="matrix(0.26458333,0,0,0.26458333,68.871306,5.7105025)">
		<polygon
   style="clip-rule:evenodd;fill:#39506e;fill-rule:evenodd"
   points="128.355,214.507 129.626,207.462 128.453,207.541 126.283,214.507 "
   id="polygon1367" />

	</g>
    <g
       id="g1369"
       transform="matrix(0.26458333,0,0,0.26458333,68.871306,5.7105025)">
		<polygon
   style="clip-rule:evenodd;fill:#39506e;fill-rule:evenodd"
   points="140.93,214.507 142.201,207.462 141.028,207.541 138.858,214.507 "
   id="polygon1368" />

	</g>
    <g
       id="g1370"
       transform="matrix(0.26458333,0,0,0.26458333,68.871306,5.7105025)">
		<polygon
   style="clip-rule:evenodd;fill:#39506e;fill-rule:evenodd"
   points="153.505,214.507 154.776,207.462 153.603,207.541 151.434,214.507 "
   id="polygon1369" />

	</g>
    <g
       id="g1371"
       transform="matrix(0.26458333,0,0,0.26458333,68.871306,5.7105025)">
		<polygon
   style="clip-rule:evenodd;fill:#39506e;fill-rule:evenodd"
   points="166.08,214.507 165.533,204.289 164.38,204.403 164.009,214.507 "
   id="polygon1370" />

	</g>
    <g
       id="g1372"
       transform="matrix(0.26458333,0,0,0.26458333,68.871306,5.7105025)">
		<polygon
   style="clip-rule:evenodd;fill:#7894ae;fill-rule:evenodd"
   points="42.357,196.931 41.861,196.705 45.192,189.391 46.544,191.177 "
   id="polygon1371" />

	</g>
    <g
       id="g1373"
       transform="matrix(0.26458333,0,0,0.26458333,68.871306,5.7105025)">
		<polygon
   style="clip-rule:evenodd;fill:#4c6186;fill-rule:evenodd"
   points="94.628,161.216 93.337,161.216 93.337,158.992 94.628,158.992 "
   id="polygon1372" />

	</g>
    <g
       id="g1374"
       transform="matrix(0.26458333,0,0,0.26458333,68.871306,5.7105025)">
		<polygon
   style="clip-rule:evenodd;fill:#7894ae;fill-rule:evenodd"
   points="95.02,146.127 84.124,146.127 84.124,145.677 95.02,145.677 "
   id="polygon1373" />

	</g>
    <g
       id="g1375"
       transform="matrix(0.26458333,0,0,0.26458333,68.871306,5.7105025)">
		<polygon
   style="clip-rule:evenodd;fill:#7894ae;fill-rule:evenodd"
   points="85.927,145.677 85.553,145.677 85.553,135.517 85.927,135.517 "
   id="polygon1374" />

	</g>
    <g
       id="g1376"
       transform="matrix(0.26458333,0,0,0.26458333,68.871306,5.7105025)">
		<path
   style="clip-rule:evenodd;fill:#4c6186;fill-rule:evenodd"
   d="m 85.812,132.417 v 0 c 0.2,0 0.363,0.031 0.363,0.07 v 2.959 c 0,0.039 -0.163,0.07 -0.363,0.07 v 0 c -0.2,0 -0.363,-0.031 -0.363,-0.07 v -2.959 c 0,-0.039 0.162,-0.07 0.363,-0.07 z"
   id="path1375" />

	</g>
    <g
       id="g1377"
       transform="matrix(0.26458333,0,0,0.26458333,68.871306,5.7105025)">
		<polygon
   style="clip-rule:evenodd;fill:#7894ae;fill-rule:evenodd"
   points="87.552,136.012 87.866,136.012 87.866,135.24 87.552,135.24 "
   id="polygon1376" />

	</g>
    <g
       id="g1378"
       transform="matrix(0.26458333,0,0,0.26458333,68.871306,5.7105025)">
		<polygon
   style="clip-rule:evenodd;fill:#7894ae;fill-rule:evenodd"
   points="87.709,135.734 85.697,135.734 85.697,135.517 87.709,135.517 "
   id="polygon1377" />

	</g>
    <g
       id="g1379"
       transform="matrix(0.26458333,0,0,0.26458333,68.871306,5.7105025)">
		<polygon
   style="clip-rule:evenodd;fill:#7894ae;fill-rule:evenodd"
   points="86.665,138.539 86.979,138.539 86.979,137.766 86.665,137.766 "
   id="polygon1378" />

	</g>
    <g
       id="g1380"
       transform="matrix(0.26458333,0,0,0.26458333,68.871306,5.7105025)">
		<polygon
   style="clip-rule:evenodd;fill:#7894ae;fill-rule:evenodd"
   points="86.822,138.261 85.697,138.261 85.697,138.044 86.822,138.044 "
   id="polygon1379" />

	</g>
    <g
       id="g1381"
       transform="matrix(0.26458333,0,0,0.26458333,68.871306,5.7105025)">
		<path
   style="clip-rule:evenodd;fill:#4c6186;fill-rule:evenodd"
   d="m 92.666,142.689 v 0 c 0.2,0 0.363,0.031 0.363,0.07 v 2.959 c 0,0.039 -0.163,0.07 -0.363,0.07 v 0 c -0.2,0 -0.363,-0.031 -0.363,-0.07 v -2.959 c 0,-0.038 0.162,-0.07 0.363,-0.07 z"
   id="path1380" />

	</g>
    <g
       id="g1552"
       transform="matrix(0.26458333,0,0,0.26458333,68.871306,5.7105025)">
		<path
   style="clip-rule:evenodd;fill:#4c6186;fill-rule:evenodd"
   d="m 81.002,187.354 h 5.977 c 0.613,0 0.938,0.501 0.722,1.114 l -0.086,0.243 c -0.216,0.613 -0.893,1.114 -1.506,1.114 h -5.977 c -0.613,0 -0.938,-0.501 -0.722,-1.114 l 0.085,-0.243 c 0.216,-0.612 0.894,-1.114 1.507,-1.114 z"
   id="path1551" />

	</g>
    <g
       id="g1553"
       transform="matrix(0.26458333,0,0,0.26458333,68.871306,5.7105025)">
		<path
   style="clip-rule:evenodd;fill:#4c6186;fill-rule:evenodd"
   d="m 102.482,187.354 h 5.977 c 0.613,0 0.938,0.501 0.722,1.114 l -0.086,0.243 c -0.216,0.613 -0.893,1.114 -1.506,1.114 h -5.977 c -0.613,0 -0.938,-0.501 -0.722,-1.114 l 0.085,-0.243 c 0.217,-0.612 0.894,-1.114 1.507,-1.114 z"
   id="path1552" />

	</g>
    <g
       id="g1554"
       transform="matrix(0.26458333,0,0,0.26458333,68.871306,5.7105025)">
		<path
   style="clip-rule:evenodd;fill:#4c6186;fill-rule:evenodd"
   d="m 91.821,187.354 h 5.977 c 0.613,0 0.938,0.501 0.722,1.114 l -0.086,0.243 c -0.216,0.613 -0.893,1.114 -1.506,1.114 h -5.977 c -0.613,0 -0.938,-0.501 -0.722,-1.114 l 0.085,-0.243 c 0.216,-0.612 0.894,-1.114 1.507,-1.114 z"
   id="path1553" />

	</g>
    <g
       id="g1555"
       transform="matrix(0.26458333,0,0,0.26458333,68.871306,5.7105025)">
		<path
   style="clip-rule:evenodd;fill:#4c6186;fill-rule:evenodd"
   d="m 113.301,187.354 h 5.977 c 0.613,0 0.938,0.501 0.722,1.114 l -0.086,0.243 c -0.216,0.613 -0.893,1.114 -1.506,1.114 h -5.977 c -0.613,0 -0.938,-0.501 -0.722,-1.114 l 0.085,-0.243 c 0.216,-0.612 0.894,-1.114 1.507,-1.114 z"
   id="path1554" />

	</g>
    <g
       id="g1556"
       transform="matrix(0.26458333,0,0,0.26458333,68.871306,5.7105025)">
		<path
   style="clip-rule:evenodd;fill:#d3e0e9;fill-rule:evenodd"
   d="m 81.335,186.771 h 5.977 c 0.613,0 1.114,0.501 1.114,1.114 v 0.243 c 0,0.613 -0.501,1.114 -1.114,1.114 h -5.977 c -0.613,0 -1.114,-0.501 -1.114,-1.114 v -0.243 c -0.001,-0.612 0.501,-1.114 1.114,-1.114 z"
   id="path1555" />

	</g>
    <g
       id="g1557"
       transform="matrix(0.26458333,0,0,0.26458333,68.871306,5.7105025)">
		<path
   style="clip-rule:evenodd;fill:#a3b9c6;fill-rule:evenodd"
   d="m 87.885,189.082 c -0.168,0.101 -0.364,0.161 -0.573,0.161 h -5.977 c -0.613,0 -1.114,-0.501 -1.114,-1.114 v -0.243 c 0,-0.182 0.045,-0.355 0.123,-0.507 0.168,-0.102 0.364,-0.16 0.574,-0.16 h 5.977 c 0.613,0 1.114,0.501 1.114,1.114 v 0.243 c -0.001,0.182 -0.046,0.354 -0.124,0.506 z"
   id="path1556" />

	</g>
    <g
       id="g1558"
       transform="matrix(0.26458333,0,0,0.26458333,68.871306,5.7105025)">
		<polygon
   style="clip-rule:evenodd;fill:#7894ae;fill-rule:evenodd"
   points="82.541,189.263 82.169,189.263 82.169,186.771 82.541,186.771 "
   id="polygon1557" />

	</g>
    <g
       id="g1559"
       transform="matrix(0.26458333,0,0,0.26458333,68.871306,5.7105025)">
		<polygon
   style="clip-rule:evenodd;fill:#7894ae;fill-rule:evenodd"
   points="86.23,189.263 85.858,189.263 85.858,186.771 86.23,186.771 "
   id="polygon1558" />

	</g>
    <g
       id="g1560"
       transform="matrix(0.26458333,0,0,0.26458333,68.871306,5.7105025)">
		<path
   style="clip-rule:evenodd;fill:#d3e0e9;fill-rule:evenodd"
   d="m 92.132,186.771 h 5.977 c 0.613,0 1.114,0.501 1.114,1.114 v 0.243 c 0,0.613 -0.501,1.114 -1.114,1.114 h -5.977 c -0.613,0 -1.114,-0.501 -1.114,-1.114 v -0.243 c -0.001,-0.612 0.5,-1.114 1.114,-1.114 z"
   id="path1559" />

	</g>
    <g
       id="g1561"
       transform="matrix(0.26458333,0,0,0.26458333,68.871306,5.7105025)">
		<path
   style="clip-rule:evenodd;fill:#a3b9c6;fill-rule:evenodd"
   d="m 98.682,189.082 c -0.168,0.101 -0.364,0.161 -0.573,0.161 h -5.977 c -0.613,0 -1.114,-0.501 -1.114,-1.114 v -0.243 c 0,-0.182 0.045,-0.355 0.124,-0.507 0.168,-0.102 0.364,-0.16 0.573,-0.16 h 5.977 c 0.613,0 1.114,0.501 1.114,1.114 v 0.243 c -10e-4,0.182 -0.046,0.354 -0.124,0.506 z"
   id="path1560" />

	</g>
    <g
       id="g1562"
       transform="matrix(0.26458333,0,0,0.26458333,68.871306,5.7105025)">
		<polygon
   style="clip-rule:evenodd;fill:#7894ae;fill-rule:evenodd"
   points="93.338,189.263 92.966,189.263 92.966,186.771 93.338,186.771 "
   id="polygon1561" />

	</g>
    <g
       id="g1563"
       transform="matrix(0.26458333,0,0,0.26458333,68.871306,5.7105025)">
		<polygon
   style="clip-rule:evenodd;fill:#7894ae;fill-rule:evenodd"
   points="97.027,189.263 96.655,189.263 96.655,186.771 97.027,186.771 "
   id="polygon1562" />

	</g>
    <g
       id="g1564"
       transform="matrix(0.26458333,0,0,0.26458333,68.871306,5.7105025)">
		<path
   style="clip-rule:evenodd;fill:#d3e0e9;fill-rule:evenodd"
   d="m 102.928,186.771 h 5.977 c 0.613,0 1.114,0.501 1.114,1.114 v 0.243 c 0,0.613 -0.501,1.114 -1.114,1.114 h -5.977 c -0.613,0 -1.114,-0.501 -1.114,-1.114 v -0.243 c 0,-0.612 0.502,-1.114 1.114,-1.114 z"
   id="path1563" />

	</g>
    <g
       id="g1565"
       transform="matrix(0.26458333,0,0,0.26458333,68.871306,5.7105025)">
		<path
   style="clip-rule:evenodd;fill:#a3b9c6;fill-rule:evenodd"
   d="m 109.479,189.082 c -0.168,0.101 -0.364,0.161 -0.573,0.161 h -5.977 c -0.613,0 -1.114,-0.501 -1.114,-1.114 v -0.243 c 0,-0.182 0.045,-0.355 0.123,-0.507 0.168,-0.102 0.364,-0.16 0.573,-0.16 h 5.977 c 0.613,0 1.114,0.501 1.114,1.114 v 0.243 c 0,0.182 -0.045,0.354 -0.123,0.506 z"
   id="path1564" />

	</g>
    <g
       id="g1566"
       transform="matrix(0.26458333,0,0,0.26458333,68.871306,5.7105025)">
		<polygon
   style="clip-rule:evenodd;fill:#7894ae;fill-rule:evenodd"
   points="104.135,189.263 103.763,189.263 103.763,186.771 104.135,186.771 "
   id="polygon1565" />

	</g>
    <g
       id="g1567"
       transform="matrix(0.26458333,0,0,0.26458333,68.871306,5.7105025)">
		<polygon
   style="clip-rule:evenodd;fill:#7894ae;fill-rule:evenodd"
   points="107.824,189.263 107.452,189.263 107.452,186.771 107.824,186.771 "
   id="polygon1566" />

	</g>
    <g
       id="g1568"
       transform="matrix(0.26458333,0,0,0.26458333,68.871306,5.7105025)">
		<path
   style="clip-rule:evenodd;fill:#d3e0e9;fill-rule:evenodd"
   d="m 113.726,186.771 h 5.977 c 0.613,0 1.114,0.501 1.114,1.114 v 0.243 c 0,0.613 -0.501,1.114 -1.114,1.114 h -5.977 c -0.613,0 -1.114,-0.501 -1.114,-1.114 v -0.243 c -10e-4,-0.612 0.501,-1.114 1.114,-1.114 z"
   id="path1567" />

	</g>
    <g
       id="g1569"
       transform="matrix(0.26458333,0,0,0.26458333,68.871306,5.7105025)">
		<path
   style="clip-rule:evenodd;fill:#a3b9c6;fill-rule:evenodd"
   d="m 120.276,189.082 c -0.168,0.101 -0.364,0.161 -0.573,0.161 h -5.977 c -0.613,0 -1.114,-0.501 -1.114,-1.114 v -0.243 c 0,-0.182 0.045,-0.355 0.123,-0.507 0.168,-0.102 0.364,-0.16 0.574,-0.16 h 5.977 c 0.613,0 1.114,0.501 1.114,1.114 v 0.243 c -0.001,0.182 -0.046,0.354 -0.124,0.506 z"
   id="path1568" />

	</g>
    <g
       id="g1570"
       transform="matrix(0.26458333,0,0,0.26458333,68.871306,5.7105025)">
		<polygon
   style="clip-rule:evenodd;fill:#7894ae;fill-rule:evenodd"
   points="114.932,189.263 114.56,189.263 114.56,186.771 114.932,186.771 "
   id="polygon1569" />

	</g>
    <g
       id="g1571"
       transform="matrix(0.26458333,0,0,0.26458333,68.871306,5.7105025)">
		<polygon
   style="clip-rule:evenodd;fill:#7894ae;fill-rule:evenodd"
   points="118.621,189.263 118.249,189.263 118.249,186.771 118.621,186.771 "
   id="polygon1570" />

	</g>
    <g
       id="g1572"
       transform="matrix(0.26458333,0,0,0.26458333,68.871306,5.7105025)">
		<polygon
   style="clip-rule:evenodd;fill:#d3e0e9;fill-rule:evenodd"
   points="88.468,193.643 84.124,193.643 84.124,192.378 88.468,192.378 "
   id="polygon1571" />

	</g>
    <g
       id="g1573"
       transform="matrix(0.26458333,0,0,0.26458333,68.871306,5.7105025)">
		<polygon
   style="clip-rule:evenodd;fill:#d3e0e9;fill-rule:evenodd"
   points="111.714,193.643 107.37,193.643 107.37,192.378 111.714,192.378 "
   id="polygon1572" />

	</g>
    <g
       id="g1574"
       transform="matrix(0.26458333,0,0,0.26458333,68.871306,5.7105025)">
		<polygon
   style="clip-rule:evenodd;fill:#4c6186;fill-rule:evenodd"
   points="88.682,193.359 84.337,193.359 84.337,192.094 88.682,192.094 "
   id="polygon1573" />

	</g>
    <g
       id="g1575"
       transform="matrix(0.26458333,0,0,0.26458333,68.871306,5.7105025)">
		<polygon
   style="clip-rule:evenodd;fill:#4c6186;fill-rule:evenodd"
   points="111.927,193.359 107.583,193.359 107.583,192.094 111.927,192.094 "
   id="polygon1574" />

	</g>
    <g
       id="g1576"
       transform="matrix(0.26458333,0,0,0.26458333,68.871306,5.7105025)">
		<polygon
   style="clip-rule:evenodd;fill:#4c6186;fill-rule:evenodd"
   points="50.371,196.218 48.246,196.218 48.246,193.339 50.371,193.339 "
   id="polygon1575" />

	</g>
    <g
       id="g1577"
       transform="matrix(0.26458333,0,0,0.26458333,68.871306,5.7105025)">
		<polygon
   style="clip-rule:evenodd;fill:#4c6186;fill-rule:evenodd"
   points="130.117,195.446 127.993,195.446 127.993,192.566 130.117,192.566 "
   id="polygon1576" />

	</g>
    <g
       id="g1578"
       transform="matrix(0.26458333,0,0,0.26458333,68.871306,5.7105025)">
		<polygon
   style="clip-rule:evenodd;fill:#4c6186;fill-rule:evenodd"
   points="53.916,196.218 51.791,196.218 51.791,193.339 53.916,193.339 "
   id="polygon1577" />

	</g>
    <g
       id="g1579"
       transform="matrix(0.26458333,0,0,0.26458333,68.871306,5.7105025)">
		<polygon
   style="clip-rule:evenodd;fill:#4c6186;fill-rule:evenodd"
   points="133.663,195.446 131.538,195.446 131.538,192.566 133.663,192.566 "
   id="polygon1578" />

	</g>
    <g
       id="g1580"
       transform="matrix(0.26458333,0,0,0.26458333,68.871306,5.7105025)">
		<polygon
   style="clip-rule:evenodd;fill:#7894ae;fill-rule:evenodd"
   points="103.946,157.521 83.509,157.521 83.509,156.875 103.946,156.875 "
   id="polygon1579" />

	</g>
    <g
       id="g1581"
       transform="matrix(0.26458333,0,0,0.26458333,68.871306,5.7105025)">
		<polygon
   style="clip-rule:evenodd;fill:#6987a1;fill-rule:evenodd"
   points="157.267,214.462 158.41,205.163 157.239,205.268 155.196,214.462 "
   id="polygon1580" />

	</g>
    <g
       id="g1582"
       transform="matrix(0.26458333,0,0,0.26458333,68.871306,5.7105025)">
		<polygon
   style="clip-rule:evenodd;fill:#6987a1;fill-rule:evenodd"
   points="169.842,214.462 169.798,204.244 168.64,204.359 167.771,214.462 "
   id="polygon1581" />

	</g>
    <g
       id="g1583"
       transform="matrix(0.26458333,0,0,0.26458333,68.871306,5.7105025)">
		<polygon
   style="clip-rule:evenodd;fill:#6987a1;fill-rule:evenodd"
   points="163.813,214.462 163.611,205.163 162.455,205.268 161.741,214.462 "
   id="polygon1582" />

	</g>
    <g
       id="g1584"
       transform="matrix(0.26458333,0,0,0.26458333,68.871306,5.7105025)">
		<polygon
   style="clip-rule:evenodd;fill:#6987a1;fill-rule:evenodd"
   points="161.113,214.462 160.579,205.163 159.427,205.268 159.041,214.462 "
   id="polygon1583" />

	</g>
    <g
       id="g1585"
       transform="matrix(0.26458333,0,0,0.26458333,68.871306,5.7105025)">
		<polygon
   style="clip-rule:evenodd;fill:#6987a1;fill-rule:evenodd"
   points="173.688,214.462 171.967,204.244 170.827,204.359 171.616,214.462 "
   id="polygon1584" />

	</g>
    <g
       id="g1586"
       transform="matrix(0.26458333,0,0,0.26458333,68.871306,5.7105025)">
		<polygon
   style="clip-rule:evenodd;fill:#6987a1;fill-rule:evenodd"
   points="166.658,214.462 166.111,204.244 164.959,204.359 164.587,214.462 "
   id="polygon1585" />

	</g>
    <g
       id="g1587"
       transform="matrix(0.26458333,0,0,0.26458333,68.871306,5.7105025)">
		<polygon
   style="clip-rule:evenodd;fill:#6987a1;fill-rule:evenodd"
   points="151.25,214.429 151.679,207.385 150.516,207.464 149.179,214.429 "
   id="polygon1586" />

	</g>
    <g
       id="g1588"
       transform="matrix(0.26458333,0,0,0.26458333,68.871306,5.7105025)">
		<polygon
   style="clip-rule:evenodd;fill:#6987a1;fill-rule:evenodd"
   points="148.551,214.429 148.647,207.385 147.487,207.464 146.479,214.429 "
   id="polygon1587" />

	</g>
    <g
       id="g1589"
       transform="matrix(0.26458333,0,0,0.26458333,68.871306,5.7105025)">
		<polygon
   style="clip-rule:evenodd;fill:#6987a1;fill-rule:evenodd"
   points="154.096,214.429 155.367,207.385 154.194,207.464 152.025,214.429 "
   id="polygon1588" />

	</g>
    <g
       id="g1590"
       transform="matrix(0.26458333,0,0,0.26458333,68.871306,5.7105025)">
		<polygon
   style="clip-rule:evenodd;fill:#6987a1;fill-rule:evenodd"
   points="44.25,214.374 45.901,207.821 44.688,207.821 42.179,214.374 "
   id="polygon1589" />

	</g>
    <g
       id="g1591"
       transform="matrix(0.26458333,0,0,0.26458333,68.871306,5.7105025)">
		<polygon
   style="clip-rule:evenodd;fill:#6987a1;fill-rule:evenodd"
   points="50.796,214.374 51.195,207.821 49.982,207.821 48.724,214.374 "
   id="polygon1590" />

	</g>
    <g
       id="g1592"
       transform="matrix(0.26458333,0,0,0.26458333,68.871306,5.7105025)">
		<polygon
   style="clip-rule:evenodd;fill:#6987a1;fill-rule:evenodd"
   points="48.096,214.374 48.186,207.821 46.973,207.821 46.025,214.374 "
   id="polygon1591" />

	</g>
    <g
       id="g1593"
       transform="matrix(0.26458333,0,0,0.26458333,68.871306,5.7105025)">
		<polygon
   style="clip-rule:evenodd;fill:#6987a1;fill-rule:evenodd"
   points="53.642,214.374 54.824,207.821 53.611,207.821 51.57,214.374 "
   id="polygon1592" />

	</g>
    <g
       id="g1594"
       transform="matrix(0.26458333,0,0,0.26458333,68.871306,5.7105025)">
		<polygon
   style="clip-rule:evenodd;fill:#6987a1;fill-rule:evenodd"
   points="56.826,214.374 58.476,207.821 57.263,207.821 54.754,214.374 "
   id="polygon1593" />

	</g>
    <g
       id="g1595"
       transform="matrix(0.26458333,0,0,0.26458333,68.871306,5.7105025)">
		<polygon
   style="clip-rule:evenodd;fill:#6987a1;fill-rule:evenodd"
   points="69.401,214.374 71.051,207.821 69.838,207.821 67.329,214.374 "
   id="polygon1594" />

	</g>
    <g
       id="g1596"
       transform="matrix(0.26458333,0,0,0.26458333,68.871306,5.7105025)">
		<polygon
   style="clip-rule:evenodd;fill:#6987a1;fill-rule:evenodd"
   points="81.976,214.374 83.626,207.821 82.413,207.821 79.904,214.374 "
   id="polygon1595" />

	</g>
    <g
       id="g1597"
       transform="matrix(0.26458333,0,0,0.26458333,68.871306,5.7105025)">
		<polygon
   style="clip-rule:evenodd;fill:#6987a1;fill-rule:evenodd"
   points="94.551,214.374 96.201,207.821 94.988,207.821 92.479,214.374 "
   id="polygon1596" />

	</g>
    <g
       id="g1598"
       transform="matrix(0.26458333,0,0,0.26458333,68.871306,5.7105025)">
		<polygon
   style="clip-rule:evenodd;fill:#6987a1;fill-rule:evenodd"
   points="107.126,214.374 108.776,207.821 107.563,207.821 105.054,214.374 "
   id="polygon1597" />

	</g>
    <g
       id="g1599"
       transform="matrix(0.26458333,0,0,0.26458333,68.871306,5.7105025)">
		<polygon
   style="clip-rule:evenodd;fill:#6987a1;fill-rule:evenodd"
   points="119.701,214.374 121.351,207.821 120.138,207.821 117.63,214.374 "
   id="polygon1598" />

	</g>
    <g
       id="g1600"
       transform="matrix(0.26458333,0,0,0.26458333,68.871306,5.7105025)">
		<path
   style="clip-rule:evenodd;fill:#6987a1;fill-rule:evenodd"
   d="m 132.715,207.818 -2.51,6.556 h 2.072 l 1.653,-6.568 c -0.402,0.005 -0.806,0.009 -1.215,0.012 z"
   id="path1599" />

	</g>
    <g
       id="g1601"
       transform="matrix(0.26458333,0,0,0.26458333,68.871306,5.7105025)">
		<polygon
   style="clip-rule:evenodd;fill:#6987a1;fill-rule:evenodd"
   points="144.851,214.374 146.625,207.33 145.446,207.409 142.78,214.374 "
   id="polygon1600" />

	</g>
    <g
       id="g1602"
       transform="matrix(0.26458333,0,0,0.26458333,68.871306,5.7105025)">
		<polygon
   style="clip-rule:evenodd;fill:#6987a1;fill-rule:evenodd"
   points="63.371,214.374 63.77,207.821 62.557,207.821 61.299,214.374 "
   id="polygon1601" />

	</g>
    <g
       id="g1603"
       transform="matrix(0.26458333,0,0,0.26458333,68.871306,5.7105025)">
		<polygon
   style="clip-rule:evenodd;fill:#6987a1;fill-rule:evenodd"
   points="75.946,214.374 76.345,207.821 75.133,207.821 73.874,214.374 "
   id="polygon1602" />

	</g>
    <g
       id="g1604"
       transform="matrix(0.26458333,0,0,0.26458333,68.871306,5.7105025)">
		<polygon
   style="clip-rule:evenodd;fill:#6987a1;fill-rule:evenodd"
   points="88.521,214.374 88.92,207.821 87.708,207.821 86.45,214.374 "
   id="polygon1603" />

	</g>
    <g
       id="g1605"
       transform="matrix(0.26458333,0,0,0.26458333,68.871306,5.7105025)">
		<polygon
   style="clip-rule:evenodd;fill:#6987a1;fill-rule:evenodd"
   points="101.096,214.374 101.495,207.821 100.283,207.821 99.025,214.374 "
   id="polygon1604" />

	</g>
    <g
       id="g1606"
       transform="matrix(0.26458333,0,0,0.26458333,68.871306,5.7105025)">
		<polygon
   style="clip-rule:evenodd;fill:#6987a1;fill-rule:evenodd"
   points="113.672,214.374 114.07,207.821 112.858,207.821 111.6,214.374 "
   id="polygon1605" />

	</g>
    <g
       id="g1607"
       transform="matrix(0.26458333,0,0,0.26458333,68.871306,5.7105025)">
		<polygon
   style="clip-rule:evenodd;fill:#6987a1;fill-rule:evenodd"
   points="126.247,214.374 126.645,207.821 125.433,207.821 124.175,214.374 "
   id="polygon1606" />

	</g>
    <g
       id="g1608"
       transform="matrix(0.26458333,0,0,0.26458333,68.871306,5.7105025)">
		<path
   style="clip-rule:evenodd;fill:#6987a1;fill-rule:evenodd"
   d="m 138.032,207.693 -1.282,6.68 h 2.072 l 0.41,-6.736 c -0.396,0.021 -0.796,0.04 -1.2,0.056 z"
   id="path1607" />

	</g>
    <g
       id="g1609"
       transform="matrix(0.26458333,0,0,0.26458333,68.871306,5.7105025)">
		<polygon
   style="clip-rule:evenodd;fill:#6987a1;fill-rule:evenodd"
   points="60.672,214.374 60.761,207.821 59.548,207.821 58.6,214.374 "
   id="polygon1608" />

	</g>
    <g
       id="g1610"
       transform="matrix(0.26458333,0,0,0.26458333,68.871306,5.7105025)">
		<polygon
   style="clip-rule:evenodd;fill:#6987a1;fill-rule:evenodd"
   points="73.247,214.374 73.336,207.821 72.124,207.821 71.175,214.374 "
   id="polygon1609" />

	</g>
    <g
       id="g1611"
       transform="matrix(0.26458333,0,0,0.26458333,68.871306,5.7105025)">
		<polygon
   style="clip-rule:evenodd;fill:#6987a1;fill-rule:evenodd"
   points="85.822,214.374 85.912,207.821 84.699,207.821 83.75,214.374 "
   id="polygon1610" />

	</g>
    <g
       id="g1612"
       transform="matrix(0.26458333,0,0,0.26458333,68.871306,5.7105025)">
		<polygon
   style="clip-rule:evenodd;fill:#6987a1;fill-rule:evenodd"
   points="98.397,214.374 98.487,207.821 97.274,207.821 96.325,214.374 "
   id="polygon1611" />

	</g>
    <g
       id="g1613"
       transform="matrix(0.26458333,0,0,0.26458333,68.871306,5.7105025)">
		<polygon
   style="clip-rule:evenodd;fill:#6987a1;fill-rule:evenodd"
   points="110.972,214.374 111.062,207.821 109.849,207.821 108.9,214.374 "
   id="polygon1612" />

	</g>
    <g
       id="g1614"
       transform="matrix(0.26458333,0,0,0.26458333,68.871306,5.7105025)">
		<polygon
   style="clip-rule:evenodd;fill:#6987a1;fill-rule:evenodd"
   points="123.547,214.374 123.637,207.821 122.424,207.821 121.475,214.374 "
   id="polygon1613" />

	</g>
    <g
       id="g1615"
       transform="matrix(0.26458333,0,0,0.26458333,68.871306,5.7105025)">
		<path
   style="clip-rule:evenodd;fill:#6987a1;fill-rule:evenodd"
   d="m 135.004,207.788 -0.954,6.586 h 2.072 l 0.091,-6.616 c -0.399,0.011 -0.802,0.021 -1.209,0.03 z"
   id="path1614" />

	</g>
    <g
       id="g1616"
       transform="matrix(0.26458333,0,0,0.26458333,68.871306,5.7105025)">
		<polygon
   style="clip-rule:evenodd;fill:#6987a1;fill-rule:evenodd"
   points="66.217,214.374 67.399,207.821 66.186,207.821 64.145,214.374 "
   id="polygon1615" />

	</g>
    <g
       id="g1617"
       transform="matrix(0.26458333,0,0,0.26458333,68.871306,5.7105025)">
		<polygon
   style="clip-rule:evenodd;fill:#6987a1;fill-rule:evenodd"
   points="78.792,214.374 79.974,207.821 78.762,207.821 76.72,214.374 "
   id="polygon1616" />

	</g>
    <g
       id="g1618"
       transform="matrix(0.26458333,0,0,0.26458333,68.871306,5.7105025)">
		<polygon
   style="clip-rule:evenodd;fill:#6987a1;fill-rule:evenodd"
   points="91.367,214.374 92.549,207.821 91.337,207.821 89.296,214.374 "
   id="polygon1617" />

	</g>
    <g
       id="g1619"
       transform="matrix(0.26458333,0,0,0.26458333,68.871306,5.7105025)">
		<polygon
   style="clip-rule:evenodd;fill:#6987a1;fill-rule:evenodd"
   points="103.942,214.374 105.124,207.821 103.912,207.821 101.871,214.374 "
   id="polygon1618" />

	</g>
    <g
       id="g1620"
       transform="matrix(0.26458333,0,0,0.26458333,68.871306,5.7105025)">
		<polygon
   style="clip-rule:evenodd;fill:#6987a1;fill-rule:evenodd"
   points="116.518,214.374 117.7,207.821 116.487,207.821 114.446,214.374 "
   id="polygon1619" />

	</g>
    <g
       id="g1621"
       transform="matrix(0.26458333,0,0,0.26458333,68.871306,5.7105025)">
		<polygon
   style="clip-rule:evenodd;fill:#6987a1;fill-rule:evenodd"
   points="129.093,214.374 130.275,207.821 129.062,207.821 127.021,214.374 "
   id="polygon1620" />

	</g>
    <g
       id="g1622"
       transform="matrix(0.26458333,0,0,0.26458333,68.871306,5.7105025)">
		<path
   style="clip-rule:evenodd;fill:#6987a1;fill-rule:evenodd"
   d="m 141.743,207.483 -2.147,6.891 h 2.072 l 1.26,-6.983 c -0.392,0.032 -0.786,0.063 -1.185,0.092 z"
   id="path1621" />

	</g>
  </g>
</svg>
