<?xml version="1.0" encoding="UTF-8" standalone="no"?>
<!-- Created with Inkscape (http://www.inkscape.org/) -->

<svg
   width="28.81048mm"
   height="14.669425mm"
   viewBox="0 0 28.81048 14.669425"
   version="1.1"
   id="svg1"
   xmlns="http://www.w3.org/2000/svg"
   xmlns:svg="http://www.w3.org/2000/svg">
  <defs
     id="defs1" />
  <g
     id="layer1"
     transform="translate(-91.810417,-51.59375)">
    <g
       id="g9"
       transform="matrix(0.26458333,0,0,0.26458333,53.124894,25.105519)">
		<polygon
   style="clip-rule:evenodd;fill:#7894ae;fill-rule:evenodd"
   points="151.828,146.84 146.213,146.84 146.213,146.294 151.828,146.294 "
   id="polygon8" />

	</g>
    <g
       id="g10"
       transform="matrix(0.26458333,0,0,0.26458333,53.124894,25.105519)">
		<path
   style="clip-rule:evenodd;fill:#7894ae;fill-rule:evenodd"
   d="m 175.855,129.471 h 7.885 v 0.048 l -4.756,9.687 h -3.129 z m 7.886,9.723 v 0.012 h -3.675 z"
   id="path9" />

	</g>
    <g
       id="g11"
       transform="matrix(0.26458333,0,0,0.26458333,53.124894,25.105519)">
		<polygon
   style="clip-rule:evenodd;fill:#a3b9c6;fill-rule:evenodd"
   points="181.342,134.956 175.671,134.956 175.671,134.693 181.342,134.693 "
   id="polygon10" />

	</g>
    <g
       id="g12"
       transform="matrix(0.26458333,0,0,0.26458333,53.124894,25.105519)">
		<polygon
   style="clip-rule:evenodd;fill:#4c6186;fill-rule:evenodd"
   points="181.342,135.22 175.855,135.22 175.855,134.956 181.342,134.956 "
   id="polygon11" />

	</g>
    <g
       id="g13"
       transform="matrix(0.26458333,0,0,0.26458333,53.124894,25.105519)">
		<path
   style="fill:#7e95b2"
   d="m 187.752,129.116 c -0.102,0 -0.184,-0.083 -0.184,-0.184 v -28.635 c 0,-0.102 0.083,-0.184 0.184,-0.184 0.101,0 0.184,0.083 0.184,0.184 v 28.635 c 0.001,0.101 -0.082,0.184 -0.184,0.184 z"
   id="path12" />

	</g>
    <g
       id="g14"
       transform="matrix(0.26458333,0,0,0.26458333,53.124894,25.105519)">
		<path
   style="clip-rule:evenodd;fill:#4c6186;fill-rule:evenodd"
   d="m 150.249,150.563 c 2.214,0.277 4.257,-0.393 6.295,-1.095 l -0.293,5.672 c -2.001,-0.753 -4.001,-1.323 -6.002,-1.017 z"
   id="path13" />

	</g>
    <g
       id="g15"
       transform="matrix(0.26458333,0,0,0.26458333,53.124894,25.105519)">
		<path
   style="clip-rule:evenodd;fill:#7894ae;fill-rule:evenodd"
   d="m 150.249,150.563 c 2.077,0.26 4.002,-0.313 5.915,-0.964 l -0.21,4.057 c -1.902,-0.715 -3.803,-1.267 -5.705,-1.057 z"
   id="path14" />

	</g>
    <g
       id="g16"
       transform="matrix(0.26458333,0,0,0.26458333,53.124894,25.105519)">
		<path
   style="clip-rule:evenodd;fill:#4c6186;fill-rule:evenodd"
   d="m 148.895,150.184 h 0.679 c 0.513,0 0.933,0.375 0.933,0.833 v 2.652 c 0,0.459 -0.42,0.834 -0.933,0.834 h -0.679 c -0.514,0 -0.933,-0.375 -0.933,-0.834 v -2.652 c 0,-0.459 0.42,-0.833 0.933,-0.833 z"
   id="path15" />

	</g>
    <g
       id="g17"
       transform="matrix(0.26458333,0,0,0.26458333,53.124894,25.105519)">
		<path
   style="clip-rule:evenodd;fill:#7894ae;fill-rule:evenodd"
   d="m 148.895,150.184 h 0.679 c 0.156,0 0.303,0.034 0.433,0.096 v 2.063 c 0,0.459 -0.42,0.834 -0.933,0.834 h -0.679 c -0.156,0 -0.304,-0.036 -0.433,-0.097 v -2.062 c 0,-0.46 0.42,-0.834 0.933,-0.834 z"
   id="path16" />

	</g>
    <g
       id="g1395"
       transform="matrix(0.26458333,0,0,0.26458333,53.124894,25.105519)">
		<path
   style="clip-rule:evenodd;fill:#d3e0e9;fill-rule:evenodd"
   d="m 208.229,136.659 h 9.632 c 0.283,0 0.515,0.274 0.515,0.61 v 2.935 c 0,0.335 -0.232,0.61 -0.515,0.61 h -9.632 c -0.284,0 -0.515,-0.274 -0.515,-0.61 v -2.935 c -0.001,-0.336 0.231,-0.61 0.515,-0.61 z"
   id="path1394" />

	</g>
    <g
       id="g1396"
       transform="matrix(0.26458333,0,0,0.26458333,53.124894,25.105519)">
		<path
   style="clip-rule:evenodd;fill:#a3b9c6;fill-rule:evenodd"
   d="m 217.431,140.813 h -9.202 c -0.284,0 -0.515,-0.274 -0.515,-0.61 v -2.934 c 0,-0.13 0.035,-0.251 0.094,-0.35 h 9.203 c 0.283,0 0.515,0.274 0.515,0.61 v 2.934 c 0,0.131 -0.036,0.251 -0.095,0.35 z"
   id="path1395" />

	</g>
    <g
       id="g1397"
       transform="matrix(0.26458333,0,0,0.26458333,53.124894,25.105519)">
		<polygon
   style="clip-rule:evenodd;fill:#7894ae;fill-rule:evenodd"
   points="214.676,133.851 218.79,133.851 218.79,133.447 214.676,133.447 "
   id="polygon1396" />

	</g>
    <g
       id="g1398"
       transform="matrix(0.26458333,0,0,0.26458333,53.124894,25.105519)">
		<path
   style="clip-rule:evenodd;fill:#c9d5dc;fill-rule:evenodd"
   d="m 213.681,132.398 h -1.344 c -0.932,0 -1.694,0.762 -1.694,1.694 v 1.968 c 0,0.184 0.031,0.359 0.086,0.525 h 4.561 c 0.054,-0.166 0.086,-0.341 0.086,-0.525 v -1.968 c -0.001,-0.932 -0.764,-1.694 -1.695,-1.694 z"
   id="path1397" />

	</g>
    <g
       id="g1399"
       transform="matrix(0.26458333,0,0,0.26458333,53.124894,25.105519)">
		<path
   style="clip-rule:evenodd;fill:#7894ae;fill-rule:evenodd"
   d="m 210.872,133.245 c -0.145,0.249 -0.229,0.539 -0.229,0.847 v 1.968 c 0,0.184 0.031,0.359 0.085,0.525 h 3.809 v -1.767 c 0,-0.931 -0.762,-1.694 -1.694,-1.694 h -1.344 c -0.222,0 -0.433,0.042 -0.627,0.121 z"
   id="path1398" />

	</g>
    <g
       id="g1400"
       transform="matrix(0.26458333,0,0,0.26458333,53.124894,25.105519)">
		<polygon
   style="clip-rule:evenodd;fill:#4c6186;fill-rule:evenodd"
   points="209.716,136.654 216.361,136.654 215.608,134.719 210.415,134.719 "
   id="polygon1399" />

	</g>
    <g
       id="g1401"
       transform="matrix(0.26458333,0,0,0.26458333,53.124894,25.105519)">
		<polygon
   style="clip-rule:evenodd;fill:#7894ae;fill-rule:evenodd"
   points="215.646,136.475 216.027,136.475 215.437,134.983 215.057,134.983 "
   id="polygon1400" />

	</g>
    <g
       id="g1402"
       transform="matrix(0.26458333,0,0,0.26458333,53.124894,25.105519)">
		<path
   style="clip-rule:evenodd;fill:#7894ae;fill-rule:evenodd"
   d="m 214.559,134.983 c -0.127,0 -0.253,0 -0.38,0 0.119,0.497 0.238,0.994 0.357,1.491 0.127,0 0.254,0 0.38,0 -0.12,-0.496 -0.239,-0.993 -0.357,-1.491 z"
   id="path1401" />

	</g>
    <g
       id="g1403"
       transform="matrix(0.26458333,0,0,0.26458333,53.124894,25.105519)">
		<path
   style="clip-rule:evenodd;fill:#7894ae;fill-rule:evenodd"
   d="m 213.679,134.983 c -0.127,0 -0.253,0 -0.38,0 0.041,0.497 0.083,0.994 0.124,1.491 0.127,0 0.254,0 0.38,0 -0.041,-0.496 -0.082,-0.993 -0.124,-1.491 z"
   id="path1402" />

	</g>
    <g
       id="g1404"
       transform="matrix(0.26458333,0,0,0.26458333,53.124894,25.105519)">
		<path
   style="clip-rule:evenodd;fill:#7894ae;fill-rule:evenodd"
   d="m 212.801,134.983 c -0.127,0 -0.253,0 -0.38,0 -0.036,0.497 -0.073,0.994 -0.109,1.491 0.127,0 0.254,0 0.38,0 0.036,-0.496 0.072,-0.993 0.109,-1.491 z"
   id="path1403" />

	</g>
    <g
       id="g1405"
       transform="matrix(0.26458333,0,0,0.26458333,53.124894,25.105519)">
		<path
   style="clip-rule:evenodd;fill:#7894ae;fill-rule:evenodd"
   d="m 211.921,134.983 c -0.127,0 -0.253,0 -0.38,0 -0.114,0.497 -0.228,0.994 -0.342,1.491 0.127,0 0.254,0 0.38,0 0.115,-0.496 0.229,-0.993 0.342,-1.491 z"
   id="path1404" />

	</g>
    <g
       id="g1406"
       transform="matrix(0.26458333,0,0,0.26458333,53.124894,25.105519)">
		<polygon
   style="clip-rule:evenodd;fill:#7894ae;fill-rule:evenodd"
   points="210.087,136.475 210.468,136.475 211.042,134.983 210.662,134.983 "
   id="polygon1405" />

	</g>
    <g
       id="g1408"
       transform="matrix(0.26458333,0,0,0.26458333,53.124894,25.105519)">
		<polygon
   style="clip-rule:evenodd;fill:#a3b9c6;fill-rule:evenodd"
   points="187.315,119.457 185.919,119.457 184.676,119.899 184.676,119.899 184.739,120.077 184.256,120.249 184.255,120.249 187.296,128.81 184.141,130.611 182.594,119.602 180.681,119.33 182.086,119.33 182.037,118.979 182.507,118.979 181.75,113.593 181.891,113.593 182.759,116.037 184.809,116.037 184.809,116.152 183.481,116.535 183.555,116.743 183.06,116.886 183.929,119.33 187.329,119.33 "
   id="polygon1407" />

	</g>
    <g
       id="g1409"
       transform="matrix(0.26458333,0,0,0.26458333,53.124894,25.105519)">
		<polygon
   style="clip-rule:evenodd;fill:#4c6186;fill-rule:evenodd"
   points="163.536,139.013 157.119,134.813 157.311,134.519 163.728,138.719 "
   id="polygon1408" />

	</g>
    <g
       id="g1410"
       transform="matrix(0.26458333,0,0,0.26458333,53.124894,25.105519)">
		<polygon
   style="clip-rule:evenodd;fill:#4c6186;fill-rule:evenodd"
   points="157.152,134.762 155.588,133.857 155.818,133.505 157.278,134.57 "
   id="polygon1409" />

	</g>
    <g
       id="g1411"
       transform="matrix(0.26458333,0,0,0.26458333,53.124894,25.105519)">
		<path
   style="clip-rule:evenodd;fill:#4c6186;fill-rule:evenodd"
   d="m 150.758,142.709 h 52.173 l 52.172,-2.068 c -5.205,4.691 -10.507,7.752 -13.451,9.308 h -89.449 l -0.62,-3.655 h -2.144 z"
   id="path1410" />

	</g>
    <g
       id="g1412"
       transform="matrix(0.26458333,0,0,0.26458333,53.124894,25.105519)">
		<path
   style="clip-rule:evenodd;fill:#7894ae;fill-rule:evenodd"
   d="m 151.394,142.709 h 51.537 l 52.172,-2.068 c -5.205,4.691 -10.507,7.752 -13.451,9.308 h -88.209 l -1.072,-4.068 h -2.144 z"
   id="path1411" />

	</g>
    <g
       id="g1413"
       transform="matrix(0.26458333,0,0,0.26458333,53.124894,25.105519)">
		<polygon
   style="clip-rule:evenodd;fill:#4c6186;fill-rule:evenodd"
   points="150.758,142.709 202.931,142.709 253.753,140.694 206.877,144.206 150.207,144.206 "
   id="polygon1412" />

	</g>
    <g
       id="g1414"
       transform="matrix(0.26458333,0,0,0.26458333,53.124894,25.105519)">
		<path
   style="clip-rule:evenodd;fill:#4c6186;fill-rule:evenodd"
   d="m 249.915,144.822 c -3.315,2.396 -6.308,4.093 -8.262,5.126 H 227.23 c 8.019,-1.44 16.47,-3.485 22.685,-5.126 z"
   id="path1413" />

	</g>
    <g
       id="g1415"
       transform="matrix(0.26458333,0,0,0.26458333,53.124894,25.105519)">
		<polygon
   style="clip-rule:evenodd;fill:#d3e0e9;fill-rule:evenodd"
   points="198.798,137.021 255.103,140.641 202.931,142.709 150.758,142.709 152.205,139.296 183.921,139.193 196.835,137.952 "
   id="polygon1414" />

	</g>
    <g
       id="g1416"
       transform="matrix(0.26458333,0,0,0.26458333,53.124894,25.105519)">
		<polygon
   style="clip-rule:evenodd;fill:#a3b9c6;fill-rule:evenodd"
   points="179.885,139.34 179.885,140.182 151.829,140.182 152.186,139.34 "
   id="polygon1415" />

	</g>
    <g
       id="g1417"
       transform="matrix(0.26458333,0,0,0.26458333,53.124894,25.105519)">
		<polygon
   style="clip-rule:evenodd;fill:#a3b9c6;fill-rule:evenodd"
   points="196.733,137.962 195.455,128.902 198.563,128.902 203.03,137.293 198.798,137.021 196.835,137.952 "
   id="polygon1416" />

	</g>
    <g
       id="g1418"
       transform="matrix(0.26458333,0,0,0.26458333,53.124894,25.105519)">
		<polygon
   style="clip-rule:evenodd;fill:#7894ae;fill-rule:evenodd"
   points="196.733,137.962 195.455,128.902 184.044,128.902 178.983,139.209 183.921,139.193 "
   id="polygon1417" />

	</g>
    <g
       id="g1419"
       transform="matrix(0.26458333,0,0,0.26458333,53.124894,25.105519)">
		<polygon
   style="clip-rule:evenodd;fill:#d3e0e9;fill-rule:evenodd"
   points="196.402,128.902 192.346,128.902 192.346,126.928 196.402,126.928 "
   id="polygon1418" />

	</g>
    <g
       id="g1420"
       transform="matrix(0.26458333,0,0,0.26458333,53.124894,25.105519)">
		<polygon
   style="clip-rule:evenodd;fill:#7894ae;fill-rule:evenodd"
   points="192.346,128.902 192.346,127.233 196.402,127.233 196.402,128.902 "
   id="polygon1419" />

	</g>
    <g
       id="g1421"
       transform="matrix(0.26458333,0,0,0.26458333,53.124894,25.105519)">
		<polygon
   style="clip-rule:evenodd;fill:#d3e0e9;fill-rule:evenodd"
   points="194.469,124.158 196.402,124.158 196.402,126.928 192.953,126.928 192.953,125.524 "
   id="polygon1420" />

	</g>
    <g
       id="g1422"
       transform="matrix(0.26458333,0,0,0.26458333,53.124894,25.105519)">
		<polygon
   style="clip-rule:evenodd;fill:#4c6186;fill-rule:evenodd"
   points="195.966,126.928 192.953,126.928 192.953,125.524 194.131,124.463 195.966,124.463 "
   id="polygon1421" />

	</g>
    <g
       id="g1423"
       transform="matrix(0.26458333,0,0,0.26458333,53.124894,25.105519)">
		<polygon
   style="clip-rule:evenodd;fill:#7894ae;fill-rule:evenodd"
   points="195.966,126.928 193.681,126.928 193.681,124.868 194.131,124.463 195.966,124.463 "
   id="polygon1422" />

	</g>
    <g
       id="g1424"
       transform="matrix(0.26458333,0,0,0.26458333,53.124894,25.105519)">
		<polygon
   style="clip-rule:evenodd;fill:#d3e0e9;fill-rule:evenodd"
   points="164.192,136.046 166.985,139.248 157.82,139.278 160.661,136.046 "
   id="polygon1423" />

	</g>
    <g
       id="g1425"
       transform="matrix(0.26458333,0,0,0.26458333,53.124894,25.105519)">
		<polygon
   style="clip-rule:evenodd;fill:#7894ae;fill-rule:evenodd"
   points="163.284,136.273 164.685,139.256 157.82,139.278 160.461,136.273 "
   id="polygon1424" />

	</g>
    <g
       id="g1426"
       transform="matrix(0.26458333,0,0,0.26458333,53.124894,25.105519)">
		<polygon
   style="clip-rule:evenodd;fill:#4c6186;fill-rule:evenodd"
   points="161.353,136.273 160.423,139.27 157.82,139.278 160.461,136.273 "
   id="polygon1425" />

	</g>
    <g
       id="g1427"
       transform="matrix(0.26458333,0,0,0.26458333,53.124894,25.105519)">
		<path
   style="clip-rule:evenodd;fill:#4c6186;fill-rule:evenodd"
   d="m 185.117,131.466 h 2.208 c 0.116,0 0.211,-0.095 0.211,-0.211 v -0.632 c 0,-0.116 -0.094,-0.211 -0.211,-0.211 h -2.208 c -0.116,0 -0.211,0.095 -0.211,0.211 v 0.632 c 0.001,0.116 0.095,0.211 0.211,0.211 z"
   id="path1426" />

	</g>
    <g
       id="g1428"
       transform="matrix(0.26458333,0,0,0.26458333,53.124894,25.105519)">
		<path
   style="clip-rule:evenodd;fill:#4c6186;fill-rule:evenodd"
   d="m 188.519,131.466 h 2.208 c 0.116,0 0.211,-0.095 0.211,-0.211 v -0.632 c 0,-0.116 -0.095,-0.211 -0.211,-0.211 h -2.208 c -0.116,0 -0.211,0.095 -0.211,0.211 v 0.632 c 0,0.116 0.094,0.211 0.211,0.211 z"
   id="path1427" />

	</g>
    <g
       id="g1429"
       transform="matrix(0.26458333,0,0,0.26458333,53.124894,25.105519)">
		<path
   style="clip-rule:evenodd;fill:#4c6186;fill-rule:evenodd"
   d="m 191.92,131.466 h 2.208 c 0.116,0 0.211,-0.095 0.211,-0.211 v -0.632 c 0,-0.116 -0.094,-0.211 -0.211,-0.211 h -2.208 c -0.116,0 -0.211,0.095 -0.211,0.211 v 0.632 c 0,0.116 0.095,0.211 0.211,0.211 z"
   id="path1428" />

	</g>
    <g
       id="g1430"
       transform="matrix(0.26458333,0,0,0.26458333,53.124894,25.105519)">
		<path
   style="clip-rule:evenodd;fill:#4c6186;fill-rule:evenodd"
   d="m 196.805,131.466 h 2.208 c 0.116,0 0.186,-0.095 0.156,-0.211 l -0.162,-0.632 c -0.03,-0.116 -0.149,-0.211 -0.265,-0.211 h -2.208 c -0.116,0 -0.186,0.095 -0.156,0.211 l 0.162,0.632 c 0.031,0.116 0.149,0.211 0.265,0.211 z"
   id="path1429" />

	</g>
    <g
       id="g1431"
       transform="matrix(0.26458333,0,0,0.26458333,53.124894,25.105519)">
		<path
   style="clip-rule:evenodd;fill:#4c6186;fill-rule:evenodd"
   d="m 197.598,139.48 c 0.332,0 0.601,0.269 0.601,0.601 0,0.332 -0.269,0.601 -0.601,0.601 -0.332,0 -0.6,-0.269 -0.6,-0.601 0,-0.333 0.268,-0.601 0.6,-0.601 z"
   id="path1430" />

	</g>
    <g
       id="g1432"
       transform="matrix(0.26458333,0,0,0.26458333,53.124894,25.105519)">
		<path
   style="clip-rule:evenodd;fill:#4c6186;fill-rule:evenodd"
   d="m 222.494,139.48 c 0.332,0 0.601,0.269 0.601,0.601 0,0.332 -0.269,0.601 -0.601,0.601 -0.332,0 -0.601,-0.269 -0.601,-0.601 0.001,-0.333 0.27,-0.601 0.601,-0.601 z"
   id="path1431" />

	</g>
    <g
       id="g1433"
       transform="matrix(0.26458333,0,0,0.26458333,53.124894,25.105519)">
		<path
   style="clip-rule:evenodd;fill:#7894ae;fill-rule:evenodd"
   d="m 168.414,134.714 h 4.361 c 0.563,0 1.024,0.46 1.024,1.023 v 1.249 c 0,0.563 -0.461,1.024 -1.024,1.024 h -4.361 c -0.563,0 -1.024,-0.461 -1.024,-1.024 v -1.249 c 0,-0.563 0.461,-1.023 1.024,-1.023 z"
   id="path1432" />

	</g>
    <g
       id="g1434"
       transform="matrix(0.26458333,0,0,0.26458333,53.124894,25.105519)">
		<path
   style="clip-rule:evenodd;fill:#d3e0e9;fill-rule:evenodd"
   d="m 168.414,134.714 h 4.361 c 0.563,0 1.024,0.46 1.024,1.023 v 1.249 c 0,0.031 -0.002,0.062 -0.005,0.093 -0.151,0.088 -0.326,0.14 -0.513,0.14 h -4.361 c -0.563,0 -1.024,-0.46 -1.024,-1.024 v -1.249 c 0,-0.032 0.002,-0.064 0.005,-0.095 0.151,-0.087 0.326,-0.137 0.513,-0.137 z"
   id="path1433" />

	</g>
    <g
       id="g1435"
       transform="matrix(0.26458333,0,0,0.26458333,53.124894,25.105519)">
		<path
   style="clip-rule:evenodd;fill:#9a2429;fill-rule:evenodd"
   d="m 152.203,149.949 c 0.118,0.559 1.232,5.156 1.766,5.191 l 65.624,0.415 c 4.063,0.026 11.392,-0.272 14.976,-1.994 3.583,-1.723 4.723,-2.408 7.084,-3.611 h -89.45 z"
   id="path1434" />

	</g>
    <g
       id="g1436"
       transform="matrix(0.26458333,0,0,0.26458333,53.124894,25.105519)">
		<path
   style="clip-rule:evenodd;fill:#c12025;fill-rule:evenodd"
   d="m 230.839,154.694 c 1.433,-0.283 2.728,-0.652 3.73,-1.134 3.583,-1.723 4.723,-2.408 7.084,-3.611 h -88.209 l 0.825,3.132 z"
   id="path1435" />

	</g>
    <g
       id="g1437"
       transform="matrix(0.26458333,0,0,0.26458333,53.124894,25.105519)">
		<path
   style="clip-rule:evenodd;fill:#9a2429;fill-rule:evenodd"
   d="m 152.649,151.741 c 0.403,1.502 0.98,3.377 1.32,3.399 l 65.624,0.415 c 4.063,0.026 11.392,-0.272 14.975,-1.995 3.584,-1.723 4.723,-2.407 7.084,-3.611 h -14.421 c -5.9,1.06 -11.565,1.792 -15.932,1.792 z"
   id="path1436" />

	</g>
    <g
       id="g1438"
       transform="matrix(0.26458333,0,0,0.26458333,53.124894,25.105519)">
		<polygon
   style="clip-rule:evenodd;fill:#7894ae;fill-rule:evenodd"
   points="169.849,139.237 169.476,139.237 169.476,134.714 169.849,134.714 "
   id="polygon1437" />

	</g>
    <g
       id="g1439"
       transform="matrix(0.26458333,0,0,0.26458333,53.124894,25.105519)">
		<polygon
   style="clip-rule:evenodd;fill:#7894ae;fill-rule:evenodd"
   points="171.992,139.237 171.619,139.237 171.619,134.714 171.992,134.714 "
   id="polygon1438" />

	</g>
    <g
       id="g1440"
       transform="matrix(0.26458333,0,0,0.26458333,53.124894,25.105519)">
		<polygon
   style="clip-rule:evenodd;fill:#d3e0e9;fill-rule:evenodd"
   points="198.711,129.179 183.901,129.194 184.038,128.915 198.563,128.899 "
   id="polygon1439" />

	</g>
    <g
       id="g1441"
       transform="matrix(0.26458333,0,0,0.26458333,53.124894,25.105519)">
		<path
   style="fill:#c9d5dc"
   d="m 186.585,137.312 v -0.275 c 0,-0.242 0.04,-0.481 0.12,-0.716 0.08,-0.235 0.206,-0.502 0.377,-0.801 0.006,-0.011 0.071,-0.121 0.192,-0.33 0.122,-0.21 0.211,-0.354 0.267,-0.433 0.138,-0.225 0.206,-0.537 0.206,-0.936 0,-0.398 -0.085,-0.597 -0.253,-0.597 -0.141,0 -0.228,0.111 -0.261,0.333 -0.014,0.096 -0.022,0.213 -0.022,0.357 v 0.589 h -0.676 v -0.286 c 0,-0.575 0.054,-0.964 0.162,-1.166 0.108,-0.203 0.258,-0.333 0.448,-0.388 0.105,-0.031 0.233,-0.048 0.383,-0.048 0.15,0 0.284,0.033 0.404,0.1 0.116,0.068 0.209,0.16 0.279,0.28 0.138,0.234 0.206,0.539 0.206,0.915 0,0.376 -0.073,0.706 -0.219,0.988 -0.146,0.284 -0.29,0.535 -0.433,0.755 -0.26,0.403 -0.429,0.773 -0.506,1.107 h 1.071 v 0.554 h -1.745 z"
   id="path1440" />

	</g>
    <g
       id="g1442"
       transform="matrix(0.26458333,0,0,0.26458333,53.124894,25.105519)">
		<path
   style="fill:#c9d5dc"
   d="m 190.962,135.983 c 0,0.465 -0.082,0.811 -0.245,1.039 -0.164,0.228 -0.427,0.342 -0.789,0.342 -0.361,0 -0.615,-0.105 -0.761,-0.314 -0.145,-0.208 -0.217,-0.539 -0.217,-0.991 v -0.304 h 0.662 v 0.323 c 0,0.255 0.02,0.432 0.059,0.531 0.039,0.098 0.126,0.148 0.259,0.148 0.134,0 0.223,-0.06 0.268,-0.179 0.045,-0.119 0.068,-0.327 0.068,-0.625 0,-0.298 -0.03,-0.511 -0.088,-0.638 -0.058,-0.126 -0.172,-0.19 -0.34,-0.19 h -0.201 v -0.538 h 0.196 c 0.166,0 0.279,-0.056 0.34,-0.167 0.061,-0.113 0.093,-0.296 0.093,-0.551 0,-0.256 -0.026,-0.427 -0.079,-0.515 -0.052,-0.088 -0.134,-0.132 -0.247,-0.132 -0.113,0 -0.191,0.046 -0.236,0.139 -0.045,0.092 -0.067,0.252 -0.067,0.481 v 0.141 h -0.684 v -0.145 c 0,-0.424 0.075,-0.734 0.225,-0.931 0.149,-0.196 0.399,-0.294 0.751,-0.294 0.352,0 0.609,0.101 0.775,0.304 0.165,0.203 0.248,0.509 0.248,0.922 0,0.255 -0.04,0.469 -0.119,0.643 -0.078,0.173 -0.198,0.289 -0.359,0.347 0.176,0.083 0.301,0.22 0.375,0.412 0.075,0.19 0.113,0.438 0.113,0.742 z"
   id="path1441" />

	</g>
    <g
       id="g1443"
       transform="matrix(0.26458333,0,0,0.26458333,53.124894,25.105519)">
		<path
   style="clip-rule:evenodd;fill:#4c6186;fill-rule:evenodd"
   d="m 178.629,130.35 c 1.056,0 1.913,0.857 1.913,1.914 0,1.057 -0.857,1.913 -1.913,1.913 -1.057,0 -1.914,-0.857 -1.914,-1.913 0,-1.056 0.857,-1.914 1.914,-1.914 z m 0,0.824 c 0.602,0 1.09,0.488 1.09,1.091 0,0.602 -0.488,1.09 -1.09,1.09 -0.602,0 -1.09,-0.488 -1.09,-1.09 0,-0.603 0.488,-1.091 1.09,-1.091 z"
   id="path1442" />

	</g>
    <g
       id="g1444"
       transform="matrix(0.26458333,0,0,0.26458333,53.124894,25.105519)">
		<path
   style="clip-rule:evenodd;fill:#c12025;fill-rule:evenodd"
   d="m 178.798,129.947 c 1.056,0 1.913,0.857 1.913,1.914 0,1.057 -0.857,1.913 -1.913,1.913 -1.057,0 -1.914,-0.857 -1.914,-1.913 0,-1.057 0.857,-1.914 1.914,-1.914 z m 0,0.824 c 0.602,0 1.09,0.488 1.09,1.09 0,0.602 -0.488,1.09 -1.09,1.09 -0.602,0 -1.091,-0.488 -1.091,-1.09 0,-0.602 0.488,-1.09 1.091,-1.09 z"
   id="path1443" />

	</g>
    <g
       id="g1445"
       transform="matrix(0.26458333,0,0,0.26458333,53.124894,25.105519)">
		<polygon
   style="clip-rule:evenodd;fill:#a3b9c6;fill-rule:evenodd"
   points="179.012,130.904 178.598,130.904 178.598,129.841 179.012,129.841 "
   id="polygon1444" />

	</g>
    <g
       id="g1446"
       transform="matrix(0.26458333,0,0,0.26458333,53.124894,25.105519)">
		<polygon
   style="clip-rule:evenodd;fill:#a3b9c6;fill-rule:evenodd"
   points="179.012,133.833 178.598,133.833 178.598,132.771 179.012,132.771 "
   id="polygon1445" />

	</g>
    <g
       id="g1447"
       transform="matrix(0.26458333,0,0,0.26458333,53.124894,25.105519)">
		<path
   style="fill:#231f20"
   d="m 179.263,139.355 h -26.847 v -2.687 h 0.38 v 2.471 h 4.278 v -0.44 h -4.257 v -0.216 h 4.257 v -0.682 h -4.257 v -0.216 h 4.257 v -0.647 h -4.257 v -0.216 h 4.257 v -0.055 h 0.38 v 0.055 h 4.279 v -0.055 h 0.38 v 0.055 h 4.278 v -0.055 h 0.38 v 0.055 h 4.279 v -0.055 h 0.38 v 0.055 h 4.278 v -0.055 h 0.38 v 0.055 h 4.324 v 0.216 h -4.324 v 0.647 h 3.914 v 0.216 h -3.914 v 0.682 h 3.486 v 0.216 h -3.486 v 0.44 h 3.174 v 0.216 z m -7.832,-0.215 h 4.278 v -0.44 h -4.278 z m -4.659,0 h 4.279 v -0.44 h -4.279 z m -4.658,0 h 4.278 v -0.44 h -4.278 z m -4.658,0 h 4.279 v -0.44 h -4.279 z m 13.975,-0.656 h 4.278 v -0.682 h -4.278 z m -4.659,0 h 4.279 v -0.682 h -4.279 z m -4.658,0 h 4.278 v -0.682 h -4.278 z m -4.658,0 h 4.279 v -0.682 h -4.279 z m 13.975,-0.898 h 4.278 v -0.647 h -4.278 z m -4.659,0 h 4.279 v -0.647 h -4.279 z m -4.658,0 h 4.278 v -0.647 h -4.278 z m -4.658,0 h 4.279 v -0.647 h -4.279 z"
   id="path1446" />

	</g>
    <g
       id="g1448"
       transform="matrix(0.26458333,0,0,0.26458333,53.124894,25.105519)">
		<polygon
   style="clip-rule:evenodd;fill:#d3e0e9;fill-rule:evenodd"
   points="184.269,129.041 179.237,139.208 178.926,139.209 183.953,129.049 "
   id="polygon1447" />

	</g>
    <g
       id="g1449"
       transform="matrix(0.26458333,0,0,0.26458333,53.124894,25.105519)">
		<path
   style="clip-rule:evenodd;fill:#4c6186;fill-rule:evenodd"
   d="m 180.579,117.298 v 0 c 0.156,0 0.283,0.018 0.283,0.04 v 1.705 c 0,0.022 -0.127,0.041 -0.283,0.041 v 0 c -0.156,0 -0.283,-0.018 -0.283,-0.041 v -1.705 c 0,-0.022 0.127,-0.04 0.283,-0.04 z"
   id="path1448" />

	</g>
    <g
       id="g1450"
       transform="matrix(0.26458333,0,0,0.26458333,53.124894,25.105519)">
		<path
   style="clip-rule:evenodd;fill:#4c6186;fill-rule:evenodd"
   d="m 184.618,113.929 v 0 c 0.156,0 0.283,0.018 0.283,0.041 v 1.704 c 0,0.022 -0.127,0.041 -0.283,0.041 v 0 c -0.156,0 -0.283,-0.018 -0.283,-0.041 v -1.704 c 0,-0.023 0.127,-0.041 0.283,-0.041 z"
   id="path1449" />

	</g>
    <g
       id="g1451"
       transform="matrix(0.26458333,0,0,0.26458333,53.124894,25.105519)">
		<path
   style="clip-rule:evenodd;fill:#4c6186;fill-rule:evenodd"
   d="m 182.695,112.292 v 0 c 0.156,0 0.283,0.018 0.283,0.041 v 1.705 c 0,0.022 -0.127,0.041 -0.283,0.041 v 0 c -0.156,0 -0.283,-0.018 -0.283,-0.041 v -1.705 c -0.001,-0.023 0.126,-0.041 0.283,-0.041 z"
   id="path1450" />

	</g>
    <g
       id="g1541"
       transform="matrix(0.26458333,0,0,0.26458333,53.124894,25.105519)">
		<polygon
   style="clip-rule:evenodd;fill:#4c6186;fill-rule:evenodd"
   points="192.346,128.902 192.346,127.233 193.345,127.233 193.345,128.902 "
   id="polygon1540" />

	</g>
    <g
       id="g1542"
       transform="matrix(0.26458333,0,0,0.26458333,53.124894,25.105519)">
		<polygon
   style="clip-rule:evenodd;fill:#a3b9c6;fill-rule:evenodd"
   points="178.983,139.209 183.921,139.193 196.733,137.962 184.232,140.182 177.011,140.182 179.063,139.047 "
   id="polygon1541" />

	</g>
    <g
       id="g1543"
       transform="matrix(0.26458333,0,0,0.26458333,53.124894,25.105519)">
		<polygon
   style="clip-rule:evenodd;fill:#a3b9c6;fill-rule:evenodd"
   points="248.831,140.119 198.798,137.021 197.362,137.702 246.276,140.603 "
   id="polygon1542" />

	</g>
    <g
       id="g1544"
       transform="matrix(0.26458333,0,0,0.26458333,53.124894,25.105519)">
		<path
   style="fill:#231f20"
   d="m 248.859,140.229 -0.035,-0.002 v 0 l -23.255,-1.422 v 0 l -0.384,-0.023 -8.934,-0.546 v 0 l -0.036,-0.002 -9.281,-0.567 v 0 l -0.083,-0.005 -8.038,-0.491 0.013,-0.216 3.07,0.188 v -0.439 l -3.191,-0.195 0.013,-0.216 3.179,0.194 v -0.682 l -3.341,-0.204 0.013,-0.216 3.328,0.204 v -0.647 l -3.484,-0.213 0.013,-0.216 3.471,0.212 v -0.053 l 0.38,0.022 v 0.054 l 4.278,0.261 v -0.053 l 0.38,0.022 v 0.054 l 4.279,0.262 v -0.055 l 0.38,0.023 v 0.054 l 4.278,0.261 v -0.054 l 0.38,0.023 v 0.054 l 4.279,0.262 v -0.055 l 0.38,0.023 v 0.054 l 4.264,0.261 -0.014,0.216 -4.25,-0.26 v 0.647 l 4.264,0.26 -0.014,0.216 -4.25,-0.26 v 0.682 l 4.264,0.261 -0.014,0.216 -4.25,-0.26 v 0.439 l 4.275,0.262 v -2.471 h 0.003 v 0 l 0.381,0.023 v 2.471 l 4.274,0.261 v -0.438 l -4.264,-0.261 0.014,-0.216 4.25,0.26 v -0.682 l -4.264,-0.261 0.014,-0.216 4.25,0.26 v -0.647 l -4.264,-0.261 0.014,-0.216 4.25,0.26 v -0.055 l 0.381,0.023 v 0.054 l 4.278,0.262 v -0.056 l 0.381,0.025 v 0.054 l 4.277,0.262 v -0.055 l 0.381,0.023 v 0.054 l 4.277,0.262 v -0.054 l 0.381,0.023 v 0.055 l 4.277,0.261 v -0.054 l 0.382,0.022 z m -4.659,-0.501 4.277,0.261 v -0.439 l -4.277,-0.261 z m -4.658,-0.285 4.277,0.262 v -0.439 l -4.277,-0.262 z m -4.658,-0.285 4.277,0.262 v -0.439 l -4.277,-0.262 z m 9.316,-0.085 4.277,0.261 v -0.682 L 244.2,138.39 Z m -13.975,-0.199 4.278,0.262 v -0.439 l -4.278,-0.262 z m 9.317,-0.086 4.277,0.262 v -0.682 l -4.277,-0.261 z m -4.658,-0.285 4.277,0.262 v -0.682 l -4.277,-0.261 z m -4.659,-0.285 4.278,0.262 v -0.682 l -4.278,-0.262 z m 13.975,-0.044 4.277,0.262 v -0.647 l -4.277,-0.261 z m -27.949,-0.154 4.279,0.262 v -0.439 l -4.279,-0.261 z m 23.291,-0.13 4.277,0.261 v -0.647 l -4.277,-0.262 z m -27.949,-0.155 4.278,0.262 v -0.439 l -4.278,-0.262 z m 23.291,-0.13 4.277,0.261 v -0.647 l -4.277,-0.262 z m -27.949,-0.155 4.279,0.262 v -0.439 l -4.279,-0.261 z m 9.316,-0.086 4.279,0.261 v -0.682 l -4.279,-0.262 z m 13.974,-0.044 4.278,0.262 v -0.647 l -4.278,-0.262 z m -27.949,-0.154 4.278,0.261 v -0.439 l -4.278,-0.262 z m 9.317,-0.087 4.278,0.262 v -0.682 l -4.278,-0.262 z m -4.658,-0.284 4.279,0.261 v -0.682 l -4.279,-0.262 z m -4.659,-0.285 4.278,0.262 v -0.682 l -4.278,-0.262 z m 13.975,-0.044 4.279,0.262 v -0.647 l -4.279,-0.262 z m -4.658,-0.285 4.278,0.262 v -0.647 l -4.278,-0.261 z m -4.658,-0.285 4.279,0.262 v -0.647 l -4.279,-0.262 z m -4.659,-0.284 4.278,0.262 v -0.647 l -4.278,-0.261 z"
   id="path1543" />

	</g>
    <g
       id="g1545"
       transform="matrix(0.26458333,0,0,0.26458333,53.124894,25.105519)">
		<polygon
   style="clip-rule:evenodd;fill:#d3e0e9;fill-rule:evenodd"
   points="186.117,124.609 182.339,124.609 182.339,124.346 186.117,124.346 "
   id="polygon1544" />

	</g>
    <g
       id="g1546"
       transform="matrix(0.26458333,0,0,0.26458333,53.124894,25.105519)">
		<polygon
   style="clip-rule:evenodd;fill:#7894ae;fill-rule:evenodd"
   points="185.898,124.872 183.335,124.872 183.298,124.609 185.804,124.609 "
   id="polygon1545" />

	</g>
  </g>
</svg>
