<?xml version="1.0" encoding="UTF-8" standalone="no"?>
<!-- Created with Inkscape (http://www.inkscape.org/) -->

<svg
   width="56.708794mm"
   height="11.761258mm"
   viewBox="0 0 56.708793 11.761258"
   version="1.1"
   id="svg1"
   xmlns="http://www.w3.org/2000/svg"
   xmlns:svg="http://www.w3.org/2000/svg">
  <defs
     id="defs1" />
  <g
     id="layer1"
     transform="translate(-84.666667,-42.8625)">
    <g
       id="g18"
       transform="matrix(0.26458333,0,0,0.26458333,32.225988,4.1394066)">
		<path
   style="clip-rule:evenodd;fill:#4d6987;fill-rule:evenodd"
   d="m 332.723,146.592 v 0 c 0.103,0 0.187,0.109 0.187,0.244 v 11.546 c 0,0.134 -0.084,0.244 -0.187,0.244 v 0 c -0.103,0 -0.186,-0.109 -0.186,-0.244 v -11.546 c 0,-0.134 0.083,-0.244 0.186,-0.244 z"
   id="path17" />

	</g>
    <g
       id="g19"
       transform="matrix(0.26458333,0,0,0.26458333,32.225988,4.1394066)">
		<polygon
   style="clip-rule:evenodd;fill:#4d6987;fill-rule:evenodd"
   points="333.399,148.279 332.047,148.279 332.047,148.129 333.399,148.129 "
   id="polygon18" />

	</g>
    <g
       id="g20"
       transform="matrix(0.26458333,0,0,0.26458333,32.225988,4.1394066)">
		<path
   style="clip-rule:evenodd;fill:#4d6987;fill-rule:evenodd"
   d="m 336.83,147.894 v 0 c 0.103,0 0.187,0.098 0.187,0.217 v 10.297 c 0,0.12 -0.084,0.217 -0.187,0.217 v 0 c -0.103,0 -0.187,-0.098 -0.187,-0.217 v -10.297 c 0,-0.119 0.084,-0.217 0.187,-0.217 z"
   id="path19" />

	</g>
    <g
       id="g21"
       transform="matrix(0.26458333,0,0,0.26458333,32.225988,4.1394066)">
		<polygon
   style="clip-rule:evenodd;fill:#4d6987;fill-rule:evenodd"
   points="337.267,148.279 336.393,148.279 336.393,148.129 337.267,148.129 "
   id="polygon20" />

	</g>
    <g
       id="g22"
       transform="matrix(0.26458333,0,0,0.26458333,32.225988,4.1394066)">
		<path
   style="clip-rule:evenodd;fill:#4d6987;fill-rule:evenodd"
   d="m 338.558,147.218 v 0 c 0.103,0 0.187,0.104 0.187,0.231 v 10.946 c 0,0.127 -0.084,0.231 -0.187,0.231 v 0 c -0.103,0 -0.187,-0.104 -0.187,-0.231 v -10.946 c 0,-0.127 0.084,-0.231 0.187,-0.231 z"
   id="path21" />

	</g>
    <g
       id="g23"
       transform="matrix(0.26458333,0,0,0.26458333,32.225988,4.1394066)">
		<polygon
   style="clip-rule:evenodd;fill:#4d6987;fill-rule:evenodd"
   points="338.919,148.721 338.196,148.721 338.196,147.544 338.919,147.544 "
   id="polygon22" />

	</g>
    <g
       id="g24"
       transform="matrix(0.26458333,0,0,0.26458333,32.225988,4.1394066)">
		<path
   style="clip-rule:evenodd;fill:#4d6987;fill-rule:evenodd"
   d="m 343.616,147.218 v 0 c 0.103,0 0.187,0.104 0.187,0.231 v 10.946 c 0,0.127 -0.084,0.231 -0.187,0.231 v 0 c -0.103,0 -0.187,-0.104 -0.187,-0.231 v -10.946 c 0,-0.127 0.084,-0.231 0.187,-0.231 z"
   id="path23" />

	</g>
    <g
       id="g25"
       transform="matrix(0.26458333,0,0,0.26458333,32.225988,4.1394066)">
		<polygon
   style="clip-rule:evenodd;fill:#4d6987;fill-rule:evenodd"
   points="344.236,148.721 342.996,148.721 342.996,148.465 344.236,148.465 "
   id="polygon24" />

	</g>
    <g
       id="g26"
       transform="matrix(0.26458333,0,0,0.26458333,32.225988,4.1394066)">
		<polygon
   style="clip-rule:evenodd;fill:#4d6987;fill-rule:evenodd"
   points="344.431,148.125 342.801,148.125 342.801,147.869 344.431,147.869 "
   id="polygon25" />

	</g>
    <g
       id="g27"
       transform="matrix(0.26458333,0,0,0.26458333,32.225988,4.1394066)">
		<polygon
   style="clip-rule:evenodd;fill:#4d6987;fill-rule:evenodd"
   points="344.431,147.87 344.185,147.87 344.185,147.57 344.431,147.57 "
   id="polygon26" />

	</g>
    <g
       id="g28"
       transform="matrix(0.26458333,0,0,0.26458333,32.225988,4.1394066)">
		<path
   style="clip-rule:evenodd;fill:#4d6987;fill-rule:evenodd"
   d="m 345.785,148.26 v 0 c 0.103,0 0.186,0.094 0.186,0.21 v 9.946 c 0,0.116 -0.084,0.21 -0.186,0.21 v 0 c -0.103,0 -0.187,-0.094 -0.187,-0.21 v -9.946 c 0,-0.115 0.084,-0.21 0.187,-0.21 z"
   id="path27" />

	</g>
    <g
       id="g29"
       transform="matrix(0.26458333,0,0,0.26458333,32.225988,4.1394066)">
		<path
   style="clip-rule:evenodd;fill:#4d6987;fill-rule:evenodd"
   d="m 340.551,146.355 v 0 c 0.053,0 0.097,0.112 0.097,0.248 v 11.775 c 0,0.137 -0.043,0.248 -0.097,0.248 v 0 c -0.053,0 -0.097,-0.112 -0.097,-0.248 v -11.775 c 0,-0.137 0.044,-0.248 0.097,-0.248 z"
   id="path28" />

	</g>
    <g
       id="g30"
       transform="matrix(0.26458333,0,0,0.26458333,32.225988,4.1394066)">
		<polygon
   style="clip-rule:evenodd;fill:#4d6987;fill-rule:evenodd"
   points="340.857,148.279 340.244,148.279 340.244,148.129 340.857,148.129 "
   id="polygon29" />

	</g>
    <g
       id="g31"
       transform="matrix(0.26458333,0,0,0.26458333,32.225988,4.1394066)">
		<path
   style="clip-rule:evenodd;fill:#39506e;fill-rule:evenodd"
   d="m 371.845,163.393 0.32,0.002 c 0.169,10e-4 0.306,0.14 0.305,0.309 l -0.01,1.321 c -10e-4,0.169 -0.14,0.306 -0.309,0.305 l -0.32,-0.003 c -0.169,-0.001 -0.306,-0.14 -0.305,-0.309 l 0.01,-1.321 c 0.002,-0.168 0.14,-0.306 0.309,-0.304 z"
   id="path30" />

	</g>
    <g
       id="g32"
       transform="matrix(0.26458333,0,0,0.26458333,32.225988,4.1394066)">
		<path
   style="clip-rule:evenodd;fill:#39506e;fill-rule:evenodd"
   d="m 388.632,163.45 0.32,0.016 c 0.169,0.009 0.3,0.154 0.291,0.322 l -0.067,1.32 c -0.009,0.169 -0.154,0.3 -0.322,0.291 l -0.32,-0.017 c -0.169,-0.008 -0.3,-0.153 -0.291,-0.322 l 0.068,-1.319 c 0.008,-0.168 0.153,-0.299 0.321,-0.291 z"
   id="path31" />

	</g>
    <g
       id="g33"
       transform="matrix(0.26458333,0,0,0.26458333,32.225988,4.1394066)">
		<path
   style="clip-rule:evenodd;fill:#39506e;fill-rule:evenodd"
   d="m 390.238,163.532 0.32,0.016 c 0.169,0.009 0.3,0.154 0.291,0.322 l -0.068,1.32 c -0.008,0.169 -0.154,0.3 -0.322,0.291 l -0.32,-0.016 c -0.169,-0.008 -0.3,-0.153 -0.291,-0.322 l 0.067,-1.319 c 0.009,-0.169 0.154,-0.3 0.323,-0.292 z"
   id="path32" />

	</g>
    <g
       id="g34"
       transform="matrix(0.26458333,0,0,0.26458333,32.225988,4.1394066)">
		<path
   style="clip-rule:evenodd;fill:#39506e;fill-rule:evenodd"
   d="m 273.266,166.272 0.318,-0.038 c 0.168,-0.02 0.321,0.101 0.341,0.268 l 0.157,1.312 c 0.02,0.168 -0.1,0.321 -0.268,0.342 l -0.318,0.038 c -0.168,0.02 -0.321,-0.1 -0.342,-0.268 l -0.157,-1.312 c -0.02,-0.168 0.101,-0.322 0.269,-0.342 z"
   id="path33" />

	</g>
    <g
       id="g35"
       transform="matrix(0.26458333,0,0,0.26458333,32.225988,4.1394066)">
		<path
   style="clip-rule:evenodd;fill:#39506e;fill-rule:evenodd"
   d="m 257.483,168.191 0.318,-0.036 c 0.168,-0.019 0.321,0.102 0.34,0.27 l 0.151,1.312 c 0.019,0.168 -0.102,0.321 -0.27,0.34 l -0.318,0.037 c -0.168,0.019 -0.321,-0.102 -0.34,-0.27 l -0.151,-1.312 c -0.019,-0.169 0.102,-0.322 0.27,-0.341 z"
   id="path34" />

	</g>
    <g
       id="g36"
       transform="matrix(0.26458333,0,0,0.26458333,32.225988,4.1394066)">
		<path
   style="clip-rule:evenodd;fill:#39506e;fill-rule:evenodd"
   d="m 259.08,168.007 0.318,-0.037 c 0.168,-0.019 0.321,0.102 0.34,0.27 l 0.151,1.312 c 0.019,0.168 -0.102,0.321 -0.27,0.34 l -0.318,0.037 c -0.168,0.019 -0.321,-0.102 -0.34,-0.27 l -0.151,-1.312 c -0.019,-0.168 0.102,-0.321 0.27,-0.34 z"
   id="path35" />

	</g>
    <g
       id="g37"
       transform="matrix(0.26458333,0,0,0.26458333,32.225988,4.1394066)">
		<path
   style="clip-rule:evenodd;fill:#39506e;fill-rule:evenodd"
   d="m 293.28,164.918 0.319,-0.022 c 0.169,-0.012 0.316,0.117 0.328,0.285 l 0.092,1.318 c 0.012,0.168 -0.116,0.316 -0.285,0.327 l -0.319,0.022 c -0.168,0.012 -0.316,-0.116 -0.328,-0.285 l -0.092,-1.318 c -0.011,-0.167 0.117,-0.315 0.285,-0.327 z"
   id="path36" />

	</g>
    <g
       id="g38"
       transform="matrix(0.26458333,0,0,0.26458333,32.225988,4.1394066)">
		<path
   style="clip-rule:evenodd;fill:#39506e;fill-rule:evenodd"
   d="m 294.884,164.807 0.319,-0.022 c 0.169,-0.012 0.316,0.117 0.328,0.285 l 0.092,1.318 c 0.012,0.169 -0.116,0.316 -0.285,0.328 l -0.319,0.022 c -0.168,0.012 -0.316,-0.117 -0.327,-0.285 l -0.092,-1.318 c -0.013,-0.169 0.116,-0.316 0.284,-0.328 z"
   id="path37" />

	</g>
    <g
       id="g39"
       transform="matrix(0.26458333,0,0,0.26458333,32.225988,4.1394066)">
		<path
   style="clip-rule:evenodd;fill:#39506e;fill-rule:evenodd"
   d="m 310.617,163.901 h 0.32 c 0.169,0 0.307,0.138 0.307,0.307 v 1.321 c 0,0.169 -0.138,0.307 -0.307,0.307 h -0.32 c -0.169,0 -0.307,-0.138 -0.307,-0.307 v -1.321 c 0,-0.169 0.138,-0.307 0.307,-0.307 z"
   id="path38" />

	</g>
    <g
       id="g40"
       transform="matrix(0.26458333,0,0,0.26458333,32.225988,4.1394066)">
		<path
   style="clip-rule:evenodd;fill:#39506e;fill-rule:evenodd"
   d="m 312.225,163.901 h 0.32 c 0.169,0 0.307,0.138 0.307,0.307 v 1.321 c 0,0.169 -0.138,0.307 -0.307,0.307 h -0.32 c -0.169,0 -0.307,-0.138 -0.307,-0.307 v -1.321 c 0,-0.169 0.138,-0.307 0.307,-0.307 z"
   id="path39" />

	</g>
    <g
       id="g41"
       transform="matrix(0.26458333,0,0,0.26458333,32.225988,4.1394066)">
		<path
   style="fill:#231f20"
   d="m 248.282,170.523 -0.274,-1.787 0.213,-0.033 0.274,1.787 z m 13.523,-1.887 -0.274,-1.787 0.213,-0.033 0.274,1.787 z m 13.502,-1.409 -0.254,-2.27 0.215,-0.024 0.254,2.27 z m 14.283,-1.075 -0.243,-2.396 0.215,-0.021 0.243,2.396 z m 48.405,-0.954 -0.004,-2.574 h 0.217 l 0.004,2.574 z m -9.347,0 -0.004,-2.574 h 0.217 l 0.004,2.574 z m -11.205,0 -0.004,-2.574 h 0.217 l 0.004,2.574 z m -13.286,0 -0.004,-2.574 h 0.217 l 0.004,2.574 z"
   id="path40" />

	</g>
    <g
       id="g42"
       transform="matrix(0.26458333,0,0,0.26458333,32.225988,4.1394066)">
		<path
   style="clip-rule:evenodd;fill:#4d6987;fill-rule:evenodd"
   d="m 318.449,166.735 c 5.937,-5.486 13.426,-9.354 23.419,-10.612 6.017,-0.868 10.889,-0.339 15.003,1.281 1.773,0.698 2.114,1.763 2.195,2.744 0.215,2.577 1.867,4.105 3.659,5.489 -14.758,0.366 -29.517,0.732 -44.276,1.098 z"
   id="path41" />

	</g>
    <g
       id="g43"
       transform="matrix(0.26458333,0,0,0.26458333,32.225988,4.1394066)">
		<path
   style="clip-rule:evenodd;fill:#6987a1;fill-rule:evenodd"
   d="m 322.262,167.546 c 5.328,-5.486 12.049,-9.354 21.016,-10.612 5.4,-0.868 9.772,-0.339 13.463,1.281 1.592,0.698 1.897,1.763 1.97,2.744 0.193,2.577 1.675,4.105 3.284,5.489 -13.244,0.366 -26.488,0.732 -39.733,1.098 z"
   id="path42" />

	</g>
    <g
       id="g44"
       transform="matrix(0.26458333,0,0,0.26458333,32.225988,4.1394066)">
		<path
   style="fill:#231f20"
   d="m 393.417,164.952 -0.021,-2.174 0.217,-0.002 0.021,2.174 z m -9.479,-0.404 -0.021,-2.174 0.217,-0.002 0.021,2.174 z m -9.751,0 -0.021,-2.174 0.217,-0.002 0.021,2.174 z m -9.752,0 -0.021,-2.174 0.217,-0.002 0.021,2.174 z m -9.752,0 -0.021,-2.174 0.217,-0.002 0.021,2.174 z m -9.752,0 -0.021,-2.174 0.217,-0.002 0.021,2.174 z"
   id="path43" />

	</g>
    <g
       id="g45"
       transform="matrix(0.26458333,0,0,0.26458333,32.225988,4.1394066)">
		<path
   style="clip-rule:evenodd;fill:#8cabba;fill-rule:evenodd"
   d="m 335.57,160.716 c 2.672,-1.249 5.618,-2.152 8.888,-2.649 4.988,-0.868 9.027,-0.338 12.437,1.281 0.818,0.389 1.268,0.891 1.519,1.429 l -0.085,-0.033 c -4.365,-1.619 -9.536,-2.149 -15.922,-1.281 -2.413,0.286 -4.688,0.708 -6.837,1.253 z"
   id="path44" />

	</g>
    <g
       id="g46"
       transform="matrix(0.26458333,0,0,0.26458333,32.225988,4.1394066)">
		<path
   style="clip-rule:evenodd;fill:#4d6987;fill-rule:evenodd"
   d="m 213.488,190.806 v -29.175 h 5.947 c 0.596,0 1.108,0.299 1.4,0.819 l 5.731,10.19 c 0.302,0.538 0.843,0.84 1.459,0.818 l 10.604,-0.392 c -3.167,3.546 -6.335,7.092 -9.502,10.638 -2.048,0.263 -3.953,0.776 -4.857,3.041 -0.463,1.023 -0.927,2.047 -1.39,3.07 -0.265,0.585 -0.812,0.94 -1.454,0.944 z"
   id="path45" />

	</g>
    <g
       id="g47"
       transform="matrix(0.26458333,0,0,0.26458333,32.225988,4.1394066)">
		<path
   style="clip-rule:evenodd;fill:#4d6987;fill-rule:evenodd"
   d="m 198.474,178.757 c 25.355,-3.824 52.98,-9.62 76.066,-11.472 9.879,-0.793 31.998,-2.363 37.378,-2.416 l 66.893,-0.649 c 7.373,-0.071 15.663,0.374 21.844,1.546 19.288,3.657 13.638,22.84 -6.535,23.407 l -8.89,0.25 -83.268,1.038 c -10.799,0.135 -27.646,-0.553 -41.692,-1.953 -19.225,-1.915 -40.43,-5.515 -61.794,-9.115 -0.158,-0.026 -0.274,-0.157 -0.274,-0.317 -0.002,-0.161 0.113,-0.295 0.272,-0.319 z"
   id="path46" />

	</g>
    <g
       id="g48"
       transform="matrix(0.26458333,0,0,0.26458333,32.225988,4.1394066)">
		<path
   style="clip-rule:evenodd;fill:#39506e;fill-rule:evenodd"
   d="m 198.474,178.757 c 25.355,-3.824 52.98,-9.62 76.066,-11.472 9.879,-0.793 31.998,-2.363 37.378,-2.416 l 66.893,-0.649 c 7.373,-0.071 15.663,0.374 21.844,1.546 8.851,1.678 12.447,6.626 11.801,11.544 -1.822,5.184 -8.643,9.907 -19.17,10.184 l -9.494,0.249 -88.924,1.038 c -11.532,0.135 -29.523,-0.553 -44.524,-1.953 -7.045,-0.657 -14.34,-1.513 -21.804,-2.499 -9.857,-1.526 -19.943,-3.231 -30.065,-4.937 -0.158,-0.026 -0.274,-0.157 -0.274,-0.317 -0.001,-0.16 0.114,-0.294 0.273,-0.318 z"
   id="path47" />

	</g>
    <g
       id="g49"
       transform="matrix(0.26458333,0,0,0.26458333,32.225988,4.1394066)">
		<path
   style="clip-rule:evenodd;fill:#4d6987;fill-rule:evenodd"
   d="m 198.664,178.728 c 25.303,-3.824 52.847,-9.596 75.875,-11.444 9.879,-0.793 31.998,-2.363 37.378,-2.416 l 66.893,-0.649 c 7.373,-0.071 15.663,0.374 21.844,1.546 3.231,0.613 5.758,1.662 7.638,2.986 2.998,6.867 -4,15.868 -17.723,16.253 l -8.89,0.25 -83.268,1.038 c -10.799,0.134 -27.646,-0.553 -41.692,-1.953 -17.558,-1.748 -38.313,-2.714 -58.055,-5.611 z"
   id="path48" />

	</g>
    <g
       id="g50"
       transform="matrix(0.26458333,0,0,0.26458333,32.225988,4.1394066)">
		<path
   style="clip-rule:evenodd;fill:#6987a1;fill-rule:evenodd"
   d="m 201.165,178.964 c 27.897,-3.974 47.884,-8.122 70.912,-9.968 9.879,-0.792 31.374,-2.532 36.754,-2.584 l 66.892,-0.649 c 7.373,-0.071 15.694,0.223 21.844,1.547 12.161,2.617 8.976,13.923 -9.931,14.454 l -8.89,0.25 -83.268,1.038 c -10.799,0.134 -27.646,-0.554 -41.692,-1.952 -17.558,-1.751 -37.35,-1.473 -52.621,-2.136 z"
   id="path49" />

	</g>
    <g
       id="g51"
       transform="matrix(0.26458333,0,0,0.26458333,32.225988,4.1394066)">
		<path
   style="clip-rule:evenodd;fill:#c97731;fill-rule:evenodd"
   d="m 201.165,178.345 c 0.658,-0.102 1.317,-0.205 1.977,-0.31 v 2.143 l -1.977,-0.333 z"
   id="path50" />

	</g>
    <g
       id="g52"
       transform="matrix(0.26458333,0,0,0.26458333,32.225988,4.1394066)">
		<path
   style="clip-rule:evenodd;fill:#e5962e;fill-rule:evenodd"
   d="m 201.165,178.345 1.049,-0.163 0.023,-0.004 0.008,-0.001 0.897,-0.142 v 1.315 c -0.66,-0.087 -1.319,-0.176 -1.977,-0.267 z"
   id="path51" />

	</g>
    <g
       id="g53"
       transform="matrix(0.26458333,0,0,0.26458333,32.225988,4.1394066)">
		<path
   style="clip-rule:evenodd;fill:#39506e;fill-rule:evenodd"
   d="m 213.489,166.155 h 4.999 c 0.321,0 0.585,0.263 0.585,0.585 v 7.517 c 0,0.321 -0.263,0.585 -0.585,0.585 h -4.999 z"
   id="path52" />

	</g>
    <g
       id="g54"
       transform="matrix(0.26458333,0,0,0.26458333,32.225988,4.1394066)">
		<path
   style="clip-rule:evenodd;fill:#39506e;fill-rule:evenodd"
   d="m 224.24,172.002 h -1.253 c -0.207,0 -0.376,0.169 -0.376,0.376 v 1.253 c 0,0.207 0.169,0.376 0.376,0.376 h 1.253 c 0.207,0 0.376,-0.169 0.376,-0.376 v -1.253 c 0,-0.207 -0.169,-0.376 -0.376,-0.376 z"
   id="path53" />

	</g>
    <g
       id="g55"
       transform="matrix(0.26458333,0,0,0.26458333,32.225988,4.1394066)">
		<path
   style="clip-rule:evenodd;fill:#8cabba;fill-rule:evenodd"
   d="m 213.489,166.513 h 4.753 c 0.295,0 0.537,0.241 0.537,0.537 v 6.898 c 0,0.295 -0.241,0.537 -0.537,0.537 h -4.753 z"
   id="path54" />

	</g>
    <g
       id="g56"
       transform="matrix(0.26458333,0,0,0.26458333,32.225988,4.1394066)">
		<path
   style="clip-rule:evenodd;fill:#4d6987;fill-rule:evenodd"
   d="m 213.488,166.841 h 4.514 c 0.27,0 0.491,0.232 0.491,0.514 v 6.614 c 0,0.283 -0.221,0.515 -0.491,0.515 h -4.514 z"
   id="path55" />

	</g>
    <g
       id="g57"
       transform="matrix(0.26458333,0,0,0.26458333,32.225988,4.1394066)">
		<path
   style="clip-rule:evenodd;fill:#8cabba;fill-rule:evenodd"
   d="m 224.419,171.849 h -1.253 c -0.136,0 -0.255,0.073 -0.321,0.181 0.044,-0.018 0.092,-0.028 0.143,-0.028 h 1.253 c 0.207,0 0.376,0.169 0.376,0.376 v 1.253 c 0,0.071 -0.02,0.137 -0.055,0.194 0.137,-0.056 0.234,-0.191 0.234,-0.347 v -1.253 c -0.001,-0.207 -0.17,-0.376 -0.377,-0.376 z"
   id="path56" />

	</g>
    <g
       id="g58"
       transform="matrix(0.26458333,0,0,0.26458333,32.225988,4.1394066)">
		<path
   style="clip-rule:evenodd;fill:#4d6987;fill-rule:evenodd"
   d="m 223.134,172.002 h 1.146 c 0.189,0 0.344,0.155 0.344,0.344 v 1.146 c 0,0.189 -0.155,0.344 -0.344,0.344 h -1.146 c -0.189,0 -0.344,-0.155 -0.344,-0.344 v -1.146 c 0,-0.189 0.155,-0.344 0.344,-0.344 z"
   id="path57" />

	</g>
    <g
       id="g59"
       transform="matrix(0.26458333,0,0,0.26458333,32.225988,4.1394066)">
		<path
   style="clip-rule:evenodd;fill:#e5962e;fill-rule:evenodd"
   d="m 210.774,179 h 1.785 c 0.066,0 0.119,0.053 0.119,0.119 v 0.241 c 0,0.065 -0.054,0.119 -0.119,0.119 h -1.785 c -0.066,0 -0.119,-0.054 -0.119,-0.119 v -0.241 c 0,-0.066 0.053,-0.119 0.119,-0.119 z"
   id="path58" />

	</g>
    <g
       id="g60"
       transform="matrix(0.26458333,0,0,0.26458333,32.225988,4.1394066)">
		<path
   style="clip-rule:evenodd;fill:#c97731;fill-rule:evenodd"
   d="m 211.711,179.375 c -0.176,-0.249 -0.767,-1.645 -0.135,-1.766 0.083,-0.016 0.164,0.021 0.206,0.095 0.281,0.491 0.288,1.042 -0.071,1.671 z"
   id="path59" />

	</g>
    <g
       id="g61"
       transform="matrix(0.26458333,0,0,0.26458333,32.225988,4.1394066)">
		<path
   style="clip-rule:evenodd;fill:#f6b859;fill-rule:evenodd"
   d="m 211.567,179.173 c 0.176,0.249 0.767,1.645 0.135,1.766 -0.083,0.016 -0.164,-0.021 -0.206,-0.094 -0.281,-0.491 -0.287,-1.043 0.071,-1.672 z"
   id="path60" />

	</g>
    <g
       id="g62"
       transform="matrix(0.26458333,0,0,0.26458333,32.225988,4.1394066)">
		<path
   style="clip-rule:evenodd;fill:#f6b859;fill-rule:evenodd"
   d="m 203.142,178.036 -1.004,-2.453 c -0.244,-0.595 -0.973,-0.475 -0.973,0.31 v 2.453 z"
   id="path61" />

	</g>
    <g
       id="g63"
       transform="matrix(0.26458333,0,0,0.26458333,32.225988,4.1394066)">
		<path
   style="clip-rule:evenodd;fill:#c97731;fill-rule:evenodd"
   d="m 201.201,175.611 c -0.024,0.082 -0.037,0.175 -0.037,0.281 v 2.453 l 1.736,-0.272 -0.911,-2.225 c -0.164,-0.404 -0.555,-0.478 -0.788,-0.237 z"
   id="path62" />

	</g>
    <g
       id="g64"
       transform="matrix(0.26458333,0,0,0.26458333,32.225988,4.1394066)">
		<path
   style="clip-rule:evenodd;fill:#c97731;fill-rule:evenodd"
   d="m 203.142,180.154 -1.004,2.453 c -0.244,0.595 -0.973,0.475 -0.973,-0.309 v -2.453 z"
   id="path63" />

	</g>
    <g
       id="g65"
       transform="matrix(0.26458333,0,0,0.26458333,32.225988,4.1394066)">
		<path
   style="clip-rule:evenodd;fill:#f6b859;fill-rule:evenodd"
   d="m 201.409,182.897 c -0.142,-0.104 -0.245,-0.305 -0.245,-0.6 v -2.453 l 1.673,0.262 -0.99,2.419 c -0.095,0.234 -0.266,0.356 -0.438,0.372 z"
   id="path64" />

	</g>
    <g
       id="g66"
       transform="matrix(0.26458333,0,0,0.26458333,32.225988,4.1394066)">
		<path
   style="clip-rule:evenodd;fill:#8cabba;fill-rule:evenodd"
   d="m 303.532,168.482 h -1.909 c -0.065,0 -0.117,0.053 -0.117,0.117 v 0.976 c 0,0.065 0.053,0.118 0.117,0.118 h 1.909 c 0.065,0 0.117,-0.053 0.117,-0.118 V 168.6 c 10e-4,-0.065 -0.052,-0.118 -0.117,-0.118 z"
   id="path65" />

	</g>
    <g
       id="g67"
       transform="matrix(0.26458333,0,0,0.26458333,32.225988,4.1394066)">
		<path
   style="clip-rule:evenodd;fill:#39506e;fill-rule:evenodd"
   d="m 303.621,168.334 h -1.908 c -0.065,0 -0.117,0.053 -0.117,0.117 v 0.976 c 0,0.065 0.053,0.117 0.117,0.117 h 1.908 c 0.065,0 0.118,-0.052 0.118,-0.117 v -0.976 c 0,-0.064 -0.053,-0.117 -0.118,-0.117 z"
   id="path66" />

	</g>
    <g
       id="g68"
       transform="matrix(0.26458333,0,0,0.26458333,32.225988,4.1394066)">
		<path
   style="clip-rule:evenodd;fill:#8cabba;fill-rule:evenodd"
   d="m 300.774,168.482 h -1.909 c -0.065,0 -0.117,0.053 -0.117,0.117 v 0.976 c 0,0.065 0.053,0.118 0.117,0.118 h 1.909 c 0.065,0 0.117,-0.053 0.117,-0.118 V 168.6 c 0,-0.065 -0.053,-0.118 -0.117,-0.118 z"
   id="path67" />

	</g>
    <g
       id="g69"
       transform="matrix(0.26458333,0,0,0.26458333,32.225988,4.1394066)">
		<path
   style="clip-rule:evenodd;fill:#39506e;fill-rule:evenodd"
   d="m 300.863,168.334 h -1.909 c -0.065,0 -0.117,0.053 -0.117,0.117 v 0.976 c 0,0.065 0.053,0.117 0.117,0.117 h 1.909 c 0.065,0 0.117,-0.052 0.117,-0.117 v -0.976 c 0,-0.064 -0.053,-0.117 -0.117,-0.117 z"
   id="path68" />

	</g>
    <g
       id="g70"
       transform="matrix(0.26458333,0,0,0.26458333,32.225988,4.1394066)">
		<path
   style="clip-rule:evenodd;fill:#8cabba;fill-rule:evenodd"
   d="m 272.73,169.107 h -1.306 c -0.044,0 -0.08,0.036 -0.08,0.08 v 0.668 c 0,0.045 0.036,0.081 0.08,0.081 h 1.306 c 0.044,0 0.081,-0.036 0.081,-0.081 v -0.668 c -10e-4,-0.044 -0.037,-0.08 -0.081,-0.08 z"
   id="path69" />

	</g>
    <g
       id="g71"
       transform="matrix(0.26458333,0,0,0.26458333,32.225988,4.1394066)">
		<path
   style="clip-rule:evenodd;fill:#39506e;fill-rule:evenodd"
   d="m 272.84,168.996 h -1.306 c -0.044,0 -0.081,0.036 -0.081,0.08 v 0.668 c 0,0.044 0.036,0.08 0.081,0.08 h 1.306 c 0.045,0 0.081,-0.036 0.081,-0.08 v -0.668 c 0,-0.044 -0.036,-0.08 -0.081,-0.08 z"
   id="path70" />

	</g>
    <g
       id="g72"
       transform="matrix(0.26458333,0,0,0.26458333,32.225988,4.1394066)">
		<path
   style="clip-rule:evenodd;fill:#8cabba;fill-rule:evenodd"
   d="m 270.349,169.107 h -1.306 c -0.044,0 -0.081,0.036 -0.081,0.08 v 0.668 c 0,0.045 0.036,0.081 0.081,0.081 h 1.306 c 0.045,0 0.081,-0.036 0.081,-0.081 v -0.668 c -0.001,-0.044 -0.037,-0.08 -0.081,-0.08 z"
   id="path71" />

	</g>
    <g
       id="g73"
       transform="matrix(0.26458333,0,0,0.26458333,32.225988,4.1394066)">
		<path
   style="clip-rule:evenodd;fill:#39506e;fill-rule:evenodd"
   d="m 270.459,168.996 h -1.307 c -0.044,0 -0.081,0.036 -0.081,0.08 v 0.668 c 0,0.044 0.036,0.08 0.081,0.08 h 1.307 c 0.044,0 0.081,-0.036 0.081,-0.08 v -0.668 c 0,-0.044 -0.036,-0.08 -0.081,-0.08 z"
   id="path72" />

	</g>
    <g
       id="g74"
       transform="matrix(0.26458333,0,0,0.26458333,32.225988,4.1394066)">
		<path
   style="clip-rule:evenodd;fill:#8cabba;fill-rule:evenodd"
   d="m 267.968,169.107 h -1.306 c -0.044,0 -0.081,0.036 -0.081,0.08 v 0.668 c 0,0.045 0.036,0.081 0.081,0.081 h 1.306 c 0.045,0 0.081,-0.036 0.081,-0.081 v -0.668 c 0,-0.044 -0.036,-0.08 -0.081,-0.08 z"
   id="path73" />

	</g>
    <g
       id="g75"
       transform="matrix(0.26458333,0,0,0.26458333,32.225988,4.1394066)">
		<path
   style="clip-rule:evenodd;fill:#39506e;fill-rule:evenodd"
   d="m 268.079,168.996 h -1.307 c -0.044,0 -0.081,0.036 -0.081,0.08 v 0.668 c 0,0.044 0.036,0.08 0.081,0.08 h 1.307 c 0.044,0 0.081,-0.036 0.081,-0.08 v -0.668 c -0.001,-0.044 -0.037,-0.08 -0.081,-0.08 z"
   id="path74" />

	</g>
    <g
       id="g76"
       transform="matrix(0.26458333,0,0,0.26458333,32.225988,4.1394066)">
		<path
   style="clip-rule:evenodd;fill:#8cabba;fill-rule:evenodd"
   d="m 243.197,172.284 -1.294,0.179 c -0.044,0.006 -0.075,0.047 -0.069,0.091 l 0.092,0.662 c 0.006,0.044 0.047,0.075 0.091,0.069 l 1.294,-0.179 c 0.044,-0.006 0.075,-0.047 0.069,-0.091 l -0.092,-0.662 c -0.006,-0.045 -0.047,-0.076 -0.091,-0.069 z"
   id="path75" />

	</g>
    <g
       id="g77"
       transform="matrix(0.26458333,0,0,0.26458333,32.225988,4.1394066)">
		<path
   style="clip-rule:evenodd;fill:#39506e;fill-rule:evenodd"
   d="m 243.292,172.159 -1.294,0.179 c -0.044,0.006 -0.075,0.047 -0.069,0.091 l 0.092,0.662 c 0.006,0.044 0.047,0.075 0.091,0.069 l 1.294,-0.179 c 0.044,-0.006 0.075,-0.047 0.069,-0.091 l -0.092,-0.662 c -0.007,-0.044 -0.047,-0.075 -0.091,-0.069 z"
   id="path76" />

	</g>
    <g
       id="g78"
       transform="matrix(0.26458333,0,0,0.26458333,32.225988,4.1394066)">
		<path
   style="clip-rule:evenodd;fill:#8cabba;fill-rule:evenodd"
   d="m 245.942,171.904 -1.294,0.179 c -0.044,0.006 -0.075,0.047 -0.069,0.091 l 0.092,0.662 c 0.006,0.044 0.047,0.075 0.091,0.069 l 1.294,-0.179 c 0.044,-0.006 0.075,-0.047 0.069,-0.091 l -0.092,-0.662 c -0.006,-0.045 -0.047,-0.075 -0.091,-0.069 z"
   id="path77" />

	</g>
    <g
       id="g79"
       transform="matrix(0.26458333,0,0,0.26458333,32.225988,4.1394066)">
		<path
   style="clip-rule:evenodd;fill:#39506e;fill-rule:evenodd"
   d="m 246.037,171.779 -1.294,0.179 c -0.044,0.006 -0.075,0.047 -0.069,0.09 l 0.092,0.662 c 0.006,0.044 0.047,0.075 0.09,0.069 l 1.294,-0.179 c 0.044,-0.006 0.075,-0.047 0.069,-0.091 l -0.092,-0.662 c -0.006,-0.043 -0.046,-0.074 -0.09,-0.068 z"
   id="path78" />

	</g>
    <g
       id="g80"
       transform="matrix(0.26458333,0,0,0.26458333,32.225988,4.1394066)">
		<path
   style="clip-rule:evenodd;fill:#8cabba;fill-rule:evenodd"
   d="m 248.688,171.523 -1.294,0.179 c -0.044,0.006 -0.075,0.047 -0.069,0.091 l 0.092,0.662 c 0.006,0.044 0.047,0.075 0.091,0.069 l 1.294,-0.179 c 0.044,-0.006 0.075,-0.047 0.069,-0.091 l -0.092,-0.662 c -0.007,-0.044 -0.048,-0.075 -0.091,-0.069 z"
   id="path79" />

	</g>
    <g
       id="g81"
       transform="matrix(0.26458333,0,0,0.26458333,32.225988,4.1394066)">
		<path
   style="clip-rule:evenodd;fill:#39506e;fill-rule:evenodd"
   d="m 248.782,171.399 -1.294,0.179 c -0.044,0.006 -0.075,0.047 -0.069,0.09 l 0.092,0.662 c 0.006,0.044 0.047,0.075 0.091,0.069 l 1.294,-0.179 c 0.044,-0.006 0.075,-0.047 0.069,-0.091 l -0.092,-0.662 c -0.006,-0.043 -0.047,-0.074 -0.091,-0.068 z"
   id="path80" />

	</g>
    <g
       id="g82"
       transform="matrix(0.26458333,0,0,0.26458333,32.225988,4.1394066)">
		<path
   style="clip-rule:evenodd;fill:#8cabba;fill-rule:evenodd"
   d="m 251.433,171.143 -1.294,0.179 c -0.044,0.006 -0.075,0.047 -0.069,0.091 l 0.092,0.662 c 0.006,0.044 0.047,0.075 0.091,0.069 l 1.294,-0.179 c 0.044,-0.006 0.075,-0.047 0.069,-0.091 l -0.092,-0.662 c -0.007,-0.044 -0.047,-0.075 -0.091,-0.069 z"
   id="path81" />

	</g>
    <g
       id="g83"
       transform="matrix(0.26458333,0,0,0.26458333,32.225988,4.1394066)">
		<path
   style="clip-rule:evenodd;fill:#39506e;fill-rule:evenodd"
   d="m 251.527,171.019 -1.294,0.179 c -0.044,0.006 -0.075,0.047 -0.069,0.091 l 0.092,0.662 c 0.006,0.044 0.047,0.075 0.091,0.069 l 1.294,-0.18 c 0.044,-0.006 0.075,-0.047 0.069,-0.09 l -0.092,-0.662 c -0.006,-0.044 -0.047,-0.075 -0.091,-0.069 z"
   id="path82" />

	</g>
    <g
       id="g84"
       transform="matrix(0.26458333,0,0,0.26458333,32.225988,4.1394066)">
		<path
   style="clip-rule:evenodd;fill:#8cabba;fill-rule:evenodd"
   d="m 254.178,170.763 -1.294,0.18 c -0.044,0.006 -0.075,0.046 -0.069,0.09 l 0.092,0.662 c 0.006,0.044 0.047,0.075 0.091,0.069 l 1.294,-0.179 c 0.044,-0.006 0.075,-0.047 0.069,-0.091 l -0.092,-0.662 c -0.006,-0.044 -0.047,-0.075 -0.091,-0.069 z"
   id="path83" />

	</g>
    <g
       id="g85"
       transform="matrix(0.26458333,0,0,0.26458333,32.225988,4.1394066)">
		<path
   style="clip-rule:evenodd;fill:#39506e;fill-rule:evenodd"
   d="m 254.272,170.639 -1.294,0.179 c -0.044,0.006 -0.075,0.047 -0.069,0.091 l 0.092,0.662 c 0.006,0.044 0.047,0.074 0.09,0.069 l 1.294,-0.179 c 0.044,-0.006 0.075,-0.047 0.069,-0.091 l -0.092,-0.662 c -0.005,-0.045 -0.046,-0.076 -0.09,-0.069 z"
   id="path84" />

	</g>
    <g
       id="g86"
       transform="matrix(0.26458333,0,0,0.26458333,32.225988,4.1394066)">
		<path
   style="clip-rule:evenodd;fill:#8cabba;fill-rule:evenodd"
   d="m 256.923,170.383 -1.294,0.179 c -0.044,0.006 -0.075,0.047 -0.069,0.09 l 0.092,0.662 c 0.006,0.044 0.047,0.075 0.091,0.069 l 1.294,-0.179 c 0.044,-0.006 0.075,-0.047 0.069,-0.091 l -0.092,-0.662 c -0.006,-0.043 -0.047,-0.074 -0.091,-0.068 z"
   id="path85" />

	</g>
    <g
       id="g87"
       transform="matrix(0.26458333,0,0,0.26458333,32.225988,4.1394066)">
		<path
   style="clip-rule:evenodd;fill:#39506e;fill-rule:evenodd"
   d="m 257.017,170.259 -1.294,0.179 c -0.044,0.006 -0.075,0.047 -0.069,0.091 l 0.092,0.662 c 0.006,0.044 0.047,0.075 0.091,0.069 l 1.294,-0.179 c 0.044,-0.006 0.075,-0.047 0.069,-0.091 l -0.092,-0.662 c -0.006,-0.045 -0.047,-0.076 -0.091,-0.069 z"
   id="path86" />

	</g>
    <g
       id="g88"
       transform="matrix(0.26458333,0,0,0.26458333,32.225988,4.1394066)">
		<path
   style="clip-rule:evenodd;fill:#8cabba;fill-rule:evenodd"
   d="m 329.19,159.591 h 8.783 v -0.334 h -8.017 c -0.257,0.109 -0.512,0.22 -0.766,0.334 z m 21.167,0 h 8.628 c -0.025,-0.112 -0.056,-0.223 -0.094,-0.334 h -8.533 v 0.334 z"
   id="path87" />

	</g>
    <g
       id="g89"
       transform="matrix(0.26458333,0,0,0.26458333,32.225988,4.1394066)">
		<path
   style="clip-rule:evenodd;fill:#39506e;fill-rule:evenodd"
   d="m 371.405,174.511 h 2.464 c 0.406,0 0.739,-0.332 0.739,-0.739 v -2.464 c 0,-0.406 -0.333,-0.739 -0.739,-0.739 h -2.464 c -0.406,0 -0.739,0.333 -0.739,0.739 v 2.464 c 0,0.407 0.332,0.739 0.739,0.739 z"
   id="path88" />

	</g>
    <g
       id="g90"
       transform="matrix(0.26458333,0,0,0.26458333,32.225988,4.1394066)">
		<path
   style="clip-rule:evenodd;fill:#8cabba;fill-rule:evenodd"
   d="m 371.053,174.813 h 2.464 c 0.267,0 0.502,-0.143 0.632,-0.357 -0.086,0.036 -0.181,0.055 -0.28,0.055 h -2.464 c -0.406,0 -0.739,-0.332 -0.739,-0.739 v -2.464 c 0,-0.14 0.04,-0.27 0.108,-0.381 -0.269,0.111 -0.46,0.376 -0.46,0.683 v 2.464 c 0,0.406 0.333,0.739 0.739,0.739 z"
   id="path89" />

	</g>
    <g
       id="g91"
       transform="matrix(0.26458333,0,0,0.26458333,32.225988,4.1394066)">
		<path
   style="clip-rule:evenodd;fill:#6987a1;fill-rule:evenodd"
   d="m 371.342,174.511 h 2.254 c 0.372,0 0.676,-0.304 0.676,-0.676 v -2.254 c 0,-0.372 -0.304,-0.676 -0.676,-0.676 h -2.254 c -0.372,0 -0.676,0.304 -0.676,0.676 v 2.254 c 0,0.372 0.304,0.676 0.676,0.676 z"
   id="path90" />

	</g>
    <g
       id="g92"
       transform="matrix(0.26458333,0,0,0.26458333,32.225988,4.1394066)">
		<path
   style="clip-rule:evenodd;fill:#8cabba;fill-rule:evenodd"
   d="m 235.666,174.698 c 12.029,-1.885 23.305,-3.495 35.422,-4.467 9.879,-0.792 31.374,-2.532 36.754,-2.584 l 66.892,-0.649 c 7.373,-0.071 15.694,0.223 21.844,1.546 3.379,0.727 5.57,2.126 6.572,3.777 -1.202,-0.876 -2.873,-1.593 -5.016,-2.047 -6.241,-1.323 -14.686,-1.618 -22.169,-1.546 l -67.885,0.649 c -5.46,0.052 -30.362,1.174 -40.388,1.966 -10.803,0.854 -21.187,1.989 -32.026,3.355 z"
   id="path91" />

	</g>
    <g
       id="g93"
       transform="matrix(0.26458333,0,0,0.26458333,32.225988,4.1394066)">
		<path
   style="clip-rule:evenodd;fill:#8cabba;fill-rule:evenodd"
   d="m 326.877,167.137 h -1.909 c -0.065,0 -0.117,0.053 -0.117,0.117 v 0.976 c 0,0.065 0.053,0.118 0.117,0.118 h 1.909 c 0.065,0 0.117,-0.053 0.117,-0.118 v -0.976 c 0,-0.064 -0.053,-0.117 -0.117,-0.117 z"
   id="path92" />

	</g>
    <g
       id="g94"
       transform="matrix(0.26458333,0,0,0.26458333,32.225988,4.1394066)">
		<path
   style="clip-rule:evenodd;fill:#39506e;fill-rule:evenodd"
   d="m 326.966,166.988 h -1.909 c -0.065,0 -0.117,0.053 -0.117,0.117 v 0.976 c 0,0.065 0.053,0.117 0.117,0.117 h 1.909 c 0.065,0 0.117,-0.052 0.117,-0.117 v -0.976 c 0,-0.064 -0.053,-0.117 -0.117,-0.117 z"
   id="path93" />

	</g>
    <g
       id="g95"
       transform="matrix(0.26458333,0,0,0.26458333,32.225988,4.1394066)">
		<path
   style="clip-rule:evenodd;fill:#8cabba;fill-rule:evenodd"
   d="m 324.118,167.137 h -1.909 c -0.065,0 -0.117,0.053 -0.117,0.117 v 0.976 c 0,0.065 0.053,0.118 0.117,0.118 h 1.909 c 0.065,0 0.117,-0.053 0.117,-0.118 v -0.976 c 10e-4,-0.064 -0.052,-0.117 -0.117,-0.117 z"
   id="path94" />

	</g>
    <g
       id="g96"
       transform="matrix(0.26458333,0,0,0.26458333,32.225988,4.1394066)">
		<path
   style="clip-rule:evenodd;fill:#39506e;fill-rule:evenodd"
   d="m 324.207,166.988 h -1.909 c -0.065,0 -0.117,0.053 -0.117,0.117 v 0.976 c 0,0.065 0.053,0.117 0.117,0.117 h 1.909 c 0.065,0 0.117,-0.052 0.117,-0.117 v -0.976 c 10e-4,-0.064 -0.052,-0.117 -0.117,-0.117 z"
   id="path95" />

	</g>
    <g
       id="g97"
       transform="matrix(0.26458333,0,0,0.26458333,32.225988,4.1394066)">
		<path
   style="clip-rule:evenodd;fill:#8cabba;fill-rule:evenodd"
   d="m 337.969,167.137 h -1.909 c -0.065,0 -0.117,0.053 -0.117,0.117 v 0.976 c 0,0.065 0.053,0.118 0.117,0.118 h 1.909 c 0.065,0 0.117,-0.053 0.117,-0.118 v -0.976 c 10e-4,-0.064 -0.052,-0.117 -0.117,-0.117 z"
   id="path96" />

	</g>
    <g
       id="g98"
       transform="matrix(0.26458333,0,0,0.26458333,32.225988,4.1394066)">
		<path
   style="clip-rule:evenodd;fill:#39506e;fill-rule:evenodd"
   d="m 338.058,166.988 h -1.909 c -0.065,0 -0.117,0.053 -0.117,0.117 v 0.976 c 0,0.065 0.053,0.117 0.117,0.117 h 1.909 c 0.065,0 0.117,-0.052 0.117,-0.117 v -0.976 c 10e-4,-0.064 -0.052,-0.117 -0.117,-0.117 z"
   id="path97" />

	</g>
    <g
       id="g99"
       transform="matrix(0.26458333,0,0,0.26458333,32.225988,4.1394066)">
		<path
   style="clip-rule:evenodd;fill:#8cabba;fill-rule:evenodd"
   d="m 335.211,167.137 h -1.909 c -0.065,0 -0.117,0.053 -0.117,0.117 v 0.976 c 0,0.065 0.053,0.118 0.117,0.118 h 1.909 c 0.065,0 0.117,-0.053 0.117,-0.118 v -0.976 c 0,-0.064 -0.053,-0.117 -0.117,-0.117 z"
   id="path98" />

	</g>
    <g
       id="g100"
       transform="matrix(0.26458333,0,0,0.26458333,32.225988,4.1394066)">
		<path
   style="clip-rule:evenodd;fill:#39506e;fill-rule:evenodd"
   d="m 335.3,166.988 h -1.909 c -0.065,0 -0.117,0.053 -0.117,0.117 v 0.976 c 0,0.065 0.053,0.117 0.117,0.117 h 1.909 c 0.065,0 0.117,-0.052 0.117,-0.117 v -0.976 c 0,-0.064 -0.053,-0.117 -0.117,-0.117 z"
   id="path99" />

	</g>
    <g
       id="g101"
       transform="matrix(0.26458333,0,0,0.26458333,32.225988,4.1394066)">
		<path
   style="clip-rule:evenodd;fill:#8cabba;fill-rule:evenodd"
   d="m 348.356,167.137 h -1.908 c -0.065,0 -0.118,0.053 -0.118,0.117 v 0.976 c 0,0.065 0.053,0.118 0.118,0.118 h 1.908 c 0.065,0 0.117,-0.053 0.117,-0.118 v -0.976 c 0,-0.064 -0.052,-0.117 -0.117,-0.117 z"
   id="path100" />

	</g>
    <g
       id="g102"
       transform="matrix(0.26458333,0,0,0.26458333,32.225988,4.1394066)">
		<path
   style="clip-rule:evenodd;fill:#39506e;fill-rule:evenodd"
   d="m 348.445,166.988 h -1.908 c -0.065,0 -0.118,0.053 -0.118,0.117 v 0.976 c 0,0.065 0.053,0.117 0.118,0.117 h 1.908 c 0.065,0 0.117,-0.052 0.117,-0.117 v -0.976 c 0,-0.064 -0.052,-0.117 -0.117,-0.117 z"
   id="path101" />

	</g>
    <g
       id="g103"
       transform="matrix(0.26458333,0,0,0.26458333,32.225988,4.1394066)">
		<path
   style="clip-rule:evenodd;fill:#8cabba;fill-rule:evenodd"
   d="m 345.597,167.137 h -1.908 c -0.065,0 -0.118,0.053 -0.118,0.117 v 0.976 c 0,0.065 0.053,0.118 0.118,0.118 h 1.908 c 0.065,0 0.118,-0.053 0.118,-0.118 v -0.976 c 0,-0.064 -0.053,-0.117 -0.118,-0.117 z"
   id="path102" />

	</g>
    <g
       id="g104"
       transform="matrix(0.26458333,0,0,0.26458333,32.225988,4.1394066)">
		<path
   style="clip-rule:evenodd;fill:#39506e;fill-rule:evenodd"
   d="m 345.686,166.988 h -1.908 c -0.065,0 -0.118,0.053 -0.118,0.117 v 0.976 c 0,0.065 0.053,0.117 0.118,0.117 h 1.908 c 0.065,0 0.117,-0.052 0.117,-0.117 v -0.976 c 0,-0.064 -0.052,-0.117 -0.117,-0.117 z"
   id="path103" />

	</g>
    <g
       id="g105"
       transform="matrix(0.26458333,0,0,0.26458333,32.225988,4.1394066)">
		<path
   style="clip-rule:evenodd;fill:#8cabba;fill-rule:evenodd"
   d="m 379.99,167.137 h -1.909 c -0.065,0 -0.117,0.053 -0.117,0.117 v 0.976 c 0,0.065 0.053,0.118 0.117,0.118 h 1.909 c 0.065,0 0.117,-0.053 0.117,-0.118 v -0.976 c 0,-0.064 -0.053,-0.117 -0.117,-0.117 z"
   id="path104" />

	</g>
    <g
       id="g106"
       transform="matrix(0.26458333,0,0,0.26458333,32.225988,4.1394066)">
		<path
   style="clip-rule:evenodd;fill:#39506e;fill-rule:evenodd"
   d="m 380.078,166.988 h -1.908 c -0.065,0 -0.117,0.053 -0.117,0.117 v 0.976 c 0,0.065 0.053,0.117 0.117,0.117 h 1.908 c 0.065,0 0.118,-0.052 0.118,-0.117 v -0.976 c 0,-0.064 -0.053,-0.117 -0.118,-0.117 z"
   id="path105" />

	</g>
    <g
       id="g107"
       transform="matrix(0.26458333,0,0,0.26458333,32.225988,4.1394066)">
		<path
   style="clip-rule:evenodd;fill:#8cabba;fill-rule:evenodd"
   d="m 377.231,167.137 h -1.909 c -0.065,0 -0.117,0.053 -0.117,0.117 v 0.976 c 0,0.065 0.053,0.118 0.117,0.118 h 1.909 c 0.065,0 0.117,-0.053 0.117,-0.118 v -0.976 c 0,-0.064 -0.052,-0.117 -0.117,-0.117 z"
   id="path106" />

	</g>
    <g
       id="g108"
       transform="matrix(0.26458333,0,0,0.26458333,32.225988,4.1394066)">
		<path
   style="clip-rule:evenodd;fill:#39506e;fill-rule:evenodd"
   d="m 377.32,166.988 h -1.909 c -0.065,0 -0.117,0.053 -0.117,0.117 v 0.976 c 0,0.065 0.053,0.117 0.117,0.117 h 1.909 c 0.065,0 0.117,-0.052 0.117,-0.117 v -0.976 c 0,-0.064 -0.052,-0.117 -0.117,-0.117 z"
   id="path107" />

	</g>
    <g
       id="g109"
       transform="matrix(0.26458333,0,0,0.26458333,32.225988,4.1394066)">
		<path
   style="clip-rule:evenodd;fill:#8cabba;fill-rule:evenodd"
   d="m 356.639,168.161 h -1.294 c -0.044,0 -0.08,0.046 -0.08,0.102 v 0.845 c 0,0.056 0.036,0.102 0.08,0.102 h 1.294 c 0.044,0 0.08,-0.046 0.08,-0.102 v -0.845 c 0,-0.056 -0.036,-0.102 -0.08,-0.102 z"
   id="path108" />

	</g>
    <g
       id="g110"
       transform="matrix(0.26458333,0,0,0.26458333,32.225988,4.1394066)">
		<path
   style="clip-rule:evenodd;fill:#39506e;fill-rule:evenodd"
   d="m 356.749,168.022 h -1.294 c -0.044,0 -0.08,0.045 -0.08,0.101 v 0.845 c 0,0.056 0.036,0.102 0.08,0.102 h 1.294 c 0.044,0 0.08,-0.046 0.08,-0.102 v -0.845 c -0.001,-0.056 -0.036,-0.101 -0.08,-0.101 z"
   id="path109" />

	</g>
    <g
       id="g111"
       transform="matrix(0.26458333,0,0,0.26458333,32.225988,4.1394066)">
		<path
   style="clip-rule:evenodd;fill:#8cabba;fill-rule:evenodd"
   d="m 359.363,168.161 h -1.294 c -0.044,0 -0.079,0.046 -0.079,0.102 v 0.845 c 0,0.056 0.036,0.102 0.079,0.102 h 1.294 c 0.044,0 0.08,-0.046 0.08,-0.102 v -0.845 c 0,-0.056 -0.036,-0.102 -0.08,-0.102 z"
   id="path110" />

	</g>
    <g
       id="g112"
       transform="matrix(0.26458333,0,0,0.26458333,32.225988,4.1394066)">
		<path
   style="clip-rule:evenodd;fill:#39506e;fill-rule:evenodd"
   d="m 359.472,168.022 h -1.294 c -0.044,0 -0.08,0.045 -0.08,0.101 v 0.845 c 0,0.056 0.036,0.102 0.08,0.102 h 1.294 c 0.044,0 0.08,-0.046 0.08,-0.102 v -0.845 c 0,-0.056 -0.036,-0.101 -0.08,-0.101 z"
   id="path111" />

	</g>
    <g
       id="g113"
       transform="matrix(0.26458333,0,0,0.26458333,32.225988,4.1394066)">
		<path
   style="clip-rule:evenodd;fill:#39506e;fill-rule:evenodd"
   d="m 369.423,166.096 -1.51,4.203 c -0.089,0.248 -0.326,0.515 -0.661,0.745 -0.334,0.23 -0.673,0.358 -0.947,0.359 l -6.762,0.02 c -0.535,0.001 -0.746,-0.299 -0.556,-0.79 l 1.759,-4.536 h 8.677 z"
   id="path112" />

	</g>
    <g
       id="g114"
       transform="matrix(0.26458333,0,0,0.26458333,32.225988,4.1394066)">
		<path
   style="clip-rule:evenodd;fill:#4d6987;fill-rule:evenodd"
   d="m 368.638,165.618 c 0.485,0.067 0.785,0.376 0.785,0.478 0,0.205 -1.2,0.37 -2.679,0.37 -1.479,0 -2.679,-0.166 -2.679,-0.37 0,-0.436 3.929,-0.567 4.573,-0.478 z"
   id="path113" />

	</g>
    <g
       id="g115"
       transform="matrix(0.26458333,0,0,0.26458333,32.225988,4.1394066)">
		<path
   style="clip-rule:evenodd;fill:#7a8999;fill-rule:evenodd"
   d="m 362.086,168.161 h -1.294 c -0.044,0 -0.08,0.046 -0.08,0.102 v 0.845 c 0,0.056 0.036,0.102 0.08,0.102 h 1.294 c 0.044,0 0.08,-0.046 0.08,-0.102 v -0.845 c 0,-0.056 -0.036,-0.102 -0.08,-0.102 z"
   id="path114" />

	</g>
    <g
       id="g116"
       transform="matrix(0.26458333,0,0,0.26458333,32.225988,4.1394066)">
		<path
   style="clip-rule:evenodd;fill:#39506e;fill-rule:evenodd"
   d="m 362.196,168.022 h -1.294 c -0.044,0 -0.08,0.045 -0.08,0.101 v 0.845 c 0,0.056 0.036,0.102 0.08,0.102 h 1.294 c 0.044,0 0.08,-0.046 0.08,-0.102 v -0.845 c 0,-0.056 -0.036,-0.101 -0.08,-0.101 z"
   id="path115" />

	</g>
    <g
       id="g117"
       transform="matrix(0.26458333,0,0,0.26458333,32.225988,4.1394066)">
		<path
   style="clip-rule:evenodd;fill:#7a8999;fill-rule:evenodd"
   d="m 364.81,168.161 h -1.294 c -0.044,0 -0.08,0.046 -0.08,0.102 v 0.845 c 0,0.056 0.036,0.102 0.08,0.102 h 1.294 c 0.044,0 0.079,-0.046 0.079,-0.102 v -0.845 c 10e-4,-0.056 -0.035,-0.102 -0.079,-0.102 z"
   id="path116" />

	</g>
    <g
       id="g118"
       transform="matrix(0.26458333,0,0,0.26458333,32.225988,4.1394066)">
		<path
   style="clip-rule:evenodd;fill:#39506e;fill-rule:evenodd"
   d="m 364.92,168.022 h -1.294 c -0.044,0 -0.079,0.045 -0.079,0.101 v 0.845 c 0,0.056 0.036,0.102 0.079,0.102 h 1.294 c 0.044,0 0.079,-0.046 0.079,-0.102 v -0.845 c 0,-0.056 -0.036,-0.101 -0.079,-0.101 z"
   id="path117" />

	</g>
    <g
       id="g119"
       transform="matrix(0.26458333,0,0,0.26458333,32.225988,4.1394066)">
		<path
   style="clip-rule:evenodd;fill:#8cabba;fill-rule:evenodd"
   d="m 397.564,169.436 h -1.294 c -0.044,0 -0.08,0.046 -0.08,0.102 v 0.845 c 0,0.056 0.036,0.101 0.08,0.101 h 1.294 c 0.044,0 0.08,-0.046 0.08,-0.101 v -0.845 c -0.001,-0.057 -0.036,-0.102 -0.08,-0.102 z"
   id="path118" />

	</g>
    <g
       id="g120"
       transform="matrix(0.26458333,0,0,0.26458333,32.225988,4.1394066)">
		<path
   style="clip-rule:evenodd;fill:#39506e;fill-rule:evenodd"
   d="m 397.673,169.296 h -1.294 c -0.044,0 -0.08,0.045 -0.08,0.101 v 0.845 c 0,0.056 0.036,0.101 0.08,0.101 h 1.294 c 0.044,0 0.08,-0.046 0.08,-0.101 v -0.845 c 0,-0.055 -0.036,-0.101 -0.08,-0.101 z"
   id="path119" />

	</g>
    <g
       id="g121"
       transform="matrix(0.26458333,0,0,0.26458333,32.225988,4.1394066)">
		<path
   style="clip-rule:evenodd;fill:#8cabba;fill-rule:evenodd"
   d="m 394.84,169.436 h -1.294 c -0.044,0 -0.08,0.046 -0.08,0.102 v 0.845 c 0,0.056 0.036,0.101 0.08,0.101 h 1.294 c 0.044,0 0.08,-0.046 0.08,-0.101 v -0.845 c 0,-0.057 -0.036,-0.102 -0.08,-0.102 z"
   id="path120" />

	</g>
    <g
       id="g122"
       transform="matrix(0.26458333,0,0,0.26458333,32.225988,4.1394066)">
		<path
   style="clip-rule:evenodd;fill:#39506e;fill-rule:evenodd"
   d="m 394.95,169.296 h -1.294 c -0.044,0 -0.08,0.045 -0.08,0.101 v 0.845 c 0,0.056 0.036,0.101 0.08,0.101 h 1.294 c 0.044,0 0.08,-0.046 0.08,-0.101 v -0.845 c -10e-4,-0.055 -0.036,-0.101 -0.08,-0.101 z"
   id="path121" />

	</g>
    <g
       id="g123"
       transform="matrix(0.26458333,0,0,0.26458333,32.225988,4.1394066)">
		<path
   style="clip-rule:evenodd;fill:#8cabba;fill-rule:evenodd"
   d="m 392.116,169.436 h -1.294 c -0.044,0 -0.08,0.046 -0.08,0.102 v 0.845 c 0,0.056 0.036,0.101 0.08,0.101 h 1.294 c 0.044,0 0.08,-0.046 0.08,-0.101 v -0.845 c 0,-0.057 -0.036,-0.102 -0.08,-0.102 z"
   id="path122" />

	</g>
    <g
       id="g124"
       transform="matrix(0.26458333,0,0,0.26458333,32.225988,4.1394066)">
		<path
   style="clip-rule:evenodd;fill:#39506e;fill-rule:evenodd"
   d="m 392.226,169.296 h -1.294 c -0.044,0 -0.08,0.045 -0.08,0.101 v 0.845 c 0,0.056 0.036,0.101 0.08,0.101 h 1.294 c 0.044,0 0.08,-0.046 0.08,-0.101 v -0.845 c 0,-0.055 -0.036,-0.101 -0.08,-0.101 z"
   id="path123" />

	</g>
    <g
       id="g125"
       transform="matrix(0.26458333,0,0,0.26458333,32.225988,4.1394066)">
		<path
   style="clip-rule:evenodd;fill:#8cabba;fill-rule:evenodd"
   d="m 389.393,169.436 h -1.294 c -0.044,0 -0.08,0.046 -0.08,0.102 v 0.845 c 0,0.056 0.036,0.101 0.08,0.101 h 1.294 c 0.044,0 0.08,-0.046 0.08,-0.101 v -0.845 c 0,-0.057 -0.036,-0.102 -0.08,-0.102 z"
   id="path124" />

	</g>
    <g
       id="g126"
       transform="matrix(0.26458333,0,0,0.26458333,32.225988,4.1394066)">
		<path
   style="clip-rule:evenodd;fill:#39506e;fill-rule:evenodd"
   d="m 389.502,169.296 h -1.294 c -0.044,0 -0.08,0.045 -0.08,0.101 v 0.845 c 0,0.056 0.036,0.101 0.08,0.101 h 1.294 c 0.044,0 0.08,-0.046 0.08,-0.101 v -0.845 c 0,-0.055 -0.036,-0.101 -0.08,-0.101 z"
   id="path125" />

	</g>
    <g
       id="g127"
       transform="matrix(0.26458333,0,0,0.26458333,32.225988,4.1394066)">
		<path
   style="clip-rule:evenodd;fill:#8cabba;fill-rule:evenodd"
   d="m 292.413,168.482 h -1.909 c -0.065,0 -0.117,0.053 -0.117,0.117 v 0.976 c 0,0.065 0.053,0.118 0.117,0.118 h 1.909 c 0.065,0 0.117,-0.053 0.117,-0.118 V 168.6 c 0.001,-0.065 -0.052,-0.118 -0.117,-0.118 z"
   id="path126" />

	</g>
    <g
       id="g128"
       transform="matrix(0.26458333,0,0,0.26458333,32.225988,4.1394066)">
		<path
   style="clip-rule:evenodd;fill:#39506e;fill-rule:evenodd"
   d="m 292.502,168.334 h -1.909 c -0.065,0 -0.117,0.053 -0.117,0.117 v 0.976 c 0,0.065 0.053,0.117 0.117,0.117 h 1.909 c 0.065,0 0.117,-0.052 0.117,-0.117 v -0.976 c 10e-4,-0.064 -0.052,-0.117 -0.117,-0.117 z"
   id="path127" />

	</g>
    <g
       id="g129"
       transform="matrix(0.26458333,0,0,0.26458333,32.225988,4.1394066)">
		<path
   style="clip-rule:evenodd;fill:#8cabba;fill-rule:evenodd"
   d="m 289.654,168.482 h -1.909 c -0.065,0 -0.117,0.053 -0.117,0.117 v 0.976 c 0,0.065 0.053,0.118 0.117,0.118 h 1.909 c 0.065,0 0.117,-0.053 0.117,-0.118 V 168.6 c 10e-4,-0.065 -0.052,-0.118 -0.117,-0.118 z"
   id="path128" />

	</g>
    <g
       id="g130"
       transform="matrix(0.26458333,0,0,0.26458333,32.225988,4.1394066)">
		<path
   style="clip-rule:evenodd;fill:#39506e;fill-rule:evenodd"
   d="m 289.744,168.334 h -1.909 c -0.065,0 -0.117,0.053 -0.117,0.117 v 0.976 c 0,0.065 0.053,0.117 0.117,0.117 h 1.909 c 0.065,0 0.117,-0.052 0.117,-0.117 v -0.976 c 0,-0.064 -0.053,-0.117 -0.117,-0.117 z"
   id="path129" />

	</g>
    <g
       id="g131"
       transform="matrix(0.26458333,0,0,0.26458333,32.225988,4.1394066)">
		<path
   style="clip-rule:evenodd;fill:#8cabba;fill-rule:evenodd"
   d="m 284.433,169.107 h -1.307 c -0.044,0 -0.08,0.036 -0.08,0.08 v 0.668 c 0,0.045 0.036,0.081 0.08,0.081 h 1.307 c 0.044,0 0.08,-0.036 0.08,-0.081 v -0.668 c 0,-0.044 -0.036,-0.08 -0.08,-0.08 z"
   id="path130" />

	</g>
    <g
       id="g132"
       transform="matrix(0.26458333,0,0,0.26458333,32.225988,4.1394066)">
		<path
   style="clip-rule:evenodd;fill:#39506e;fill-rule:evenodd"
   d="m 284.543,168.996 h -1.306 c -0.044,0 -0.08,0.036 -0.08,0.08 v 0.668 c 0,0.044 0.036,0.08 0.08,0.08 h 1.306 c 0.045,0 0.081,-0.036 0.081,-0.08 v -0.668 c -0.001,-0.044 -0.037,-0.08 -0.081,-0.08 z"
   id="path131" />

	</g>
    <g
       id="g133"
       transform="matrix(0.26458333,0,0,0.26458333,32.225988,4.1394066)">
		<path
   style="clip-rule:evenodd;fill:#8cabba;fill-rule:evenodd"
   d="m 282.051,169.107 h -1.306 c -0.044,0 -0.081,0.036 -0.081,0.08 v 0.668 c 0,0.045 0.036,0.081 0.081,0.081 h 1.306 c 0.044,0 0.081,-0.036 0.081,-0.081 v -0.668 c 0,-0.044 -0.036,-0.08 -0.081,-0.08 z"
   id="path132" />

	</g>
    <g
       id="g134"
       transform="matrix(0.26458333,0,0,0.26458333,32.225988,4.1394066)">
		<path
   style="clip-rule:evenodd;fill:#39506e;fill-rule:evenodd"
   d="m 282.162,168.996 h -1.306 c -0.044,0 -0.081,0.036 -0.081,0.08 v 0.668 c 0,0.044 0.036,0.08 0.081,0.08 h 1.306 c 0.044,0 0.081,-0.036 0.081,-0.08 v -0.668 c -10e-4,-0.044 -0.037,-0.08 -0.081,-0.08 z"
   id="path133" />

	</g>
    <g
       id="g135"
       transform="matrix(0.26458333,0,0,0.26458333,32.225988,4.1394066)">
		<path
   style="clip-rule:evenodd;fill:#8cabba;fill-rule:evenodd"
   d="m 279.671,169.107 h -1.307 c -0.044,0 -0.081,0.036 -0.081,0.08 v 0.668 c 0,0.045 0.036,0.081 0.081,0.081 h 1.307 c 0.044,0 0.081,-0.036 0.081,-0.081 v -0.668 c -0.001,-0.044 -0.037,-0.08 -0.081,-0.08 z"
   id="path134" />

	</g>
    <g
       id="g136"
       transform="matrix(0.26458333,0,0,0.26458333,32.225988,4.1394066)">
		<path
   style="clip-rule:evenodd;fill:#39506e;fill-rule:evenodd"
   d="m 279.781,168.996 h -1.307 c -0.044,0 -0.081,0.036 -0.081,0.08 v 0.668 c 0,0.044 0.036,0.08 0.081,0.08 h 1.307 c 0.044,0 0.081,-0.036 0.081,-0.08 v -0.668 c 0,-0.044 -0.037,-0.08 -0.081,-0.08 z"
   id="path135" />

	</g>
    <g
       id="g137"
       transform="matrix(0.26458333,0,0,0.26458333,32.225988,4.1394066)">
		<path
   style="clip-rule:evenodd;fill:#39506e;fill-rule:evenodd"
   d="m 224.707,183.729 -0.736,2.048 c -0.13,0.363 -0.476,0.753 -0.965,1.089 -0.489,0.336 -0.984,0.523 -1.384,0.524 l -8.135,0.024 v -5.506 c 3.762,0.623 7.505,1.233 11.22,1.821 z"
   id="path136" />

	</g>
    <g
       id="g138"
       transform="matrix(0.26458333,0,0,0.26458333,32.225988,4.1394066)">
		<path
   style="clip-rule:evenodd;fill:#39506e;fill-rule:evenodd"
   d="m 228.629,178.759 -1.901,5.288 c -3.992,-0.625 -8.02,-1.278 -12.071,-1.945 l 1.297,-3.343 z"
   id="path137" />

	</g>
    <g
       id="g139"
       transform="matrix(0.26458333,0,0,0.26458333,32.225988,4.1394066)">
		<path
   style="clip-rule:evenodd;fill:#4d6987;fill-rule:evenodd"
   d="m 212.591,179.108 c 2.934,-1.265 7.48,-1.578 13.999,-1.286 2.339,0.105 2.756,1.403 0.702,1.673 -3.44,0.453 -6.037,0.69 -8.717,0.677 -3.978,-0.011 -6.297,-0.492 -5.984,-1.064 z"
   id="path138" />

	</g>
    <g
       id="g140"
       transform="matrix(0.26458333,0,0,0.26458333,32.225988,4.1394066)">
		<path
   style="clip-rule:evenodd;fill:#8cabba;fill-rule:evenodd"
   d="m 212.591,179.108 c 2.934,-1.265 7.48,-1.578 13.999,-1.286 1.04,0.047 1.7,0.33 1.931,0.653 -0.971,0.594 -4.246,1.14 -8.154,1.31 -1.373,0.06 -2.672,0.065 -3.824,0.026 z"
   id="path139" />

	</g>
    <g
       id="g141"
       transform="matrix(0.26458333,0,0,0.26458333,32.225988,4.1394066)">
		<path
   style="clip-rule:evenodd;fill:#4d6987;fill-rule:evenodd"
   d="m 218.047,178.434 c 3.231,0 5.852,0.354 5.852,0.791 0,0.436 -2.62,0.79 -5.852,0.79 -3.232,0 -5.852,-0.354 -5.852,-0.79 0,-0.437 2.621,-0.791 5.852,-0.791 z"
   id="path140" />

	</g>
    <g
       id="g142"
       transform="matrix(0.26458333,0,0,0.26458333,32.225988,4.1394066)">
		<path
   style="clip-rule:evenodd;fill:#39506e;fill-rule:evenodd"
   d="m 213.489,183.636 h 4.999 c 0.321,0 0.585,0.263 0.585,0.585 v 6.552 l -5.583,0.033 v -7.17 z"
   id="path141" />

	</g>
    <g
       id="g143"
       transform="matrix(0.26458333,0,0,0.26458333,32.225988,4.1394066)">
		<path
   style="clip-rule:evenodd;fill:#8cabba;fill-rule:evenodd"
   d="m 213.489,183.993 h 4.753 c 0.295,0 0.537,0.241 0.537,0.537 v 6.244 l -5.289,0.031 v -6.812 z"
   id="path142" />

	</g>
    <g
       id="g144"
       transform="matrix(0.26458333,0,0,0.26458333,32.225988,4.1394066)">
		<path
   style="clip-rule:evenodd;fill:#4d6987;fill-rule:evenodd"
   d="m 213.489,183.993 h 4.753 c 0.295,0 0.537,0.241 0.537,0.537 v 2.869 l -5.289,0.015 v -3.421 z"
   id="path143" />

	</g>
    <g
       id="g145"
       transform="matrix(0.26458333,0,0,0.26458333,32.225988,4.1394066)">
		<path
   style="clip-rule:evenodd;fill:#4d6987;fill-rule:evenodd"
   d="m 213.488,184.322 h 4.514 c 0.27,0 0.491,0.232 0.491,0.515 v 5.94 l -5.005,0.03 z"
   id="path144" />

	</g>
    <g
       id="g146"
       transform="matrix(0.26458333,0,0,0.26458333,32.225988,4.1394066)">
		<path
   style="clip-rule:evenodd;fill:#39506e;fill-rule:evenodd"
   d="m 213.488,184.322 h 4.514 c 0.27,0 0.491,0.232 0.491,0.515 v 2.563 l -5.005,0.015 z"
   id="path145" />

	</g>
    <g
       id="g147"
       transform="matrix(0.26458333,0,0,0.26458333,32.225988,4.1394066)">
		<path
   style="clip-rule:evenodd;fill:#8cabba;fill-rule:evenodd"
   d="m 344.424,172.598 h -1.294 c -0.044,0 -0.08,0.046 -0.08,0.102 v 0.845 c 0,0.056 0.036,0.102 0.08,0.102 h 1.294 c 0.044,0 0.08,-0.045 0.08,-0.102 V 172.7 c -0.001,-0.057 -0.036,-0.102 -0.08,-0.102 z"
   id="path146" />

	</g>
    <g
       id="g148"
       transform="matrix(0.26458333,0,0,0.26458333,32.225988,4.1394066)">
		<path
   style="clip-rule:evenodd;fill:#39506e;fill-rule:evenodd"
   d="m 344.533,172.458 h -1.294 c -0.044,0 -0.08,0.046 -0.08,0.102 v 0.845 c 0,0.056 0.036,0.102 0.08,0.102 h 1.294 c 0.044,0 0.08,-0.046 0.08,-0.102 v -0.845 c 0,-0.056 -0.036,-0.102 -0.08,-0.102 z"
   id="path147" />

	</g>
    <g
       id="g149"
       transform="matrix(0.26458333,0,0,0.26458333,32.225988,4.1394066)">
		<path
   style="clip-rule:evenodd;fill:#8cabba;fill-rule:evenodd"
   d="m 340.496,175.083 h -2.229 c -0.076,0 -0.137,0.079 -0.137,0.175 v 1.455 c 0,0.097 0.062,0.175 0.137,0.175 h 2.229 c 0.076,0 0.137,-0.079 0.137,-0.175 v -1.455 c 0,-0.097 -0.062,-0.175 -0.137,-0.175 z"
   id="path148" />

	</g>
    <g
       id="g150"
       transform="matrix(0.26458333,0,0,0.26458333,32.225988,4.1394066)">
		<path
   style="clip-rule:evenodd;fill:#39506e;fill-rule:evenodd"
   d="m 340.684,174.842 h -2.229 c -0.076,0 -0.137,0.079 -0.137,0.175 v 1.455 c 0,0.096 0.062,0.175 0.137,0.175 h 2.229 c 0.076,0 0.137,-0.079 0.137,-0.175 v -1.455 c 0,-0.096 -0.061,-0.175 -0.137,-0.175 z"
   id="path149" />

	</g>
    <g
       id="g151"
       transform="matrix(0.26458333,0,0,0.26458333,32.225988,4.1394066)">
		<path
   style="clip-rule:evenodd;fill:#8cabba;fill-rule:evenodd"
   d="m 311.385,178.617 h -2.229 c -0.076,0 -0.137,0.079 -0.137,0.175 v 1.455 c 0,0.096 0.062,0.175 0.137,0.175 h 2.229 c 0.076,0 0.137,-0.079 0.137,-0.175 v -1.455 c 0.001,-0.096 -0.061,-0.175 -0.137,-0.175 z"
   id="path150" />

	</g>
    <g
       id="g152"
       transform="matrix(0.26458333,0,0,0.26458333,32.225988,4.1394066)">
		<path
   style="clip-rule:evenodd;fill:#39506e;fill-rule:evenodd"
   d="m 311.574,178.377 h -2.229 c -0.076,0 -0.137,0.079 -0.137,0.175 v 1.455 c 0,0.097 0.062,0.175 0.137,0.175 h 2.229 c 0.076,0 0.137,-0.078 0.137,-0.175 v -1.455 c 0,-0.097 -0.061,-0.175 -0.137,-0.175 z"
   id="path151" />

	</g>
    <g
       id="g153"
       transform="matrix(0.26458333,0,0,0.26458333,32.225988,4.1394066)">
		<path
   style="clip-rule:evenodd;fill:#8cabba;fill-rule:evenodd"
   d="m 292.906,182.285 h -2.229 c -0.075,0 -0.137,0.069 -0.137,0.154 v 1.284 c 0,0.085 0.062,0.154 0.137,0.154 h 2.229 c 0.076,0 0.137,-0.069 0.137,-0.154 v -1.284 c 10e-4,-0.085 -0.061,-0.154 -0.137,-0.154 z"
   id="path152" />

	</g>
    <g
       id="g154"
       transform="matrix(0.26458333,0,0,0.26458333,32.225988,4.1394066)">
		<path
   style="clip-rule:evenodd;fill:#39506e;fill-rule:evenodd"
   d="m 293.095,182.072 h -2.229 c -0.076,0 -0.137,0.069 -0.137,0.154 v 1.284 c 0,0.085 0.062,0.154 0.137,0.154 h 2.229 c 0.075,0 0.137,-0.069 0.137,-0.154 v -1.284 c 0,-0.084 -0.061,-0.154 -0.137,-0.154 z"
   id="path153" />

	</g>
    <g
       id="g155"
       transform="matrix(0.26458333,0,0,0.26458333,32.225988,4.1394066)">
		<polygon
   style="clip-rule:evenodd;fill:#39506e;fill-rule:evenodd"
   points="350.363,158.92 350.363,164.463 350.698,164.463 350.698,158.92 "
   id="polygon154" />

	</g>
    <g
       id="g156"
       transform="matrix(0.26458333,0,0,0.26458333,32.225988,4.1394066)">
		<polygon
   style="clip-rule:evenodd;fill:#39506e;fill-rule:evenodd"
   points="337.634,156.842 337.634,164.617 337.969,164.617 337.969,156.772 "
   id="polygon155" />

	</g>
    <g
       id="g157"
       transform="matrix(0.26458333,0,0,0.26458333,32.225988,4.1394066)">
		<polygon
   style="clip-rule:evenodd;fill:#8cabba;fill-rule:evenodd"
   points="350.029,158.92 350.029,164.463 350.363,164.463 350.363,158.92 "
   id="polygon156" />

	</g>
    <g
       id="g158"
       transform="matrix(0.26458333,0,0,0.26458333,32.225988,4.1394066)">
		<polygon
   style="clip-rule:evenodd;fill:#8cabba;fill-rule:evenodd"
   points="337.3,156.916 337.3,164.617 337.634,164.617 337.634,156.842 "
   id="polygon157" />

	</g>
    <g
       id="g159"
       transform="matrix(0.26458333,0,0,0.26458333,32.225988,4.1394066)">
		<path
   style="clip-rule:evenodd;fill:#39506e;fill-rule:evenodd"
   d="m 329.954,159.256 h 8.019 v -0.334 h -7.206 c -0.273,0.109 -0.544,0.22 -0.813,0.334 z m 20.403,0 h 8.534 c -0.039,-0.113 -0.086,-0.224 -0.142,-0.334 h -8.392 z"
   id="path158" />

	</g>
    <g
       id="g160"
       transform="matrix(0.26458333,0,0,0.26458333,32.225988,4.1394066)">
		<polygon
   style="fill:#231f20"
   points="304.308,162.734 275.165,164.995 248.149,168.824 243.642,171.355 243.536,171.167 248.099,168.613 275.141,164.78 304.299,162.518 338.188,162.464 338.221,162.497 340.16,164.521 340.004,164.67 338.097,162.68 "
   id="polygon159" />

	</g>
    <g
       id="g161"
       transform="matrix(0.26458333,0,0,0.26458333,32.225988,4.1394066)">
		<polygon
   style="clip-rule:evenodd;fill:#39506e;fill-rule:evenodd"
   points="347.513,160.212 347.513,164.463 347.178,164.463 347.178,160.212 "
   id="polygon160" />

	</g>
    <g
       id="g162"
       transform="matrix(0.26458333,0,0,0.26458333,32.225988,4.1394066)">
		<polygon
   style="clip-rule:evenodd;fill:#39506e;fill-rule:evenodd"
   points="349.972,160.212 347.178,160.212 347.178,159.878 349.972,159.878 "
   id="polygon161" />

	</g>
    <g
       id="g163"
       transform="matrix(0.26458333,0,0,0.26458333,32.225988,4.1394066)">
		<polygon
   style="clip-rule:evenodd;fill:#8cabba;fill-rule:evenodd"
   points="349.972,160.547 347.513,160.547 347.513,160.212 349.972,160.212 "
   id="polygon162" />

	</g>
    <g
       id="g164"
       transform="matrix(0.26458333,0,0,0.26458333,32.225988,4.1394066)">
		<path
   style="clip-rule:evenodd;fill:#39506e;fill-rule:evenodd"
   d="m 341.252,157.901 h -0.83 c -0.137,0 -0.249,0.128 -0.249,0.284 v 0.945 c 0,0.156 0.112,0.283 0.249,0.283 h 0.83 c 0.137,0 0.249,-0.128 0.249,-0.283 v -0.945 c 0,-0.156 -0.112,-0.284 -0.249,-0.284 z"
   id="path163" />

	</g>
    <g
       id="g165"
       transform="matrix(0.26458333,0,0,0.26458333,32.225988,4.1394066)">
		<path
   style="clip-rule:evenodd;fill:#8cabba;fill-rule:evenodd"
   d="m 341.37,157.786 h -0.83 c -0.09,0 -0.169,0.055 -0.213,0.137 0.029,-0.014 0.061,-0.021 0.094,-0.021 h 0.83 c 0.137,0 0.249,0.128 0.249,0.284 v 0.945 c 0,0.054 -0.014,0.103 -0.037,0.147 0.091,-0.043 0.155,-0.144 0.155,-0.262 v -0.945 c 0.001,-0.158 -0.111,-0.285 -0.248,-0.285 z"
   id="path164" />

	</g>
    <g
       id="g166"
       transform="matrix(0.26458333,0,0,0.26458333,32.225988,4.1394066)">
		<path
   style="clip-rule:evenodd;fill:#6987a1;fill-rule:evenodd"
   d="m 341.273,157.901 h -0.759 c -0.125,0 -0.228,0.117 -0.228,0.259 v 0.864 c 0,0.143 0.103,0.259 0.228,0.259 h 0.759 c 0.125,0 0.228,-0.116 0.228,-0.259 v -0.864 c 0,-0.142 -0.103,-0.259 -0.228,-0.259 z"
   id="path165" />

	</g>
    <g
       id="g167"
       transform="matrix(0.26458333,0,0,0.26458333,32.225988,4.1394066)">
		<path
   style="clip-rule:evenodd;fill:#39506e;fill-rule:evenodd"
   d="M 345.629,157.901 H 344.8 c -0.137,0 -0.249,0.128 -0.249,0.284 v 0.945 c 0,0.156 0.112,0.283 0.249,0.283 h 0.829 c 0.137,0 0.249,-0.128 0.249,-0.283 v -0.945 c 0,-0.156 -0.112,-0.284 -0.249,-0.284 z"
   id="path166" />

	</g>
    <g
       id="g168"
       transform="matrix(0.26458333,0,0,0.26458333,32.225988,4.1394066)">
		<path
   style="clip-rule:evenodd;fill:#8cabba;fill-rule:evenodd"
   d="m 345.748,157.786 h -0.83 c -0.09,0 -0.169,0.055 -0.213,0.137 0.029,-0.014 0.061,-0.021 0.094,-0.021 h 0.829 c 0.137,0 0.249,0.128 0.249,0.284 v 0.945 c 0,0.054 -0.013,0.103 -0.036,0.147 0.09,-0.043 0.155,-0.144 0.155,-0.262 v -0.945 c 0.001,-0.158 -0.111,-0.285 -0.248,-0.285 z"
   id="path167" />

	</g>
    <g
       id="g169"
       transform="matrix(0.26458333,0,0,0.26458333,32.225988,4.1394066)">
		<path
   style="clip-rule:evenodd;fill:#6987a1;fill-rule:evenodd"
   d="m 345.651,157.901 h -0.759 c -0.125,0 -0.228,0.117 -0.228,0.259 v 0.864 c 0,0.143 0.103,0.259 0.228,0.259 h 0.759 c 0.125,0 0.228,-0.116 0.228,-0.259 v -0.864 c -0.001,-0.142 -0.103,-0.259 -0.228,-0.259 z"
   id="path168" />

	</g>
    <g
       id="g170"
       transform="matrix(0.26458333,0,0,0.26458333,32.225988,4.1394066)">
		<path
   style="clip-rule:evenodd;fill:#39506e;fill-rule:evenodd"
   d="m 342.667,157.864 h -0.549 c -0.091,0 -0.165,0.086 -0.165,0.191 v 0.635 c 0,0.105 0.074,0.19 0.165,0.19 h 0.549 c 0.09,0 0.165,-0.086 0.165,-0.19 v -0.635 c 0,-0.106 -0.075,-0.191 -0.165,-0.191 z"
   id="path169" />

	</g>
    <g
       id="g171"
       transform="matrix(0.26458333,0,0,0.26458333,32.225988,4.1394066)">
		<path
   style="clip-rule:evenodd;fill:#8cabba;fill-rule:evenodd"
   d="m 342.745,157.786 h -0.549 c -0.06,0 -0.112,0.037 -0.141,0.092 0.019,-0.009 0.041,-0.014 0.063,-0.014 h 0.549 c 0.09,0 0.165,0.086 0.165,0.191 v 0.635 c 0,0.036 -0.009,0.069 -0.024,0.098 0.06,-0.029 0.102,-0.097 0.102,-0.176 v -0.635 c 0,-0.105 -0.074,-0.191 -0.165,-0.191 z"
   id="path170" />

	</g>
    <g
       id="g172"
       transform="matrix(0.26458333,0,0,0.26458333,32.225988,4.1394066)">
		<path
   style="clip-rule:evenodd;fill:#6987a1;fill-rule:evenodd"
   d="m 342.681,157.864 h -0.502 c -0.083,0 -0.151,0.079 -0.151,0.174 v 0.581 c 0,0.096 0.068,0.174 0.151,0.174 h 0.502 c 0.083,0 0.151,-0.079 0.151,-0.174 v -0.581 c 0,-0.096 -0.068,-0.174 -0.151,-0.174 z"
   id="path171" />

	</g>
    <g
       id="g173"
       transform="matrix(0.26458333,0,0,0.26458333,32.225988,4.1394066)">
		<path
   style="clip-rule:evenodd;fill:#39506e;fill-rule:evenodd"
   d="m 343.87,157.864 h -0.549 c -0.09,0 -0.165,0.086 -0.165,0.191 v 0.635 c 0,0.105 0.074,0.19 0.165,0.19 h 0.549 c 0.091,0 0.165,-0.086 0.165,-0.19 v -0.635 c 0,-0.106 -0.074,-0.191 -0.165,-0.191 z"
   id="path172" />

	</g>
    <g
       id="g174"
       transform="matrix(0.26458333,0,0,0.26458333,32.225988,4.1394066)">
		<path
   style="clip-rule:evenodd;fill:#8cabba;fill-rule:evenodd"
   d="m 343.948,157.786 h -0.549 c -0.06,0 -0.112,0.037 -0.141,0.092 0.019,-0.009 0.04,-0.014 0.062,-0.014 h 0.549 c 0.091,0 0.165,0.086 0.165,0.191 v 0.635 c 0,0.036 -0.009,0.069 -0.024,0.098 0.06,-0.029 0.102,-0.097 0.102,-0.176 v -0.635 c 10e-4,-0.105 -0.073,-0.191 -0.164,-0.191 z"
   id="path173" />

	</g>
    <g
       id="g175"
       transform="matrix(0.26458333,0,0,0.26458333,32.225988,4.1394066)">
		<path
   style="clip-rule:evenodd;fill:#6987a1;fill-rule:evenodd"
   d="m 343.884,157.864 h -0.503 c -0.083,0 -0.151,0.079 -0.151,0.174 v 0.581 c 0,0.096 0.068,0.174 0.151,0.174 h 0.503 c 0.083,0 0.151,-0.079 0.151,-0.174 v -0.581 c 0,-0.096 -0.068,-0.174 -0.151,-0.174 z"
   id="path174" />

	</g>
    <g
       id="g176"
       transform="matrix(0.26458333,0,0,0.26458333,32.225988,4.1394066)">
		<polygon
   style="fill:#231f20"
   points="393.564,162.718 396.825,165.141 396.696,165.314 393.462,162.911 384.019,162.417 345.064,162.481 343.06,164.641 342.901,164.494 344.971,162.265 345.018,162.265 384.024,162.201 393.538,162.699 "
   id="polygon175" />

	</g>
    <g
       id="g177"
       transform="matrix(0.26458333,0,0,0.26458333,32.225988,4.1394066)">
		<path
   style="fill:#8cabba"
   d="m 412.53,176.236 c -9.349,0 -16.339,-0.011 -25.024,-0.011 -0.277,0 -0.528,0.113 -0.709,0.294 v 0.001 c -0.182,0.182 -0.294,0.433 -0.294,0.709 h -10e-4 v 5.005 h 10e-4 c 0,0.621 0.199,1.152 0.527,1.613 0.34,0.476 0.818,0.884 1.363,1.242 1.955,1.285 4.679,2.372 7.682,3.134 0.768,0.195 1.553,0.368 2.348,0.518 -0.524,0.093 -1.06,0.173 -1.61,0.238 -0.294,-0.067 -0.586,-0.137 -0.875,-0.211 -3.06,-0.776 -5.843,-1.889 -7.853,-3.211 -0.599,-0.394 -1.129,-0.847 -1.512,-1.384 -0.394,-0.553 -0.633,-1.191 -0.633,-1.938 h 10e-4 v -5.005 h -10e-4 c 0,-0.431 0.176,-0.823 0.46,-1.107 h 0.001 c 0.284,-0.284 0.676,-0.46 1.106,-0.46 8.691,0 15.66,0.014 25.009,0.014 0.011,0.185 0.015,0.372 0.014,0.559 z"
   id="path176" />

	</g>
    <g
       id="g178"
       transform="matrix(0.26458333,0,0,0.26458333,32.225988,4.1394066)">
		<path
   style="fill:#39506e"
   d="m 412.484,176.013 c -9.217,0 -16.059,0.023 -24.629,0.023 -0.277,0 -0.528,0.112 -0.709,0.293 v 0.001 c -0.182,0.182 -0.295,0.433 -0.295,0.709 h -10e-4 v 4.971 h 10e-4 c 0,0.621 0.199,1.152 0.527,1.613 0.34,0.476 0.819,0.884 1.363,1.242 1.955,1.285 4.679,2.372 7.682,3.134 0.901,0.229 1.828,0.427 2.766,0.593 -0.497,0.103 -1.005,0.195 -1.526,0.272 -0.464,-0.099 -0.923,-0.206 -1.376,-0.321 -3.059,-0.776 -5.843,-1.89 -7.853,-3.211 -0.599,-0.394 -1.129,-0.846 -1.512,-1.384 -0.394,-0.553 -0.633,-1.191 -0.633,-1.938 h 0.001 v -4.971 h -0.001 c 0,-0.431 0.176,-0.823 0.46,-1.107 l 10e-4,0.001 c 0.284,-0.284 0.676,-0.46 1.106,-0.46 8.568,0 15.379,-0.021 24.585,-0.021 0.02,0.187 0.034,0.373 0.043,0.561 z"
   id="path177" />

	</g>
    <g
       id="g179"
       transform="matrix(0.26458333,0,0,0.26458333,32.225988,4.1394066)">
		<path
   style="clip-rule:evenodd;fill:#8cabba;fill-rule:evenodd"
   d="m 367.646,165.322 c 1.385,0.283 1.777,0.894 1.777,1.22 -0.307,0.274 -2.332,0.56 -5.208,0.56 -2.875,0 -4.745,-0.216 -5.176,-0.623 0.346,-1.065 7.077,-1.469 8.607,-1.157 z"
   id="path178" />

	</g>
    <g
       id="g180"
       transform="matrix(0.26458333,0,0,0.26458333,32.225988,4.1394066)">
		<path
   style="clip-rule:evenodd;fill:#4d6987;fill-rule:evenodd"
   d="m 364.215,166.117 c 2.876,0 5.208,0.22 5.208,0.492 0,0.272 -2.332,0.491 -5.208,0.491 -2.876,0 -5.208,-0.22 -5.208,-0.491 -0.001,-0.271 2.332,-0.492 5.208,-0.492 z"
   id="path179" />

	</g>
    <g
       id="g181"
       transform="matrix(0.26458333,0,0,0.26458333,32.225988,4.1394066)">
		<path
   style="clip-rule:evenodd;fill:#4d6987;fill-rule:evenodd"
   d="m 358.638,186.898 -1.399,0.008 c -0.048,0 -0.086,0.028 -0.086,0.061 l 0.006,0.507 c 0,0.033 0.039,0.061 0.087,0.06 l 1.399,-0.008 c 0.048,0 0.086,-0.028 0.085,-0.062 l -0.005,-0.507 c 0,-0.032 -0.039,-0.059 -0.087,-0.059 z"
   id="path180" />

	</g>
    <g
       id="g182"
       transform="matrix(0.26458333,0,0,0.26458333,32.225988,4.1394066)">
		<path
   style="clip-rule:evenodd;fill:#39506e;fill-rule:evenodd"
   d="m 358.907,186.582 -1.399,0.008 c -0.047,0 -0.086,0.028 -0.085,0.062 l 0.006,0.507 c 0,0.034 0.039,0.061 0.087,0.061 l 1.399,-0.008 c 0.047,0 0.086,-0.028 0.085,-0.062 l -0.005,-0.507 c -0.002,-0.034 -0.041,-0.061 -0.088,-0.061 z"
   id="path181" />

	</g>
    <g
       id="g183"
       transform="matrix(0.26458333,0,0,0.26458333,32.225988,4.1394066)">
		<path
   style="clip-rule:evenodd;fill:#4d6987;fill-rule:evenodd"
   d="m 361.928,186.898 -1.399,0.008 c -0.047,0 -0.086,0.028 -0.085,0.061 l 0.006,0.507 c 0,0.033 0.039,0.061 0.087,0.06 l 1.399,-0.008 c 0.047,0 0.086,-0.028 0.085,-0.062 l -0.005,-0.507 c -0.002,-0.032 -0.041,-0.059 -0.088,-0.059 z"
   id="path182" />

	</g>
    <g
       id="g184"
       transform="matrix(0.26458333,0,0,0.26458333,32.225988,4.1394066)">
		<path
   style="clip-rule:evenodd;fill:#39506e;fill-rule:evenodd"
   d="m 362.196,186.582 -1.399,0.008 c -0.047,0 -0.086,0.028 -0.085,0.062 l 0.005,0.507 c 0.001,0.034 0.039,0.061 0.087,0.061 l 1.399,-0.008 c 0.047,0 0.086,-0.028 0.085,-0.062 l -0.006,-0.507 c 0,-0.034 -0.038,-0.061 -0.086,-0.061 z"
   id="path183" />

	</g>
    <g
       id="g185"
       transform="matrix(0.26458333,0,0,0.26458333,32.225988,4.1394066)">
		<path
   style="clip-rule:evenodd;fill:#4d6987;fill-rule:evenodd"
   d="m 365.217,186.898 -1.399,0.008 c -0.047,0 -0.086,0.028 -0.085,0.061 l 0.005,0.507 c 10e-4,0.033 0.039,0.061 0.087,0.06 l 1.399,-0.008 c 0.048,0 0.086,-0.028 0.086,-0.062 l -0.006,-0.507 c -10e-4,-0.032 -0.04,-0.059 -0.087,-0.059 z"
   id="path184" />

	</g>
    <g
       id="g186"
       transform="matrix(0.26458333,0,0,0.26458333,32.225988,4.1394066)">
		<path
   style="clip-rule:evenodd;fill:#39506e;fill-rule:evenodd"
   d="m 365.485,186.582 -1.399,0.008 c -0.048,0 -0.086,0.028 -0.085,0.062 l 0.005,0.507 c 0,0.034 0.039,0.061 0.087,0.061 l 1.399,-0.008 c 0.048,0 0.086,-0.028 0.086,-0.062 l -0.006,-0.507 c 0,-0.034 -0.039,-0.061 -0.087,-0.061 z"
   id="path185" />

	</g>
    <g
       id="g187"
       transform="matrix(0.26458333,0,0,0.26458333,32.225988,4.1394066)">
		<path
   style="clip-rule:evenodd;fill:#4d6987;fill-rule:evenodd"
   d="m 368.506,186.898 -1.399,0.008 c -0.048,0 -0.086,0.028 -0.086,0.061 l 0.006,0.507 c 0,0.033 0.039,0.061 0.087,0.06 l 1.399,-0.008 c 0.048,0 0.086,-0.028 0.085,-0.062 l -0.005,-0.507 c 0,-0.032 -0.039,-0.059 -0.087,-0.059 z"
   id="path186" />

	</g>
    <g
       id="g188"
       transform="matrix(0.26458333,0,0,0.26458333,32.225988,4.1394066)">
		<path
   style="clip-rule:evenodd;fill:#39506e;fill-rule:evenodd"
   d="m 368.775,186.582 -1.399,0.008 c -0.048,0 -0.086,0.028 -0.086,0.062 l 0.006,0.507 c 0,0.034 0.039,0.061 0.087,0.061 l 1.399,-0.008 c 0.047,0 0.086,-0.028 0.085,-0.062 l -0.005,-0.507 c -0.001,-0.034 -0.04,-0.061 -0.087,-0.061 z"
   id="path187" />

	</g>
    <g
       id="g189"
       transform="matrix(0.26458333,0,0,0.26458333,32.225988,4.1394066)">
		<path
   style="clip-rule:evenodd;fill:#4d6987;fill-rule:evenodd"
   d="m 371.795,186.898 -1.399,0.008 c -0.047,0 -0.086,0.028 -0.085,0.061 l 0.006,0.507 c 0,0.033 0.039,0.061 0.087,0.06 l 1.399,-0.008 c 0.047,0 0.086,-0.028 0.085,-0.062 l -0.005,-0.507 c -10e-4,-0.032 -0.04,-0.059 -0.088,-0.059 z"
   id="path188" />

	</g>
    <g
       id="g190"
       transform="matrix(0.26458333,0,0,0.26458333,32.225988,4.1394066)">
		<path
   style="clip-rule:evenodd;fill:#39506e;fill-rule:evenodd"
   d="m 372.064,186.582 -1.399,0.008 c -0.047,0 -0.086,0.028 -0.085,0.062 l 0.005,0.507 c 0.001,0.034 0.039,0.061 0.087,0.061 l 1.399,-0.008 c 0.047,0 0.086,-0.028 0.085,-0.062 l -0.006,-0.507 c 0,-0.034 -0.039,-0.061 -0.086,-0.061 z"
   id="path189" />

	</g>
    <g
       id="g191"
       transform="matrix(0.26458333,0,0,0.26458333,32.225988,4.1394066)">
		<path
   style="clip-rule:evenodd;fill:#4d6987;fill-rule:evenodd"
   d="m 375.085,186.898 -1.399,0.008 c -0.047,0 -0.086,0.028 -0.085,0.061 l 0.005,0.507 c 0,0.033 0.039,0.061 0.087,0.06 l 1.399,-0.008 c 0.048,0 0.086,-0.028 0.086,-0.062 l -0.006,-0.507 c -0.001,-0.032 -0.04,-0.059 -0.087,-0.059 z"
   id="path190" />

	</g>
    <g
       id="g192"
       transform="matrix(0.26458333,0,0,0.26458333,32.225988,4.1394066)">
		<path
   style="clip-rule:evenodd;fill:#39506e;fill-rule:evenodd"
   d="m 375.353,186.582 -1.399,0.008 c -0.048,0 -0.086,0.028 -0.085,0.062 l 0.005,0.507 c 0,0.034 0.039,0.061 0.087,0.061 l 1.399,-0.008 c 0.048,0 0.086,-0.028 0.086,-0.062 l -0.006,-0.507 c -10e-4,-0.034 -0.04,-0.061 -0.087,-0.061 z"
   id="path191" />

	</g>
    <g
       id="g193"
       transform="matrix(0.26458333,0,0,0.26458333,32.225988,4.1394066)">
		<path
   style="clip-rule:evenodd;fill:#4d6987;fill-rule:evenodd"
   d="m 332.99,186.898 -1.399,0.008 c -0.047,0 -0.086,0.028 -0.085,0.061 l 0.005,0.507 c 10e-4,0.033 0.039,0.061 0.087,0.06 l 1.399,-0.008 c 0.048,0 0.086,-0.028 0.086,-0.062 l -0.006,-0.507 c -10e-4,-0.032 -0.039,-0.059 -0.087,-0.059 z"
   id="path192" />

	</g>
    <g
       id="g194"
       transform="matrix(0.26458333,0,0,0.26458333,32.225988,4.1394066)">
		<path
   style="clip-rule:evenodd;fill:#39506e;fill-rule:evenodd"
   d="m 333.258,186.582 -1.399,0.008 c -0.048,0 -0.086,0.028 -0.085,0.062 l 0.005,0.507 c 0,0.034 0.039,0.061 0.087,0.061 l 1.399,-0.008 c 0.048,0 0.086,-0.028 0.086,-0.062 l -0.006,-0.507 c 0,-0.034 -0.039,-0.061 -0.087,-0.061 z"
   id="path193" />

	</g>
    <g
       id="g195"
       transform="matrix(0.26458333,0,0,0.26458333,32.225988,4.1394066)">
		<path
   style="clip-rule:evenodd;fill:#4d6987;fill-rule:evenodd"
   d="m 336.286,186.898 -1.399,0.008 c -0.048,0 -0.086,0.028 -0.085,0.061 l 0.005,0.507 c 0,0.033 0.039,0.061 0.087,0.06 l 1.399,-0.008 c 0.048,0 0.086,-0.028 0.086,-0.062 l -0.006,-0.507 c -10e-4,-0.032 -0.04,-0.059 -0.087,-0.059 z"
   id="path194" />

	</g>
    <g
       id="g196"
       transform="matrix(0.26458333,0,0,0.26458333,32.225988,4.1394066)">
		<path
   style="clip-rule:evenodd;fill:#39506e;fill-rule:evenodd"
   d="m 336.554,186.582 -1.399,0.008 c -0.048,0 -0.086,0.028 -0.086,0.062 l 0.006,0.507 c 0,0.034 0.039,0.061 0.087,0.061 l 1.399,-0.008 c 0.048,0 0.086,-0.028 0.086,-0.062 l -0.006,-0.507 c 0,-0.034 -0.039,-0.061 -0.087,-0.061 z"
   id="path195" />

	</g>
    <g
       id="g197"
       transform="matrix(0.26458333,0,0,0.26458333,32.225988,4.1394066)">
		<path
   style="clip-rule:evenodd;fill:#4d6987;fill-rule:evenodd"
   d="m 339.582,186.898 -1.399,0.008 c -0.048,0 -0.086,0.028 -0.086,0.061 l 0.006,0.507 c 0,0.033 0.039,0.061 0.087,0.06 l 1.399,-0.008 c 0.048,0 0.086,-0.028 0.086,-0.062 l -0.006,-0.507 c -10e-4,-0.032 -0.04,-0.059 -0.087,-0.059 z"
   id="path196" />

	</g>
    <g
       id="g198"
       transform="matrix(0.26458333,0,0,0.26458333,32.225988,4.1394066)">
		<path
   style="clip-rule:evenodd;fill:#39506e;fill-rule:evenodd"
   d="m 339.85,186.582 -1.399,0.008 c -0.048,0 -0.086,0.028 -0.086,0.062 l 0.006,0.507 c 0,0.034 0.039,0.061 0.087,0.061 l 1.399,-0.008 c 0.048,0 0.086,-0.028 0.085,-0.062 l -0.005,-0.507 c 0,-0.034 -0.039,-0.061 -0.087,-0.061 z"
   id="path197" />

	</g>
    <g
       id="g199"
       transform="matrix(0.26458333,0,0,0.26458333,32.225988,4.1394066)">
		<path
   style="clip-rule:evenodd;fill:#4d6987;fill-rule:evenodd"
   d="m 342.878,186.898 -1.399,0.008 c -0.048,0 -0.086,0.028 -0.086,0.061 l 0.006,0.507 c 0,0.033 0.039,0.061 0.087,0.06 l 1.399,-0.008 c 0.048,0 0.086,-0.028 0.085,-0.062 l -0.005,-0.507 c -10e-4,-0.032 -0.04,-0.059 -0.087,-0.059 z"
   id="path198" />

	</g>
    <g
       id="g200"
       transform="matrix(0.26458333,0,0,0.26458333,32.225988,4.1394066)">
		<path
   style="clip-rule:evenodd;fill:#39506e;fill-rule:evenodd"
   d="m 343.146,186.582 -1.399,0.008 c -0.048,0 -0.086,0.028 -0.086,0.062 l 0.006,0.507 c 0,0.034 0.039,0.061 0.087,0.061 l 1.399,-0.008 c 0.047,0 0.086,-0.028 0.085,-0.062 l -0.005,-0.507 c -10e-4,-0.034 -0.04,-0.061 -0.087,-0.061 z"
   id="path199" />

	</g>
    <g
       id="g201"
       transform="matrix(0.26458333,0,0,0.26458333,32.225988,4.1394066)">
		<path
   style="clip-rule:evenodd;fill:#4d6987;fill-rule:evenodd"
   d="m 308.168,186.898 -1.399,0.008 c -0.047,0 -0.086,0.028 -0.085,0.061 l 0.005,0.507 c 10e-4,0.033 0.039,0.061 0.087,0.06 l 1.399,-0.008 c 0.048,0 0.086,-0.028 0.086,-0.062 l -0.006,-0.507 c 0,-0.032 -0.039,-0.059 -0.087,-0.059 z"
   id="path200" />

	</g>
    <g
       id="g202"
       transform="matrix(0.26458333,0,0,0.26458333,32.225988,4.1394066)">
		<path
   style="clip-rule:evenodd;fill:#39506e;fill-rule:evenodd"
   d="m 308.437,186.582 -1.399,0.008 c -0.048,0 -0.086,0.028 -0.085,0.062 l 0.005,0.507 c 0,0.034 0.039,0.061 0.087,0.061 l 1.399,-0.008 c 0.048,0 0.086,-0.028 0.086,-0.062 l -0.006,-0.507 c -10e-4,-0.034 -0.04,-0.061 -0.087,-0.061 z"
   id="path201" />

	</g>
    <g
       id="g203"
       transform="matrix(0.26458333,0,0,0.26458333,32.225988,4.1394066)">
		<path
   style="clip-rule:evenodd;fill:#4d6987;fill-rule:evenodd"
   d="m 312.082,186.898 -1.399,0.008 c -0.048,0 -0.086,0.028 -0.085,0.061 l 0.005,0.507 c 0,0.033 0.039,0.061 0.087,0.06 l 1.399,-0.008 c 0.048,0 0.086,-0.028 0.086,-0.062 l -0.006,-0.507 c 0,-0.032 -0.039,-0.059 -0.087,-0.059 z"
   id="path202" />

	</g>
    <g
       id="g204"
       transform="matrix(0.26458333,0,0,0.26458333,32.225988,4.1394066)">
		<path
   style="clip-rule:evenodd;fill:#39506e;fill-rule:evenodd"
   d="m 312.351,186.582 -1.399,0.008 c -0.048,0 -0.086,0.028 -0.086,0.062 l 0.006,0.507 c 0,0.034 0.039,0.061 0.087,0.061 l 1.399,-0.008 c 0.048,0 0.086,-0.028 0.086,-0.062 l -0.006,-0.507 c -10e-4,-0.034 -0.04,-0.061 -0.087,-0.061 z"
   id="path203" />

	</g>
    <g
       id="g205"
       transform="matrix(0.26458333,0,0,0.26458333,32.225988,4.1394066)">
		<path
   style="clip-rule:evenodd;fill:#4d6987;fill-rule:evenodd"
   d="m 315.996,186.898 -1.399,0.008 c -0.048,0 -0.086,0.028 -0.086,0.061 l 0.006,0.507 c 0,0.033 0.039,0.061 0.087,0.06 l 1.399,-0.008 c 0.048,0 0.086,-0.028 0.086,-0.062 l -0.006,-0.507 c -0.001,-0.032 -0.04,-0.059 -0.087,-0.059 z"
   id="path204" />

	</g>
    <g
       id="g206"
       transform="matrix(0.26458333,0,0,0.26458333,32.225988,4.1394066)">
		<path
   style="clip-rule:evenodd;fill:#39506e;fill-rule:evenodd"
   d="m 316.264,186.582 -1.399,0.008 c -0.048,0 -0.086,0.028 -0.086,0.062 l 0.006,0.507 c 0,0.034 0.039,0.061 0.087,0.061 l 1.399,-0.008 c 0.047,0 0.086,-0.028 0.085,-0.062 l -0.005,-0.507 c 0,-0.034 -0.039,-0.061 -0.087,-0.061 z"
   id="path205" />

	</g>
    <g
       id="g207"
       transform="matrix(0.26458333,0,0,0.26458333,32.225988,4.1394066)">
		<path
   style="clip-rule:evenodd;fill:#4d6987;fill-rule:evenodd"
   d="m 243.549,184.621 -1.391,-0.147 c -0.047,-0.005 -0.088,0.018 -0.092,0.052 l -0.051,0.505 c -0.003,0.033 0.032,0.065 0.079,0.07 l 1.391,0.148 c 0.047,0.005 0.088,-0.018 0.092,-0.052 l 0.051,-0.504 c 0.004,-0.036 -0.032,-0.067 -0.079,-0.072 z"
   id="path206" />

	</g>
    <g
       id="g208"
       transform="matrix(0.26458333,0,0,0.26458333,32.225988,4.1394066)">
		<path
   style="clip-rule:evenodd;fill:#39506e;fill-rule:evenodd"
   d="m 243.851,184.337 -1.391,-0.148 c -0.047,-0.005 -0.088,0.018 -0.092,0.052 l -0.051,0.505 c -0.003,0.033 0.032,0.065 0.08,0.07 l 1.391,0.147 c 0.047,0.005 0.088,-0.018 0.092,-0.052 l 0.051,-0.505 c 0.003,-0.033 -0.033,-0.064 -0.08,-0.069 z"
   id="path207" />

	</g>
    <g
       id="g209"
       transform="matrix(0.26458333,0,0,0.26458333,32.225988,4.1394066)">
		<path
   style="clip-rule:evenodd;fill:#4d6987;fill-rule:evenodd"
   d="m 246.818,184.986 -1.391,-0.148 c -0.047,-0.005 -0.088,0.018 -0.092,0.052 l -0.051,0.505 c -0.003,0.033 0.032,0.065 0.079,0.07 l 1.391,0.148 c 0.047,0.005 0.088,-0.018 0.092,-0.052 l 0.051,-0.505 c 0.004,-0.034 -0.032,-0.065 -0.079,-0.07 z"
   id="path208" />

	</g>
    <g
       id="g210"
       transform="matrix(0.26458333,0,0,0.26458333,32.225988,4.1394066)">
		<path
   style="clip-rule:evenodd;fill:#39506e;fill-rule:evenodd"
   d="m 247.12,184.701 -1.391,-0.147 c -0.047,-0.005 -0.088,0.018 -0.092,0.052 l -0.051,0.505 c -0.003,0.033 0.032,0.065 0.08,0.07 l 1.391,0.148 c 0.047,0.005 0.088,-0.018 0.092,-0.052 l 0.051,-0.505 c 0.003,-0.034 -0.033,-0.066 -0.08,-0.071 z"
   id="path209" />

	</g>
    <g
       id="g211"
       transform="matrix(0.26458333,0,0,0.26458333,32.225988,4.1394066)">
		<path
   style="clip-rule:evenodd;fill:#4d6987;fill-rule:evenodd"
   d="m 250.087,185.351 -1.391,-0.148 c -0.047,-0.005 -0.088,0.018 -0.092,0.052 l -0.051,0.505 c -0.003,0.033 0.032,0.065 0.079,0.07 l 1.391,0.147 c 0.047,0.005 0.088,-0.018 0.092,-0.052 l 0.051,-0.505 c 0.004,-0.033 -0.032,-0.064 -0.079,-0.069 z"
   id="path210" />

	</g>
    <g
       id="g212"
       transform="matrix(0.26458333,0,0,0.26458333,32.225988,4.1394066)">
		<path
   style="clip-rule:evenodd;fill:#39506e;fill-rule:evenodd"
   d="m 250.389,185.066 -1.391,-0.148 c -0.047,-0.005 -0.088,0.018 -0.092,0.052 l -0.051,0.505 c -0.003,0.033 0.032,0.065 0.08,0.07 l 1.391,0.147 c 0.047,0.005 0.088,-0.018 0.092,-0.052 l 0.051,-0.505 c 0.003,-0.032 -0.033,-0.063 -0.08,-0.069 z"
   id="path211" />

	</g>
    <g
       id="g213"
       transform="matrix(0.26458333,0,0,0.26458333,32.225988,4.1394066)">
		<path
   style="clip-rule:evenodd;fill:#4d6987;fill-rule:evenodd"
   d="m 253.356,185.716 -1.391,-0.148 c -0.047,-0.005 -0.088,0.018 -0.092,0.052 l -0.051,0.505 c -0.003,0.033 0.032,0.065 0.079,0.07 l 1.391,0.148 c 0.047,0.005 0.088,-0.018 0.092,-0.052 l 0.051,-0.505 c 0.003,-0.034 -0.032,-0.066 -0.079,-0.07 z"
   id="path212" />

	</g>
    <g
       id="g214"
       transform="matrix(0.26458333,0,0,0.26458333,32.225988,4.1394066)">
		<path
   style="clip-rule:evenodd;fill:#39506e;fill-rule:evenodd"
   d="m 253.658,185.431 -1.391,-0.147 c -0.047,-0.005 -0.088,0.018 -0.092,0.052 l -0.051,0.505 c -0.003,0.033 0.032,0.065 0.08,0.07 l 1.391,0.148 c 0.047,0.005 0.088,-0.018 0.092,-0.052 l 0.051,-0.505 c 0.002,-0.034 -0.033,-0.066 -0.08,-0.071 z"
   id="path213" />

	</g>
    <g
       id="g215"
       transform="matrix(0.26458333,0,0,0.26458333,32.225988,4.1394066)">
		<path
   style="clip-rule:evenodd;fill:#4d6987;fill-rule:evenodd"
   d="m 256.625,186.08 -1.391,-0.148 c -0.047,-0.005 -0.088,0.018 -0.092,0.052 l -0.051,0.505 c -0.003,0.033 0.032,0.065 0.079,0.07 l 1.391,0.147 c 0.047,0.005 0.088,-0.018 0.092,-0.052 l 0.051,-0.505 c 0.003,-0.032 -0.032,-0.063 -0.079,-0.069 z"
   id="path214" />

	</g>
    <g
       id="g216"
       transform="matrix(0.26458333,0,0,0.26458333,32.225988,4.1394066)">
		<path
   style="clip-rule:evenodd;fill:#39506e;fill-rule:evenodd"
   d="m 256.927,185.796 -1.391,-0.148 c -0.047,-0.005 -0.088,0.018 -0.092,0.052 l -0.051,0.505 c -0.003,0.033 0.032,0.065 0.08,0.07 l 1.391,0.148 c 0.047,0.005 0.088,-0.018 0.092,-0.052 l 0.051,-0.505 c 0.002,-0.033 -0.033,-0.065 -0.08,-0.07 z"
   id="path215" />

	</g>
    <g
       id="g217"
       transform="matrix(0.26458333,0,0,0.26458333,32.225988,4.1394066)">
		<path
   style="clip-rule:evenodd;fill:#4d6987;fill-rule:evenodd"
   d="m 259.894,186.445 -1.391,-0.147 c -0.047,-0.005 -0.088,0.018 -0.092,0.052 l -0.051,0.505 c -0.003,0.033 0.032,0.065 0.079,0.07 l 1.391,0.148 c 0.047,0.005 0.088,-0.018 0.092,-0.052 l 0.051,-0.505 c 0.003,-0.034 -0.032,-0.066 -0.079,-0.071 z"
   id="path216" />

	</g>
    <g
       id="g218"
       transform="matrix(0.26458333,0,0,0.26458333,32.225988,4.1394066)">
		<path
   style="clip-rule:evenodd;fill:#39506e;fill-rule:evenodd"
   d="m 260.195,186.161 -1.391,-0.147 c -0.047,-0.005 -0.088,0.018 -0.092,0.052 l -0.051,0.505 c -0.003,0.034 0.032,0.065 0.08,0.07 l 1.391,0.148 c 0.047,0.005 0.088,-0.018 0.092,-0.052 l 0.051,-0.505 c 0.003,-0.034 -0.033,-0.066 -0.08,-0.071 z"
   id="path217" />

	</g>
  </g>
</svg>
