<?xml version="1.0" encoding="UTF-8" standalone="no"?>
<!-- Created with Inkscape (http://www.inkscape.org/) -->

<svg
   width="55.074081mm"
   height="16.342096mm"
   viewBox="0 0 55.074081 16.342096"
   version="1.1"
   id="svg1"
   xmlns="http://www.w3.org/2000/svg"
   xmlns:svg="http://www.w3.org/2000/svg">
  <defs
     id="defs1" />
  <g
     id="layer1"
     transform="translate(-70.643743,-40.481249)">
    <g
       id="g219"
       transform="matrix(0.26458333,0,0,0.26458333,15.473356,27.863006)">
		<path
   style="clip-rule:evenodd;fill:#7894ae;fill-rule:evenodd"
   d="m 224.64,80.065 c 1.446,0.033 2.242,4.447 0.505,4.447 -1.027,0 -2.496,-0.048 -2.496,-1.299 0,-1.252 0.545,-3.181 1.991,-3.148 z"
   id="path218" />

	</g>
    <g
       id="g220"
       transform="matrix(0.26458333,0,0,0.26458333,15.473356,27.863006)">
		<polygon
   style="clip-rule:evenodd;fill:#a3b9c6;fill-rule:evenodd"
   points="229.22,81.776 229.057,84.278 221.978,83.33 221.524,81.898 "
   id="polygon219" />

	</g>
    <g
       id="g221"
       transform="matrix(0.26458333,0,0,0.26458333,15.473356,27.863006)">
		<polygon
   style="clip-rule:evenodd;fill:#7894ae;fill-rule:evenodd"
   points="221.978,83.33 221.797,82.271 228.46,82.452 228.348,84.183 "
   id="polygon220" />

	</g>
    <g
       id="g222"
       transform="matrix(0.26458333,0,0,0.26458333,15.473356,27.863006)">
		<polygon
   style="clip-rule:evenodd;fill:#7894ae;fill-rule:evenodd"
   points="231.986,76.593 231.986,80.367 231.533,80.367 231.533,76.593 "
   id="polygon221" />

	</g>
    <g
       id="g223"
       transform="matrix(0.26458333,0,0,0.26458333,15.473356,27.863006)">
		<path
   style="clip-rule:evenodd;fill:#7894ae;fill-rule:evenodd"
   d="m 231.986,80.367 c 3.249,0 5.884,1.262 5.884,2.819 0,1.557 -2.635,2.819 -5.884,2.819 -3.249,0 -5.884,-1.262 -5.884,-2.819 0,-1.557 2.635,-2.819 5.884,-2.819 z"
   id="path222" />

	</g>
    <g
       id="g224"
       transform="matrix(0.26458333,0,0,0.26458333,15.473356,27.863006)">
		<path
   style="clip-rule:evenodd;fill:#a3b9c6;fill-rule:evenodd"
   d="m 231.986,80.367 c 3.249,0 5.884,1.262 5.884,2.819 0,0.466 -0.237,0.904 -0.654,1.291 -0.905,0.272 -1.974,0.43 -3.12,0.43 -3.249,0 -5.884,-1.262 -5.884,-2.819 0,-0.466 0.237,-0.906 0.654,-1.293 0.904,-0.272 1.973,-0.428 3.12,-0.428 z"
   id="path223" />

	</g>
    <g
       id="g225"
       transform="matrix(0.26458333,0,0,0.26458333,15.473356,27.863006)">
		<path
   style="clip-rule:evenodd;fill:#4c6186;fill-rule:evenodd"
   d="m 235.448,80.906 c 1.467,0.513 2.422,1.344 2.422,2.28 0,0.336 -0.123,0.656 -0.348,0.955 -2.263,0.425 -4.399,0.425 -6.407,0 -0.825,-0.175 -1.534,-0.69 -1.534,-1.534 V 82.44 c 0,-0.844 0.69,-1.534 1.534,-1.534 z"
   id="path224" />

	</g>
    <g
       id="g226"
       transform="matrix(0.26458333,0,0,0.26458333,15.473356,27.863006)">
		<path
   style="clip-rule:evenodd;fill:#a3b9c6;fill-rule:evenodd"
   d="m 222.028,80.065 c 1.446,0.033 2.242,4.447 0.505,4.447 -1.027,0 -2.496,-0.048 -2.496,-1.299 0,-1.252 0.545,-3.181 1.991,-3.148 z"
   id="path225" />

	</g>
    <g
       id="g227"
       transform="matrix(0.26458333,0,0,0.26458333,15.473356,27.863006)">
		<path
   style="fill:#7894ae"
   d="m 215.213,79.447 c -0.058,0 -0.105,-0.045 -0.108,-0.104 -0.002,-0.06 0.044,-0.11 0.104,-0.112 9.677,-0.402 17.155,-0.405 24.243,-0.01 0.06,0.003 0.105,0.054 0.102,0.114 -0.003,0.06 -0.046,0.108 -0.113,0.102 -7.082,-0.395 -14.553,-0.392 -24.222,0.01 -0.003,0 -0.005,0 -0.006,0 z m 29.151,-2.38 c -0.002,0 -0.005,0 -0.008,0 -9.651,-0.677 -17.119,-0.893 -24.211,-0.702 -0.059,0.003 -0.109,-0.045 -0.111,-0.105 -0.002,-0.06 0.045,-0.109 0.105,-0.111 7.099,-0.191 14.573,0.024 24.233,0.702 0.06,0.004 0.104,0.056 0.1,0.115 -0.004,0.058 -0.051,0.101 -0.108,0.101 z"
   id="path226" />

	</g>
    <g
       id="g228"
       transform="matrix(0.26458333,0,0,0.26458333,15.473356,27.863006)">
		<polygon
   style="clip-rule:evenodd;fill:#7894ae;fill-rule:evenodd"
   points="355.881,80.478 355.862,81.067 350.574,80.9 350.592,80.311 "
   id="polygon227" />

	</g>
    <g
       id="g229"
       transform="matrix(0.26458333,0,0,0.26458333,15.473356,27.863006)">
		<path
   style="clip-rule:evenodd;fill:#bbc4d4;fill-rule:evenodd"
   d="m 377.418,80.515 c -0.804,0.003 -1.608,0.007 -2.413,0.01 0.024,-0.4 0.091,-0.685 0.466,-1.069 0.787,0.1 1.899,0.441 1.947,1.059 z"
   id="path228" />

	</g>
    <g
       id="g230"
       transform="matrix(0.26458333,0,0,0.26458333,15.473356,27.863006)">
		<polygon
   style="clip-rule:evenodd;fill:#7894ae;fill-rule:evenodd"
   points="411.514,84.578 414.248,80.534 414.209,80.938 411.691,84.664 411.69,84.649 "
   id="polygon229" />

	</g>
    <g
       id="g231"
       transform="matrix(0.26458333,0,0,0.26458333,15.473356,27.863006)">
		<polygon
   style="clip-rule:evenodd;fill:#7894ae;fill-rule:evenodd"
   points="266.364,70.967 266.364,71.219 263.796,71.219 263.796,70.967 "
   id="polygon230" />

	</g>
    <g
       id="g232"
       transform="matrix(0.26458333,0,0,0.26458333,15.473356,27.863006)">
		<polygon
   style="clip-rule:evenodd;fill:#7894ae;fill-rule:evenodd"
   points="305.615,54.969 310.723,78.388 310.152,78.512 305.044,55.093 "
   id="polygon231" />

	</g>
    <g
       id="g233"
       transform="matrix(0.26458333,0,0,0.26458333,15.473356,27.863006)">
		<polygon
   style="clip-rule:evenodd;fill:#7894ae;fill-rule:evenodd"
   points="364.864,79.317 364.864,79.569 367.432,79.569 367.432,79.317 "
   id="polygon232" />

	</g>
    <g
       id="g234"
       transform="matrix(0.26458333,0,0,0.26458333,15.473356,27.863006)">
		<polygon
   style="clip-rule:evenodd;fill:#7894ae;fill-rule:evenodd"
   points="415.262,73.048 415.262,73.756 415.549,73.756 415.549,73.048 "
   id="polygon233" />

	</g>
    <g
       id="g235"
       transform="matrix(0.26458333,0,0,0.26458333,15.473356,27.863006)">
		<polygon
   style="clip-rule:evenodd;fill:#7894ae;fill-rule:evenodd"
   points="415.549,73.302 415.549,73.501 413.236,73.501 413.236,73.302 "
   id="polygon234" />

	</g>
    <g
       id="g236"
       transform="matrix(0.26458333,0,0,0.26458333,15.473356,27.863006)">
		<polygon
   style="clip-rule:evenodd;fill:#7894ae;fill-rule:evenodd"
   points="414.248,74.261 414.248,74.46 413.957,74.46 413.957,74.261 "
   id="polygon235" />

	</g>
    <g
       id="g237"
       transform="matrix(0.26458333,0,0,0.26458333,15.473356,27.863006)">
		<polygon
   style="clip-rule:evenodd;fill:#7894ae;fill-rule:evenodd"
   points="413.275,73.048 413.275,73.756 413.563,73.756 413.563,73.048 "
   id="polygon236" />

	</g>
    <g
       id="g238"
       transform="matrix(0.26458333,0,0,0.26458333,15.473356,27.863006)">
		<path
   style="clip-rule:evenodd;fill:#c9d5dc;fill-rule:evenodd"
   d="m 364.243,78.662 h -0.839 c -0.581,0 -1.057,0.476 -1.057,1.057 v 1.228 c 0,0.582 0.476,1.057 1.057,1.057 h 0.839 c 0.582,0 1.057,-0.476 1.057,-1.057 v -1.228 c 0,-0.581 -0.476,-1.057 -1.057,-1.057 z"
   id="path237" />

	</g>
    <g
       id="g239"
       transform="matrix(0.26458333,0,0,0.26458333,15.473356,27.863006)">
		<path
   style="clip-rule:evenodd;fill:#a3b9c6;fill-rule:evenodd"
   d="m 362.489,79.191 c -0.09,0.156 -0.143,0.336 -0.143,0.528 v 1.228 c 0,0.582 0.476,1.057 1.057,1.057 h 0.839 c 0.138,0 0.27,-0.027 0.391,-0.076 0.091,-0.156 0.143,-0.336 0.143,-0.528 v -1.229 c 0,-0.582 -0.476,-1.057 -1.057,-1.057 h -0.839 c -0.138,10e-4 -0.269,0.028 -0.391,0.077 z"
   id="path238" />

	</g>
    <g
       id="g240"
       transform="matrix(0.26458333,0,0,0.26458333,15.473356,27.863006)">
		<polygon
   style="clip-rule:evenodd;fill:#7894ae;fill-rule:evenodd"
   points="362.204,80.111 361.768,81.319 365.916,81.319 365.446,80.111 "
   id="polygon239" />

	</g>
    <g
       id="g241"
       transform="matrix(0.26458333,0,0,0.26458333,15.473356,27.863006)">
		<polygon
   style="clip-rule:evenodd;fill:#a3b9c6;fill-rule:evenodd"
   points="365.101,80.276 365.47,81.207 365.707,81.207 365.339,80.276 "
   id="polygon240" />

	</g>
    <g
       id="g242"
       transform="matrix(0.26458333,0,0,0.26458333,15.473356,27.863006)">
		<path
   style="clip-rule:evenodd;fill:#a3b9c6;fill-rule:evenodd"
   d="m 364.79,80.276 c -0.079,0 -0.159,0 -0.238,0 0.074,0.31 0.149,0.621 0.223,0.931 0.079,0 0.158,0 0.237,0 -0.073,-0.31 -0.147,-0.621 -0.222,-0.931 z"
   id="path241" />

	</g>
    <g
       id="g243"
       transform="matrix(0.26458333,0,0,0.26458333,15.473356,27.863006)">
		<path
   style="clip-rule:evenodd;fill:#a3b9c6;fill-rule:evenodd"
   d="m 364.242,80.276 c -0.079,0 -0.158,0 -0.238,0 0.026,0.31 0.052,0.621 0.077,0.931 0.079,0 0.158,0 0.238,0 -0.026,-0.31 -0.052,-0.621 -0.077,-0.931 z"
   id="path242" />

	</g>
    <g
       id="g244"
       transform="matrix(0.26458333,0,0,0.26458333,15.473356,27.863006)">
		<path
   style="clip-rule:evenodd;fill:#a3b9c6;fill-rule:evenodd"
   d="m 363.693,80.276 c -0.079,0 -0.158,0 -0.237,0 -0.023,0.31 -0.045,0.621 -0.068,0.931 0.079,0 0.158,0 0.237,0 0.023,-0.31 0.045,-0.621 0.068,-0.931 z"
   id="path243" />

	</g>
    <g
       id="g245"
       transform="matrix(0.26458333,0,0,0.26458333,15.473356,27.863006)">
		<path
   style="clip-rule:evenodd;fill:#a3b9c6;fill-rule:evenodd"
   d="m 363.144,80.276 c -0.079,0 -0.158,0 -0.238,0 -0.071,0.31 -0.142,0.621 -0.213,0.931 0.079,0 0.158,0 0.238,0 0.071,-0.31 0.142,-0.621 0.213,-0.931 z"
   id="path244" />

	</g>
    <g
       id="g246"
       transform="matrix(0.26458333,0,0,0.26458333,15.473356,27.863006)">
		<polygon
   style="clip-rule:evenodd;fill:#a3b9c6;fill-rule:evenodd"
   points="362.358,80.276 362,81.207 362.237,81.207 362.596,80.276 "
   id="polygon245" />

	</g>
    <g
       id="g247"
       transform="matrix(0.26458333,0,0,0.26458333,15.473356,27.863006)">
		<path
   style="clip-rule:evenodd;fill:#d3e0e9;fill-rule:evenodd"
   d="m 266.985,70.312 h 0.839 c 0.581,0 1.057,0.476 1.057,1.057 v 1.229 c 0,0.582 -0.476,1.057 -1.057,1.057 h -0.839 c -0.582,0 -1.057,-0.476 -1.057,-1.057 v -1.229 c -10e-4,-0.581 0.475,-1.057 1.057,-1.057 z"
   id="path246" />

	</g>
    <g
       id="g248"
       transform="matrix(0.26458333,0,0,0.26458333,15.473356,27.863006)">
		<path
   style="clip-rule:evenodd;fill:#a3b9c6;fill-rule:evenodd"
   d="m 268.044,73.632 c -0.071,0.015 -0.144,0.023 -0.22,0.023 h -0.839 c -0.582,0 -1.057,-0.476 -1.057,-1.057 v -1.229 c 0,-0.256 0.093,-0.492 0.245,-0.675 0.071,-0.015 0.145,-0.023 0.221,-0.023 h 0.839 c 0.582,0 1.057,0.476 1.057,1.057 v 1.229 c 0,0.256 -0.093,0.491 -0.246,0.675 z"
   id="path247" />

	</g>
    <g
       id="g249"
       transform="matrix(0.26458333,0,0,0.26458333,15.473356,27.863006)">
		<path
   style="fill:#231f20"
   d="m 317.046,72.042 h -0.34 V 72.02 h -15.648 v -2.43 h 0.341 v 0.049 h 2.76 V 69.59 h 0.34 v 0.049 h 2.76 V 69.59 h 0.341 v 0.049 h 2.76 V 69.59 h 0.34 v 0.049 h 2.76 V 69.59 h 0.34 v 0.049 h 2.908 v -0.026 h 0.34 v 0.026 h 0.025 v 0.216 h -0.025 v 0.557 h 0.025 v 0.216 h -0.025 v 0.588 h 0.025 v 0.216 h -0.025 v 0.372 h 0.025 v 0.216 h -0.025 v 0.022 z m -3.248,-0.238 h 2.908 v -0.372 h -2.908 z m -3.1,0 h 2.76 v -0.372 h -2.76 z m -3.099,0 h 2.76 v -0.372 h -2.76 z m -3.101,0 h 2.76 v -0.372 h -2.76 z m -3.1,0 h 2.76 v -0.372 h -2.76 z m 12.4,-0.588 h 2.908 v -0.588 h -2.908 z m -3.1,0 h 2.76 v -0.588 h -2.76 z m -3.099,0 h 2.76 v -0.588 h -2.76 z m -3.101,0 h 2.76 v -0.588 h -2.76 z m -3.1,0 h 2.76 v -0.588 h -2.76 z m 12.4,-0.804 h 2.908 v -0.557 h -2.908 z m -3.1,0 h 2.76 v -0.557 h -2.76 z m -3.099,0 h 2.76 v -0.557 h -2.76 z m -3.101,0 h 2.76 v -0.557 h -2.76 z m -3.1,0 h 2.76 v -0.557 h -2.76 z"
   id="path248" />

	</g>
    <g
       id="g250"
       transform="matrix(0.26458333,0,0,0.26458333,15.473356,27.863006)">
		<polygon
   style="clip-rule:evenodd;fill:#7894ae;fill-rule:evenodd"
   points="322.927,67.715 321.848,73.059 316.333,73.059 314.758,67.744 "
   id="polygon249" />

	</g>
    <g
       id="g251"
       transform="matrix(0.26458333,0,0,0.26458333,15.473356,27.863006)">
		<polygon
   style="clip-rule:evenodd;fill:#7e95b2;fill-rule:evenodd"
   points="294.169,72.901 294.169,76.803 293.873,76.803 293.873,72.901 "
   id="polygon250" />

	</g>
    <g
       id="g252"
       transform="matrix(0.26458333,0,0,0.26458333,15.473356,27.863006)">
		<polygon
   style="clip-rule:evenodd;fill:#7e95b2;fill-rule:evenodd"
   points="293.874,72.901 292.767,76.803 292.471,76.803 293.578,72.901 "
   id="polygon251" />

	</g>
    <g
       id="g253"
       transform="matrix(0.26458333,0,0,0.26458333,15.473356,27.863006)">
		<polygon
   style="clip-rule:evenodd;fill:#7e95b2;fill-rule:evenodd"
   points="294.211,72.901 295.317,76.803 295.613,76.803 294.507,72.901 "
   id="polygon252" />

	</g>
    <g
       id="g254"
       transform="matrix(0.26458333,0,0,0.26458333,15.473356,27.863006)">
		<path
   style="clip-rule:evenodd;fill:#b9272e;fill-rule:evenodd"
   d="m 355.196,103.454 c 1.405,0.932 1.372,1.722 2.147,3.211 0.992,1.907 4.277,2.51 6.982,2.756 4.093,0.374 5.586,-2.278 6.939,-4.978 -5.357,-0.329 -10.712,-0.659 -16.068,-0.989 z"
   id="path253" />

	</g>
    <g
       id="g255"
       transform="matrix(0.26458333,0,0,0.26458333,15.473356,27.863006)">
		<polygon
   style="clip-rule:evenodd;fill:#7894ae;fill-rule:evenodd"
   points="273.051,76.876 272.83,87.081 255.567,86.984 258.489,76.876 "
   id="polygon254" />

	</g>
    <g
       id="g256"
       transform="matrix(0.26458333,0,0,0.26458333,15.473356,27.863006)">
		<path
   style="fill:#231f20"
   d="m 260.617,87.014 h -0.341 v -0.022 h -48.85 v -2.429 h 0.339 v 0.048 h 3.169 v -0.048 h 0.339 v 0.048 h 3.168 v -0.048 h 0.339 v 0.048 h 3.168 v -0.048 h 0.339 v 0.048 h 3.168 v -0.048 h 0.34 v 0.048 h 3.168 v -0.048 h 0.34 v 0.048 h 3.168 v -0.048 h 0.34 v 0.048 h 3.168 v -0.048 h 0.34 v 0.048 h 3.168 v -0.048 h 0.34 v 0.048 h 3.168 v -0.048 h 0.34 v 0.048 h 3.168 v -0.048 h 0.34 v 0.048 h 3.168 v -0.048 h 0.34 v 0.048 h 3.168 v -0.048 h 0.34 v 0.048 h 3.168 v -0.048 h 0.34 v 0.048 h 2.908 v -0.026 h 0.341 v 0.026 h 0.024 v 0.216 h -0.024 v 0.557 h 0.024 V 85.6 h -0.024 v 0.589 h 0.024 v 0.216 h -0.024 v 0.371 h 0.024 v 0.216 h -0.024 v 0.022 z m -3.249,-0.238 h 2.908 v -0.371 h -2.908 z m -3.508,0 h 3.168 v -0.371 h -3.168 z m -3.507,0 h 3.168 v -0.371 h -3.168 z m -3.508,0 h 3.168 v -0.371 h -3.168 z m -3.508,0 h 3.168 v -0.371 h -3.168 z m -3.508,0 h 3.168 v -0.371 h -3.168 z m -3.508,0 h 3.168 v -0.371 h -3.168 z m -3.508,0 h 3.168 v -0.371 h -3.168 z m -3.507,0 h 3.168 v -0.371 h -3.168 z m -3.508,0 h 3.168 v -0.371 h -3.168 z m -3.508,0 h 3.168 v -0.371 h -3.168 z m -3.508,0 h 3.168 v -0.371 h -3.168 z m -3.508,0 h 3.168 v -0.371 h -3.168 z m -3.508,0 h 3.169 v -0.371 h -3.169 z m 45.602,-0.587 h 2.908 V 85.6 h -2.908 z m -3.508,0 h 3.168 V 85.6 h -3.168 z m -3.507,0 h 3.168 V 85.6 h -3.168 z m -3.508,0 h 3.168 V 85.6 h -3.168 z m -3.508,0 h 3.168 V 85.6 h -3.168 z m -3.508,0 h 3.168 V 85.6 h -3.168 z m -3.508,0 h 3.168 V 85.6 h -3.168 z m -3.508,0 h 3.168 V 85.6 h -3.168 z m -3.507,0 h 3.168 V 85.6 h -3.168 z m -3.508,0 h 3.168 V 85.6 h -3.168 z m -3.508,0 h 3.168 V 85.6 h -3.168 z m -3.508,0 h 3.168 V 85.6 h -3.168 z m -3.508,0 h 3.168 V 85.6 h -3.168 z m -3.508,0 h 3.169 V 85.6 h -3.169 z m 45.602,-0.805 h 2.908 v -0.557 h -2.908 z m -3.508,0 h 3.168 v -0.557 h -3.168 z m -3.507,0 h 3.168 v -0.557 h -3.168 z m -3.508,0 h 3.168 v -0.557 h -3.168 z m -3.508,0 h 3.168 v -0.557 h -3.168 z m -3.508,0 h 3.168 v -0.557 h -3.168 z m -3.508,0 h 3.168 v -0.557 h -3.168 z m -3.508,0 h 3.168 v -0.557 h -3.168 z m -3.507,0 h 3.168 v -0.557 h -3.168 z m -3.508,0 h 3.168 v -0.557 h -3.168 z m -3.508,0 h 3.168 v -0.557 h -3.168 z m -3.508,0 h 3.168 v -0.557 h -3.168 z m -3.508,0 h 3.168 v -0.557 h -3.168 z m -3.508,0 h 3.169 v -0.557 h -3.169 z"
   id="path255" />

	</g>
    <g
       id="g257"
       transform="matrix(0.26458333,0,0,0.26458333,15.473356,27.863006)">
		<polygon
   style="clip-rule:evenodd;fill:#a3b9c6;fill-rule:evenodd"
   points="272.83,72.969 271.848,76.876 258.489,76.876 259.567,72.969 "
   id="polygon256" />

	</g>
    <g
       id="g258"
       transform="matrix(0.26458333,0,0,0.26458333,15.473356,27.863006)">
		<polygon
   style="clip-rule:evenodd;fill:#4c6186;fill-rule:evenodd"
   points="248.995,86.941 248.995,91.966 234.086,91.966 234.086,86.941 "
   id="polygon257" />

	</g>
    <g
       id="g259"
       transform="matrix(0.26458333,0,0,0.26458333,15.473356,27.863006)">
		<path
   style="fill:#231f20"
   d="m 247.266,91.737 h -0.341 v -0.022 h -15.648 v -2.429 h 0.341 v 0.048 h 2.76 v -0.048 h 0.341 v 0.048 h 2.76 v -0.048 h 0.34 v 0.048 h 2.76 v -0.048 h 0.341 v 0.048 h 2.76 v -0.048 h 0.34 v 0.048 h 2.907 v -0.026 h 0.341 v 0.026 h 0.024 v 0.216 h -0.024 v 0.558 h 0.024 v 0.216 h -0.024 v 0.588 h 0.024 v 0.216 h -0.024 V 91.5 h 0.024 v 0.216 h -0.024 v 0.021 z m -3.248,-0.238 h 2.907 v -0.372 h -2.907 z m -3.1,0 h 2.76 v -0.372 h -2.76 z m -3.101,0 h 2.76 v -0.372 h -2.76 z m -3.099,0 h 2.76 v -0.372 h -2.76 z m -3.101,0 h 2.76 v -0.372 h -2.76 z m 12.401,-0.588 h 2.907 v -0.588 h -2.907 z m -3.1,0 h 2.76 v -0.588 h -2.76 z m -3.101,0 h 2.76 v -0.588 h -2.76 z m -3.099,0 h 2.76 v -0.588 h -2.76 z m -3.101,0 h 2.76 v -0.588 h -2.76 z m 12.401,-0.804 h 2.907 v -0.558 h -2.907 z m -3.1,0 h 2.76 v -0.558 h -2.76 z m -3.101,0 h 2.76 v -0.558 h -2.76 z m -3.099,0 h 2.76 v -0.558 h -2.76 z m -3.101,0 h 2.76 v -0.558 h -2.76 z"
   id="path258" />

	</g>
    <g
       id="g260"
       transform="matrix(0.26458333,0,0,0.26458333,15.473356,27.863006)">
		<polygon
   style="clip-rule:evenodd;fill:#7e95b2;fill-rule:evenodd"
   points="289.626,71.127 289.541,71.549 286.968,72.183 286.842,71.127 "
   id="polygon259" />

	</g>
    <g
       id="g261"
       transform="matrix(0.26458333,0,0,0.26458333,15.473356,27.863006)">
		<path
   style="fill:#7e95b2"
   d="m 288.571,71.382 c -0.141,0 -0.255,-0.114 -0.255,-0.255 v -20.44 c 0,-0.141 0.114,-0.255 0.255,-0.255 0.141,0 0.255,0.114 0.255,0.255 v 20.44 c 0,0.141 -0.114,0.255 -0.255,0.255 z"
   id="path260" />

	</g>
    <g
       id="g262"
       transform="matrix(0.26458333,0,0,0.26458333,15.473356,27.863006)">
		<polygon
   style="clip-rule:evenodd;fill:#7894ae;fill-rule:evenodd"
   points="269.023,71.761 269.459,72.969 265.311,72.969 265.781,71.761 "
   id="polygon261" />

	</g>
    <g
       id="g263"
       transform="matrix(0.26458333,0,0,0.26458333,15.473356,27.863006)">
		<polygon
   style="clip-rule:evenodd;fill:#d3e0e9;fill-rule:evenodd"
   points="272.83,73.15 272.83,78.73 267.349,78.73 267.349,73.15 "
   id="polygon262" />

	</g>
    <g
       id="g264"
       transform="matrix(0.26458333,0,0,0.26458333,15.473356,27.863006)">
		<polygon
   style="clip-rule:evenodd;fill:#a3b9c6;fill-rule:evenodd"
   points="367.514,81.329 368.899,88.317 345.521,88.649 346.413,80.703 "
   id="polygon263" />

	</g>
    <g
       id="g265"
       transform="matrix(0.26458333,0,0,0.26458333,15.473356,27.863006)">
		<polygon
   style="clip-rule:evenodd;fill:#bbc4d4;fill-rule:evenodd"
   points="367.514,81.329 368.899,88.317 355.878,88.502 367.462,81.328 "
   id="polygon264" />

	</g>
    <g
       id="g266"
       transform="matrix(0.26458333,0,0,0.26458333,15.473356,27.863006)">
		<polygon
   style="clip-rule:evenodd;fill:#d3e0e9;fill-rule:evenodd"
   points="301.045,71.999 307.302,71.916 310.639,63.156 313.475,63.156 316.812,72.166 322.068,72.166 324.404,77.672 298.352,77.971 "
   id="polygon265" />

	</g>
    <g
       id="g267"
       transform="matrix(0.26458333,0,0,0.26458333,15.473356,27.863006)">
		<polygon
   style="clip-rule:evenodd;fill:#7894ae;fill-rule:evenodd"
   points="314.716,66.506 310.149,76.896 298.837,76.896 301.045,71.999 307.302,71.916 310.639,63.156 313.475,63.156 "
   id="polygon266" />

	</g>
    <g
       id="g268"
       transform="matrix(0.26458333,0,0,0.26458333,15.473356,27.863006)">
		<path
   style="clip-rule:evenodd;fill:#4c6186;fill-rule:evenodd"
   d="m 304.189,62.202 h 12.31 c 0.108,0 0.198,0.077 0.216,0.182 0.018,0.106 -0.037,0.222 -0.141,0.244 l -2.647,0.544 h -7.269 l -2.534,-0.541 c -0.106,-0.023 -0.167,-0.134 -0.151,-0.242 0.015,-0.108 0.106,-0.187 0.216,-0.187 z"
   id="path267" />

	</g>
    <g
       id="g269"
       transform="matrix(0.26458333,0,0,0.26458333,15.473356,27.863006)">
		<path
   style="clip-rule:evenodd;fill:#a3b9c6;fill-rule:evenodd"
   d="m 304.189,62.202 h 12.31 c 0.108,0 0.198,0.077 0.216,0.182 0.008,0.043 0.002,0.088 -0.013,0.127 h -12.715 c -0.015,-0.037 -0.022,-0.08 -0.015,-0.122 0.016,-0.108 0.107,-0.187 0.217,-0.187 z"
   id="path268" />

	</g>
    <g
       id="g270"
       transform="matrix(0.26458333,0,0,0.26458333,15.473356,27.863006)">
		<polygon
   style="clip-rule:evenodd;fill:#a3b9c6;fill-rule:evenodd"
   points="312.839,55.046 312.839,62.16 311.268,62.16 311.268,55.046 "
   id="polygon269" />

	</g>
    <g
       id="g271"
       transform="matrix(0.26458333,0,0,0.26458333,15.473356,27.863006)">
		<polygon
   style="clip-rule:evenodd;fill:#7894ae;fill-rule:evenodd"
   points="311.268,62.16 311.268,55.084 311.887,55.084 311.887,62.16 "
   id="polygon270" />

	</g>
    <g
       id="g272"
       transform="matrix(0.26458333,0,0,0.26458333,15.473356,27.863006)">
		<polygon
   style="clip-rule:evenodd;fill:#4c6186;fill-rule:evenodd"
   points="335.851,77.053 335.851,75.242 328.844,75.242 328.844,77.053 "
   id="polygon271" />

	</g>
    <g
       id="g273"
       transform="matrix(0.26458333,0,0,0.26458333,15.473356,27.863006)">
		<path
   style="clip-rule:evenodd;fill:#c9d5dc;fill-rule:evenodd"
   d="m 375.156,80.069 h 3.468 c 1.672,0 4.02,2.614 4.001,3.43 l -0.038,1.645 c -0.019,0.816 -0.669,1.486 -1.486,1.486 h -5.945 c -0.818,0 -1.486,-0.669 -1.486,-1.486 v -3.589 c -0.001,-0.817 0.668,-1.486 1.486,-1.486 z"
   id="path272" />

	</g>
    <g
       id="g274"
       transform="matrix(0.26458333,0,0,0.26458333,15.473356,27.863006)">
		<path
   style="clip-rule:evenodd;fill:#bbc4d4;fill-rule:evenodd"
   d="m 381.204,86.626 c -0.034,0.003 -0.069,0.004 -0.104,0.004 h -5.945 c -0.818,0 -1.486,-0.669 -1.486,-1.486 v -3.589 c 0,-0.338 0.115,-0.65 0.306,-0.901 0.037,-0.003 0.075,-0.004 0.113,-0.004 h 3.468 c 1.672,0 4.02,2.614 4.001,3.43 l -0.038,1.645 c -0.007,0.339 -0.123,0.651 -0.315,0.901 z"
   id="path273" />

	</g>
    <g
       id="g275"
       transform="matrix(0.26458333,0,0,0.26458333,15.473356,27.863006)">
		<path
   style="clip-rule:evenodd;fill:#a3b9c6;fill-rule:evenodd"
   d="m 374.988,80.651 h 2.568 c 1.672,0 4.02,2.614 4.001,3.43 l -0.038,1.645 c -0.004,0.173 -0.037,0.339 -0.093,0.494 h -5.038 c -0.818,0 -1.486,-0.669 -1.486,-1.486 v -3.589 c 0.001,-0.174 0.031,-0.34 0.086,-0.494 z"
   id="path274" />

	</g>
    <g
       id="g276"
       transform="matrix(0.26458333,0,0,0.26458333,15.473356,27.863006)">
		<path
   style="clip-rule:evenodd;fill:#7894ae;fill-rule:evenodd"
   d="m 416.672,84.114 -18.35,19.693 c -0.427,0.459 -0.967,0.693 -1.594,0.691 l -159.194,-0.344 -1.258,-2.774 -20.435,-1.04 0.173,-6.067 -3.7,-0.285 -2.329,-4.354 h 10.735 c 0.204,0 0.377,-0.137 0.424,-0.336 l 0.28,-1.208 c 0.031,-0.133 0.002,-0.261 -0.083,-0.368 -0.085,-0.107 -0.203,-0.164 -0.34,-0.164 h -12.126 l -0.357,-0.666 51.136,0.101 2.81,-9.877 5.073,0.007 c 0.12,0 0.223,-0.043 0.308,-0.128 0.085,-0.085 0.127,-0.188 0.127,-0.308 l 0.062,-1.821 8.877,0.005 -0.01,1.591 c -0.001,0.12 0.041,0.224 0.126,0.309 0.085,0.085 0.188,0.128 0.308,0.129 l 62.885,0.176 21.263,8.011 z m -183.295,3.38 h 9.6 c 0.208,0 0.386,0.087 0.514,0.251 0.128,0.164 0.169,0.359 0.118,0.56 l -0.715,2.834 c -0.074,0.293 -0.329,0.492 -0.632,0.492 h -9.601 c -0.207,0 -0.386,-0.087 -0.514,-0.251 -0.128,-0.164 -0.168,-0.359 -0.118,-0.56 l 0.716,-2.834 c 0.074,-0.293 0.329,-0.492 0.632,-0.492 z m -9.666,0.063 h 6.735 c 0.137,0 0.255,0.057 0.34,0.164 0.085,0.107 0.114,0.235 0.083,0.368 l -0.28,1.208 c -0.046,0.199 -0.219,0.336 -0.423,0.336 h -6.735 c -0.137,0 -0.255,-0.057 -0.34,-0.164 -0.085,-0.107 -0.114,-0.235 -0.083,-0.369 l 0.28,-1.208 c 0.046,-0.198 0.219,-0.335 0.423,-0.335 z"
   id="path275" />

	</g>
    <g
       id="g277"
       transform="matrix(0.26458333,0,0,0.26458333,15.473356,27.863006)">
		<path
   style="clip-rule:evenodd;fill:#a3b9c6;fill-rule:evenodd"
   d="m 416.672,84.114 -18.35,19.693 c -0.18,0.193 -0.379,0.345 -0.597,0.458 l -158.797,-0.343 -1.258,-2.774 -20.435,-1.04 0.173,-6.067 -3.699,-0.285 c -6.476,-12.108 4.137,7.733 -2.204,-4.121 h 9.215 c 0.204,0 0.377,-0.137 0.424,-0.336 l 0.28,-1.208 c 0.031,-0.133 0.002,-0.261 -0.083,-0.368 -0.085,-0.107 -0.203,-0.164 -0.34,-0.164 h -10.607 l -0.355,-0.663 49.616,0.098 2.81,-9.877 5.073,0.007 c 0.12,0 0.223,-0.043 0.308,-0.128 0.085,-0.085 0.127,-0.188 0.127,-0.308 l 0.062,-1.821 8.877,0.005 -0.01,1.591 c -10e-4,0.12 0.041,0.224 0.126,0.309 0.085,0.085 0.188,0.128 0.308,0.129 l 62.885,0.176 21.263,8.011 z m -183.295,3.38 h 9.6 c 0.208,0 0.386,0.087 0.514,0.251 0.128,0.164 0.169,0.359 0.118,0.56 l -0.715,2.834 c -0.074,0.293 -0.329,0.492 -0.632,0.492 h -9.601 c -0.207,0 -0.386,-0.087 -0.514,-0.251 -0.128,-0.164 -0.168,-0.359 -0.118,-0.56 l 0.716,-2.834 c 0.074,-0.293 0.329,-0.492 0.632,-0.492 z m -9.666,0.063 h 6.735 c 0.137,0 0.255,0.057 0.34,0.164 0.085,0.107 0.114,0.235 0.083,0.368 l -0.28,1.208 c -0.046,0.199 -0.219,0.336 -0.423,0.336 h -6.735 c -0.137,0 -0.255,-0.057 -0.34,-0.164 -0.085,-0.107 -0.114,-0.235 -0.083,-0.369 l 0.28,-1.208 c 0.046,-0.198 0.219,-0.335 0.423,-0.335 z"
   id="path276" />

	</g>
    <g
       id="g278"
       transform="matrix(0.26458333,0,0,0.26458333,15.473356,27.863006)">
		<polygon
   style="clip-rule:evenodd;fill:#c9d5dc;fill-rule:evenodd"
   points="362.195,85.072 362.034,85.519 332.7,77.053 340.219,77.074 361.482,85.085 "
   id="polygon277" />

	</g>
    <g
       id="g279"
       transform="matrix(0.26458333,0,0,0.26458333,15.473356,27.863006)">
		<path
   style="clip-rule:evenodd;fill:#4c6186;fill-rule:evenodd"
   d="m 416.672,84.114 -18.35,19.693 c -0.427,0.459 -0.967,0.693 -1.594,0.691 l -159.194,-0.344 -1.258,-2.774 -20.435,-1.04 0.173,-6.067 -3.7,-0.285 -1.351,-0.46 60.303,1.568 89.672,-5.793 z"
   id="path278" />

	</g>
    <g
       id="g280"
       transform="matrix(0.26458333,0,0,0.26458333,15.473356,27.863006)">
		<path
   style="clip-rule:evenodd;fill:#4c6186;fill-rule:evenodd"
   d="m 332.094,104.359 -94.56,-0.204 -1.258,-2.774 -20.435,-1.04 0.173,-6.067 -3.7,-0.285 -0.913,-1.707 59.321,0.094 90.761,-7.29 52.809,-0.929 c -16.928,7.89 -46.207,15.12 -82.198,20.202 z"
   id="path279" />

	</g>
    <g
       id="g281"
       transform="matrix(0.26458333,0,0,0.26458333,15.473356,27.863006)">
		<path
   style="clip-rule:evenodd;fill:#7894ae;fill-rule:evenodd"
   d="m 332.094,104.359 -93.405,-0.202 -1.228,-2.707 -20.392,-1.505 0.173,-6.067 -3.699,-0.285 -0.7,-1.31 57.88,0.092 90.761,-7.29 52.809,-0.929 c -16.929,7.891 -46.208,15.121 -82.199,20.203 z"
   id="path280" />

	</g>
    <g
       id="g282"
       transform="matrix(0.26458333,0,0,0.26458333,15.473356,27.863006)">
		<path
   style="clip-rule:evenodd;fill:#9a2429;fill-rule:evenodd"
   d="m 403.808,97.92 -5.486,5.888 c -0.427,0.459 -0.967,0.693 -1.594,0.691 l -159.194,-0.344 -1.258,-2.774 -20.435,-1.04 0.069,-2.42 h 187.898 z"
   id="path281" />

	</g>
    <g
       id="g283"
       transform="matrix(0.26458333,0,0,0.26458333,15.473356,27.863006)">
		<path
   style="clip-rule:evenodd;fill:#9a2429;fill-rule:evenodd"
   d="m 332.095,104.359 -94.562,-0.204 -1.258,-2.774 -20.435,-1.04 0.069,-2.42 H 368.96 c -11.184,2.388 -23.564,4.56 -36.865,6.438 z"
   id="path282" />

	</g>
    <g
       id="g284"
       transform="matrix(0.26458333,0,0,0.26458333,15.473356,27.863006)">
		<path
   style="clip-rule:evenodd;fill:#c12025;fill-rule:evenodd"
   d="m 332.095,104.359 -93.407,-0.202 -1.228,-2.707 -20.392,-1.505 0.058,-2.025 H 368.96 c -11.184,2.389 -23.564,4.561 -36.865,6.439 z"
   id="path283" />

	</g>
    <g
       id="g285"
       transform="matrix(0.26458333,0,0,0.26458333,15.473356,27.863006)">
		<path
   style="clip-rule:evenodd;fill:#4c6186;fill-rule:evenodd"
   d="m 215.293,94.86 h 0.704 l -0.149,5.212 h -0.555 c -0.804,0 -1.461,-0.657 -1.461,-1.461 V 96.32 c 0,-0.803 0.657,-1.46 1.461,-1.46 z"
   id="path284" />

	</g>
    <g
       id="g286"
       transform="matrix(0.26458333,0,0,0.26458333,15.473356,27.863006)">
		<path
   style="clip-rule:evenodd;fill:#7894ae;fill-rule:evenodd"
   d="m 215.63,95.61 -0.127,4.462 h -0.21 c -0.803,0 -1.461,-0.657 -1.461,-1.461 V 97.07 c 0,-0.803 0.657,-1.46 1.461,-1.46 z"
   id="path285" />

	</g>
    <g
       id="g287"
       transform="matrix(0.26458333,0,0,0.26458333,15.473356,27.863006)">
		<path
   style="clip-rule:evenodd;fill:#9a2429;fill-rule:evenodd"
   d="m 215.909,97.92 -0.062,2.152 h -0.555 c -0.804,0 -1.461,-0.657 -1.461,-1.461 V 97.92 Z"
   id="path286" />

	</g>
    <g
       id="g288"
       transform="matrix(0.26458333,0,0,0.26458333,15.473356,27.863006)">
		<path
   style="clip-rule:evenodd;fill:#c12025;fill-rule:evenodd"
   d="m 213.833,98.682 -0.001,-0.071 V 97.92 h 1.741 l -0.039,1.45 h -0.527 c -0.493,0 -0.928,-0.276 -1.174,-0.688 z"
   id="path287" />

	</g>
    <g
       id="g289"
       transform="matrix(0.26458333,0,0,0.26458333,15.473356,27.863006)">
		<path
   style="clip-rule:evenodd;fill:#4c6186;fill-rule:evenodd"
   d="m 213.197,95.702 h 0.773 c -0.089,0.188 -0.138,0.397 -0.138,0.618 v 2.291 c 0,0.221 0.049,0.43 0.138,0.619 h -0.773 z"
   id="path288" />

	</g>
    <g
       id="g290"
       transform="matrix(0.26458333,0,0,0.26458333,15.473356,27.863006)">
		<path
   style="clip-rule:evenodd;fill:#7894ae;fill-rule:evenodd"
   d="m 213.639,96.708 v 1.903 c 0,0.221 0.034,0.43 0.096,0.619 h -0.538 v -2.522 z"
   id="path289" />

	</g>
    <g
       id="g291"
       transform="matrix(0.26458333,0,0,0.26458333,15.473356,27.863006)">
		<path
   style="clip-rule:evenodd;fill:#9a2429;fill-rule:evenodd"
   d="m 213.832,97.92 v 0.691 c 0,0.221 0.049,0.43 0.138,0.619 h -0.773 v -1.31 z"
   id="path290" />

	</g>
    <g
       id="g292"
       transform="matrix(0.26458333,0,0,0.26458333,15.473356,27.863006)">
		<polygon
   style="clip-rule:evenodd;fill:#9a2429;fill-rule:evenodd"
   points="213.832,98.584 213.197,98.584 213.197,97.92 213.832,97.92 "
   id="polygon291" />

	</g>
    <g
       id="g293"
       transform="matrix(0.26458333,0,0,0.26458333,15.473356,27.863006)">
		<polygon
   style="clip-rule:evenodd;fill:#9a2429;fill-rule:evenodd"
   points="220.785,106.364 217.801,106.364 217.801,100.44 221.665,100.637 "
   id="polygon292" />

	</g>
    <g
       id="g294"
       transform="matrix(0.26458333,0,0,0.26458333,15.473356,27.863006)">
		<polygon
   style="clip-rule:evenodd;fill:#9a2429;fill-rule:evenodd"
   points="226.64,100.89 228.817,101.001 231.025,99.152 228.114,99.143 "
   id="polygon293" />

	</g>
    <g
       id="g295"
       transform="matrix(0.26458333,0,0,0.26458333,15.473356,27.863006)">
		<path
   style="clip-rule:evenodd;fill:#4c6186;fill-rule:evenodd"
   d="m 278.267,77.868 h 2.661 c 0.188,0 0.341,0.153 0.341,0.341 v 3.279 c 0,0.188 -0.153,0.341 -0.341,0.341 h -2.661 c -0.188,0 -0.341,-0.153 -0.341,-0.341 v -3.279 c 0,-0.188 0.154,-0.341 0.341,-0.341 z"
   id="path294" />

	</g>
    <g
       id="g296"
       transform="matrix(0.26458333,0,0,0.26458333,15.473356,27.863006)">
		<path
   style="clip-rule:evenodd;fill:#4c6186;fill-rule:evenodd"
   d="m 282.054,77.868 h 2.661 c 0.188,0 0.341,0.153 0.341,0.341 v 3.279 c 0,0.188 -0.153,0.341 -0.341,0.341 h -2.661 c -0.188,0 -0.341,-0.153 -0.341,-0.341 v -3.279 c 0,-0.188 0.153,-0.341 0.341,-0.341 z"
   id="path295" />

	</g>
    <g
       id="g297"
       transform="matrix(0.26458333,0,0,0.26458333,15.473356,27.863006)">
		<path
   style="clip-rule:evenodd;fill:#4c6186;fill-rule:evenodd"
   d="m 285.84,77.868 h 2.661 c 0.188,0 0.341,0.153 0.341,0.341 v 3.279 c 0,0.188 -0.153,0.341 -0.341,0.341 h -2.661 c -0.188,0 -0.341,-0.153 -0.341,-0.341 v -3.279 c 0,-0.188 0.154,-0.341 0.341,-0.341 z"
   id="path296" />

	</g>
    <g
       id="g298"
       transform="matrix(0.26458333,0,0,0.26458333,15.473356,27.863006)">
		<path
   style="clip-rule:evenodd;fill:#4c6186;fill-rule:evenodd"
   d="m 293.652,77.971 h 5.322 c 0.188,0 0.341,0.153 0.341,0.341 v 2.357 c 0,0.188 -0.153,0.341 -0.341,0.341 h -5.322 c -0.188,0 -0.341,-0.153 -0.341,-0.341 v -2.357 c 0,-0.188 0.153,-0.341 0.341,-0.341 z"
   id="path297" />

	</g>
    <g
       id="g299"
       transform="matrix(0.26458333,0,0,0.26458333,15.473356,27.863006)">
		<path
   style="clip-rule:evenodd;fill:#a3b9c6;fill-rule:evenodd"
   d="m 381.909,82.175 h 2.551 v 1.306 h -1.836 c -0.005,-0.289 -0.284,-0.782 -0.715,-1.306 z"
   id="path298" />

	</g>
    <g
       id="g300"
       transform="matrix(0.26458333,0,0,0.26458333,15.473356,27.863006)">
		<polygon
   style="clip-rule:evenodd;fill:#7894ae;fill-rule:evenodd"
   points="391.966,82.483 391.966,83.172 384.459,83.172 384.459,82.483 "
   id="polygon299" />

	</g>
    <g
       id="g301"
       transform="matrix(0.26458333,0,0,0.26458333,15.473356,27.863006)">
		<path
   style="clip-rule:evenodd;fill:#a3b9c6;fill-rule:evenodd"
   d="m 328.375,75.242 v -4.851 c 0,-2.169 1.774,-3.943 3.942,-3.943 v 0 c 2.169,0 3.942,1.774 3.942,3.943 v 4.851 z"
   id="path300" />

	</g>
    <g
       id="g302"
       transform="matrix(0.26458333,0,0,0.26458333,15.473356,27.863006)">
		<path
   style="clip-rule:evenodd;fill:#c9d5dc;fill-rule:evenodd"
   d="m 330.925,66.705 c 0.433,-0.165 0.903,-0.256 1.392,-0.256 v 0 c 2.169,0 3.942,1.774 3.942,3.943 v 4.091 h -6.644 v -4.851 c 10e-4,-1.159 0.507,-2.204 1.31,-2.927 z"
   id="path301" />

	</g>
    <g
       id="g303"
       transform="matrix(0.26458333,0,0,0.26458333,15.473356,27.863006)">
		<path
   style="clip-rule:evenodd;fill:#ffffff;fill-rule:evenodd"
   d="m 331.279,66.96 c 0.368,-0.132 0.764,-0.206 1.175,-0.206 v 0 c 1.92,0 3.491,1.571 3.491,3.491 v 0.899 c -0.445,0.214 -0.943,0.335 -1.469,0.335 -1.872,0 -3.391,-1.518 -3.391,-3.39 0.001,-0.396 0.069,-0.776 0.194,-1.129 z"
   id="path302" />

	</g>
    <g
       id="g304"
       transform="matrix(0.26458333,0,0,0.26458333,15.473356,27.863006)">
		<polygon
   style="clip-rule:evenodd;fill:#a3b9c6;fill-rule:evenodd"
   points="336.26,74.015 328.374,74.015 328.374,75.242 336.26,75.242 "
   id="polygon303" />

	</g>
    <g
       id="g305"
       transform="matrix(0.26458333,0,0,0.26458333,15.473356,27.863006)">
		<polygon
   style="clip-rule:evenodd;fill:#7894ae;fill-rule:evenodd"
   points="340.942,74.162 340.219,77.074 331.388,77.074 330.525,74.162 "
   id="polygon304" />

	</g>
    <g
       id="g306"
       transform="matrix(0.26458333,0,0,0.26458333,15.473356,27.863006)">
		<polygon
   style="clip-rule:evenodd;fill:#bbc4d4;fill-rule:evenodd"
   points="340.942,74.162 340.219,77.074 333.201,77.074 332.735,74.162 "
   id="polygon305" />

	</g>
    <g
       id="g307"
       transform="matrix(0.26458333,0,0,0.26458333,15.473356,27.863006)">
		<polygon
   style="clip-rule:evenodd;fill:#a3b9c6;fill-rule:evenodd"
   points="340.942,74.162 340.219,77.074 335.75,77.074 335.89,74.162 "
   id="polygon306" />

	</g>
    <g
       id="g308"
       transform="matrix(0.26458333,0,0,0.26458333,15.473356,27.863006)">
		<polygon
   style="clip-rule:evenodd;fill:#7894ae;fill-rule:evenodd"
   points="287.112,70.272 288.838,76.931 278.853,76.903 280.214,70.272 "
   id="polygon307" />

	</g>
    <g
       id="g309"
       transform="matrix(0.26458333,0,0,0.26458333,15.473356,27.863006)">
		<polygon
   style="clip-rule:evenodd;fill:#d3e0e9;fill-rule:evenodd"
   points="287.112,70.272 288.836,76.926 281.389,76.903 281.889,70.272 "
   id="polygon308" />

	</g>
    <g
       id="g310"
       transform="matrix(0.26458333,0,0,0.26458333,15.473356,27.863006)">
		<polygon
   style="clip-rule:evenodd;fill:#a3b9c6;fill-rule:evenodd"
   points="285.545,70.272 287.268,76.921 281.389,76.903 281.889,70.272 "
   id="polygon309" />

	</g>
    <g
       id="g311"
       transform="matrix(0.26458333,0,0,0.26458333,15.473356,27.863006)">
		<path
   style="clip-rule:evenodd;fill:#4c6186;fill-rule:evenodd"
   d="m 280.691,73.364 h 0.742 c 0.17,0 0.309,0.139 0.309,0.309 v 2.476 c 0,0.17 -0.139,0.309 -0.309,0.309 h -0.742 c -0.17,0 -0.309,-0.139 -0.309,-0.309 v -2.476 c 0,-0.17 0.139,-0.309 0.309,-0.309 z"
   id="path310" />

	</g>
    <g
       id="g312"
       transform="matrix(0.26458333,0,0,0.26458333,15.473356,27.863006)">
		<path
   style="clip-rule:evenodd;fill:#4c6186;fill-rule:evenodd"
   d="m 282.526,73.364 h 0.741 c 0.17,0 0.31,0.139 0.31,0.309 v 2.476 c 0,0.17 -0.139,0.309 -0.31,0.309 h -0.741 c -0.17,0 -0.31,-0.139 -0.31,-0.309 v -2.476 c 0,-0.17 0.139,-0.309 0.31,-0.309 z"
   id="path311" />

	</g>
    <g
       id="g313"
       transform="matrix(0.26458333,0,0,0.26458333,15.473356,27.863006)">
		<path
   style="clip-rule:evenodd;fill:#4c6186;fill-rule:evenodd"
   d="m 284.36,73.364 h 0.742 c 0.17,0 0.309,0.139 0.309,0.309 v 2.476 c 0,0.17 -0.139,0.309 -0.309,0.309 h -0.742 c -0.17,0 -0.309,-0.139 -0.309,-0.309 v -2.476 c -10e-4,-0.17 0.139,-0.309 0.309,-0.309 z"
   id="path312" />

	</g>
    <g
       id="g314"
       transform="matrix(0.26458333,0,0,0.26458333,15.473356,27.863006)">
		<path
   style="clip-rule:evenodd;fill:#4c6186;fill-rule:evenodd"
   d="m 286.194,73.364 h 0.742 c 0.17,0 0.309,0.139 0.309,0.309 v 2.476 c 0,0.17 -0.139,0.309 -0.309,0.309 h -0.742 c -0.17,0 -0.309,-0.139 -0.309,-0.309 v -2.476 c 0,-0.17 0.139,-0.309 0.309,-0.309 z"
   id="path313" />

	</g>
    <g
       id="g315"
       transform="matrix(0.26458333,0,0,0.26458333,15.473356,27.863006)">
		<path
   style="clip-rule:evenodd;fill:#a3b9c6;fill-rule:evenodd"
   d="m 294.021,69.147 c 0.863,0 1.562,0.7 1.562,1.563 0,0.18 -0.031,0.352 -0.087,0.513 l -0.284,1.679 h -2.401 L 292.537,71.2 c -0.051,-0.154 -0.079,-0.318 -0.079,-0.489 10e-4,-0.864 0.7,-1.564 1.563,-1.564 z"
   id="path314" />

	</g>
    <g
       id="g316"
       transform="matrix(0.26458333,0,0,0.26458333,15.473356,27.863006)">
		<path
   style="clip-rule:evenodd;fill:#d3e0e9;fill-rule:evenodd"
   d="m 294.021,69.147 c 0.863,0 1.562,0.7 1.562,1.563 0,0.18 -0.031,0.352 -0.087,0.513 l -0.249,1.47 h -1.74 l -0.274,-1.702 c -0.051,-0.154 -0.079,-0.318 -0.079,-0.489 0,-0.577 0.313,-1.08 0.778,-1.351 0.03,-0.003 0.059,-0.004 0.089,-0.004 z"
   id="path315" />

	</g>
    <g
       id="g317"
       transform="matrix(0.26458333,0,0,0.26458333,15.473356,27.863006)">
		<polygon
   style="clip-rule:evenodd;fill:#a3b9c6;fill-rule:evenodd"
   points="266.126,71.926 265.758,72.857 265.52,72.857 265.888,71.926 "
   id="polygon316" />

	</g>
    <g
       id="g318"
       transform="matrix(0.26458333,0,0,0.26458333,15.473356,27.863006)">
		<path
   style="clip-rule:evenodd;fill:#a3b9c6;fill-rule:evenodd"
   d="m 266.437,71.926 c 0.079,0 0.158,0 0.238,0 -0.075,0.31 -0.149,0.621 -0.223,0.931 -0.079,0 -0.158,0 -0.237,0 0.073,-0.31 0.148,-0.621 0.222,-0.931 z"
   id="path317" />

	</g>
    <g
       id="g319"
       transform="matrix(0.26458333,0,0,0.26458333,15.473356,27.863006)">
		<path
   style="clip-rule:evenodd;fill:#a3b9c6;fill-rule:evenodd"
   d="m 266.986,71.926 c 0.079,0 0.158,0 0.238,0 -0.026,0.31 -0.052,0.621 -0.077,0.931 -0.079,0 -0.159,0 -0.238,0 0.025,-0.31 0.051,-0.621 0.077,-0.931 z"
   id="path318" />

	</g>
    <g
       id="g320"
       transform="matrix(0.26458333,0,0,0.26458333,15.473356,27.863006)">
		<path
   style="clip-rule:evenodd;fill:#a3b9c6;fill-rule:evenodd"
   d="m 267.535,71.926 c 0.079,0 0.158,0 0.238,0 0.022,0.31 0.045,0.621 0.068,0.931 -0.079,0 -0.158,0 -0.237,0 -0.024,-0.31 -0.047,-0.621 -0.069,-0.931 z"
   id="path319" />

	</g>
    <g
       id="g321"
       transform="matrix(0.26458333,0,0,0.26458333,15.473356,27.863006)">
		<path
   style="clip-rule:evenodd;fill:#a3b9c6;fill-rule:evenodd"
   d="m 268.083,71.926 c 0.079,0 0.158,0 0.238,0 0.071,0.31 0.142,0.621 0.213,0.931 -0.079,0 -0.158,0 -0.238,0 -0.07,-0.31 -0.141,-0.621 -0.213,-0.931 z"
   id="path320" />

	</g>
    <g
       id="g322"
       transform="matrix(0.26458333,0,0,0.26458333,15.473356,27.863006)">
		<polygon
   style="clip-rule:evenodd;fill:#a3b9c6;fill-rule:evenodd"
   points="268.869,71.926 269.228,72.857 268.99,72.857 268.632,71.926 "
   id="polygon321" />

	</g>
    <g
       id="g323"
       transform="matrix(0.26458333,0,0,0.26458333,15.473356,27.863006)">
		<path
   style="fill:#231f20"
   d="m 326.133,76.933 h -0.341 v -0.022 h -48.851 v -2.429 h 0.341 v 0.048 h 3.168 v -0.048 h 0.34 v 0.048 h 3.168 v -0.048 h 0.34 v 0.048 h 3.168 v -0.048 h 0.34 v 0.048 h 3.168 v -0.048 h 0.34 v 0.048 h 3.168 v -0.048 h 0.34 v 0.048 h 3.168 v -0.048 h 0.34 v 0.048 h 3.169 v -0.048 h 0.34 v 0.048 h 3.168 v -0.048 h 0.34 v 0.048 h 3.168 v -0.048 h 0.34 v 0.048 h 3.168 v -0.048 h 0.34 v 0.048 h 3.168 v -0.048 h 0.34 v 0.048 h 3.168 v -0.048 h 0.34 v 0.048 h 3.168 v -0.048 h 0.34 v 0.048 h 2.907 v -0.026 h 0.341 v 0.026 h 0.024 v 0.216 h -0.024 v 0.558 h 0.024 v 0.216 h -0.024 v 0.588 h 0.024 v 0.216 h -0.024 v 0.371 h 0.024 v 0.216 h -0.024 v 0.022 z m -3.248,-0.238 h 2.907 v -0.371 h -2.907 z m -3.508,0 h 3.168 v -0.371 h -3.168 z m -3.508,0 h 3.168 v -0.371 h -3.168 z m -3.508,0 h 3.168 v -0.371 h -3.168 z m -3.507,0 h 3.168 v -0.371 h -3.168 z m -3.508,0 h 3.168 v -0.371 h -3.168 z m -3.508,0 h 3.168 v -0.371 h -3.168 z m -3.509,0 h 3.169 v -0.371 h -3.169 z m -3.508,0 h 3.168 v -0.371 h -3.168 z m -3.508,0 h 3.168 v -0.371 h -3.168 z m -3.507,0 h 3.168 v -0.371 h -3.168 z m -3.508,0 h 3.168 v -0.371 h -3.168 z m -3.508,0 h 3.168 v -0.371 h -3.168 z m -3.508,0 h 3.168 v -0.371 h -3.168 z m 45.603,-0.587 h 2.907 V 75.52 h -2.907 z m -3.508,0 h 3.168 V 75.52 h -3.168 z m -3.508,0 h 3.168 V 75.52 h -3.168 z m -3.508,0 h 3.168 V 75.52 h -3.168 z m -3.507,0 h 3.168 V 75.52 h -3.168 z m -3.508,0 h 3.168 V 75.52 h -3.168 z m -3.508,0 h 3.168 V 75.52 h -3.168 z m -3.509,0 h 3.169 V 75.52 h -3.169 z m -3.508,0 h 3.168 V 75.52 h -3.168 z m -3.508,0 h 3.168 V 75.52 h -3.168 z m -3.507,0 h 3.168 V 75.52 h -3.168 z m -3.508,0 h 3.168 V 75.52 h -3.168 z m -3.508,0 h 3.168 V 75.52 h -3.168 z m -3.508,0 h 3.168 V 75.52 h -3.168 z m 45.603,-0.804 h 2.907 v -0.558 h -2.907 z m -3.508,0 h 3.168 v -0.558 h -3.168 z m -3.508,0 h 3.168 v -0.558 h -3.168 z m -3.508,0 h 3.168 v -0.558 h -3.168 z m -3.507,0 h 3.168 v -0.558 h -3.168 z m -3.508,0 h 3.168 v -0.558 h -3.168 z m -3.508,0 h 3.168 v -0.558 h -3.168 z m -3.509,0 h 3.169 v -0.558 h -3.169 z m -3.508,0 h 3.168 v -0.558 h -3.168 z m -3.508,0 h 3.168 v -0.558 h -3.168 z m -3.507,0 h 3.168 v -0.558 h -3.168 z m -3.508,0 h 3.168 v -0.558 h -3.168 z m -3.508,0 h 3.168 v -0.558 h -3.168 z m -3.508,0 h 3.168 v -0.558 h -3.168 z"
   id="path322" />

	</g>
    <g
       id="g324"
       transform="matrix(0.26458333,0,0,0.26458333,15.473356,27.863006)">
		<polygon
   style="clip-rule:evenodd;fill:#9a2429;fill-rule:evenodd"
   points="292.291,104.273 237.534,104.155 236.279,101.389 "
   id="polygon323" />

	</g>
    <g
       id="g325"
       transform="matrix(0.26458333,0,0,0.26458333,15.473356,27.863006)">
		<path
   style="clip-rule:evenodd;fill:#9a2429;fill-rule:evenodd"
   d="m 242.839,104.167 5.925,-3.476 c 0.128,-0.075 0.291,-0.037 0.364,0.086 v 0 c 0.072,0.121 0.025,0.281 -0.103,0.357 l -5.172,3.035 z"
   id="path324" />

	</g>
    <g
       id="g326"
       transform="matrix(0.26458333,0,0,0.26458333,15.473356,27.863006)">
		<polygon
   style="clip-rule:evenodd;fill:#ed1c24;fill-rule:evenodd"
   points="231.693,102.148 231.784,103.07 225.284,103.716 225.192,102.794 "
   id="polygon325" />

	</g>
    <g
       id="g327"
       transform="matrix(0.26458333,0,0,0.26458333,15.473356,27.863006)">
		<polygon
   style="clip-rule:evenodd;fill:#7894ae;fill-rule:evenodd"
   points="414.536,73.303 414.536,84.112 414.248,84.112 414.248,73.303 "
   id="polygon326" />

	</g>
    <g
       id="g328"
       transform="matrix(0.26458333,0,0,0.26458333,15.473356,27.863006)">
		<path
   style="fill:#231f20"
   d="m 315.533,62.29 h -0.341 v -0.022 h -2.78 v 0.015 h -0.34 v -0.015 h -6.242 v -2.429 h 0.341 v 0.048 h 2.78 v -0.042 h 0.341 v 0.042 h 2.78 v -0.034 h 0.34 v 0.034 h 2.78 v -0.026 h 0.341 z m -3.121,-0.238 h 2.78 v -0.371 h -2.78 z m -3.12,0 h 2.78 v -0.371 h -2.78 z m -3.121,0 h 2.78 v -0.371 h -2.78 z m 6.241,-0.587 h 2.78 v -0.588 h -2.78 z m -3.12,0 h 2.78 v -0.588 h -2.78 z m -3.121,0 h 2.78 v -0.588 h -2.78 z m 6.241,-0.804 h 2.78 v -0.558 h -2.78 z m -3.12,0 h 2.78 v -0.558 h -2.78 z m -3.121,0 h 2.78 v -0.558 h -2.78 z"
   id="path327" />

	</g>
    <g
       id="g329"
       transform="matrix(0.26458333,0,0,0.26458333,15.473356,27.863006)">
		<path
   style="clip-rule:evenodd;fill:#a3b9c6;fill-rule:evenodd"
   d="m 401.753,88.771 c 0.053,-0.04 0.106,-0.078 0.16,-0.115 l 0.405,2.696 c -0.628,0.192 -1.203,0.116 -1.486,-0.257 -0.432,-0.568 -0.02,-1.609 0.921,-2.324 z m 0.246,-0.171 c 0.767,-0.487 1.596,-0.592 2.059,-0.27 l -0.307,1.228 -0.569,0.095 -0.053,0.628 z"
   id="path328" />

	</g>
    <g
       id="g330"
       transform="matrix(0.26458333,0,0,0.26458333,15.473356,27.863006)">
		<path
   style="clip-rule:evenodd;fill:#4c6186;fill-rule:evenodd"
   d="m 401.923,89.059 c 0.038,-0.029 0.076,-0.056 0.115,-0.082 l 0.292,1.941 c -0.452,0.138 -0.866,0.083 -1.07,-0.185 -0.312,-0.41 -0.015,-1.159 0.663,-1.674 z m 0.176,-0.123 c 0.552,-0.351 1.149,-0.427 1.483,-0.194 l -0.221,0.884 -0.448,0.52 z"
   id="path329" />

	</g>
    <g
       id="g331"
       transform="matrix(0.26458333,0,0,0.26458333,15.473356,27.863006)">
		<polygon
   style="clip-rule:evenodd;fill:#a3b9c6;fill-rule:evenodd"
   points="401.877,88.419 402.351,91.577 403.585,90.96 "
   id="polygon330" />

	</g>
    <g
       id="g332"
       transform="matrix(0.26458333,0,0,0.26458333,15.473356,27.863006)">
		<polygon
   style="clip-rule:evenodd;fill:#a3b9c6;fill-rule:evenodd"
   points="404.937,90.77 403.015,91.625 403.049,91.228 403.585,90.96 403.128,90.281 403.182,89.653 403.751,89.558 404.226,87.659 "
   id="polygon331" />

	</g>
    <g
       id="g333"
       transform="matrix(0.26458333,0,0,0.26458333,15.473356,27.863006)">
		<polygon
   style="clip-rule:evenodd;fill:#c9d5dc;fill-rule:evenodd"
   points="401.877,88.419 403.317,91.094 403.585,90.96 "
   id="polygon332" />

	</g>
    <g
       id="g334"
       transform="matrix(0.26458333,0,0,0.26458333,15.473356,27.863006)">
		<polygon
   style="clip-rule:evenodd;fill:#c9d5dc;fill-rule:evenodd"
   points="404.226,87.659 404.937,90.77 404.427,90.996 "
   id="polygon333" />

	</g>
    <g
       id="g335"
       transform="matrix(0.26458333,0,0,0.26458333,15.473356,27.863006)">
		<polygon
   style="clip-rule:evenodd;fill:#9a2429;fill-rule:evenodd"
   points="300.083,104.29 296.414,104.282 297.719,101.5 302.032,101.515 "
   id="polygon334" />

	</g>
    <g
       id="g336"
       transform="matrix(0.26458333,0,0,0.26458333,15.473356,27.863006)">
		<path
   style="clip-rule:evenodd;fill:#4c6186;fill-rule:evenodd"
   d="m 333.817,74.851 h 1.186 c 0.155,0 0.282,0.127 0.282,0.281 v 1.229 c 0,0.155 -0.127,0.282 -0.282,0.282 h -1.005 c -0.155,0 -0.259,-0.128 -0.282,-0.282 l -0.181,-1.229 c -0.022,-0.152 0.127,-0.281 0.282,-0.281 z"
   id="path335" />

	</g>
    <g
       id="g337"
       transform="matrix(0.26458333,0,0,0.26458333,15.473356,27.863006)">
		<path
   style="clip-rule:evenodd;fill:#4c6186;fill-rule:evenodd"
   d="m 336.724,74.851 h 0.765 c 0.173,0 0.334,0.128 0.315,0.281 l -0.157,1.229 c -0.02,0.153 -0.143,0.282 -0.315,0.282 h -0.675 c -0.172,0 -0.323,-0.127 -0.315,-0.282 l 0.067,-1.229 c 0.009,-0.154 0.142,-0.281 0.315,-0.281 z"
   id="path336" />

	</g>
    <g
       id="g338"
       transform="matrix(0.26458333,0,0,0.26458333,15.473356,27.863006)">
		<path
   style="clip-rule:evenodd;fill:#4c6186;fill-rule:evenodd"
   d="m 331.576,74.851 h 0.583 c 0.155,0 0.259,0.129 0.281,0.281 l 0.181,1.229 c 0.022,0.152 -0.128,0.282 -0.281,0.282 h -0.402 c -0.154,0 -0.238,-0.133 -0.281,-0.282 l -0.362,-1.229 c -0.044,-0.148 0.126,-0.281 0.281,-0.281 z"
   id="path337" />

	</g>
    <g
       id="g339"
       transform="matrix(0.26458333,0,0,0.26458333,15.473356,27.863006)">
		<path
   style="clip-rule:evenodd;fill:#4c6186;fill-rule:evenodd"
   d="m 338.816,74.851 h 0.765 c 0.173,0 0.325,0.128 0.295,0.281 l -0.244,1.229 c -0.03,0.153 -0.163,0.282 -0.335,0.282 h -0.675 c -0.172,0 -0.314,-0.127 -0.295,-0.282 l 0.154,-1.229 c 0.02,-0.154 0.162,-0.281 0.335,-0.281 z"
   id="path338" />

	</g>
    <g
       id="g340"
       transform="matrix(0.26458333,0,0,0.26458333,15.473356,27.863006)">
		<polygon
   style="clip-rule:evenodd;fill:#7894ae;fill-rule:evenodd"
   points="341.079,73.891 341.079,74.162 330.404,74.162 330.404,73.891 "
   id="polygon339" />

	</g>
    <g
       id="g341"
       transform="matrix(0.26458333,0,0,0.26458333,15.473356,27.863006)">
		<polygon
   style="clip-rule:evenodd;fill:#7e95b2;fill-rule:evenodd"
   points="341.29,69.748 341.29,74.174 341.08,74.174 341.08,69.748 "
   id="polygon340" />

	</g>
    <g
       id="g342"
       transform="matrix(0.26458333,0,0,0.26458333,15.473356,27.863006)">
		<polygon
   style="clip-rule:evenodd;fill:#7e95b2;fill-rule:evenodd"
   points="342.778,69.494 342.778,70.201 343.065,70.201 343.065,69.494 "
   id="polygon341" />

	</g>
    <g
       id="g343"
       transform="matrix(0.26458333,0,0,0.26458333,15.473356,27.863006)">
		<polygon
   style="clip-rule:evenodd;fill:#7e95b2;fill-rule:evenodd"
   points="342.778,73.523 342.778,74.23 343.065,74.23 343.065,73.523 "
   id="polygon342" />

	</g>
    <g
       id="g344"
       transform="matrix(0.26458333,0,0,0.26458333,15.473356,27.863006)">
		<polygon
   style="clip-rule:evenodd;fill:#7e95b2;fill-rule:evenodd"
   points="342.922,69.748 342.922,69.947 341.08,69.947 341.08,69.748 "
   id="polygon343" />

	</g>
    <g
       id="g345"
       transform="matrix(0.26458333,0,0,0.26458333,15.473356,27.863006)">
		<polygon
   style="clip-rule:evenodd;fill:#7e95b2;fill-rule:evenodd"
   points="342.922,73.777 342.922,73.976 341.08,73.976 341.08,73.777 "
   id="polygon344" />

	</g>
    <g
       id="g346"
       transform="matrix(0.26458333,0,0,0.26458333,15.473356,27.863006)">
		<path
   style="clip-rule:evenodd;fill:#d3e0e9;fill-rule:evenodd"
   d="m 320.696,63.279 0.936,-0.404 c 0.282,-0.122 0.612,0.01 0.734,0.291 l 0.715,1.658 c 0.122,0.282 -0.009,0.613 -0.291,0.734 l -0.936,0.404 c -0.056,0.024 -0.115,0.038 -0.172,0.042 l -1.219,-2.535 c 0.056,-0.081 0.135,-0.147 0.233,-0.19 z m 0.973,2.727 c -0.023,0.002 -0.047,0.002 -0.07,0 z"
   id="path345" />

	</g>
    <g
       id="g347"
       transform="matrix(0.26458333,0,0,0.26458333,15.473356,27.863006)">
		<path
   style="clip-rule:evenodd;fill:#a3b9c6;fill-rule:evenodd"
   d="m 322.79,65.558 v 0 l -0.936,0.404 c -0.056,0.024 -0.115,0.038 -0.172,0.042 l -1.087,-2.26 0.704,-0.304 c 0.282,-0.122 0.612,0.01 0.734,0.291 l 0.715,1.658 c 0.024,0.057 0.037,0.113 0.042,0.169 z m -1.121,0.448 c -0.023,0.002 -0.047,0.002 -0.07,0 z"
   id="path346" />

	</g>
    <g
       id="g348"
       transform="matrix(0.26458333,0,0,0.26458333,15.473356,27.863006)">
		<path
   style="clip-rule:evenodd;fill:#bbc4d4;fill-rule:evenodd"
   d="m 320.462,63.469 c -0.745,0.443 -1.178,0.968 -1.079,1.953 0.034,0.336 0.315,0.59 0.653,0.589 l 1.647,-0.005 z"
   id="path347" />

	</g>
    <g
       id="g349"
       transform="matrix(0.26458333,0,0,0.26458333,15.473356,27.863006)">
		<path
   style="clip-rule:evenodd;fill:#7894ae;fill-rule:evenodd"
   d="m 319.4,64.797 c -0.033,0.186 -0.04,0.393 -0.017,0.625 0.034,0.336 0.315,0.59 0.653,0.589 l 1.647,-0.005 -1.089,-2.265 c -0.509,0.306 -0.917,0.64 -1.194,1.056 z"
   id="path348" />

	</g>
    <g
       id="g350"
       transform="matrix(0.26458333,0,0,0.26458333,15.473356,27.863006)">
		<polygon
   style="clip-rule:evenodd;fill:#4c6186;fill-rule:evenodd"
   points="321.463,66.011 321.463,66.577 320.035,66.577 320.035,66.011 "
   id="polygon349" />

	</g>
    <g
       id="g351"
       transform="matrix(0.26458333,0,0,0.26458333,15.473356,27.863006)">
		<polygon
   style="clip-rule:evenodd;fill:#4c6186;fill-rule:evenodd"
   points="322.164,66.926 322.164,67.383 319.334,67.383 319.334,66.926 "
   id="polygon350" />

	</g>
    <g
       id="g352"
       transform="matrix(0.26458333,0,0,0.26458333,15.473356,27.863006)">
		<polygon
   style="clip-rule:evenodd;fill:#7894ae;fill-rule:evenodd"
   points="305.709,50.529 305.709,54.956 305.498,54.956 305.498,50.529 "
   id="polygon351" />

	</g>
    <g
       id="g353"
       transform="matrix(0.26458333,0,0,0.26458333,15.473356,27.863006)">
		<path
   style="clip-rule:evenodd;fill:#7894ae;fill-rule:evenodd"
   d="m 305.603,47.691 v 0 c 0.183,0 0.332,0.029 0.332,0.064 v 2.709 c 0,0.036 -0.149,0.064 -0.332,0.064 v 0 c -0.183,0 -0.333,-0.029 -0.333,-0.064 v -2.709 c 0.001,-0.035 0.15,-0.064 0.333,-0.064 z"
   id="path352" />

	</g>
    <g
       id="g354"
       transform="matrix(0.26458333,0,0,0.26458333,15.473356,27.863006)">
		<polygon
   style="clip-rule:evenodd;fill:#7894ae;fill-rule:evenodd"
   points="307.196,50.275 307.196,50.982 307.483,50.982 307.483,50.275 "
   id="polygon353" />

	</g>
    <g
       id="g355"
       transform="matrix(0.26458333,0,0,0.26458333,15.473356,27.863006)">
		<polygon
   style="clip-rule:evenodd;fill:#7894ae;fill-rule:evenodd"
   points="307.34,50.529 307.34,50.728 305.498,50.728 305.498,50.529 "
   id="polygon354" />

	</g>
    <g
       id="g356"
       transform="matrix(0.26458333,0,0,0.26458333,15.473356,27.863006)">
		<polygon
   style="clip-rule:evenodd;fill:#bbc4d4;fill-rule:evenodd"
   points="330.454,77.047 329.575,81.164 328.213,81.164 327.107,77.047 "
   id="polygon355" />

	</g>
    <g
       id="g357"
       transform="matrix(0.26458333,0,0,0.26458333,15.473356,27.863006)">
		<polygon
   style="clip-rule:evenodd;fill:#7894ae;fill-rule:evenodd"
   points="327.107,77.047 325.575,77.047 328.213,81.164 "
   id="polygon356" />

	</g>
    <g
       id="g358"
       transform="matrix(0.26458333,0,0,0.26458333,15.473356,27.863006)">
		<polygon
   style="clip-rule:evenodd;fill:#7894ae;fill-rule:evenodd"
   points="330.454,77.047 332.865,77.047 329.575,81.164 "
   id="polygon357" />

	</g>
    <g
       id="g359"
       transform="matrix(0.26458333,0,0,0.26458333,15.473356,27.863006)">
		<polygon
   style="clip-rule:evenodd;fill:#4c6186;fill-rule:evenodd"
   points="310.39,63.148 312.16,63.142 312.158,64.692 "
   id="polygon358" />

	</g>
    <g
       id="g360"
       transform="matrix(0.26458333,0,0,0.26458333,15.473356,27.863006)">
		<polygon
   style="clip-rule:evenodd;fill:#a3b9c6;fill-rule:evenodd"
   points="313.93,63.148 312.161,63.142 312.162,64.692 "
   id="polygon359" />

	</g>
    <g
       id="g361"
       transform="matrix(0.26458333,0,0,0.26458333,15.473356,27.863006)">
		<path
   style="clip-rule:evenodd;fill:#bbc4d4;fill-rule:evenodd"
   d="m 319.165,66.542 h 3.169 c 0.106,0 0.192,0.086 0.192,0.192 v 0 c 0,0.106 -0.086,0.192 -0.192,0.192 h -3.169 c -0.106,0 -0.192,-0.087 -0.192,-0.192 v 0 c -0.001,-0.106 0.086,-0.192 0.192,-0.192 z"
   id="path360" />

	</g>
    <g
       id="g362"
       transform="matrix(0.26458333,0,0,0.26458333,15.473356,27.863006)">
		<path
   style="clip-rule:evenodd;fill:#bbc4d4;fill-rule:evenodd"
   d="m 319.165,67.383 h 3.169 c 0.106,0 0.192,0.086 0.192,0.192 v 0 c 0,0.106 -0.086,0.193 -0.192,0.193 h -3.169 c -0.106,0 -0.192,-0.086 -0.192,-0.193 v 0 c -0.001,-0.106 0.086,-0.192 0.192,-0.192 z"
   id="path361" />

	</g>
    <g
       id="g363"
       transform="matrix(0.26458333,0,0,0.26458333,15.473356,27.863006)">
		<path
   style="fill:#231f20"
   d="m 308.896,57.292 -1.314,-0.184 0.267,-2.042 0.071,-0.018 3.338,-0.842 v -3.603 h 1.358 l -0.066,0.07 v 0.971 h 0.066 l -0.066,0.07 v 0.971 h 0.066 l -0.066,0.07 v 0.971 h 0.066 l -0.066,0.07 v 1.359 h -1.157 l -0.032,0.027 z m -1.072,-0.368 1.006,0.141 0.858,-0.735 -0.456,-1.389 -1.188,0.3 z m 1.618,-2.037 0.424,1.29 1.314,-1.126 -0.021,-0.597 z m 2.033,0.051 h 0.858 v -0.917 l -0.858,0.896 z m 0,-0.997 v 0.664 l 0.636,-0.664 z m 0.144,-0.216 h 0.714 V 52.98 Z M 311.475,52.9 v 0.664 l 0.636,-0.664 z m 0.144,-0.215 h 0.714 V 51.94 Z m -0.144,-0.825 v 0.664 l 0.636,-0.664 z m 0.145,-0.216 h 0.713 v -0.745 z m -0.145,-0.824 v 0.664 l 0.635,-0.664 z"
   id="path362" />

	</g>
    <g
       id="g364"
       transform="matrix(0.26458333,0,0,0.26458333,15.473356,27.863006)">
		<path
   style="clip-rule:evenodd;fill:#7894ae;fill-rule:evenodd"
   d="m 312.327,49.634 0.017,-0.003 3.08,10.069 c -0.006,0.003 -0.012,0.005 -0.018,0.007 -0.445,0.136 -1.494,-2.009 -2.346,-4.789 -0.854,-2.782 -1.181,-5.147 -0.733,-5.284 z"
   id="path363" />

	</g>
    <g
       id="g365"
       transform="matrix(0.26458333,0,0,0.26458333,15.473356,27.863006)">
		<path
   style="clip-rule:evenodd;fill:#4c6186;fill-rule:evenodd"
   d="m 313.006,51.797 2.417,7.903 c -0.006,0.003 -0.012,0.005 -0.018,0.007 -0.356,0.109 -1.101,-1.247 -1.821,-3.219 -0.746,-2.461 -0.997,-4.393 -0.578,-4.691 z"
   id="path364" />

	</g>
    <g
       id="g366"
       transform="matrix(0.26458333,0,0,0.26458333,15.473356,27.863006)">
		<path
   style="fill:#c9d5dc"
   d="m 373.81,96 v -1.449 h -2.021 v -0.918 l 1.801,-5.842 h 1.333 v 5.753 h 0.634 v 1.007 h -0.634 V 96 Z m -1.057,-2.455 h 1.057 v -4.048 z"
   id="path365" />

	</g>
    <g
       id="g367"
       transform="matrix(0.26458333,0,0,0.26458333,15.473356,27.863006)">
		<path
   style="fill:#c9d5dc"
   d="m 377.002,95.995 v -6.653 c -0.107,0.127 -0.255,0.226 -0.447,0.296 -0.192,0.07 -0.383,0.105 -0.569,0.105 v -0.927 c 0.264,-0.037 0.515,-0.143 0.752,-0.321 0.238,-0.177 0.42,-0.412 0.544,-0.703 h 0.968 v 8.203 z"
   id="path366" />

	</g>
    <g
       id="g368"
       transform="matrix(0.26458333,0,0,0.26458333,15.473356,27.863006)">
		<path
   style="fill:#c9d5dc"
   d="m 380.15,95.995 v -6.653 c -0.107,0.127 -0.255,0.226 -0.447,0.296 -0.192,0.07 -0.383,0.105 -0.569,0.105 v -0.927 c 0.264,-0.037 0.515,-0.143 0.752,-0.321 0.238,-0.177 0.419,-0.412 0.544,-0.703 h 0.968 v 8.203 z"
   id="path367" />

	</g>
    <g
       id="g369"
       transform="matrix(0.26458333,0,0,0.26458333,15.473356,27.863006)">
		<path
   style="clip-rule:evenodd;fill:#ffffff;fill-rule:evenodd"
   d="m 293.798,69.497 c 0.112,-0.04 0.232,-0.062 0.357,-0.062 v 0 c 0.583,0 1.06,0.477 1.06,1.06 v 0.273 c -0.135,0.065 -0.286,0.101 -0.446,0.101 -0.568,0 -1.029,-0.461 -1.029,-1.029 -0.001,-0.12 0.02,-0.235 0.058,-0.343 z"
   id="path368" />

	</g>
    <g
       id="g370"
       transform="matrix(0.26458333,0,0,0.26458333,15.473356,27.863006)">
		<path
   style="clip-rule:evenodd;fill:#4c6186;fill-rule:evenodd"
   d="m 387.472,86.182 3.486,-0.032 c 0.174,-0.002 0.318,0.14 0.32,0.314 v 0 c 0.002,0.174 -0.14,0.318 -0.314,0.32 l -3.486,0.032 c -0.175,0.002 -0.319,-0.14 -0.32,-0.314 v 0 c -0.002,-0.174 0.139,-0.318 0.314,-0.32 z"
   id="path369" />

	</g>
    <g
       id="g371"
       transform="matrix(0.26458333,0,0,0.26458333,15.473356,27.863006)">
		<path
   style="clip-rule:evenodd;fill:#4c6186;fill-rule:evenodd"
   d="m 368.408,86.485 3.486,-0.032 c 0.174,-0.001 0.318,0.14 0.32,0.314 v 0 c 10e-4,0.174 -0.14,0.318 -0.314,0.32 l -3.486,0.032 c -0.174,0.001 -0.318,-0.14 -0.32,-0.314 v 0 c -0.002,-0.175 0.139,-0.319 0.314,-0.32 z"
   id="path370" />

	</g>
    <g
       id="g372"
       transform="matrix(0.26458333,0,0,0.26458333,15.473356,27.863006)">
		<path
   style="fill:#7894ae"
   d="m 378.563,85.564 h -0.974 c -0.253,0 -0.46,-0.206 -0.46,-0.459 v -2.693 c 0,-0.253 0.207,-0.459 0.46,-0.459 h 0.974 c 0.253,0 0.46,0.206 0.46,0.459 v 2.693 c -0.001,0.253 -0.208,0.459 -0.46,0.459 z m -0.974,-3.396 c -0.135,0 -0.243,0.109 -0.243,0.243 v 2.693 c 0,0.134 0.108,0.243 0.243,0.243 h 0.974 c 0.135,0 0.243,-0.109 0.243,-0.243 v -2.693 c 0,-0.134 -0.108,-0.243 -0.243,-0.243 z m -1.872,3.396 h -0.975 c -0.253,0 -0.459,-0.206 -0.459,-0.459 v -2.693 c 0,-0.253 0.206,-0.459 0.459,-0.459 h 0.975 c 0.253,0 0.459,0.206 0.459,0.459 v 2.693 c 0,0.253 -0.206,0.459 -0.459,0.459 z m -0.975,-3.396 c -0.134,0 -0.242,0.109 -0.242,0.243 v 2.693 c 0,0.134 0.108,0.243 0.242,0.243 h 0.975 c 0.134,0 0.242,-0.109 0.242,-0.243 v -2.693 c 0,-0.134 -0.108,-0.243 -0.242,-0.243 z"
   id="path371" />

	</g>
    <g
       id="g373"
       transform="matrix(0.26458333,0,0,0.26458333,15.473356,27.863006)">
		<path
   style="clip-rule:evenodd;fill:#d3e0e9;fill-rule:evenodd"
   d="m 278.11,84.092 h 14.951 c 0.148,0 0.27,0.121 0.27,0.27 v 2.065 c 0,0.148 -0.121,0.27 -0.27,0.27 H 278.11 c -0.149,0 -0.27,-0.121 -0.27,-0.27 v -2.065 c 0.001,-0.148 0.122,-0.27 0.27,-0.27 z"
   id="path372" />

		<path
   style="fill:#4c6186"
   d="M 293.062,86.805 H 278.11 c -0.208,0 -0.378,-0.169 -0.378,-0.377 v -2.065 c 0,-0.208 0.17,-0.377 0.378,-0.377 h 14.951 c 0.208,0 0.378,0.169 0.378,0.377 v 2.065 c 0,0.207 -0.169,0.377 -0.377,0.377 z M 278.11,84.2 c -0.089,0 -0.161,0.073 -0.161,0.162 v 2.065 c 0,0.089 0.072,0.162 0.161,0.162 h 14.951 c 0.089,0 0.161,-0.073 0.161,-0.162 v -2.065 c 0,-0.089 -0.072,-0.162 -0.161,-0.162 z"
   id="path373" />

	</g>
    <g
       id="g374"
       transform="matrix(0.26458333,0,0,0.26458333,15.473356,27.863006)">
		<path
   style="clip-rule:evenodd;fill:#a3b9c6;fill-rule:evenodd"
   d="m 292.891,86.533 h -14.649 c -0.147,0 -0.266,-0.112 -0.266,-0.25 v -1.828 h 14.649 c 0.147,0 0.266,0.113 0.266,0.25 z"
   id="path374" />

	</g>
    <g
       id="g376"
       transform="matrix(0.26458333,0,0,0.26458333,15.473356,27.863006)">
		<path
   style="clip-rule:evenodd;fill:#d3e0e9;fill-rule:evenodd"
   d="m 293.563,81.603 h 2.216 c 0.144,0 0.262,0.118 0.262,0.262 v 4.583 c 0,0.145 -0.118,0.263 -0.262,0.263 h -2.216 c -0.145,0 -0.262,-0.118 -0.262,-0.263 v -4.583 c 0,-0.144 0.118,-0.262 0.262,-0.262 z"
   id="path375" />

		<path
   style="fill:#4c6186"
   d="m 295.779,86.819 h -2.216 c -0.204,0 -0.371,-0.166 -0.371,-0.371 v -4.583 c 0,-0.204 0.167,-0.37 0.371,-0.37 h 2.216 c 0.204,0 0.371,0.166 0.371,0.37 v 4.583 c 0,0.205 -0.167,0.371 -0.371,0.371 z m -2.216,-5.108 c -0.085,0 -0.154,0.069 -0.154,0.154 v 4.583 c 0,0.085 0.069,0.155 0.154,0.155 h 2.216 c 0.085,0 0.154,-0.069 0.154,-0.155 v -4.583 c 0,-0.085 -0.069,-0.154 -0.154,-0.154 z"
   id="path376" />

	</g>
    <g
       id="g377"
       transform="matrix(0.26458333,0,0,0.26458333,15.473356,27.863006)">
		<path
   style="clip-rule:evenodd;fill:#a3b9c6;fill-rule:evenodd"
   d="M 295.668,86.598 H 293.7 c -0.136,0 -0.246,-0.115 -0.246,-0.256 v -4.379 h 1.968 c 0.135,0 0.246,0.115 0.246,0.256 z"
   id="path377" />

	</g>
    <g
       id="g379"
       transform="matrix(0.26458333,0,0,0.26458333,15.473356,27.863006)">
		<path
   style="clip-rule:evenodd;fill:#7894ae;fill-rule:evenodd"
   d="m 217.01,90.123 c 0.458,0 0.829,0.371 0.829,0.829 0,0.458 -0.371,0.829 -0.829,0.829 -0.458,0 -0.829,-0.371 -0.829,-0.829 0,-0.457 0.371,-0.829 0.829,-0.829 z m 0,0.446 c 0.211,0 0.383,0.172 0.383,0.383 0,0.211 -0.172,0.383 -0.383,0.383 -0.211,0 -0.383,-0.172 -0.383,-0.383 -0.001,-0.211 0.171,-0.383 0.383,-0.383 z"
   id="path378" />

		<path
   style="fill:#4c6186"
   d="m 217.01,91.889 c -0.517,0 -0.937,-0.42 -0.937,-0.937 0,-0.517 0.42,-0.937 0.937,-0.937 0.517,0 0.937,0.42 0.937,0.937 0,0.517 -0.421,0.937 -0.937,0.937 z m 0,-1.658 c -0.397,0 -0.721,0.323 -0.721,0.721 0,0.398 0.324,0.721 0.721,0.721 0.397,0 0.721,-0.324 0.721,-0.721 0,-0.397 -0.324,-0.721 -0.721,-0.721 z m 0,1.212 c -0.271,0 -0.491,-0.22 -0.491,-0.491 0,-0.271 0.22,-0.491 0.491,-0.491 0.271,0 0.491,0.22 0.491,0.491 -0.001,0.271 -0.221,0.491 -0.491,0.491 z m 0,-0.766 c -0.152,0 -0.275,0.124 -0.275,0.275 0,0.152 0.124,0.275 0.275,0.275 0.151,0 0.275,-0.124 0.275,-0.275 0,-0.151 -0.124,-0.275 -0.275,-0.275 z"
   id="path379" />

	</g>
    <g
       id="g381"
       transform="matrix(0.26458333,0,0,0.26458333,15.473356,27.863006)">
		<path
   style="clip-rule:evenodd;fill:#7894ae;fill-rule:evenodd"
   d="m 227.222,90.123 c 0.458,0 0.829,0.371 0.829,0.829 0,0.458 -0.371,0.829 -0.829,0.829 -0.458,0 -0.829,-0.371 -0.829,-0.829 0,-0.457 0.371,-0.829 0.829,-0.829 z m 0,0.446 c 0.211,0 0.383,0.172 0.383,0.383 0,0.211 -0.172,0.383 -0.383,0.383 -0.211,0 -0.383,-0.172 -0.383,-0.383 0,-0.211 0.171,-0.383 0.383,-0.383 z"
   id="path380" />

		<path
   style="fill:#4c6186"
   d="m 227.222,91.889 c -0.517,0 -0.938,-0.42 -0.938,-0.937 0,-0.517 0.421,-0.937 0.938,-0.937 0.517,0 0.938,0.42 0.938,0.937 0,0.517 -0.422,0.937 -0.938,0.937 z m 0,-1.658 c -0.397,0 -0.721,0.323 -0.721,0.721 0,0.398 0.323,0.721 0.721,0.721 0.398,0 0.721,-0.324 0.721,-0.721 0,-0.397 -0.324,-0.721 -0.721,-0.721 z m 0,1.212 c -0.271,0 -0.491,-0.22 -0.491,-0.491 0,-0.271 0.221,-0.491 0.491,-0.491 0.27,0 0.491,0.22 0.491,0.491 0,0.271 -0.221,0.491 -0.491,0.491 z m 0,-0.766 c -0.151,0 -0.274,0.124 -0.274,0.275 0,0.152 0.123,0.275 0.274,0.275 0.151,0 0.274,-0.124 0.274,-0.275 0,-0.151 -0.123,-0.275 -0.274,-0.275 z"
   id="path381" />

	</g>
    <g
       id="g382"
       transform="matrix(0.26458333,0,0,0.26458333,15.473356,27.863006)">
		<path
   style="clip-rule:evenodd;fill:#4c6186;fill-rule:evenodd"
   d="m 332.677,78.057 1.743,-0.005 c 0.175,-0.001 0.318,0.145 0.315,0.319 v 0 c -0.003,0.174 -0.145,0.315 -0.319,0.315 l -1.744,0.005 c -0.174,10e-4 -0.318,-0.145 -0.315,-0.319 v 0 c 0.003,-0.175 0.145,-0.315 0.32,-0.315 z"
   id="path382" />

	</g>
    <g
       id="g383"
       transform="matrix(0.26458333,0,0,0.26458333,15.473356,27.863006)">
		<polygon
   style="clip-rule:evenodd;fill:#9a2429;fill-rule:evenodd"
   points="348.755,100.967 345.59,102.979 310.884,103.835 308.129,102.081 "
   id="polygon382" />

	</g>
    <g
       id="g384"
       transform="matrix(0.26458333,0,0,0.26458333,15.473356,27.863006)">
		<polygon
   style="clip-rule:evenodd;fill:#9a2429;fill-rule:evenodd"
   points="295.615,102.269 293.338,103.717 278.683,102.687 275.928,100.932 "
   id="polygon383" />

	</g>
    <g
       id="g385"
       transform="matrix(0.26458333,0,0,0.26458333,15.473356,27.863006)">
		<polygon
   style="clip-rule:evenodd;fill:#ed1c24;fill-rule:evenodd"
   points="348.755,100.96 345.59,102.567 310.884,103.251 308.129,101.85 "
   id="polygon384" />

	</g>
    <g
       id="g386"
       transform="matrix(0.26458333,0,0,0.26458333,15.473356,27.863006)">
		<polygon
   style="clip-rule:evenodd;fill:#ed1c24;fill-rule:evenodd"
   points="295.615,102 293.338,103.157 278.683,102.334 275.928,100.932 "
   id="polygon385" />

	</g>
    <g
       id="g387"
       transform="matrix(0.26458333,0,0,0.26458333,15.473356,27.863006)">
		<polygon
   style="clip-rule:evenodd;fill:#ed1c24;fill-rule:evenodd"
   points="301.159,107.242 298.175,107.242 297.719,101.5 302.04,101.515 "
   id="polygon386" />

	</g>
    <g
       id="g388"
       transform="matrix(0.26458333,0,0,0.26458333,15.473356,27.863006)">
		<polygon
   style="clip-rule:evenodd;fill:#ed1c24;fill-rule:evenodd"
   points="226.835,102.631 228.664,102.449 231.03,99.152 228.114,99.143 "
   id="polygon387" />

	</g>
    <g
       id="g389"
       transform="matrix(0.26458333,0,0,0.26458333,15.473356,27.863006)">
		<path
   style="clip-rule:evenodd;fill:#ed1c24;fill-rule:evenodd"
   d="m 224.279,103.092 24.822,-2.469 c 0.148,-0.015 0.28,0.089 0.294,0.229 v 0 c 0.014,0.141 -0.096,0.268 -0.244,0.283 l -24.822,2.469 c -0.148,0.015 -0.28,-0.088 -0.295,-0.229 v 0 c -0.012,-0.141 0.097,-0.268 0.245,-0.283 z"
   id="path388" />

	</g>
    <g
       id="g390"
       transform="matrix(0.26458333,0,0,0.26458333,15.473356,27.863006)">
		<path
   style="clip-rule:evenodd;fill:#6c8cc7;fill-rule:evenodd"
   d="m 225.643,103.353 c -0.221,-0.168 -0.443,-0.337 -0.664,-0.505 -0.09,-0.54 -0.18,-1.079 -0.271,-1.619 0.779,0.442 1.153,1.115 0.935,2.124 z"
   id="path389" />

	</g>
    <g
       id="g391"
       transform="matrix(0.26458333,0,0,0.26458333,15.473356,27.863006)">
		<path
   style="clip-rule:evenodd;fill:#6c8cc7;fill-rule:evenodd"
   d="m 225.613,103.042 c -0.184,0.209 -0.368,0.417 -0.552,0.626 0.018,0.547 0.036,1.094 0.054,1.641 0.676,-0.587 0.909,-1.32 0.498,-2.267 z"
   id="path390" />

	</g>
  </g>
</svg>
