<?xml version="1.0" encoding="UTF-8" standalone="no"?>
<!-- Created with Inkscape (http://www.inkscape.org/) -->

<svg
   width="74.33577mm"
   height="23.586548mm"
   viewBox="0 0 74.335769 23.586547"
   version="1.1"
   id="svg1"
   xmlns="http://www.w3.org/2000/svg"
   xmlns:svg="http://www.w3.org/2000/svg">
  <defs
     id="defs1" />
  <g
     id="layer1"
     transform="translate(-22.224999,-39.952083)">
    <g
       id="g392"
       transform="matrix(0.26458333,0,0,0.26458333,-15.624675,-25.258183)">
		<path
   style="clip-rule:evenodd;fill:#7894ae;fill-rule:evenodd"
   d="m 156.971,298.546 c 1.203,0.027 1.865,3.699 0.42,3.699 -0.855,0 -2.076,-0.04 -2.076,-1.081 -0.001,-1.04 0.453,-2.645 1.656,-2.618 z"
   id="path391" />

	</g>
    <g
       id="g393"
       transform="matrix(0.26458333,0,0,0.26458333,-15.624675,-25.258183)">
		<polygon
   style="clip-rule:evenodd;fill:#a3b9c6;fill-rule:evenodd"
   points="160.646,302.051 154.757,301.263 154.379,300.071 160.781,299.97 "
   id="polygon392" />

	</g>
    <g
       id="g394"
       transform="matrix(0.26458333,0,0,0.26458333,-15.624675,-25.258183)">
		<polygon
   style="clip-rule:evenodd;fill:#7894ae;fill-rule:evenodd"
   points="154.606,300.382 160.149,300.532 160.056,301.972 154.757,301.263 "
   id="polygon393" />

	</g>
    <g
       id="g395"
       transform="matrix(0.26458333,0,0,0.26458333,-15.624675,-25.258183)">
		<polygon
   style="clip-rule:evenodd;fill:#7894ae;fill-rule:evenodd"
   points="163.082,298.797 162.705,298.797 162.705,295.657 163.082,295.657 "
   id="polygon394" />

	</g>
    <g
       id="g396"
       transform="matrix(0.26458333,0,0,0.26458333,-15.624675,-25.258183)">
		<path
   style="clip-rule:evenodd;fill:#7894ae;fill-rule:evenodd"
   d="m 163.082,298.797 c 2.703,0 4.895,1.05 4.895,2.345 0,1.295 -2.192,2.345 -4.895,2.345 -2.703,0 -4.895,-1.05 -4.895,-2.345 0,-1.294 2.192,-2.345 4.895,-2.345 z"
   id="path395" />

	</g>
    <g
       id="g397"
       transform="matrix(0.26458333,0,0,0.26458333,-15.624675,-25.258183)">
		<path
   style="clip-rule:evenodd;fill:#a3b9c6;fill-rule:evenodd"
   d="m 163.082,298.797 c 2.703,0 4.895,1.05 4.895,2.345 0,0.387 -0.197,0.752 -0.544,1.074 -0.753,0.227 -1.642,0.358 -2.596,0.358 -2.703,0 -4.895,-1.05 -4.895,-2.345 0,-0.388 0.197,-0.753 0.544,-1.076 0.753,-0.226 1.643,-0.356 2.596,-0.356 z"
   id="path396" />

	</g>
    <g
       id="g398"
       transform="matrix(0.26458333,0,0,0.26458333,-15.624675,-25.258183)">
		<path
   style="clip-rule:evenodd;fill:#4c6186;fill-rule:evenodd"
   d="m 165.963,299.246 c 1.221,0.427 2.015,1.118 2.015,1.897 0,0.279 -0.103,0.546 -0.289,0.794 -1.883,0.354 -3.66,0.354 -5.33,0 -0.687,-0.145 -1.276,-0.574 -1.276,-1.276 v -0.139 c 0,-0.702 0.574,-1.276 1.276,-1.276 z"
   id="path397" />

	</g>
    <g
       id="g399"
       transform="matrix(0.26458333,0,0,0.26458333,-15.624675,-25.258183)">
		<path
   style="clip-rule:evenodd;fill:#a3b9c6;fill-rule:evenodd"
   d="m 154.798,298.546 c 1.203,0.027 1.865,3.699 0.42,3.699 -0.855,0 -2.076,-0.04 -2.076,-1.081 0,-1.04 0.453,-2.645 1.656,-2.618 z"
   id="path398" />

	</g>
    <g
       id="g400"
       transform="matrix(0.26458333,0,0,0.26458333,-15.624675,-25.258183)">
		<path
   style="fill:#7894ae"
   d="m 149.128,298.051 c -0.058,0 -0.105,-0.046 -0.108,-0.104 -0.002,-0.06 0.044,-0.11 0.104,-0.112 8.042,-0.335 14.264,-0.338 20.171,-0.009 0.06,0.003 0.105,0.054 0.102,0.113 -0.003,0.058 -0.051,0.103 -0.108,0.103 -0.002,0 -0.004,0 -0.006,-10e-4 -5.901,-0.327 -12.116,-0.324 -20.151,0.009 -0.001,10e-4 -0.003,10e-4 -0.004,10e-4 z m 24.253,-1.981 c -0.002,0 -0.005,0 -0.007,-10e-4 -8.027,-0.562 -14.24,-0.742 -20.142,-0.582 -0.001,0 -0.002,0 -0.003,0 -0.059,0 -0.106,-0.047 -0.108,-0.105 -0.001,-0.06 0.045,-0.109 0.105,-0.111 5.913,-0.16 12.13,0.021 20.163,0.584 0.06,0.004 0.104,0.056 0.101,0.115 -0.005,0.056 -0.052,0.1 -0.109,0.1 z"
   id="path399" />

	</g>
    <g
       id="g401"
       transform="matrix(0.26458333,0,0,0.26458333,-15.624675,-25.258183)">
		<path
   style="clip-rule:evenodd;fill:#7894ae;fill-rule:evenodd"
   d="m 181.224,298.546 c 1.203,0.027 1.865,3.699 0.42,3.699 -0.855,0 -2.076,-0.04 -2.076,-1.081 0,-1.04 0.453,-2.645 1.656,-2.618 z"
   id="path400" />

	</g>
    <g
       id="g402"
       transform="matrix(0.26458333,0,0,0.26458333,-15.624675,-25.258183)">
		<polygon
   style="clip-rule:evenodd;fill:#a3b9c6;fill-rule:evenodd"
   points="184.899,302.051 179.01,301.263 178.632,300.071 185.035,299.97 "
   id="polygon401" />

	</g>
    <g
       id="g403"
       transform="matrix(0.26458333,0,0,0.26458333,-15.624675,-25.258183)">
		<polygon
   style="clip-rule:evenodd;fill:#7894ae;fill-rule:evenodd"
   points="178.859,300.382 184.403,300.532 184.309,301.972 179.01,301.263 "
   id="polygon402" />

	</g>
    <g
       id="g404"
       transform="matrix(0.26458333,0,0,0.26458333,-15.624675,-25.258183)">
		<polygon
   style="clip-rule:evenodd;fill:#7894ae;fill-rule:evenodd"
   points="187.336,298.797 186.959,298.797 186.959,295.657 187.336,295.657 "
   id="polygon403" />

	</g>
    <g
       id="g405"
       transform="matrix(0.26458333,0,0,0.26458333,-15.624675,-25.258183)">
		<path
   style="clip-rule:evenodd;fill:#7894ae;fill-rule:evenodd"
   d="m 187.336,298.797 c 2.703,0 4.895,1.05 4.895,2.345 0,1.295 -2.192,2.345 -4.895,2.345 -2.703,0 -4.895,-1.05 -4.895,-2.345 0,-1.294 2.192,-2.345 4.895,-2.345 z"
   id="path404" />

	</g>
    <g
       id="g406"
       transform="matrix(0.26458333,0,0,0.26458333,-15.624675,-25.258183)">
		<path
   style="clip-rule:evenodd;fill:#a3b9c6;fill-rule:evenodd"
   d="m 187.336,298.797 c 2.703,0 4.895,1.05 4.895,2.345 0,0.387 -0.197,0.752 -0.544,1.074 -0.753,0.227 -1.642,0.358 -2.596,0.358 -2.703,0 -4.895,-1.05 -4.895,-2.345 0,-0.388 0.197,-0.753 0.544,-1.076 0.753,-0.226 1.642,-0.356 2.596,-0.356 z"
   id="path405" />

	</g>
    <g
       id="g407"
       transform="matrix(0.26458333,0,0,0.26458333,-15.624675,-25.258183)">
		<path
   style="clip-rule:evenodd;fill:#4c6186;fill-rule:evenodd"
   d="m 190.216,299.246 c 1.221,0.427 2.015,1.118 2.015,1.897 0,0.279 -0.103,0.546 -0.289,0.794 -1.883,0.354 -3.66,0.354 -5.33,0 -0.687,-0.145 -1.276,-0.574 -1.276,-1.276 v -0.139 c 0,-0.702 0.574,-1.276 1.276,-1.276 z"
   id="path406" />

	</g>
    <g
       id="g408"
       transform="matrix(0.26458333,0,0,0.26458333,-15.624675,-25.258183)">
		<path
   style="clip-rule:evenodd;fill:#a3b9c6;fill-rule:evenodd"
   d="m 179.051,298.546 c 1.203,0.027 1.865,3.699 0.42,3.699 -0.855,0 -2.076,-0.04 -2.076,-1.081 0,-1.04 0.453,-2.645 1.656,-2.618 z"
   id="path407" />

	</g>
    <g
       id="g409"
       transform="matrix(0.26458333,0,0,0.26458333,-15.624675,-25.258183)">
		<path
   style="fill:#7894ae"
   d="m 173.381,298.051 c -0.058,0 -0.105,-0.046 -0.108,-0.104 -0.002,-0.06 0.044,-0.11 0.104,-0.112 8.043,-0.335 14.264,-0.338 20.171,-0.009 0.06,0.003 0.105,0.054 0.102,0.113 -0.003,0.058 -0.051,0.103 -0.108,0.103 -0.002,0 -0.004,0 -0.006,-10e-4 -5.901,-0.328 -12.115,-0.325 -20.15,0.009 -0.002,10e-4 -0.003,10e-4 -0.005,10e-4 z m 24.254,-1.981 c -0.002,0 -0.005,0 -0.007,-10e-4 -8.027,-0.562 -14.238,-0.742 -20.142,-0.582 -0.063,0.004 -0.109,-0.046 -0.111,-0.105 -0.002,-0.059 0.045,-0.109 0.105,-0.111 5.913,-0.16 12.129,0.021 20.163,0.584 0.06,0.004 0.104,0.056 0.101,0.115 -0.006,0.056 -0.053,0.1 -0.109,0.1 z"
   id="path408" />

	</g>
    <g
       id="g410"
       transform="matrix(0.26458333,0,0,0.26458333,-15.624675,-25.258183)">
		<path
   style="clip-rule:evenodd;fill:#7894ae;fill-rule:evenodd"
   d="m 205.477,298.546 c 1.203,0.027 1.865,3.699 0.42,3.699 -0.855,0 -2.076,-0.04 -2.076,-1.081 0,-1.04 0.453,-2.645 1.656,-2.618 z"
   id="path409" />

	</g>
    <g
       id="g411"
       transform="matrix(0.26458333,0,0,0.26458333,-15.624675,-25.258183)">
		<polygon
   style="clip-rule:evenodd;fill:#a3b9c6;fill-rule:evenodd"
   points="209.152,302.051 203.263,301.263 202.885,300.071 209.288,299.97 "
   id="polygon410" />

	</g>
    <g
       id="g412"
       transform="matrix(0.26458333,0,0,0.26458333,-15.624675,-25.258183)">
		<polygon
   style="clip-rule:evenodd;fill:#7894ae;fill-rule:evenodd"
   points="203.113,300.382 208.656,300.532 208.562,301.972 203.263,301.263 "
   id="polygon411" />

	</g>
    <g
       id="g413"
       transform="matrix(0.26458333,0,0,0.26458333,-15.624675,-25.258183)">
		<polygon
   style="clip-rule:evenodd;fill:#7894ae;fill-rule:evenodd"
   points="211.589,298.797 211.212,298.797 211.212,295.657 211.589,295.657 "
   id="polygon412" />

	</g>
    <g
       id="g414"
       transform="matrix(0.26458333,0,0,0.26458333,-15.624675,-25.258183)">
		<path
   style="clip-rule:evenodd;fill:#7894ae;fill-rule:evenodd"
   d="m 211.589,298.797 c 2.703,0 4.895,1.05 4.895,2.345 0,1.295 -2.192,2.345 -4.895,2.345 -2.703,0 -4.895,-1.05 -4.895,-2.345 0,-1.294 2.192,-2.345 4.895,-2.345 z"
   id="path413" />

	</g>
    <g
       id="g415"
       transform="matrix(0.26458333,0,0,0.26458333,-15.624675,-25.258183)">
		<path
   style="clip-rule:evenodd;fill:#a3b9c6;fill-rule:evenodd"
   d="m 211.589,298.797 c 2.703,0 4.895,1.05 4.895,2.345 0,0.387 -0.197,0.752 -0.544,1.074 -0.753,0.227 -1.642,0.358 -2.596,0.358 -2.703,0 -4.895,-1.05 -4.895,-2.345 0,-0.388 0.197,-0.753 0.544,-1.076 0.753,-0.226 1.642,-0.356 2.596,-0.356 z"
   id="path414" />

	</g>
    <g
       id="g416"
       transform="matrix(0.26458333,0,0,0.26458333,-15.624675,-25.258183)">
		<path
   style="clip-rule:evenodd;fill:#4c6186;fill-rule:evenodd"
   d="m 214.469,299.246 c 1.221,0.427 2.015,1.118 2.015,1.897 0,0.279 -0.103,0.546 -0.289,0.794 -1.883,0.354 -3.66,0.354 -5.33,0 -0.687,-0.145 -1.276,-0.574 -1.276,-1.276 v -0.139 c 0,-0.702 0.574,-1.276 1.276,-1.276 z"
   id="path415" />

	</g>
    <g
       id="g417"
       transform="matrix(0.26458333,0,0,0.26458333,-15.624675,-25.258183)">
		<path
   style="clip-rule:evenodd;fill:#a3b9c6;fill-rule:evenodd"
   d="m 203.305,298.546 c 1.203,0.027 1.865,3.699 0.42,3.699 -0.855,0 -2.076,-0.04 -2.076,-1.081 -0.001,-1.04 0.452,-2.645 1.656,-2.618 z"
   id="path416" />

	</g>
    <g
       id="g418"
       transform="matrix(0.26458333,0,0,0.26458333,-15.624675,-25.258183)">
		<path
   style="fill:#7894ae"
   d="m 197.635,298.051 c -0.058,0 -0.105,-0.046 -0.108,-0.104 -0.002,-0.06 0.044,-0.11 0.104,-0.112 8.042,-0.335 14.264,-0.338 20.171,-0.009 0.06,0.003 0.105,0.054 0.102,0.113 -0.003,0.058 -0.051,0.103 -0.108,0.103 -0.002,0 -0.004,0 -0.006,-10e-4 -5.901,-0.328 -12.115,-0.325 -20.15,0.009 -0.002,10e-4 -0.004,10e-4 -0.005,10e-4 z m 24.253,-1.981 c -0.002,0 -0.005,0 -0.007,-10e-4 -8.027,-0.562 -14.238,-0.742 -20.142,-0.582 -0.07,0.004 -0.11,-0.046 -0.111,-0.105 -10e-4,-0.06 0.045,-0.109 0.105,-0.111 5.912,-0.16 12.13,0.021 20.163,0.584 0.06,0.004 0.104,0.056 0.101,0.115 -0.006,0.056 -0.053,0.1 -0.109,0.1 z"
   id="path417" />

	</g>
    <g
       id="g419"
       transform="matrix(0.26458333,0,0,0.26458333,-15.624675,-25.258183)">
		<path
   style="clip-rule:evenodd;fill:#7894ae;fill-rule:evenodd"
   d="m 229.731,298.546 c 1.203,0.027 1.865,3.699 0.42,3.699 -0.855,0 -2.076,-0.04 -2.076,-1.081 -10e-4,-1.04 0.452,-2.645 1.656,-2.618 z"
   id="path418" />

	</g>
    <g
       id="g420"
       transform="matrix(0.26458333,0,0,0.26458333,-15.624675,-25.258183)">
		<polygon
   style="clip-rule:evenodd;fill:#a3b9c6;fill-rule:evenodd"
   points="233.405,302.051 227.516,301.263 227.138,300.071 233.541,299.97 "
   id="polygon419" />

	</g>
    <g
       id="g421"
       transform="matrix(0.26458333,0,0,0.26458333,-15.624675,-25.258183)">
		<polygon
   style="clip-rule:evenodd;fill:#7894ae;fill-rule:evenodd"
   points="227.366,300.382 232.909,300.532 232.815,301.972 227.516,301.263 "
   id="polygon420" />

	</g>
    <g
       id="g422"
       transform="matrix(0.26458333,0,0,0.26458333,-15.624675,-25.258183)">
		<polygon
   style="clip-rule:evenodd;fill:#7894ae;fill-rule:evenodd"
   points="235.842,298.797 235.465,298.797 235.465,295.657 235.842,295.657 "
   id="polygon421" />

	</g>
    <g
       id="g423"
       transform="matrix(0.26458333,0,0,0.26458333,-15.624675,-25.258183)">
		<path
   style="clip-rule:evenodd;fill:#7894ae;fill-rule:evenodd"
   d="m 235.842,298.797 c 2.703,0 4.895,1.05 4.895,2.345 0,1.295 -2.192,2.345 -4.895,2.345 -2.703,0 -4.895,-1.05 -4.895,-2.345 0,-1.294 2.192,-2.345 4.895,-2.345 z"
   id="path422" />

	</g>
    <g
       id="g424"
       transform="matrix(0.26458333,0,0,0.26458333,-15.624675,-25.258183)">
		<path
   style="clip-rule:evenodd;fill:#a3b9c6;fill-rule:evenodd"
   d="m 235.842,298.797 c 2.703,0 4.895,1.05 4.895,2.345 0,0.387 -0.197,0.752 -0.544,1.074 -0.753,0.227 -1.642,0.358 -2.596,0.358 -2.703,0 -4.895,-1.05 -4.895,-2.345 0,-0.388 0.197,-0.753 0.544,-1.076 0.753,-0.226 1.642,-0.356 2.596,-0.356 z"
   id="path423" />

	</g>
    <g
       id="g425"
       transform="matrix(0.26458333,0,0,0.26458333,-15.624675,-25.258183)">
		<path
   style="clip-rule:evenodd;fill:#4c6186;fill-rule:evenodd"
   d="m 238.722,299.246 c 1.221,0.427 2.015,1.118 2.015,1.897 0,0.279 -0.103,0.546 -0.289,0.794 -1.883,0.354 -3.66,0.354 -5.33,0 -0.687,-0.145 -1.276,-0.574 -1.276,-1.276 v -0.139 c 0,-0.702 0.574,-1.276 1.276,-1.276 z"
   id="path424" />

	</g>
    <g
       id="g426"
       transform="matrix(0.26458333,0,0,0.26458333,-15.624675,-25.258183)">
		<path
   style="clip-rule:evenodd;fill:#a3b9c6;fill-rule:evenodd"
   d="m 227.558,298.546 c 1.203,0.027 1.865,3.699 0.42,3.699 -0.855,0 -2.076,-0.04 -2.076,-1.081 -10e-4,-1.04 0.453,-2.645 1.656,-2.618 z"
   id="path425" />

	</g>
    <g
       id="g427"
       transform="matrix(0.26458333,0,0,0.26458333,-15.624675,-25.258183)">
		<path
   style="fill:#7894ae"
   d="m 221.888,298.051 c -0.058,0 -0.105,-0.046 -0.108,-0.104 -0.002,-0.06 0.044,-0.11 0.104,-0.112 8.043,-0.335 14.263,-0.338 20.171,-0.009 0.06,0.003 0.105,0.054 0.102,0.113 -0.003,0.058 -0.051,0.103 -0.107,0.103 -0.002,0 -0.004,0 -0.006,-10e-4 -5.898,-0.327 -12.113,-0.324 -20.151,0.009 -0.002,10e-4 -0.004,10e-4 -0.005,10e-4 z m 24.253,-1.981 c -0.002,0 -0.005,0 -0.008,-10e-4 -8.024,-0.562 -14.235,-0.741 -20.142,-0.582 -0.001,0 -0.002,0 -0.003,0 -0.059,0 -0.106,-0.047 -0.108,-0.105 -0.001,-0.06 0.046,-0.109 0.105,-0.111 5.908,-0.159 12.129,0.021 20.163,0.584 0.06,0.004 0.104,0.056 0.1,0.115 -0.004,0.056 -0.051,0.1 -0.107,0.1 z"
   id="path426" />

	</g>
    <g
       id="g428"
       transform="matrix(0.26458333,0,0,0.26458333,-15.624675,-25.258183)">
		<path
   style="fill:#4c6186"
   d="m 311.178,288.587 c -0.078,0 -0.142,-0.063 -0.142,-0.142 v -14.869 c 0,-0.078 0.063,-0.142 0.142,-0.142 0.079,0 0.142,0.063 0.142,0.142 v 14.869 c -10e-4,0.078 -0.064,0.142 -0.142,0.142 z"
   id="path427" />

	</g>
    <g
       id="g429"
       transform="matrix(0.26458333,0,0,0.26458333,-15.624675,-25.258183)">
		<path
   style="fill:#4c6186"
   d="m 301.239,296.904 c -0.141,0 -0.255,-0.114 -0.255,-0.255 v -14.87 c 0,-0.141 0.114,-0.255 0.255,-0.255 0.141,0 0.255,0.114 0.255,0.255 v 14.87 c 0,0.141 -0.114,0.255 -0.255,0.255 z"
   id="path428" />

	</g>
    <g
       id="g430"
       transform="matrix(0.26458333,0,0,0.26458333,-15.624675,-25.258183)">
		<path
   style="fill:#4c6186"
   d="m 299.217,291.57 c -0.078,0 -0.142,-0.063 -0.142,-0.142 V 276.56 c 0,-0.078 0.063,-0.142 0.142,-0.142 0.079,0 0.142,0.063 0.142,0.142 v 14.869 c -10e-4,0.078 -0.064,0.141 -0.142,0.141 z m 3.406,-1.917 c -0.078,0 -0.142,-0.063 -0.142,-0.142 v -14.87 c 0,-0.078 0.063,-0.142 0.142,-0.142 0.079,0 0.142,0.063 0.142,0.142 v 14.87 c 0,0.079 -0.064,0.142 -0.142,0.142 z"
   id="path429" />

	</g>
    <g
       id="g431"
       transform="matrix(0.26458333,0,0,0.26458333,-15.624675,-25.258183)">
		<path
   style="fill:#4c6186"
   d="m 275.544,275.24 -4.839,-7.758 -2.989,7.364 -0.473,-0.191 3.128,-7.707 -0.175,-0.28 h 0.288 l 1.471,-3.624 -0.229,-0.295 h 0.349 l 1.022,-2.52 -0.193,-0.285 h 0.31 l 2.33,-5.742 v 8.724 l 0.227,0.333 h -0.227 v 3.577 l 0.266,0.342 h -0.266 z m -4.428,-8.062 3.918,6.281 v -6.281 z m -0.081,-0.51 h 3.733 l -2.451,-3.158 z m 1.733,-3.409 2.267,2.919 v -2.919 z m -0.142,-0.51 h 2.182 l -1.365,-2.012 z m 1.241,-2.295 1.167,1.72 v -1.72 z m -0.102,-0.51 h 1.27 v -3.129 z"
   id="path430" />

	</g>
    <g
       id="g432"
       transform="matrix(0.26458333,0,0,0.26458333,-15.624675,-25.258183)">
		<path
   style="clip-rule:evenodd;fill:#a3b9c6;fill-rule:evenodd"
   d="m 273.009,249.114 c 1.529,-0.667 4.102,1.85 5.746,5.621 1.644,3.771 1.738,7.369 0.21,8.036 l -0.016,0.006 -5.956,-13.656 z"
   id="path431" />

	</g>
    <g
       id="g433"
       transform="matrix(0.26458333,0,0,0.26458333,-15.624675,-25.258183)">
		<path
   style="clip-rule:evenodd;fill:#7894ae;fill-rule:evenodd"
   d="m 279.926,261.366 c -0.163,0.699 -0.482,1.196 -0.961,1.405 l -0.015,0.007 -4.998,-11.459 c 1.497,0.413 3.416,2.631 4.736,5.659 0.679,1.556 1.093,3.083 1.238,4.388 z"
   id="path432" />

	</g>
    <g
       id="g434"
       transform="matrix(0.26458333,0,0,0.26458333,-15.624675,-25.258183)">
		<polygon
   style="clip-rule:evenodd;fill:#7894ae;fill-rule:evenodd"
   points="281.73,261.638 282.648,261.238 276.718,247.642 275.8,248.042 "
   id="polygon433" />

	</g>
    <g
       id="g435"
       transform="matrix(0.26458333,0,0,0.26458333,-15.624675,-25.258183)">
		<polygon
   style="clip-rule:evenodd;fill:#a3b9c6;fill-rule:evenodd"
   points="272.068,249.669 277.452,247.321 277.078,246.464 271.695,248.812 "
   id="polygon434" />

	</g>
    <g
       id="g436"
       transform="matrix(0.26458333,0,0,0.26458333,-15.624675,-25.258183)">
		<polygon
   style="clip-rule:evenodd;fill:#7894ae;fill-rule:evenodd"
   points="271.695,248.812 272.069,249.668 274.761,248.494 274.387,247.637 "
   id="polygon435" />

	</g>
    <g
       id="g437"
       transform="matrix(0.26458333,0,0,0.26458333,-15.624675,-25.258183)">
		<polygon
   style="clip-rule:evenodd;fill:#a3b9c6;fill-rule:evenodd"
   points="278.371,264.122 283.755,261.774 283.381,260.917 277.998,263.265 "
   id="polygon436" />

	</g>
    <g
       id="g438"
       transform="matrix(0.26458333,0,0,0.26458333,-15.624675,-25.258183)">
		<polygon
   style="clip-rule:evenodd;fill:#7894ae;fill-rule:evenodd"
   points="277.998,263.265 278.371,264.122 281.064,262.948 280.69,262.091 "
   id="polygon437" />

	</g>
    <g
       id="g439"
       transform="matrix(0.26458333,0,0,0.26458333,-15.624675,-25.258183)">
		<path
   style="fill:#231f20"
   d="m 312.1,298.756 h -0.317 v -0.018 h -2.664 v -1.899 h 0.318 v 0.036 h 2.322 v -0.036 h 0.317 v 0.018 h 0.023 l 0.001,0.019 h 2.535 v -0.036 h 0.318 v 0.036 h 2.559 v -0.036 h 0.318 v 0.036 h 2.559 v -0.036 h 0.318 v 0.036 h 2.56 v -0.036 h 0.317 l -0.006,1.899 H 312.1 Z m 8.608,-0.235 h 2.56 v -0.229 h -2.56 z m -2.877,0 h 2.559 v -0.229 h -2.559 z m -2.877,0 h 2.559 v -0.229 h -2.559 z m -2.853,0 h 2.535 v -0.229 H 312.1 Z m -2.664,0 h 2.322 v -0.229 h -2.322 z m 11.271,-0.445 h 2.56 v -0.396 h -2.56 z m -2.877,0 h 2.559 v -0.396 h -2.559 z m -2.877,0 h 2.559 v -0.396 h -2.559 z m -2.853,0 h 2.535 V 297.68 H 312.1 Z m -2.664,0 h 2.322 v -0.396 h -2.322 z m 11.271,-0.612 h 2.56 v -0.372 h -2.56 z m -2.877,0 h 2.559 v -0.372 h -2.559 z m -2.877,0 h 2.559 v -0.372 h -2.559 z m -2.853,0 h 2.535 v -0.372 H 312.1 Z m -2.664,0 h 2.322 v -0.372 h -2.322 z"
   id="path438" />

	</g>
    <g
       id="g440"
       transform="matrix(0.26458333,0,0,0.26458333,-15.624675,-25.258183)">
		<path
   style="fill:#7894ae"
   d="m 334.668,301.852 c -0.014,0 -0.027,-0.003 -0.041,-0.009 l -2.365,-0.972 c -0.048,-0.02 -0.075,-0.07 -0.065,-0.12 0.011,-0.051 0.055,-0.088 0.106,-0.088 h 2.365 c 0.06,0 0.108,0.049 0.108,0.108 v 0.972 c 0,0.036 -0.019,0.069 -0.048,0.09 -0.018,0.012 -0.039,0.019 -0.06,0.019 z m -1.818,-0.972 1.71,0.702 v -0.702 z"
   id="path439" />

	</g>
    <g
       id="g441"
       transform="matrix(0.26458333,0,0,0.26458333,-15.624675,-25.258183)">
		<path
   style="fill:#7894ae"
   d="m 334.671,304.209 c -0.078,0 -0.142,-0.063 -0.142,-0.142 v -11.232 l -2.704,9.932 c -0.021,0.076 -0.1,0.124 -0.174,0.1 -0.075,-0.021 -0.12,-0.099 -0.1,-0.174 l 2.978,-10.937 v -5.226 c 0,-0.078 0.063,-0.142 0.142,-0.142 0.079,0 0.142,0.063 0.142,0.142 v 5.225 c 0.001,0.011 0.002,0.022 0,0.033 v 12.279 c 0,0.079 -0.064,0.142 -0.142,0.142 z"
   id="path440" />

	</g>
    <g
       id="g442"
       transform="matrix(0.26458333,0,0,0.26458333,-15.624675,-25.258183)">
		<polygon
   style="clip-rule:evenodd;fill:#7894ae;fill-rule:evenodd"
   points="332.043,301.526 366.365,301.526 366.365,306.028 265.246,306.028 265.06,294.535 262.513,271.506 279.11,271.506 281.301,283.366 283.222,282.931 283.112,277.509 295.963,277.509 295.963,288.317 312.232,288.317 312.232,298.627 332.043,298.627 "
   id="polygon441" />

	</g>
    <g
       id="g443"
       transform="matrix(0.26458333,0,0,0.26458333,-15.624675,-25.258183)">
		<path
   style="fill:#231f20"
   d="m 349.287,303.301 h -0.325 v -0.017 h -42.527 v -1.9 h 0.325 v 0.036 h 2.729 v -0.037 h 0.325 v 0.037 h 2.729 v -0.037 h 0.324 v 0.037 h 2.729 v -0.037 h 0.324 v 0.037 h 2.729 v -0.037 h 0.324 v 0.037 h 2.729 v -0.037 h 0.324 v 0.037 h 2.729 v -0.037 h 0.324 v 0.037 h 2.729 v -0.037 h 0.324 v 0.037 h 2.729 v -0.037 h 0.324 v 0.037 h 2.729 v -0.037 h 0.324 v 0.037 h 2.73 v -0.037 h 0.324 v 0.037 h 2.729 v -0.037 h 0.324 v 0.037 h 2.729 v -0.037 h 0.324 v 0.037 h 2.729 v -0.036 h 0.324 v 0.036 h 2.503 v -0.02 h 0.325 v 1.901 z m -2.828,-0.234 h 2.503 v -0.23 h -2.503 z m -3.054,0 h 2.729 v -0.23 h -2.729 z m -3.053,0 h 2.729 v -0.23 h -2.729 z m -3.054,0 h 2.729 v -0.23 h -2.729 z m -3.055,0 h 2.73 v -0.23 h -2.73 z m -3.054,0 h 2.729 v -0.23 h -2.729 z m -3.053,0 h 2.729 v -0.23 h -2.729 z m -3.054,0 h 2.729 v -0.23 h -2.729 z m -3.054,0 h 2.729 v -0.23 h -2.729 z m -3.053,0 h 2.729 v -0.23 h -2.729 z m -3.054,0 h 2.729 v -0.23 h -2.729 z m -3.054,0 h 2.729 v -0.23 h -2.729 z m -3.054,0 h 2.729 v -0.23 h -2.729 z m -3.053,0 h 2.729 v -0.23 h -2.729 z m 39.699,-0.447 h 2.503 v -0.395 h -2.503 z m -3.054,0 h 2.729 v -0.395 h -2.729 z m -3.053,0 h 2.729 v -0.395 h -2.729 z m -3.054,0 h 2.729 v -0.395 h -2.729 z m -3.055,0 h 2.73 v -0.395 h -2.73 z m -3.054,0 h 2.729 v -0.395 h -2.729 z m -3.053,0 h 2.729 v -0.395 h -2.729 z m -3.054,0 h 2.729 v -0.395 h -2.729 z m -3.054,0 h 2.729 v -0.395 h -2.729 z m -3.053,0 h 2.729 v -0.395 h -2.729 z m -3.054,0 h 2.729 v -0.395 h -2.729 z m -3.054,0 h 2.729 v -0.395 h -2.729 z m -3.054,0 h 2.729 v -0.395 h -2.729 z m -3.053,0 h 2.729 v -0.395 h -2.729 z m 39.699,-0.611 h 2.503 v -0.372 h -2.503 z m -3.054,0 h 2.729 v -0.372 h -2.729 z m -3.053,0 h 2.729 v -0.372 h -2.729 z m -3.054,0 h 2.729 v -0.372 h -2.729 z m -3.055,0 h 2.73 v -0.372 h -2.73 z m -3.054,0 h 2.729 v -0.372 h -2.729 z m -3.053,0 h 2.729 v -0.372 h -2.729 z m -3.054,0 h 2.729 v -0.372 h -2.729 z m -3.054,0 h 2.729 v -0.372 h -2.729 z m -3.053,0 h 2.729 v -0.372 h -2.729 z m -3.054,0 h 2.729 v -0.372 h -2.729 z m -3.054,0 h 2.729 v -0.372 h -2.729 z m -3.054,0 h 2.729 v -0.372 h -2.729 z m -3.053,0 h 2.729 v -0.372 h -2.729 z"
   id="path442" />

	</g>
    <g
       id="g444"
       transform="matrix(0.26458333,0,0,0.26458333,-15.624675,-25.258183)">
		<polygon
   style="clip-rule:evenodd;fill:#a3b9c6;fill-rule:evenodd"
   points="296.332,302.653 292.713,302.653 292.713,277.509 296.332,277.509 "
   id="polygon443" />

	</g>
    <g
       id="g445"
       transform="matrix(0.26458333,0,0,0.26458333,-15.624675,-25.258183)">
		<polygon
   style="clip-rule:evenodd;fill:#4c6186;fill-rule:evenodd"
   points="265.054,294.92 262.513,271.506 263.638,271.506 266.414,294.535 266.423,303.045 265.054,303.046 "
   id="polygon444" />

	</g>
    <g
       id="g446"
       transform="matrix(0.26458333,0,0,0.26458333,-15.624675,-25.258183)">
		<polygon
   style="clip-rule:evenodd;fill:#a3b9c6;fill-rule:evenodd"
   points="306.477,300.417 309.597,303.175 267.804,303.046 271.165,300.417 "
   id="polygon445" />

	</g>
    <g
       id="g447"
       transform="matrix(0.26458333,0,0,0.26458333,-15.624675,-25.258183)">
		<polygon
   style="clip-rule:evenodd;fill:#7894ae;fill-rule:evenodd"
   points="296.2,270.232 295.143,270.232 295.143,278.018 296.2,278.018 "
   id="polygon446" />

	</g>
    <g
       id="g448"
       transform="matrix(0.26458333,0,0,0.26458333,-15.624675,-25.258183)">
		<polygon
   style="clip-rule:evenodd;fill:#7894ae;fill-rule:evenodd"
   points="297.641,270.712 293.125,270.712 293.125,269.847 297.641,269.847 "
   id="polygon447" />

	</g>
    <g
       id="g449"
       transform="matrix(0.26458333,0,0,0.26458333,-15.624675,-25.258183)">
		<path
   style="fill:#231f20"
   d="m 170.085,314.859 h -0.319 v -0.018 h -14.069 v 0.018 h -0.319 v -0.018 h -11.486 v -1.9 h 0.319 v 0.037 h 2.607 v -0.037 h 0.319 v 0.037 h 2.607 v -0.037 h 0.318 v 0.037 h 2.607 v -0.036 h 0.319 v 0.036 h 2.366 v -0.037 h 0.319 v 0.018 h 0.024 l 0.003,0.02 h 2.581 v -0.037 h 0.319 v 0.037 h 2.607 v -0.037 h 0.319 v 0.037 h 2.606 v -0.037 h 0.318 v 0.037 h 2.607 v -0.036 h 0.319 v 0.036 h 2.39 v -0.02 h 0.319 z m -2.709,-0.234 h 2.39 v -0.229 h -2.39 z m -2.926,0 h 2.607 v -0.229 h -2.607 z m -2.925,0 h 2.606 v -0.229 h -2.606 z m -2.926,0 h 2.607 v -0.229 h -2.607 z m -2.9,0 h 2.581 v -0.229 h -2.583 z m -2.711,0 h 2.366 v -0.229 h -2.366 z m -2.927,0 h 2.607 v -0.229 h -2.607 z m -2.925,0 h 2.607 v -0.229 h -2.607 z m -2.926,0 h 2.607 v -0.229 h -2.607 z m 23.166,-0.446 h 2.39 v -0.395 h -2.39 z m -2.926,0 h 2.607 v -0.395 h -2.607 z m -2.925,0 h 2.606 v -0.395 h -2.606 z m -2.926,0 h 2.607 v -0.395 h -2.607 z m -2.9,0 h 2.581 v -0.395 h -2.583 z m -2.711,0 h 2.366 v -0.395 h -2.366 z m -2.927,0 h 2.607 v -0.395 h -2.607 z m -2.925,0 h 2.607 v -0.395 h -2.607 z m -2.926,0 h 2.607 v -0.395 h -2.607 z m 23.166,-0.612 h 2.39 v -0.372 h -2.39 z m -2.926,0 h 2.607 v -0.372 h -2.607 z m -2.925,0 h 2.606 v -0.372 h -2.606 z m -2.926,0 h 2.607 v -0.372 h -2.607 z m -2.9,0 h 2.581 v -0.372 h -2.583 z m -2.711,0 h 2.366 v -0.372 h -2.366 z m -2.927,0 h 2.607 v -0.372 h -2.607 z m -2.925,0 h 2.607 v -0.372 h -2.607 z m -2.926,0 h 2.607 v -0.372 h -2.607 z"
   id="path448" />

	</g>
    <g
       id="g450"
       transform="matrix(0.26458333,0,0,0.26458333,-15.624675,-25.258183)">
		<polygon
   style="clip-rule:evenodd;fill:#4c6186;fill-rule:evenodd"
   points="379.97,305.365 376.58,305.365 376.58,299.617 379.97,299.617 "
   id="polygon449" />

	</g>
    <g
       id="g451"
       transform="matrix(0.26458333,0,0,0.26458333,-15.624675,-25.258183)">
		<polygon
   style="clip-rule:evenodd;fill:#a3b9c6;fill-rule:evenodd"
   points="281.279,283.245 280.053,283.366 277.447,271.506 279.11,271.506 "
   id="polygon450" />

	</g>
    <g
       id="g452"
       transform="matrix(0.26458333,0,0,0.26458333,-15.624675,-25.258183)">
		<polygon
   style="clip-rule:evenodd;fill:#a3b9c6;fill-rule:evenodd"
   points="278.572,282.954 274.898,282.954 268.692,271.506 272.365,271.506 "
   id="polygon451" />

	</g>
    <g
       id="g453"
       transform="matrix(0.26458333,0,0,0.26458333,-15.624675,-25.258183)">
		<path
   style="fill:#231f20"
   d="M 391.824,303.301 H 391.5 v -0.017 h -42.527 v -1.9 h 0.324 v 0.036 h 2.729 v -0.037 h 0.324 v 0.037 h 2.729 v -0.037 h 0.325 v 0.037 h 2.729 v -0.037 h 0.324 v 0.037 h 2.729 v -0.037 h 0.324 v 0.037 h 2.729 v -0.037 h 0.324 v 0.037 h 2.729 v -0.037 h 0.324 v 0.037 h 2.729 v -0.037 h 0.324 v 0.037 h 2.729 v -0.037 h 0.324 v 0.037 h 2.729 v -0.037 h 0.324 v 0.037 h 2.729 v -0.037 h 0.325 v 0.037 h 2.729 v -0.037 h 0.324 v 0.037 h 2.729 v -0.037 h 0.324 v 0.037 h 2.729 v -0.036 h 0.324 v 0.036 h 2.503 v -0.02 h 0.324 v 1.901 z m -2.827,-0.234 h 2.503 v -0.23 h -2.503 z m -3.054,0 h 2.729 v -0.23 h -2.729 z m -3.053,0 h 2.729 v -0.23 h -2.729 z m -3.054,0 h 2.729 v -0.23 h -2.729 z m -3.055,0 h 2.729 v -0.23 h -2.729 z m -3.053,0 h 2.729 v -0.23 h -2.729 z m -3.054,0 h 2.729 v -0.23 h -2.729 z m -3.054,0 h 2.729 v -0.23 h -2.729 z m -3.054,0 h 2.729 v -0.23 h -2.729 z m -3.053,0 h 2.729 v -0.23 h -2.729 z m -3.054,0 h 2.729 v -0.23 h -2.729 z m -3.054,0 h 2.729 v -0.23 h -2.729 z m -3.054,0 h 2.729 v -0.23 h -2.729 z m -3.054,0 h 2.729 v -0.23 h -2.729 z m 39.7,-0.447 h 2.503 v -0.395 h -2.503 z m -3.054,0 h 2.729 v -0.395 h -2.729 z m -3.053,0 h 2.729 v -0.395 h -2.729 z m -3.054,0 h 2.729 v -0.395 h -2.729 z m -3.055,0 h 2.729 v -0.395 h -2.729 z m -3.053,0 h 2.729 v -0.395 h -2.729 z m -3.054,0 h 2.729 v -0.395 h -2.729 z m -3.054,0 h 2.729 v -0.395 h -2.729 z m -3.054,0 h 2.729 v -0.395 h -2.729 z m -3.053,0 h 2.729 v -0.395 h -2.729 z m -3.054,0 h 2.729 v -0.395 h -2.729 z m -3.054,0 h 2.729 v -0.395 h -2.729 z m -3.054,0 h 2.729 v -0.395 h -2.729 z m -3.054,0 h 2.729 v -0.395 h -2.729 z m 39.7,-0.611 h 2.503 v -0.372 h -2.503 z m -3.054,0 h 2.729 v -0.372 h -2.729 z m -3.053,0 h 2.729 v -0.372 h -2.729 z m -3.054,0 h 2.729 v -0.372 h -2.729 z m -3.055,0 h 2.729 v -0.372 h -2.729 z m -3.053,0 h 2.729 v -0.372 h -2.729 z m -3.054,0 h 2.729 v -0.372 h -2.729 z m -3.054,0 h 2.729 v -0.372 h -2.729 z m -3.054,0 h 2.729 v -0.372 h -2.729 z m -3.053,0 h 2.729 v -0.372 h -2.729 z m -3.054,0 h 2.729 v -0.372 h -2.729 z m -3.054,0 h 2.729 v -0.372 h -2.729 z m -3.054,0 h 2.729 v -0.372 h -2.729 z m -3.054,0 h 2.729 v -0.372 h -2.729 z"
   id="path452" />

	</g>
    <g
       id="g454"
       transform="matrix(0.26458333,0,0,0.26458333,-15.624675,-25.258183)">
		<polygon
   style="clip-rule:evenodd;fill:#4c6186;fill-rule:evenodd"
   points="390.51,302.273 389.571,302.273 389.571,300.021 390.51,300.021 "
   id="polygon453" />

	</g>
    <g
       id="g455"
       transform="matrix(0.26458333,0,0,0.26458333,-15.624675,-25.258183)">
		<path
   style="clip-rule:evenodd;fill:#a3b9c6;fill-rule:evenodd"
   d="m 374.566,297.553 h 7.123 c 0.676,0 1.229,0.553 1.229,1.229 v 0.835 h -9.581 v -0.835 c 0,-0.676 0.553,-1.229 1.229,-1.229 z"
   id="path454" />

	</g>
    <g
       id="g456"
       transform="matrix(0.26458333,0,0,0.26458333,-15.624675,-25.258183)">
		<path
   style="clip-rule:evenodd;fill:#7894ae;fill-rule:evenodd"
   d="m 382.918,299.323 v 0.294 h -9.581 v -0.835 c 0,-0.067 0.006,-0.133 0.016,-0.198 h 7.948 c 0.721,0 1.344,0.305 1.617,0.739 z"
   id="path455" />

	</g>
    <g
       id="g457"
       transform="matrix(0.26458333,0,0,0.26458333,-15.624675,-25.258183)">
		<path
   style="clip-rule:evenodd;fill:#9a2429;fill-rule:evenodd"
   d="m 172.778,325.476 -3.133,5.228 v 4.182 c 0,0.398 -0.325,0.724 -0.724,0.724 h -7.069 c -0.398,0 -0.724,-0.325 -0.724,-0.724 v -7.963 c 0,-0.398 0.325,-0.724 0.724,-0.724 h 1.574 l 1.479,-3.056 z"
   id="path456" />

	</g>
    <g
       id="g458"
       transform="matrix(0.26458333,0,0,0.26458333,-15.624675,-25.258183)">
		<path
   style="clip-rule:evenodd;fill:#9a2429;fill-rule:evenodd"
   d="m 320.042,329.082 c 2.731,0.934 2.667,1.725 4.172,3.216 1.928,1.91 8.314,2.513 13.57,2.761 7.955,0.374 10.857,-2.282 13.486,-4.986 -10.41,-0.33 -20.819,-0.661 -31.228,-0.991 z"
   id="path457" />

	</g>
    <g
       id="g459"
       transform="matrix(0.26458333,0,0,0.26458333,-15.624675,-25.258183)">
		<path
   style="clip-rule:evenodd;fill:#4c6186;fill-rule:evenodd"
   d="m 423.999,300.168 -19.009,30.061 c -72.883,0 -144.167,3.507 -217.049,3.507 -2.046,-5.461 -18.063,-8.928 -34.398,-9.732 -0.691,-0.034 -1.275,-0.278 -1.784,-0.748 -2.724,-2.511 -5.771,-5.022 -8.518,-7.533 -0.177,-0.162 -0.234,-0.403 -0.147,-0.627 0.087,-0.224 0.291,-0.364 0.531,-0.364 4.73,0 9.46,0 14.191,0 1.084,0 2.014,-0.564 2.515,-1.525 0.961,-1.843 3.262,-5.388 1.489,-7.384 -0.009,-0.01 -0.019,-0.021 -0.027,-0.031 -0.555,-0.625 -1.274,-0.949 -2.111,-0.952 -5.337,-0.019 -10.674,-0.038 -16.011,-0.057 0.006,-0.321 -0.098,-1.3 -0.093,-1.621 l 125.297,-0.122 2.433,-1.987 h 34.868 l 2.403,2.198 74.931,0.056 c 2.903,0.002 4.406,-0.973 5.747,-2.447 z"
   id="path458" />

	</g>
    <g
       id="g460"
       transform="matrix(0.26458333,0,0,0.26458333,-15.624675,-25.258183)">
		<path
   style="clip-rule:evenodd;fill:#7894ae;fill-rule:evenodd"
   d="m 183.906,304.942 201.938,-0.01 c 24.268,-0.001 37.841,-2.195 23.049,15.693 -6.341,0.761 -46.595,3.27 -55.325,4.122 -52.68,5.145 -149.949,0.597 -170.575,0.594 -15.789,-0.003 -27.626,-2.714 -21.576,-12.19 5.915,-9.264 17.024,-8.182 22.489,-8.209 z"
   id="path459" />

	</g>
    <g
       id="g461"
       transform="matrix(0.26458333,0,0,0.26458333,-15.624675,-25.258183)">
		<path
   style="clip-rule:evenodd;fill:#a3b9c6;fill-rule:evenodd"
   d="m 203.17,308.726 115.578,-0.521 c 37.424,-0.169 83.948,2.273 37.026,11.28 -46.718,8.968 -134.872,6.046 -153.426,5.969 -12.397,-0.052 -20.993,-4.456 -26.109,-9.996 -6.291,-6.815 22.016,-6.71 26.931,-6.732 z"
   id="path460" />

	</g>
    <g
       id="g462"
       transform="matrix(0.26458333,0,0,0.26458333,-15.624675,-25.258183)">
		<path
   style="clip-rule:evenodd;fill:#9a2429;fill-rule:evenodd"
   d="m 411.17,320.624 -6.296,9.91 c -1.125,1.771 -2.928,2.762 -5.026,2.762 -71.69,0.013 -140.117,0.439 -211.908,0.439 -2.046,-5.461 -18.063,-8.928 -34.398,-9.732 -0.691,-0.034 -1.275,-0.278 -1.784,-0.748 -0.952,-0.877 -1.942,-1.755 -2.945,-2.632 H 411.17 Z"
   id="path461" />

	</g>
    <g
       id="g463"
       transform="matrix(0.26458333,0,0,0.26458333,-15.624675,-25.258183)">
		<path
   style="clip-rule:evenodd;fill:#c12025;fill-rule:evenodd"
   d="m 160.679,320.624 h 248.214 l -6.913,7.51 c -1.168,1.269 -2.653,1.921 -4.378,1.922 -70.42,0.052 -135.963,2.182 -206.505,2.182 -2.005,-5.462 -11.44,-8.929 -27.445,-9.732 -0.677,-0.034 -1.25,-0.279 -1.748,-0.747 -0.402,-0.377 -0.811,-0.756 -1.225,-1.135 z"
   id="path462" />

	</g>
    <g
       id="g464"
       transform="matrix(0.26458333,0,0,0.26458333,-15.624675,-25.258183)">
		<path
   style="clip-rule:evenodd;fill:#ea1d26;fill-rule:evenodd"
   d="m 182.305,320.624 h 167.012 c -47.924,7.719 -129.238,4.904 -146.968,4.829 -8.29,-0.034 -15.058,-1.862 -20.044,-4.829 z"
   id="path463" />

	</g>
    <g
       id="g465"
       transform="matrix(0.26458333,0,0,0.26458333,-15.624675,-25.258183)">
		<path
   style="clip-rule:evenodd;fill:#9a2429;fill-rule:evenodd"
   d="m 177.655,323.35 -0.037,2.096 -1.089,1.791 c 0.602,0.162 1.186,0.33 1.752,0.503 l 1.264,-2.047 c 0.814,-0.3 2.34,-1.171 3.154,-1.471 -1.896,-0.254 -3.424,-0.834 -5.044,-0.872 z"
   id="path464" />

	</g>
    <g
       id="g466"
       transform="matrix(0.26458333,0,0,0.26458333,-15.624675,-25.258183)">
		<path
   style="clip-rule:evenodd;fill:#9a2429;fill-rule:evenodd"
   d="m 191.088,333.33 13.618,-3.483 c 0.18,-0.046 0.367,0.056 0.413,0.23 v 0 c 0.044,0.173 -0.073,0.353 -0.253,0.4 l -11.159,2.854 z"
   id="path465" />

	</g>
    <g
       id="g467"
       transform="matrix(0.26458333,0,0,0.26458333,-15.624675,-25.258183)">
		<path
   style="clip-rule:evenodd;fill:#ed1c24;fill-rule:evenodd"
   d="m 177.686,323.333 0.888,1.578 -0.732,3.297 -0.985,1.42 3.012,-0.005 -0.105,-0.924 0.892,-3.798 c 0.681,-0.226 1.363,-0.452 2.045,-0.678 -1.672,-0.685 -3.344,-1.093 -5.015,-0.89 z"
   id="path466" />

	</g>
    <g
       id="g468"
       transform="matrix(0.26458333,0,0,0.26458333,-15.624675,-25.258183)">
		<polygon
   style="clip-rule:evenodd;fill:#ed1c24;fill-rule:evenodd"
   points="180.485,330.824 176.341,330.841 176.34,329.631 180.484,329.615 "
   id="polygon467" />

	</g>
    <g
       id="g469"
       transform="matrix(0.26458333,0,0,0.26458333,-15.624675,-25.258183)">
		<path
   style="clip-rule:evenodd;fill:#ed1c24;fill-rule:evenodd"
   d="m 172.76,329.902 32.548,-0.062 c 0.194,0 0.353,0.15 0.353,0.335 v 0 c 0,0.185 -0.158,0.336 -0.352,0.337 l -32.548,0.062 c -0.194,10e-4 -0.353,-0.15 -0.353,-0.335 v 0 c 0,-0.185 0.158,-0.336 0.352,-0.337 z"
   id="path468" />

	</g>
    <g
       id="g470"
       transform="matrix(0.26458333,0,0,0.26458333,-15.624675,-25.258183)">
		<polygon
   style="clip-rule:evenodd;fill:#e5962e;fill-rule:evenodd"
   points="175.724,330.273 173.71,330.273 173.71,329.753 175.724,329.753 "
   id="polygon469" />

	</g>
    <g
       id="g471"
       transform="matrix(0.26458333,0,0,0.26458333,-15.624675,-25.258183)">
		<polygon
   style="clip-rule:evenodd;fill:#c97731;fill-rule:evenodd"
   points="175.724,330.699 173.71,330.699 173.71,330.273 175.724,330.273 "
   id="polygon470" />

	</g>
    <g
       id="g472"
       transform="matrix(0.26458333,0,0,0.26458333,-15.624675,-25.258183)">
		<path
   style="clip-rule:evenodd;fill:#f6b859;fill-rule:evenodd"
   d="m 175.643,330.123 c 0.075,-1.516 -0.214,-2.761 -0.869,-3.316 -0.337,-0.285 -0.845,-0.323 -0.973,0.066 l 0.981,2.05 0.673,1.177 z"
   id="path471" />

	</g>
    <g
       id="g473"
       transform="matrix(0.26458333,0,0,0.26458333,-15.624675,-25.258183)">
		<path
   style="clip-rule:evenodd;fill:#f6b859;fill-rule:evenodd"
   d="m 173.776,330.122 c -0.075,1.516 0.214,2.761 0.869,3.316 0.337,0.285 0.845,0.323 0.973,-0.066 l -0.981,-2.05 -0.673,-1.177 z"
   id="path472" />

	</g>
    <g
       id="g474"
       transform="matrix(0.26458333,0,0,0.26458333,-15.624675,-25.258183)">
		<path
   style="clip-rule:evenodd;fill:#c97731;fill-rule:evenodd"
   d="m 173.801,326.874 c -0.023,0.093 -0.036,0.199 -0.036,0.318 v 2.561 c 0.952,0 1.403,0.072 1.706,0.37 -0.039,-1.1 -0.029,-2.387 -0.843,-3.176 -0.326,-0.316 -0.601,-0.346 -0.827,-0.073 z"
   id="path473" />

	</g>
    <g
       id="g475"
       transform="matrix(0.26458333,0,0,0.26458333,-15.624675,-25.258183)">
		<path
   style="clip-rule:evenodd;fill:#e5962e;fill-rule:evenodd"
   d="m 175.619,333.371 c 0.023,-0.093 0.036,-0.199 0.036,-0.318 v -2.561 c -0.952,0 -1.403,-0.072 -1.706,-0.37 0.039,1.1 0.029,2.387 0.843,3.176 0.326,0.316 0.601,0.346 0.827,0.073 z"
   id="path474" />

	</g>
    <g
       id="g476"
       transform="matrix(0.26458333,0,0,0.26458333,-15.624675,-25.258183)">
		<polygon
   style="clip-rule:evenodd;fill:#9a2429;fill-rule:evenodd"
   points="298.128,331.919 311.377,331.821 314.97,327.887 299.84,329.46 256.092,329.319 237.689,327.373 234.766,332.001 255.475,332.206 "
   id="polygon475" />

	</g>
    <g
       id="g477"
       transform="matrix(0.26458333,0,0,0.26458333,-15.624675,-25.258183)">
		<path
   style="clip-rule:evenodd;fill:#9a2429;fill-rule:evenodd"
   d="m 201.541,328.719 c 9.075,0.198 28.103,-0.053 27.236,1.373 -3.015,4.963 -21.002,3.343 -30.32,3.629 0,-0.992 3.084,-4.01 3.084,-5.002 z"
   id="path476" />

	</g>
    <g
       id="g478"
       transform="matrix(0.26458333,0,0,0.26458333,-15.624675,-25.258183)">
		<path
   style="clip-rule:evenodd;fill:#c12025;fill-rule:evenodd"
   d="m 201.541,328.719 c 9.075,0.198 27.236,-0.181 27.236,1.373 0,1.514 -17.918,1.317 -27.236,1.602 0,-0.991 0,-1.983 0,-2.975 z"
   id="path477" />

	</g>
    <g
       id="g479"
       transform="matrix(0.26458333,0,0,0.26458333,-15.624675,-25.258183)">
		<path
   style="clip-rule:evenodd;fill:#ed1c24;fill-rule:evenodd"
   d="m 201.541,328.719 c 8.76,0.191 25.983,-0.156 27.169,1.218 -6.139,0.592 -19.326,0.538 -27.169,0.75 z"
   id="path478" />

	</g>
    <g
       id="g480"
       transform="matrix(0.26458333,0,0,0.26458333,-15.624675,-25.258183)">
		<polygon
   style="clip-rule:evenodd;fill:#ed1c24;fill-rule:evenodd"
   points="298.343,330.984 309.295,330.097 314.97,327.887 299.84,329.46 256.092,329.319 237.689,327.373 239.505,329.592 255.547,330.984 "
   id="polygon479" />

	</g>
    <g
       id="g481"
       transform="matrix(0.26458333,0,0,0.26458333,-15.624675,-25.258183)">
		<path
   style="fill:#c9d5dc"
   d="m 331.436,316.461 v -7.276 c -0.117,0.139 -0.278,0.247 -0.489,0.323 -0.21,0.077 -0.419,0.115 -0.622,0.115 v -1.014 c 0.289,-0.04 0.563,-0.157 0.822,-0.351 0.261,-0.193 0.459,-0.45 0.595,-0.769 h 1.059 v 8.971 h -1.365 z"
   id="path480" />

	</g>
    <g
       id="g482"
       transform="matrix(0.26458333,0,0,0.26458333,-15.624675,-25.258183)">
		<path
   style="fill:#c9d5dc"
   d="m 334.38,316.461 v -0.53 c 0,-0.468 0.077,-0.929 0.231,-1.382 0.155,-0.454 0.397,-0.969 0.727,-1.546 0.012,-0.021 0.138,-0.233 0.371,-0.636 0.235,-0.405 0.407,-0.683 0.515,-0.836 0.266,-0.435 0.398,-1.037 0.398,-1.807 0,-0.769 -0.163,-1.153 -0.488,-1.153 -0.273,0 -0.44,0.214 -0.504,0.641 -0.028,0.185 -0.042,0.412 -0.042,0.689 v 1.135 h -1.304 v -0.551 c 0,-1.109 0.104,-1.861 0.313,-2.25 0.209,-0.391 0.497,-0.642 0.864,-0.749 0.203,-0.061 0.45,-0.092 0.739,-0.092 0.289,0 0.548,0.064 0.779,0.193 0.224,0.13 0.403,0.309 0.539,0.541 0.266,0.452 0.398,1.04 0.398,1.765 0,0.725 -0.141,1.361 -0.423,1.907 -0.282,0.548 -0.56,1.033 -0.836,1.457 -0.503,0.777 -0.828,1.49 -0.977,2.135 h 2.067 v 1.07 h -3.367 z"
   id="path481" />

	</g>
    <g
       id="g483"
       transform="matrix(0.26458333,0,0,0.26458333,-15.624675,-25.258183)">
		<path
   style="fill:#c9d5dc"
   d="m 341.078,316.466 v -1.584 h -2.21 v -1.003 l 1.97,-6.389 h 1.457 v 6.292 h 0.694 v 1.101 h -0.694 v 1.584 h -1.217 z m -1.156,-2.684 h 1.156 v -4.427 z"
   id="path482" />

	</g>
    <g
       id="g484"
       transform="matrix(0.26458333,0,0,0.26458333,-15.624675,-25.258183)">
		<path
   style="clip-rule:evenodd;fill:#a3b9c6;fill-rule:evenodd"
   d="m 410.332,306.468 c 0.069,-0.052 0.138,-0.102 0.208,-0.149 l 0.528,3.518 c -0.819,0.251 -1.569,0.151 -1.939,-0.335 -0.562,-0.742 -0.025,-2.101 1.203,-3.034 z m 0.321,-0.223 c 1.001,-0.636 2.083,-0.773 2.687,-0.352 l -0.401,1.603 -0.743,0.124 -0.069,0.819 z"
   id="path483" />

	</g>
    <g
       id="g485"
       transform="matrix(0.26458333,0,0,0.26458333,-15.624675,-25.258183)">
		<path
   style="clip-rule:evenodd;fill:#4c6186;fill-rule:evenodd"
   d="m 410.554,306.844 c 0.05,-0.038 0.099,-0.074 0.15,-0.108 l 0.38,2.532 c -0.59,0.181 -1.13,0.108 -1.396,-0.241 -0.405,-0.533 -0.018,-1.511 0.866,-2.183 z m 0.231,-0.161 c 0.72,-0.458 1.499,-0.556 1.934,-0.253 l -0.288,1.154 -0.585,0.679 z"
   id="path484" />

	</g>
    <g
       id="g486"
       transform="matrix(0.26458333,0,0,0.26458333,-15.624675,-25.258183)">
		<polygon
   style="clip-rule:evenodd;fill:#a3b9c6;fill-rule:evenodd"
   points="411.113,310.13 412.723,309.324 410.494,306.009 "
   id="polygon485" />

	</g>
    <g
       id="g487"
       transform="matrix(0.26458333,0,0,0.26458333,-15.624675,-25.258183)">
		<polygon
   style="clip-rule:evenodd;fill:#a3b9c6;fill-rule:evenodd"
   points="411.98,310.192 412.023,309.674 412.723,309.324 412.127,308.439 412.197,307.62 412.94,307.496 413.559,305.017 414.487,309.076 "
   id="polygon486" />

	</g>
    <g
       id="g488"
       transform="matrix(0.26458333,0,0,0.26458333,-15.624675,-25.258183)">
		<polygon
   style="clip-rule:evenodd;fill:#c9d5dc;fill-rule:evenodd"
   points="412.373,309.499 412.723,309.324 410.494,306.009 "
   id="polygon487" />

	</g>
    <g
       id="g489"
       transform="matrix(0.26458333,0,0,0.26458333,-15.624675,-25.258183)">
		<polygon
   style="clip-rule:evenodd;fill:#c9d5dc;fill-rule:evenodd"
   points="414.487,309.076 413.822,309.372 413.559,305.017 "
   id="polygon488" />

	</g>
    <g
       id="g490"
       transform="matrix(0.26458333,0,0,0.26458333,-15.624675,-25.258183)">
		<polygon
   style="clip-rule:evenodd;fill:#7894ae;fill-rule:evenodd"
   points="422.497,297.187 419.657,301.389 419.656,301.373 419.458,301.293 422.541,296.732 "
   id="polygon489" />

	</g>
    <g
       id="g491"
       transform="matrix(0.26458333,0,0,0.26458333,-15.624675,-25.258183)">
		<polygon
   style="clip-rule:evenodd;fill:#7894ae;fill-rule:evenodd"
   points="423.684,289.088 424.008,289.088 424.008,288.291 423.684,288.291 "
   id="polygon490" />

	</g>
    <g
       id="g492"
       transform="matrix(0.26458333,0,0,0.26458333,-15.624675,-25.258183)">
		<polygon
   style="clip-rule:evenodd;fill:#7894ae;fill-rule:evenodd"
   points="424.008,288.801 421.399,288.801 421.399,288.577 424.008,288.577 "
   id="polygon491" />

	</g>
    <g
       id="g493"
       transform="matrix(0.26458333,0,0,0.26458333,-15.624675,-25.258183)">
		<polygon
   style="clip-rule:evenodd;fill:#7894ae;fill-rule:evenodd"
   points="422.541,289.883 422.213,289.883 422.213,289.658 422.541,289.658 "
   id="polygon492" />

	</g>
    <g
       id="g494"
       transform="matrix(0.26458333,0,0,0.26458333,-15.624675,-25.258183)">
		<polygon
   style="clip-rule:evenodd;fill:#7894ae;fill-rule:evenodd"
   points="421.444,289.088 421.768,289.088 421.768,288.291 421.444,288.291 "
   id="polygon493" />

	</g>
    <g
       id="g495"
       transform="matrix(0.26458333,0,0,0.26458333,-15.624675,-25.258183)">
		<polygon
   style="clip-rule:evenodd;fill:#7894ae;fill-rule:evenodd"
   points="422.866,300.767 422.541,300.767 422.541,288.577 422.866,288.577 "
   id="polygon494" />

	</g>
    <g
       id="g496"
       transform="matrix(0.26458333,0,0,0.26458333,-15.624675,-25.258183)">
		<polygon
   style="clip-rule:evenodd;fill:#4c6186;fill-rule:evenodd"
   points="391.542,300.022 388.539,300.022 388.539,297.771 391.542,297.771 "
   id="polygon495" />

	</g>
    <g
       id="g497"
       transform="matrix(0.26458333,0,0,0.26458333,-15.624675,-25.258183)">
		<polygon
   style="clip-rule:evenodd;fill:#7894ae;fill-rule:evenodd"
   points="354.909,297.771 351.853,297.771 351.853,295.613 354.909,295.613 "
   id="polygon496" />

	</g>
    <g
       id="g498"
       transform="matrix(0.26458333,0,0,0.26458333,-15.624675,-25.258183)">
		<polygon
   style="clip-rule:evenodd;fill:#a3b9c6;fill-rule:evenodd"
   points="351.853,296.43 351.853,295.612 354.26,295.612 354.26,296.43 "
   id="polygon497" />

	</g>
    <g
       id="g499"
       transform="matrix(0.26458333,0,0,0.26458333,-15.624675,-25.258183)">
		<polygon
   style="clip-rule:evenodd;fill:#a3b9c6;fill-rule:evenodd"
   points="362.831,298.334 354.909,298.334 354.909,295.049 362.831,295.049 "
   id="polygon498" />

	</g>
    <g
       id="g500"
       transform="matrix(0.26458333,0,0,0.26458333,-15.624675,-25.258183)">
		<polygon
   style="clip-rule:evenodd;fill:#7894ae;fill-rule:evenodd"
   points="354.909,298.334 354.909,296.011 362.831,296.011 362.831,298.334 "
   id="polygon499" />

	</g>
    <g
       id="g501"
       transform="matrix(0.26458333,0,0,0.26458333,-15.624675,-25.258183)">
		<polygon
   style="clip-rule:evenodd;fill:#4c6186;fill-rule:evenodd"
   points="359.641,301.619 357.577,301.619 357.577,298.335 359.641,298.335 "
   id="polygon500" />

	</g>
    <g
       id="g502"
       transform="matrix(0.26458333,0,0,0.26458333,-15.624675,-25.258183)">
		<polygon
   style="clip-rule:evenodd;fill:#7894ae;fill-rule:evenodd"
   points="320.688,294.773 317.632,294.773 317.632,292.615 320.688,292.615 "
   id="polygon501" />

	</g>
    <g
       id="g503"
       transform="matrix(0.26458333,0,0,0.26458333,-15.624675,-25.258183)">
		<polygon
   style="clip-rule:evenodd;fill:#a3b9c6;fill-rule:evenodd"
   points="317.632,293.432 317.632,292.615 320.039,292.615 320.039,293.432 "
   id="polygon502" />

	</g>
    <g
       id="g504"
       transform="matrix(0.26458333,0,0,0.26458333,-15.624675,-25.258183)">
		<polygon
   style="clip-rule:evenodd;fill:#a3b9c6;fill-rule:evenodd"
   points="328.61,295.336 320.688,295.336 320.688,292.052 328.61,292.052 "
   id="polygon503" />

	</g>
    <g
       id="g505"
       transform="matrix(0.26458333,0,0,0.26458333,-15.624675,-25.258183)">
		<polygon
   style="clip-rule:evenodd;fill:#7894ae;fill-rule:evenodd"
   points="320.688,295.336 320.688,293.014 328.61,293.014 328.61,295.336 "
   id="polygon504" />

	</g>
    <g
       id="g506"
       transform="matrix(0.26458333,0,0,0.26458333,-15.624675,-25.258183)">
		<polygon
   style="clip-rule:evenodd;fill:#4c6186;fill-rule:evenodd"
   points="325.419,298.621 323.356,298.621 323.356,295.337 325.419,295.337 "
   id="polygon505" />

	</g>
    <g
       id="g507"
       transform="matrix(0.26458333,0,0,0.26458333,-15.624675,-25.258183)">
		<path
   style="clip-rule:evenodd;fill:#4c6186;fill-rule:evenodd"
   d="m 188.404,305.714 c 0.317,0 0.573,0.257 0.573,0.573 0,0.317 -0.257,0.573 -0.573,0.573 -0.317,0 -0.573,-0.257 -0.573,-0.573 0,-0.316 0.256,-0.573 0.573,-0.573 z"
   id="path506" />

	</g>
    <g
       id="g508"
       transform="matrix(0.26458333,0,0,0.26458333,-15.624675,-25.258183)">
		<path
   style="clip-rule:evenodd;fill:#4c6186;fill-rule:evenodd"
   d="m 198.946,305.714 c 0.317,0 0.573,0.257 0.573,0.573 0,0.317 -0.257,0.573 -0.573,0.573 -0.317,0 -0.573,-0.257 -0.573,-0.573 0,-0.316 0.256,-0.573 0.573,-0.573 z"
   id="path507" />

	</g>
    <g
       id="g509"
       transform="matrix(0.26458333,0,0,0.26458333,-15.624675,-25.258183)">
		<path
   style="clip-rule:evenodd;fill:#4c6186;fill-rule:evenodd"
   d="m 283.466,305.714 c 0.317,0 0.573,0.257 0.573,0.573 0,0.317 -0.256,0.573 -0.573,0.573 -0.317,0 -0.573,-0.257 -0.573,-0.573 0,-0.316 0.257,-0.573 0.573,-0.573 z"
   id="path508" />

	</g>
    <g
       id="g510"
       transform="matrix(0.26458333,0,0,0.26458333,-15.624675,-25.258183)">
		<path
   style="clip-rule:evenodd;fill:#4c6186;fill-rule:evenodd"
   d="m 190.601,305.714 c 0.317,0 0.573,0.257 0.573,0.573 0,0.317 -0.257,0.573 -0.573,0.573 -0.317,0 -0.573,-0.257 -0.573,-0.573 0,-0.316 0.256,-0.573 0.573,-0.573 z"
   id="path509" />

	</g>
    <g
       id="g511"
       transform="matrix(0.26458333,0,0,0.26458333,-15.624675,-25.258183)">
		<path
   style="clip-rule:evenodd;fill:#4c6186;fill-rule:evenodd"
   d="m 201.143,305.714 c 0.317,0 0.573,0.257 0.573,0.573 0,0.317 -0.257,0.573 -0.573,0.573 -0.316,0 -0.573,-0.257 -0.573,-0.573 0,-0.316 0.256,-0.573 0.573,-0.573 z"
   id="path510" />

	</g>
    <g
       id="g512"
       transform="matrix(0.26458333,0,0,0.26458333,-15.624675,-25.258183)">
		<path
   style="clip-rule:evenodd;fill:#4c6186;fill-rule:evenodd"
   d="m 285.664,305.714 c 0.317,0 0.573,0.257 0.573,0.573 0,0.317 -0.257,0.573 -0.573,0.573 -0.316,0 -0.573,-0.257 -0.573,-0.573 -0.001,-0.316 0.256,-0.573 0.573,-0.573 z"
   id="path511" />

	</g>
    <g
       id="g513"
       transform="matrix(0.26458333,0,0,0.26458333,-15.624675,-25.258183)">
		<path
   style="clip-rule:evenodd;fill:#4c6186;fill-rule:evenodd"
   d="m 182.884,305.714 c 0.317,0 0.573,0.257 0.573,0.573 0,0.317 -0.257,0.573 -0.573,0.573 -0.317,0 -0.573,-0.257 -0.573,-0.573 0,-0.316 0.257,-0.573 0.573,-0.573 z"
   id="path512" />

	</g>
    <g
       id="g514"
       transform="matrix(0.26458333,0,0,0.26458333,-15.624675,-25.258183)">
		<path
   style="clip-rule:evenodd;fill:#4c6186;fill-rule:evenodd"
   d="m 177.365,305.714 c 0.317,0 0.573,0.257 0.573,0.573 0,0.317 -0.257,0.573 -0.573,0.573 -0.317,0 -0.573,-0.257 -0.573,-0.573 -0.001,-0.316 0.256,-0.573 0.573,-0.573 z"
   id="path513" />

	</g>
    <g
       id="g515"
       transform="matrix(0.26458333,0,0,0.26458333,-15.624675,-25.258183)">
		<path
   style="clip-rule:evenodd;fill:#4c6186;fill-rule:evenodd"
   d="m 185.081,305.714 c 0.317,0 0.573,0.257 0.573,0.573 0,0.317 -0.257,0.573 -0.573,0.573 -0.317,0 -0.573,-0.257 -0.573,-0.573 0,-0.316 0.257,-0.573 0.573,-0.573 z"
   id="path514" />

	</g>
    <g
       id="g516"
       transform="matrix(0.26458333,0,0,0.26458333,-15.624675,-25.258183)">
		<path
   style="clip-rule:evenodd;fill:#4c6186;fill-rule:evenodd"
   d="m 179.562,305.714 c 0.317,0 0.573,0.257 0.573,0.573 0,0.317 -0.257,0.573 -0.573,0.573 -0.316,0 -0.573,-0.257 -0.573,-0.573 0,-0.316 0.256,-0.573 0.573,-0.573 z"
   id="path515" />

	</g>
    <g
       id="g517"
       transform="matrix(0.26458333,0,0,0.26458333,-15.624675,-25.258183)">
		<path
   style="clip-rule:evenodd;fill:#4c6186;fill-rule:evenodd"
   d="m 205.383,305.714 c 0.317,0 0.573,0.257 0.573,0.573 0,0.317 -0.257,0.573 -0.573,0.573 -0.316,0 -0.573,-0.257 -0.573,-0.573 0,-0.316 0.256,-0.573 0.573,-0.573 z"
   id="path516" />

	</g>
    <g
       id="g518"
       transform="matrix(0.26458333,0,0,0.26458333,-15.624675,-25.258183)">
		<path
   style="clip-rule:evenodd;fill:#4c6186;fill-rule:evenodd"
   d="m 289.903,305.714 c 0.317,0 0.573,0.257 0.573,0.573 0,0.317 -0.257,0.573 -0.573,0.573 -0.317,0 -0.573,-0.257 -0.573,-0.573 0,-0.316 0.257,-0.573 0.573,-0.573 z"
   id="path517" />

	</g>
    <g
       id="g519"
       transform="matrix(0.26458333,0,0,0.26458333,-15.624675,-25.258183)">
		<path
   style="clip-rule:evenodd;fill:#4c6186;fill-rule:evenodd"
   d="m 211.82,305.714 c 0.317,0 0.573,0.257 0.573,0.573 0,0.317 -0.257,0.573 -0.573,0.573 -0.317,0 -0.573,-0.257 -0.573,-0.573 0,-0.316 0.256,-0.573 0.573,-0.573 z"
   id="path518" />

	</g>
    <g
       id="g520"
       transform="matrix(0.26458333,0,0,0.26458333,-15.624675,-25.258183)">
		<path
   style="clip-rule:evenodd;fill:#4c6186;fill-rule:evenodd"
   d="m 296.34,305.714 c 0.317,0 0.573,0.257 0.573,0.573 0,0.317 -0.256,0.573 -0.573,0.573 -0.317,0 -0.573,-0.257 -0.573,-0.573 0,-0.316 0.257,-0.573 0.573,-0.573 z"
   id="path519" />

	</g>
    <g
       id="g521"
       transform="matrix(0.26458333,0,0,0.26458333,-15.624675,-25.258183)">
		<path
   style="clip-rule:evenodd;fill:#4c6186;fill-rule:evenodd"
   d="m 218.257,305.714 c 0.317,0 0.573,0.257 0.573,0.573 0,0.317 -0.257,0.573 -0.573,0.573 -0.317,0 -0.573,-0.257 -0.573,-0.573 -0.001,-0.316 0.256,-0.573 0.573,-0.573 z"
   id="path520" />

	</g>
    <g
       id="g522"
       transform="matrix(0.26458333,0,0,0.26458333,-15.624675,-25.258183)">
		<path
   style="clip-rule:evenodd;fill:#4c6186;fill-rule:evenodd"
   d="m 302.777,305.714 c 0.317,0 0.573,0.257 0.573,0.573 0,0.317 -0.257,0.573 -0.573,0.573 -0.317,0 -0.573,-0.257 -0.573,-0.573 0,-0.316 0.257,-0.573 0.573,-0.573 z"
   id="path521" />

	</g>
    <g
       id="g523"
       transform="matrix(0.26458333,0,0,0.26458333,-15.624675,-25.258183)">
		<path
   style="clip-rule:evenodd;fill:#4c6186;fill-rule:evenodd"
   d="m 228.036,305.714 c 0.317,0 0.573,0.257 0.573,0.573 0,0.317 -0.257,0.573 -0.573,0.573 -0.316,0 -0.573,-0.257 -0.573,-0.573 -0.001,-0.316 0.256,-0.573 0.573,-0.573 z"
   id="path522" />

	</g>
    <g
       id="g524"
       transform="matrix(0.26458333,0,0,0.26458333,-15.624675,-25.258183)">
		<path
   style="clip-rule:evenodd;fill:#4c6186;fill-rule:evenodd"
   d="m 312.556,305.714 c 0.317,0 0.573,0.257 0.573,0.573 0,0.317 -0.257,0.573 -0.573,0.573 -0.317,0 -0.573,-0.257 -0.573,-0.573 0,-0.316 0.257,-0.573 0.573,-0.573 z"
   id="path523" />

	</g>
    <g
       id="g525"
       transform="matrix(0.26458333,0,0,0.26458333,-15.624675,-25.258183)">
		<path
   style="clip-rule:evenodd;fill:#4c6186;fill-rule:evenodd"
   d="m 234.72,305.714 c 0.317,0 0.573,0.257 0.573,0.573 0,0.317 -0.257,0.573 -0.573,0.573 -0.317,0 -0.573,-0.257 -0.573,-0.573 -0.001,-0.316 0.256,-0.573 0.573,-0.573 z"
   id="path524" />

	</g>
    <g
       id="g526"
       transform="matrix(0.26458333,0,0,0.26458333,-15.624675,-25.258183)">
		<path
   style="clip-rule:evenodd;fill:#4c6186;fill-rule:evenodd"
   d="m 319.24,305.714 c 0.317,0 0.573,0.257 0.573,0.573 0,0.317 -0.257,0.573 -0.573,0.573 -0.317,0 -0.573,-0.257 -0.573,-0.573 0,-0.316 0.257,-0.573 0.573,-0.573 z"
   id="path525" />

	</g>
    <g
       id="g527"
       transform="matrix(0.26458333,0,0,0.26458333,-15.624675,-25.258183)">
		<path
   style="clip-rule:evenodd;fill:#4c6186;fill-rule:evenodd"
   d="m 207.58,305.714 c 0.317,0 0.573,0.257 0.573,0.573 0,0.317 -0.257,0.573 -0.573,0.573 -0.317,0 -0.573,-0.257 -0.573,-0.573 0,-0.316 0.256,-0.573 0.573,-0.573 z"
   id="path526" />

	</g>
    <g
       id="g528"
       transform="matrix(0.26458333,0,0,0.26458333,-15.624675,-25.258183)">
		<path
   style="clip-rule:evenodd;fill:#4c6186;fill-rule:evenodd"
   d="m 292.101,305.714 c 0.317,0 0.573,0.257 0.573,0.573 0,0.317 -0.257,0.573 -0.573,0.573 -0.317,0 -0.573,-0.257 -0.573,-0.573 -0.001,-0.316 0.256,-0.573 0.573,-0.573 z"
   id="path527" />

	</g>
    <g
       id="g529"
       transform="matrix(0.26458333,0,0,0.26458333,-15.624675,-25.258183)">
		<path
   style="clip-rule:evenodd;fill:#4c6186;fill-rule:evenodd"
   d="m 214.017,305.714 c 0.317,0 0.573,0.257 0.573,0.573 0,0.317 -0.257,0.573 -0.573,0.573 -0.317,0 -0.573,-0.257 -0.573,-0.573 0,-0.316 0.256,-0.573 0.573,-0.573 z"
   id="path528" />

	</g>
    <g
       id="g530"
       transform="matrix(0.26458333,0,0,0.26458333,-15.624675,-25.258183)">
		<path
   style="clip-rule:evenodd;fill:#4c6186;fill-rule:evenodd"
   d="m 298.537,305.714 c 0.317,0 0.573,0.257 0.573,0.573 0,0.317 -0.256,0.573 -0.573,0.573 -0.317,0 -0.573,-0.257 -0.573,-0.573 0,-0.316 0.257,-0.573 0.573,-0.573 z"
   id="path529" />

	</g>
    <g
       id="g531"
       transform="matrix(0.26458333,0,0,0.26458333,-15.624675,-25.258183)">
		<path
   style="clip-rule:evenodd;fill:#4c6186;fill-rule:evenodd"
   d="m 220.454,305.714 c 0.317,0 0.573,0.257 0.573,0.573 0,0.317 -0.257,0.573 -0.573,0.573 -0.317,0 -0.573,-0.257 -0.573,-0.573 0,-0.316 0.256,-0.573 0.573,-0.573 z"
   id="path530" />

	</g>
    <g
       id="g532"
       transform="matrix(0.26458333,0,0,0.26458333,-15.624675,-25.258183)">
		<path
   style="clip-rule:evenodd;fill:#4c6186;fill-rule:evenodd"
   d="m 304.974,305.714 c 0.317,0 0.573,0.257 0.573,0.573 0,0.317 -0.257,0.573 -0.573,0.573 -0.316,0 -0.573,-0.257 -0.573,-0.573 0,-0.316 0.257,-0.573 0.573,-0.573 z"
   id="path531" />

	</g>
    <g
       id="g533"
       transform="matrix(0.26458333,0,0,0.26458333,-15.624675,-25.258183)">
		<path
   style="clip-rule:evenodd;fill:#4c6186;fill-rule:evenodd"
   d="m 230.233,305.714 c 0.317,0 0.573,0.257 0.573,0.573 0,0.317 -0.257,0.573 -0.573,0.573 -0.316,0 -0.573,-0.257 -0.573,-0.573 0,-0.316 0.256,-0.573 0.573,-0.573 z"
   id="path532" />

	</g>
    <g
       id="g534"
       transform="matrix(0.26458333,0,0,0.26458333,-15.624675,-25.258183)">
		<path
   style="clip-rule:evenodd;fill:#4c6186;fill-rule:evenodd"
   d="m 314.753,305.714 c 0.317,0 0.573,0.257 0.573,0.573 0,0.317 -0.257,0.573 -0.573,0.573 -0.317,0 -0.573,-0.257 -0.573,-0.573 0,-0.316 0.257,-0.573 0.573,-0.573 z"
   id="path533" />

	</g>
    <g
       id="g535"
       transform="matrix(0.26458333,0,0,0.26458333,-15.624675,-25.258183)">
		<path
   style="clip-rule:evenodd;fill:#4c6186;fill-rule:evenodd"
   d="m 236.917,305.714 c 0.317,0 0.573,0.257 0.573,0.573 0,0.317 -0.257,0.573 -0.573,0.573 -0.316,0 -0.573,-0.257 -0.573,-0.573 0,-0.316 0.256,-0.573 0.573,-0.573 z"
   id="path534" />

	</g>
    <g
       id="g536"
       transform="matrix(0.26458333,0,0,0.26458333,-15.624675,-25.258183)">
		<path
   style="clip-rule:evenodd;fill:#4c6186;fill-rule:evenodd"
   d="m 321.437,305.714 c 0.317,0 0.573,0.257 0.573,0.573 0,0.317 -0.256,0.573 -0.573,0.573 -0.317,0 -0.573,-0.257 -0.573,-0.573 0,-0.316 0.257,-0.573 0.573,-0.573 z"
   id="path535" />

	</g>
    <g
       id="g537"
       transform="matrix(0.26458333,0,0,0.26458333,-15.624675,-25.258183)">
		<polygon
   style="clip-rule:evenodd;fill:#4c6186;fill-rule:evenodd"
   points="292.713,295.306 265.024,295.306 264.92,294.535 312.209,294.535 312.209,296.484 292.713,296.484 "
   id="polygon536" />

	</g>
    <g
       id="g538"
       transform="matrix(0.26458333,0,0,0.26458333,-15.624675,-25.258183)">
		<polygon
   style="clip-rule:evenodd;fill:#4c6186;fill-rule:evenodd"
   points="296.422,284.539 266.185,284.539 266.185,283.364 296.422,283.364 "
   id="polygon537" />

	</g>
    <g
       id="g539"
       transform="matrix(0.26458333,0,0,0.26458333,-15.624675,-25.258183)">
		<polygon
   style="clip-rule:evenodd;fill:#4c6186;fill-rule:evenodd"
   points="273.375,287.391 264.72,287.391 266.438,284.044 275.093,284.044 "
   id="polygon538" />

	</g>
    <g
       id="g540"
       transform="matrix(0.26458333,0,0,0.26458333,-15.624675,-25.258183)">
		<polygon
   style="clip-rule:evenodd;fill:#a3b9c6;fill-rule:evenodd"
   points="313.727,294.537 272.945,294.537 272.945,294.101 313.727,294.101 "
   id="polygon539" />

	</g>
    <g
       id="g541"
       transform="matrix(0.26458333,0,0,0.26458333,-15.624675,-25.258183)">
		<polygon
   style="clip-rule:evenodd;fill:#c9d5dc;fill-rule:evenodd"
   points="279.071,271.92 262.583,271.92 262.583,271.485 279.071,271.485 "
   id="polygon540" />

	</g>
    <g
       id="g542"
       transform="matrix(0.26458333,0,0,0.26458333,-15.624675,-25.258183)">
		<polygon
   style="clip-rule:evenodd;fill:#c9d5dc;fill-rule:evenodd"
   points="296.332,277.923 283.1,277.923 283.1,277.488 296.332,277.488 "
   id="polygon541" />

	</g>
    <g
       id="g543"
       transform="matrix(0.26458333,0,0,0.26458333,-15.624675,-25.258183)">
		<polygon
   style="clip-rule:evenodd;fill:#4c6186;fill-rule:evenodd"
   points="265.725,294.658 274.38,294.658 272.663,298.006 265.116,298.006 265.082,295.911 "
   id="polygon542" />

	</g>
    <g
       id="g544"
       transform="matrix(0.26458333,0,0,0.26458333,-15.624675,-25.258183)">
		<path
   style="fill:#231f20"
   d="m 283.372,283.022 h -0.319 v -0.018 h -13.83 v 0.018 h -0.318 v -0.018 h -2.664 v -1.9 h 0.318 v 0.037 h 2.322 v -0.037 h 0.317 v 0.018 h 0.024 v 0.02 h 2.535 v -0.037 h 0.319 v 0.037 h 2.559 v -0.037 h 0.318 v 0.037 h 2.559 v -0.037 h 0.317 v 0.037 h 2.56 v -0.037 h 0.318 v 0.037 h 2.345 v -0.02 h 0.319 v 1.9 z m -2.664,-0.234 h 2.345 v -0.229 h -2.345 z m -2.878,0 h 2.56 v -0.229 h -2.56 z m -2.876,0 h 2.559 v -0.229 h -2.559 z m -2.877,0 h 2.559 v -0.229 h -2.559 z m -2.854,0 h 2.535 v -0.229 h -2.535 z m -2.664,0 h 2.322 v -0.229 h -2.322 z m 14.149,-0.446 h 2.345 v -0.395 h -2.345 z m -2.878,0 h 2.56 v -0.395 h -2.56 z m -2.876,0 h 2.559 v -0.395 h -2.559 z m -2.877,0 h 2.559 v -0.395 h -2.559 z m -2.854,0 h 2.535 v -0.395 h -2.535 z m -2.664,0 h 2.322 v -0.395 h -2.322 z m 14.149,-0.612 h 2.345 v -0.372 h -2.345 z m -2.878,0 h 2.56 v -0.372 h -2.56 z m -2.876,0 h 2.559 v -0.372 h -2.559 z m -2.877,0 h 2.559 v -0.372 h -2.559 z m -2.854,0 h 2.535 v -0.372 h -2.535 z m -2.664,0 h 2.322 v -0.372 h -2.322 z"
   id="path543" />

	</g>
    <g
       id="g545"
       transform="matrix(0.26458333,0,0,0.26458333,-15.624675,-25.258183)">
		<polygon
   style="clip-rule:evenodd;fill:#a3b9c6;fill-rule:evenodd"
   points="297.749,283.366 266.185,283.366 266.185,282.931 297.749,282.931 "
   id="polygon544" />

	</g>
    <g
       id="g546"
       transform="matrix(0.26458333,0,0,0.26458333,-15.624675,-25.258183)">
		<path
   style="fill:#231f20"
   d="m 313.654,294.181 h -0.319 v -0.017 h -40.503 v -1.9 h 0.319 v 0.036 h 2.589 v -0.037 h 0.319 v 0.037 h 2.589 v -0.037 h 0.32 v 0.037 h 2.589 v -0.037 h 0.319 v 0.037 h 2.589 v -0.037 h 0.319 v 0.037 h 2.589 v -0.037 h 0.319 v 0.037 h 2.589 v -0.037 h 0.319 v 0.037 h 2.59 v -0.037 h 0.319 v 0.037 h 2.589 v -0.037 h 0.319 v 0.037 h 2.589 v -0.037 h 0.319 v 0.037 h 2.59 v -0.037 h 0.319 v 0.037 h 2.589 v -0.037 h 0.319 v 0.037 h 2.589 v -0.037 h 0.319 v 0.037 h 2.589 v -0.036 h 0.319 v 0.036 h 2.374 v -0.02 h 0.319 v 1.901 z m -2.693,-0.234 h 2.374 v -0.23 h -2.374 z m -2.908,0 h 2.589 v -0.23 h -2.589 z m -2.908,0 h 2.589 v -0.23 h -2.589 z m -2.909,0 h 2.589 v -0.23 h -2.589 z m -2.909,0 h 2.59 v -0.23 h -2.59 z m -2.908,0 h 2.589 v -0.23 h -2.589 z m -2.908,0 h 2.589 v -0.23 h -2.589 z m -2.909,0 h 2.59 v -0.23 h -2.59 z m -2.909,0 h 2.589 v -0.23 h -2.589 z m -2.908,0 h 2.589 v -0.23 h -2.589 z m -2.908,0 h 2.589 v -0.23 h -2.589 z m -2.908,0 h 2.589 v -0.23 h -2.589 z m -2.909,0 h 2.589 v -0.23 h -2.589 z m -2.909,0 h 2.589 v -0.23 h -2.589 z m 37.81,-0.447 h 2.374 v -0.395 h -2.374 z m -2.908,0 h 2.589 v -0.395 h -2.589 z m -2.908,0 h 2.589 v -0.395 h -2.589 z m -2.909,0 h 2.589 v -0.395 h -2.589 z m -2.909,0 h 2.59 v -0.395 h -2.59 z m -2.908,0 h 2.589 v -0.395 h -2.589 z m -2.908,0 h 2.589 v -0.395 h -2.589 z m -2.909,0 h 2.59 v -0.395 h -2.59 z m -2.909,0 h 2.589 v -0.395 h -2.589 z m -2.908,0 h 2.589 v -0.395 h -2.589 z m -2.908,0 h 2.589 v -0.395 h -2.589 z m -2.908,0 h 2.589 v -0.395 h -2.589 z m -2.909,0 h 2.589 v -0.395 h -2.589 z m -2.909,0 h 2.589 v -0.395 h -2.589 z m 37.81,-0.611 h 2.374 v -0.372 h -2.374 z m -2.908,0 h 2.589 v -0.372 h -2.589 z m -2.908,0 h 2.589 v -0.372 h -2.589 z m -2.909,0 h 2.589 v -0.372 h -2.589 z m -2.909,0 h 2.59 v -0.372 h -2.59 z m -2.908,0 h 2.589 v -0.372 h -2.589 z m -2.908,0 h 2.589 v -0.372 h -2.589 z m -2.909,0 h 2.59 v -0.372 h -2.59 z m -2.909,0 h 2.589 v -0.372 h -2.589 z m -2.908,0 h 2.589 v -0.372 h -2.589 z m -2.908,0 h 2.589 v -0.372 h -2.589 z m -2.908,0 h 2.589 v -0.372 h -2.589 z m -2.909,0 h 2.589 v -0.372 h -2.589 z m -2.909,0 h 2.589 v -0.372 h -2.589 z m 13.001,-9.867 h -0.318 v -0.018 h -2.663 v -1.9 h 0.318 v 0.037 h 2.321 v -0.037 h 0.318 v 0.018 h 0.023 l 10e-4,0.02 h 2.535 v -0.037 h 0.318 v 0.037 h 2.559 v -0.037 h 0.318 v 0.037 h 2.559 v -0.037 h 0.317 v 0.037 h 2.561 v -0.037 h 0.317 l -0.006,1.9 h -11.479 v 0.017 z m 8.608,-0.234 h 2.561 v -0.229 h -2.561 z m -2.876,0 h 2.559 v -0.229 h -2.559 z m -2.877,0 h 2.559 v -0.229 h -2.559 z m -2.854,0 h 2.535 v -0.229 h -2.536 z m -2.664,0 h 2.321 v -0.229 h -2.321 z m 11.271,-0.446 h 2.561 v -0.395 h -2.561 z m -2.876,0 h 2.559 v -0.395 h -2.559 z m -2.877,0 h 2.559 v -0.395 h -2.559 z m -2.854,0 h 2.535 v -0.395 h -2.536 z m -2.664,0 h 2.321 v -0.395 h -2.321 z m 11.271,-0.612 h 2.561 v -0.372 h -2.561 z m -2.876,0 h 2.559 v -0.372 h -2.559 z m -2.877,0 h 2.559 v -0.372 h -2.559 z m -2.854,0 h 2.535 v -0.372 h -2.536 z m -2.664,0 h 2.321 v -0.372 h -2.321 z"
   id="path545" />

	</g>
    <g
       id="g547"
       transform="matrix(0.26458333,0,0,0.26458333,-15.624675,-25.258183)">
		<polygon
   style="clip-rule:evenodd;fill:#7894ae;fill-rule:evenodd"
   points="311.994,280.531 310.937,280.531 310.937,288.317 311.994,288.317 "
   id="polygon546" />

	</g>
    <g
       id="g548"
       transform="matrix(0.26458333,0,0,0.26458333,-15.624675,-25.258183)">
		<polygon
   style="clip-rule:evenodd;fill:#a3b9c6;fill-rule:evenodd"
   points="313.967,283.499 314.925,284.038 315.883,284.578 314.925,285.118 313.967,285.657 313.967,284.578 "
   id="polygon547" />

	</g>
    <g
       id="g549"
       transform="matrix(0.26458333,0,0,0.26458333,-15.624675,-25.258183)">
		<polygon
   style="clip-rule:evenodd;fill:#4c6186;fill-rule:evenodd"
   points="313.966,282.164 312.716,283.371 311.466,284.578 312.716,285.785 313.966,286.992 313.966,284.578 "
   id="polygon548" />

	</g>
    <g
       id="g550"
       transform="matrix(0.26458333,0,0,0.26458333,-15.624675,-25.258183)">
		<polygon
   style="clip-rule:evenodd;fill:#7894ae;fill-rule:evenodd"
   points="313.966,285.759 313.966,284.578 313.966,282.164 312.716,283.371 311.805,284.25 "
   id="polygon549" />

	</g>
    <g
       id="g551"
       transform="matrix(0.26458333,0,0,0.26458333,-15.624675,-25.258183)">
		<polygon
   style="clip-rule:evenodd;fill:#7894ae;fill-rule:evenodd"
   points="313.436,281.011 308.919,281.011 308.919,280.146 313.436,280.146 "
   id="polygon550" />

	</g>
    <g
       id="g552"
       transform="matrix(0.26458333,0,0,0.26458333,-15.624675,-25.258183)">
		<polygon
   style="clip-rule:evenodd;fill:#4c6186;fill-rule:evenodd"
   points="269.104,292.704 267.503,292.704 267.503,288.894 269.104,288.894 "
   id="polygon551" />

	</g>
    <g
       id="g553"
       transform="matrix(0.26458333,0,0,0.26458333,-15.624675,-25.258183)">
		<polygon
   style="clip-rule:evenodd;fill:#a3b9c6;fill-rule:evenodd"
   points="273.124,294.101 263.826,294.101 263.826,291.306 273.124,291.306 "
   id="polygon552" />

	</g>
    <g
       id="g554"
       transform="matrix(0.26458333,0,0,0.26458333,-15.624675,-25.258183)">
		<polygon
   style="clip-rule:evenodd;fill:#7894ae;fill-rule:evenodd"
   points="272.867,294.535 263.826,294.535 263.826,292.019 272.867,292.019 "
   id="polygon553" />

	</g>
    <g
       id="g555"
       transform="matrix(0.26458333,0,0,0.26458333,-15.624675,-25.258183)">
		<polygon
   style="clip-rule:evenodd;fill:#4c6186;fill-rule:evenodd"
   points="263.828,294.535 264.913,294.535 264.913,291.306 263.828,291.306 "
   id="polygon554" />

	</g>
    <g
       id="g556"
       transform="matrix(0.26458333,0,0,0.26458333,-15.624675,-25.258183)">
		<polygon
   style="clip-rule:evenodd;fill:#a3b9c6;fill-rule:evenodd"
   points="276.055,298.553 273.361,298.553 273.361,298.288 276.055,298.288 "
   id="polygon555" />

	</g>
    <g
       id="g557"
       transform="matrix(0.26458333,0,0,0.26458333,-15.624675,-25.258183)">
		<path
   style="clip-rule:evenodd;fill:#c9d5dc;fill-rule:evenodd"
   d="m 277.587,297.601 h -0.88 c -0.61,0 -1.109,0.499 -1.109,1.109 v 1.289 c 0,0.148 0.03,0.289 0.083,0.418 h 2.932 c 0.053,-0.129 0.083,-0.27 0.083,-0.418 v -1.289 c 0,-0.61 -0.499,-1.109 -1.109,-1.109 z"
   id="path556" />

	</g>
    <g
       id="g558"
       transform="matrix(0.26458333,0,0,0.26458333,-15.624675,-25.258183)">
		<path
   style="clip-rule:evenodd;fill:#a3b9c6;fill-rule:evenodd"
   d="m 275.747,298.156 c -0.095,0.163 -0.15,0.353 -0.15,0.554 v 1.289 c 0,0.148 0.03,0.289 0.083,0.418 h 2.467 v -1.231 c 0,-0.61 -0.499,-1.109 -1.109,-1.109 h -0.88 c -0.145,-10e-4 -0.283,0.027 -0.411,0.079 z"
   id="path557" />

	</g>
    <g
       id="g559"
       transform="matrix(0.26458333,0,0,0.26458333,-15.624675,-25.258183)">
		<polygon
   style="clip-rule:evenodd;fill:#a3b9c6;fill-rule:evenodd"
   points="279.303,300.388 274.951,300.388 275.444,299.121 278.845,299.121 "
   id="polygon558" />

	</g>
    <g
       id="g560"
       transform="matrix(0.26458333,0,0,0.26458333,-15.624675,-25.258183)">
		<polygon
   style="clip-rule:evenodd;fill:#7894ae;fill-rule:evenodd"
   points="275.419,300.27 275.17,300.27 275.556,299.294 275.805,299.294 "
   id="polygon559" />

	</g>
    <g
       id="g561"
       transform="matrix(0.26458333,0,0,0.26458333,-15.624675,-25.258183)">
		<path
   style="clip-rule:evenodd;fill:#7894ae;fill-rule:evenodd"
   d="m 276.132,299.294 c 0.083,0 0.166,0 0.249,0 -0.078,0.326 -0.156,0.651 -0.234,0.977 -0.083,0 -0.166,0 -0.249,0 0.079,-0.326 0.157,-0.651 0.234,-0.977 z"
   id="path560" />

	</g>
    <g
       id="g562"
       transform="matrix(0.26458333,0,0,0.26458333,-15.624675,-25.258183)">
		<path
   style="clip-rule:evenodd;fill:#7894ae;fill-rule:evenodd"
   d="m 276.708,299.294 c 0.083,0 0.166,0 0.249,0 -0.027,0.326 -0.054,0.651 -0.081,0.977 -0.083,0 -0.166,0 -0.249,0 0.027,-0.326 0.054,-0.651 0.081,-0.977 z"
   id="path561" />

	</g>
    <g
       id="g563"
       transform="matrix(0.26458333,0,0,0.26458333,-15.624675,-25.258183)">
		<path
   style="clip-rule:evenodd;fill:#7894ae;fill-rule:evenodd"
   d="m 277.284,299.294 c 0.083,0 0.166,0 0.249,0 0.023,0.326 0.048,0.651 0.071,0.977 -0.083,0 -0.166,0 -0.249,0 -0.024,-0.326 -0.048,-0.651 -0.071,-0.977 z"
   id="path562" />

	</g>
    <g
       id="g564"
       transform="matrix(0.26458333,0,0,0.26458333,-15.624675,-25.258183)">
		<path
   style="clip-rule:evenodd;fill:#7894ae;fill-rule:evenodd"
   d="m 277.859,299.294 c 0.083,0 0.166,0 0.249,0 0.075,0.326 0.149,0.651 0.224,0.977 -0.083,0 -0.166,0 -0.249,0 -0.075,-0.326 -0.149,-0.651 -0.224,-0.977 z"
   id="path563" />

	</g>
    <g
       id="g565"
       transform="matrix(0.26458333,0,0,0.26458333,-15.624675,-25.258183)">
		<polygon
   style="clip-rule:evenodd;fill:#7894ae;fill-rule:evenodd"
   points="279.06,300.27 278.811,300.27 278.434,299.294 278.683,299.294 "
   id="polygon564" />

	</g>
    <g
       id="g566"
       transform="matrix(0.26458333,0,0,0.26458333,-15.624675,-25.258183)">
		<polygon
   style="clip-rule:evenodd;fill:#a3b9c6;fill-rule:evenodd"
   points="281.782,291.603 278.625,291.603 278.625,289.12 281.782,289.12 "
   id="polygon565" />

	</g>
    <g
       id="g567"
       transform="matrix(0.26458333,0,0,0.26458333,-15.624675,-25.258183)">
		<polygon
   style="clip-rule:evenodd;fill:#4c6186;fill-rule:evenodd"
   points="281.979,291.38 278.823,291.38 278.823,288.898 281.979,288.898 "
   id="polygon566" />

	</g>
    <g
       id="g568"
       transform="matrix(0.26458333,0,0,0.26458333,-15.624675,-25.258183)">
		<polygon
   style="clip-rule:evenodd;fill:#a3b9c6;fill-rule:evenodd"
   points="285.736,291.603 282.579,291.603 282.579,289.12 285.736,289.12 "
   id="polygon567" />

	</g>
    <g
       id="g569"
       transform="matrix(0.26458333,0,0,0.26458333,-15.624675,-25.258183)">
		<polygon
   style="clip-rule:evenodd;fill:#4c6186;fill-rule:evenodd"
   points="285.933,291.38 282.777,291.38 282.777,288.898 285.933,288.898 "
   id="polygon568" />

	</g>
    <g
       id="g570"
       transform="matrix(0.26458333,0,0,0.26458333,-15.624675,-25.258183)">
		<polygon
   style="clip-rule:evenodd;fill:#a3b9c6;fill-rule:evenodd"
   points="386.194,303.449 143.627,303.449 143.627,303.014 386.194,303.014 "
   id="polygon569" />

	</g>
    <g
       id="g571"
       transform="matrix(0.26458333,0,0,0.26458333,-15.624675,-25.258183)">
		<polygon
   style="clip-rule:evenodd;fill:#7894ae;fill-rule:evenodd"
   points="334.044,289.974 336.949,289.157 336.879,288.907 333.974,289.724 "
   id="polygon570" />

	</g>
    <g
       id="g572"
       transform="matrix(0.26458333,0,0,0.26458333,-15.624675,-25.258183)">
		<polygon
   style="clip-rule:evenodd;fill:#7894ae;fill-rule:evenodd"
   points="337.039,289.477 336.679,289.578 336.429,288.69 336.79,288.588 "
   id="polygon571" />

	</g>
    <g
       id="g573"
       transform="matrix(0.26458333,0,0,0.26458333,-15.624675,-25.258183)">
		<path
   style="fill:#7894ae"
   d="m 333.924,289.44 -0.011,-0.031 -1.514,-0.005 0.144,-0.9 4.395,-1.451 0.031,0.931 -0.063,0.031 -2.781,1.345 0.003,0.009 z m -1.271,-0.251 1.183,0.004 -0.281,-0.796 -0.818,0.271 z m 1.107,-0.86 0.292,0.825 2.696,-1.304 -0.018,-0.503 z"
   id="path572" />

	</g>
    <g
       id="g574"
       transform="matrix(0.26458333,0,0,0.26458333,-15.624675,-25.258183)">
		<path
   style="fill:#7894ae"
   d="m 334.668,300.88 c -0.016,0 -0.031,-0.004 -0.046,-0.011 l -2.057,-0.971 c -0.046,-0.021 -0.07,-0.072 -0.06,-0.121 0.011,-0.05 0.055,-0.085 0.105,-0.085 h 1.635 l -1.401,-0.768 c -0.043,-0.023 -0.065,-0.074 -0.053,-0.121 0.012,-0.048 0.055,-0.082 0.104,-0.082 h 1.382 l -1.283,-0.77 c -0.042,-0.025 -0.062,-0.075 -0.049,-0.122 0.014,-0.046 0.056,-0.079 0.104,-0.079 h 1.282 l -1.086,-0.776 c -0.038,-0.027 -0.055,-0.076 -0.04,-0.121 0.014,-0.045 0.056,-0.075 0.103,-0.075 h 1.068 l -0.909,-0.781 c -0.034,-0.029 -0.047,-0.077 -0.031,-0.119 0.016,-0.043 0.057,-0.071 0.102,-0.071 h 0.888 l -0.709,-0.792 c -0.028,-0.032 -0.036,-0.077 -0.019,-0.116 0.017,-0.039 0.056,-0.064 0.099,-0.064 h 0.675 l -0.508,-0.807 c -0.021,-0.033 -0.021,-0.075 -0.003,-0.109 0.02,-0.035 0.056,-0.057 0.095,-0.057 h 0.611 c 0.06,0 0.108,0.049 0.108,0.108 v 0.972 c 0,0 0,0 0,10e-4 v 0 0.972 c 0,0 0,0 0,10e-4 v 0 0.971 0 c 0,10e-4 0,10e-4 0,10e-4 v 0.972 0 c 0,10e-4 0,10e-4 0,10e-4 v 2.912 c 0,0.037 -0.02,0.071 -0.051,0.091 -0.016,0.01 -0.036,0.016 -0.056,0.016 z m -1.575,-0.971 1.467,0.692 v -0.692 z m 0.225,-0.971 1.241,0.68 v -0.68 z m 0.122,-0.97 1.119,0.672 v -0.672 z m 0.206,-0.973 0.913,0.653 v -0.653 z m 0.184,-0.972 0.729,0.627 v -0.627 z m 0.209,-0.972 0.521,0.581 v -0.581 z m 0.213,-0.973 0.308,0.489 v -0.489 z"
   id="path573" />

	</g>
    <g
       id="g575"
       transform="matrix(0.26458333,0,0,0.26458333,-15.624675,-25.258183)">
		<path
   style="clip-rule:evenodd;fill:#7894ae;fill-rule:evenodd"
   d="m 336.847,284.946 v 0 c 0.205,0 0.371,0.032 0.371,0.072 v 3.025 c 0,0.04 -0.166,0.072 -0.371,0.072 v 0 c -0.205,0 -0.371,-0.032 -0.371,-0.072 v -3.025 c 0,-0.04 0.166,-0.072 0.371,-0.072 z"
   id="path574" />

	</g>
    <g
       id="g576"
       transform="matrix(0.26458333,0,0,0.26458333,-15.624675,-25.258183)">
		<polygon
   style="clip-rule:evenodd;fill:#4c6186;fill-rule:evenodd"
   points="312.932,285.885 308.687,285.885 308.687,283.272 312.932,283.272 "
   id="polygon575" />

	</g>
    <g
       id="g577"
       transform="matrix(0.26458333,0,0,0.26458333,-15.624675,-25.258183)">
		<polygon
   style="clip-rule:evenodd;fill:#7894ae;fill-rule:evenodd"
   points="312.932,285.144 308.687,285.144 308.687,283.272 312.932,283.272 "
   id="polygon576" />

	</g>
    <g
       id="g578"
       transform="matrix(0.26458333,0,0,0.26458333,-15.624675,-25.258183)">
		<polygon
   style="clip-rule:evenodd;fill:#a3b9c6;fill-rule:evenodd"
   points="298.104,272.389 299.062,272.928 300.02,273.467 299.062,274.007 298.104,274.547 298.104,273.467 "
   id="polygon577" />

	</g>
    <g
       id="g579"
       transform="matrix(0.26458333,0,0,0.26458333,-15.624675,-25.258183)">
		<polygon
   style="clip-rule:evenodd;fill:#4c6186;fill-rule:evenodd"
   points="298.104,271.054 296.853,272.26 295.603,273.467 296.853,274.674 298.104,275.881 298.104,273.467 "
   id="polygon578" />

	</g>
    <g
       id="g580"
       transform="matrix(0.26458333,0,0,0.26458333,-15.624675,-25.258183)">
		<polygon
   style="clip-rule:evenodd;fill:#7894ae;fill-rule:evenodd"
   points="298.104,274.649 298.104,273.467 298.104,271.054 296.853,272.26 295.942,273.14 "
   id="polygon579" />

	</g>
    <g
       id="g581"
       transform="matrix(0.26458333,0,0,0.26458333,-15.624675,-25.258183)">
		<polygon
   style="clip-rule:evenodd;fill:#4c6186;fill-rule:evenodd"
   points="297.069,274.774 292.824,274.774 292.824,272.162 297.069,272.162 "
   id="polygon580" />

	</g>
    <g
       id="g582"
       transform="matrix(0.26458333,0,0,0.26458333,-15.624675,-25.258183)">
		<polygon
   style="clip-rule:evenodd;fill:#7894ae;fill-rule:evenodd"
   points="297.069,274.034 292.824,274.034 292.824,272.162 297.069,272.162 "
   id="polygon581" />

	</g>
    <g
       id="g583"
       transform="matrix(0.26458333,0,0,0.26458333,-15.624675,-25.258183)">
		<polygon
   style="clip-rule:evenodd;fill:#7894ae;fill-rule:evenodd"
   points="279.071,271.485 277.499,271.485 277.499,265.666 279.071,265.666 "
   id="polygon582" />

	</g>
  </g>
</svg>
