<!DOCTYPE svg PUBLIC "-//W3C//DTD SVG 1.1//EN" "http://www.w3.org/Graphics/SVG/1.1/DTD/svg11.dtd">
<!-- Uploaded to: SVG Repo, www.svgrepo.com, Transformed by: SVG Repo Mixer Tools -->
<svg height="64px" width="64px" version="1.1" id="Layer_1" xmlns="http://www.w3.org/2000/svg" xmlns:xlink="http://www.w3.org/1999/xlink" viewBox="0 0 512.001 512.001" xml:space="preserve" fill="#000000">
<g id="SVGRepo_bgCarrier" stroke-width="0"/>
<g id="SVGRepo_tracerCarrier" stroke-linecap="round" stroke-linejoin="round"/>
<g id="SVGRepo_iconCarrier"> <path style="fill:#90C8EC;" d="M489.368,361.394c0.006-0.01,0.01-0.021,0.014-0.031c0.878-1.941,1.731-3.897,2.561-5.864 c0.298-0.706,0.579-1.421,0.87-2.131c0.525-1.276,1.053-2.549,1.557-3.834c0.331-0.841,0.643-1.693,0.965-2.54 c0.443-1.164,0.889-2.327,1.316-3.499c0.329-0.904,0.641-1.815,0.959-2.724c0.395-1.128,0.794-2.254,1.174-3.389 c0.314-0.939,0.614-1.887,0.918-2.832c0.359-1.115,0.72-2.232,1.064-3.355c0.296-0.962,0.577-1.93,0.861-2.897 c0.328-1.117,0.656-2.236,0.969-3.36c0.272-0.978,0.534-1.961,0.796-2.944c0.301-1.123,0.593-2.248,0.878-3.378 c0.25-0.992,0.49-1.987,0.728-2.983c0.269-1.134,0.534-2.272,0.79-3.411c0.224-0.998,0.441-2,0.653-3.003 c0.244-1.149,0.477-2.301,0.705-3.454c0.198-1.004,0.393-2.009,0.579-3.017c0.215-1.166,0.42-2.336,0.619-3.508 c0.17-1.004,0.341-2.009,0.5-3.017c0.188-1.191,0.362-2.386,0.534-3.582c0.142-0.997,0.287-1.995,0.419-2.995 c0.16-1.222,0.304-2.45,0.446-3.677c0.116-0.985,0.235-1.968,0.338-2.956c0.132-1.266,0.246-2.537,0.36-3.808 c0.086-0.957,0.179-1.912,0.254-2.873c0.107-1.339,0.187-2.685,0.272-4.029c0.057-0.902,0.124-1.799,0.171-2.702 c0.078-1.497,0.129-3.001,0.181-4.503c0.027-0.759,0.067-1.514,0.086-2.273c0.06-2.267,0.092-4.54,0.092-6.821 c0-6.627-0.252-13.196-0.747-19.696c-0.329-4.333-0.768-8.637-1.31-12.908c-0.272-2.136-0.57-4.263-0.894-6.381 C490.276,94.132,384.13,0,256.001,0S21.726,94.132,2.951,217.015c-0.324,2.118-0.622,4.245-0.894,6.381 c-0.542,4.271-0.981,8.575-1.31,12.908c-0.494,6.5-0.746,13.069-0.746,19.696c0,2.281,0.032,4.553,0.092,6.821 c0.02,0.76,0.059,1.515,0.086,2.273c0.052,1.504,0.104,3.007,0.181,4.503c0.048,0.904,0.116,1.801,0.171,2.702 c0.085,1.345,0.165,2.69,0.272,4.029c0.075,0.961,0.168,1.916,0.255,2.873c0.115,1.271,0.227,2.542,0.36,3.808 c0.104,0.988,0.223,1.971,0.338,2.956c0.144,1.228,0.287,2.454,0.446,3.677c0.131,1.001,0.276,1.998,0.419,2.995 c0.171,1.197,0.346,2.391,0.534,3.582c0.16,1.008,0.329,2.013,0.5,3.017c0.199,1.172,0.403,2.342,0.619,3.508 c0.186,1.008,0.381,2.013,0.579,3.017c0.227,1.154,0.461,2.305,0.705,3.454c0.211,1.003,0.43,2.005,0.653,3.003 c0.255,1.14,0.521,2.277,0.79,3.411c0.238,0.996,0.479,1.991,0.728,2.983c0.285,1.13,0.579,2.254,0.878,3.378 c0.26,0.983,0.524,1.966,0.796,2.944c0.314,1.124,0.641,2.243,0.969,3.36c0.285,0.967,0.567,1.934,0.861,2.897 c0.345,1.123,0.705,2.238,1.064,3.355c0.304,0.945,0.604,1.892,0.918,2.832c0.381,1.135,0.778,2.262,1.174,3.389 c0.318,0.908,0.63,1.82,0.959,2.724c0.426,1.172,0.872,2.335,1.316,3.499c0.322,0.847,0.634,1.697,0.965,2.54 c0.504,1.286,1.033,2.56,1.557,3.834c0.293,0.71,0.573,1.426,0.87,2.132c0.83,1.967,1.683,3.922,2.561,5.864 c0.004,0.01,0.009,0.021,0.014,0.031l0.01,0.019c3.633,8.03,7.679,15.831,12.091,23.393l0.121,0.236 c0.708,1.21,1.425,2.413,2.153,3.61c0.095,0.157,0.193,0.311,0.288,0.467c0.861,1.412,1.739,2.813,2.626,4.207 c0.262,0.41,0.523,0.819,0.786,1.228c0.974,1.509,1.958,3.012,2.961,4.499c0.091,0.134,0.185,0.266,0.275,0.4 c0.938,1.384,1.891,2.755,2.855,4.119c0.276,0.391,0.552,0.78,0.83,1.17c1.045,1.463,2.103,2.918,3.178,4.358 c0.089,0.119,0.179,0.235,0.267,0.353c1.011,1.348,2.037,2.681,3.074,4.008c0.289,0.371,0.58,0.742,0.872,1.112 c1.117,1.414,2.244,2.819,3.39,4.208c0.083,0.101,0.168,0.2,0.254,0.302c1.083,1.309,2.182,2.605,3.29,3.891 c0.303,0.352,0.605,0.703,0.91,1.053c1.185,1.362,2.382,2.716,3.595,4.053c0.077,0.086,0.157,0.168,0.234,0.254 c1.155,1.269,2.326,2.522,3.506,3.767c0.314,0.331,0.628,0.661,0.943,0.99c1.254,1.309,2.519,2.609,3.799,3.891 c0.069,0.068,0.138,0.135,0.207,0.203c1.228,1.225,2.471,2.435,3.723,3.636c0.324,0.311,0.649,0.621,0.974,0.929 c1.319,1.251,2.647,2.493,3.992,3.716c0.061,0.056,0.124,0.11,0.185,0.166c1.293,1.174,2.603,2.332,3.922,3.479 c0.337,0.294,0.675,0.587,1.013,0.879c1.38,1.189,2.769,2.369,4.174,3.528c0.052,0.043,0.105,0.085,0.157,0.127 c1.362,1.123,2.739,2.227,4.125,3.322c0.346,0.274,0.692,0.547,1.041,0.818c1.439,1.126,2.889,2.243,4.353,3.338 c0.046,0.033,0.092,0.067,0.138,0.101c1.422,1.063,2.861,2.108,4.306,3.141c0.358,0.256,0.718,0.512,1.077,0.767 c1.496,1.057,2.999,2.106,4.519,3.132c0.04,0.027,0.08,0.053,0.121,0.081c1.483,1.002,2.981,1.982,4.484,2.952 c0.367,0.236,0.733,0.472,1.102,0.707c1.55,0.988,3.109,1.967,4.683,2.923c0.031,0.02,0.065,0.038,0.096,0.058 c1.542,0.935,3.095,1.85,4.659,2.754c0.378,0.219,0.758,0.437,1.136,0.654c1.602,0.916,3.211,1.82,4.835,2.702 c0.022,0.012,0.043,0.023,0.066,0.035c1.598,0.868,3.211,1.714,4.828,2.548c0.391,0.201,0.78,0.401,1.17,0.6 c1.648,0.838,3.305,1.666,4.972,2.471c0.027,0.012,0.055,0.024,0.08,0.038c1.641,0.79,3.293,1.557,4.953,2.313 c0.401,0.183,0.804,0.365,1.205,0.545c1.693,0.76,3.393,1.509,5.104,2.234c0.021,0.009,0.041,0.017,0.062,0.026 c1.688,0.713,3.387,1.402,5.092,2.08c0.415,0.165,0.83,0.329,1.247,0.492c1.734,0.679,3.473,1.345,5.225,1.987 c0.02,0.007,0.039,0.013,0.059,0.02c1.729,0.633,3.469,1.241,5.216,1.838c0.429,0.146,0.855,0.29,1.282,0.434 c1.773,0.594,3.552,1.178,5.341,1.734c0.014,0.004,0.028,0.008,0.041,0.012c1.773,0.551,3.556,1.076,5.346,1.591 c0.437,0.125,0.874,0.249,1.311,0.373c1.809,0.509,3.623,1.005,5.448,1.475c0.02,0.004,0.038,0.009,0.057,0.013 c1.804,0.464,3.617,0.902,5.436,1.327c0.449,0.105,0.899,0.209,1.349,0.312c1.842,0.42,3.689,0.828,5.547,1.208 c0.013,0.002,0.026,0.004,0.039,0.008c1.841,0.376,3.693,0.726,5.549,1.063c0.46,0.083,0.918,0.166,1.378,0.246 c1.874,0.329,3.752,0.647,5.64,0.935c0.013,0.001,0.023,0.003,0.037,0.004c1.874,0.286,3.757,0.544,5.643,0.79 c0.467,0.061,0.937,0.12,1.407,0.179c1.902,0.237,3.81,0.46,5.727,0.654c0.011,0.001,0.022,0.001,0.032,0.003 c1.902,0.193,3.811,0.357,5.725,0.509c0.482,0.038,0.962,0.075,1.444,0.11c1.929,0.141,3.862,0.269,5.801,0.368 c0.007,0,0.013,0,0.019,0c1.933,0.098,3.873,0.166,5.818,0.222c0.488,0.013,0.976,0.026,1.465,0.037 c1.955,0.045,3.912,0.075,5.876,0.075c1.965,0,3.921-0.03,5.876-0.075c0.488-0.011,0.977-0.023,1.464-0.037 c1.944-0.055,3.885-0.124,5.819-0.222c0.006,0,0.012,0,0.019,0c1.939-0.098,3.872-0.227,5.801-0.368 c0.482-0.036,0.962-0.071,1.444-0.11c1.914-0.151,3.823-0.315,5.725-0.509c0.011-0.001,0.022-0.002,0.032-0.003 c1.917-0.195,3.824-0.417,5.727-0.654c0.47-0.059,0.939-0.118,1.407-0.179c1.887-0.245,3.77-0.503,5.643-0.79 c0.013-0.001,0.024-0.003,0.037-0.004c1.888-0.288,3.767-0.604,5.64-0.935c0.46-0.081,0.918-0.164,1.378-0.246 c1.855-0.337,3.708-0.687,5.548-1.063c0.013-0.002,0.026-0.006,0.039-0.008c1.859-0.381,3.705-0.788,5.547-1.208 c0.45-0.102,0.9-0.207,1.349-0.312c1.819-0.425,3.632-0.863,5.436-1.327c0.019-0.004,0.037-0.009,0.057-0.013 c1.825-0.47,3.64-0.966,5.448-1.475c0.437-0.124,0.874-0.247,1.311-0.373c1.789-0.513,3.573-1.04,5.346-1.591 c0.013-0.004,0.027-0.008,0.041-0.012c1.789-0.557,3.568-1.14,5.342-1.734c0.429-0.144,0.855-0.288,1.282-0.434 c1.745-0.597,3.487-1.204,5.215-1.838c0.02-0.007,0.039-0.013,0.059-0.02c1.752-0.641,3.492-1.308,5.225-1.987 c0.416-0.163,0.831-0.326,1.247-0.492c1.705-0.678,3.405-1.368,5.092-2.08c0.021-0.009,0.041-0.017,0.062-0.026 c1.712-0.725,3.411-1.474,5.104-2.234c0.402-0.18,0.805-0.363,1.205-0.545c1.66-0.756,3.314-1.523,4.953-2.313 c0.026-0.013,0.053-0.024,0.08-0.038c1.667-0.805,3.322-1.632,4.972-2.471c0.39-0.199,0.779-0.398,1.17-0.6 c1.617-0.834,3.23-1.68,4.828-2.548c0.022-0.012,0.043-0.023,0.066-0.035c1.624-0.883,3.232-1.786,4.835-2.702 c0.38-0.217,0.759-0.436,1.138-0.654c1.563-0.904,3.118-1.819,4.658-2.754c0.031-0.02,0.065-0.038,0.096-0.058 c1.574-0.956,3.132-1.934,4.683-2.923c0.368-0.235,0.735-0.471,1.102-0.707c1.505-0.971,3.002-1.951,4.484-2.952 c0.041-0.027,0.081-0.053,0.121-0.081c1.519-1.026,3.023-2.075,4.519-3.132c0.36-0.255,0.719-0.51,1.077-0.767 c1.446-1.034,2.884-2.078,4.306-3.141c0.046-0.033,0.092-0.068,0.138-0.101c1.464-1.095,2.914-2.212,4.353-3.338 c0.348-0.272,0.695-0.544,1.041-0.818c1.386-1.095,2.763-2.199,4.125-3.322c0.052-0.042,0.105-0.083,0.157-0.127 c1.405-1.16,2.794-2.34,4.174-3.528c0.338-0.293,0.676-0.585,1.013-0.879c1.319-1.148,2.628-2.305,3.921-3.479 c0.061-0.056,0.124-0.11,0.185-0.166c1.346-1.223,2.674-2.465,3.992-3.716c0.325-0.308,0.65-0.619,0.974-0.929 c1.252-1.201,2.495-2.411,3.723-3.636c0.068-0.068,0.138-0.135,0.207-0.203c1.28-1.282,2.544-2.582,3.799-3.891 c0.314-0.328,0.628-0.659,0.943-0.99c1.18-1.244,2.351-2.499,3.506-3.767c0.077-0.086,0.157-0.168,0.234-0.254 c1.214-1.337,2.41-2.69,3.595-4.053c0.305-0.349,0.608-0.701,0.91-1.053c1.109-1.287,2.207-2.582,3.29-3.891 c0.085-0.101,0.169-0.2,0.253-0.302c1.146-1.39,2.273-2.795,3.39-4.208c0.292-0.37,0.582-0.74,0.871-1.112 c1.037-1.327,2.064-2.661,3.074-4.008c0.088-0.118,0.178-0.234,0.267-0.353c1.076-1.439,2.133-2.895,3.178-4.358 c0.278-0.39,0.554-0.779,0.83-1.17c0.964-1.365,1.918-2.736,2.855-4.119c0.09-0.134,0.184-0.266,0.275-0.4 c1.003-1.487,1.987-2.99,2.961-4.499c0.263-0.408,0.524-0.817,0.786-1.228c0.888-1.394,1.764-2.795,2.626-4.207 c0.096-0.157,0.194-0.311,0.288-0.467c0.727-1.197,1.445-2.4,2.153-3.61l0.121-0.236c4.412-7.562,8.459-15.363,12.091-23.393 L489.368,361.394z"/> <g> <circle style="fill:#578CAD;" cx="352.257" cy="145.141" r="24.389"/> <path style="fill:#578CAD;" d="M74.358,339.051c-20.32,0-38.728,8.161-52.149,21.372c20.697,46.271,54.729,85.269,97.208,112.119 c17.802-13.585,29.296-35.014,29.296-59.135C148.713,372.341,115.422,339.051,74.358,339.051z"/> <circle style="fill:#578CAD;" cx="163.485" cy="270.559" r="23.973"/> <circle style="fill:#578CAD;" cx="217.445" cy="120.743" r="38.552"/> <circle style="fill:#578CAD;" cx="334.437" cy="354.17" r="44.237"/> </g> <path style="opacity:0.1;fill:#231F20;enable-background:new ;" d="M260.651,511.667c-0.006,0-0.012,0-0.019,0 c-1.939-0.098-3.872-0.227-5.801-0.368c-0.482-0.036-0.962-0.071-1.444-0.11c-1.914-0.151-3.823-0.315-5.725-0.509 c-0.011-0.001-0.022-0.002-0.032-0.003c-1.917-0.195-3.824-0.417-5.727-0.654c-0.47-0.059-0.939-0.118-1.407-0.179 c-1.887-0.245-3.77-0.503-5.643-0.79c-0.013-0.001-0.023-0.003-0.037-0.004c-1.888-0.288-3.767-0.604-5.64-0.935 c-0.46-0.081-0.918-0.164-1.378-0.246c-1.855-0.337-3.708-0.687-5.549-1.063c-0.013-0.002-0.026-0.006-0.039-0.008 c-1.859-0.381-3.705-0.788-5.547-1.208c-0.45-0.102-0.9-0.207-1.349-0.312c-1.819-0.425-3.632-0.863-5.436-1.327 c-0.019-0.004-0.037-0.009-0.057-0.013c-1.825-0.47-3.64-0.966-5.448-1.475c-0.437-0.124-0.874-0.247-1.311-0.373 c-1.789-0.513-3.573-1.04-5.346-1.591c-0.013-0.004-0.027-0.008-0.041-0.012c-1.789-0.557-3.568-1.14-5.341-1.734 c-0.429-0.144-0.855-0.288-1.282-0.434c-1.745-0.597-3.487-1.204-5.216-1.838c-0.02-0.007-0.039-0.013-0.059-0.02 c-1.752-0.641-3.492-1.308-5.225-1.987c-0.416-0.163-0.831-0.326-1.247-0.492c-1.705-0.678-3.405-1.368-5.092-2.08 c-0.021-0.009-0.041-0.017-0.062-0.026c-1.712-0.725-3.411-1.474-5.104-2.234c-0.402-0.18-0.805-0.363-1.205-0.545 c-1.66-0.756-3.314-1.523-4.953-2.313c-0.026-0.013-0.053-0.025-0.08-0.038c-1.667-0.805-3.322-1.632-4.972-2.471 c-0.39-0.199-0.779-0.398-1.17-0.6c-1.617-0.834-3.23-1.68-4.828-2.548c-0.022-0.012-0.043-0.023-0.066-0.035 c-1.624-0.883-3.232-1.786-4.835-2.702c-0.38-0.217-0.759-0.436-1.136-0.654c-1.563-0.904-3.118-1.819-4.659-2.754 c-0.031-0.02-0.065-0.038-0.096-0.058c-1.574-0.956-3.132-1.934-4.683-2.923c-0.368-0.235-0.735-0.471-1.102-0.707 c-1.505-0.971-3.002-1.951-4.484-2.952c-0.041-0.027-0.081-0.053-0.121-0.081c-1.519-1.026-3.023-2.075-4.519-3.132 c-0.36-0.255-0.719-0.51-1.077-0.767c-1.446-1.034-2.884-2.078-4.306-3.141c-0.046-0.033-0.092-0.068-0.138-0.101 c-1.464-1.095-2.914-2.212-4.353-3.338c-0.348-0.272-0.695-0.544-1.041-0.818c-1.386-1.095-2.763-2.199-4.125-3.322 c-0.052-0.042-0.105-0.083-0.157-0.127c-1.405-1.16-2.794-2.34-4.174-3.528c-0.338-0.293-0.676-0.585-1.013-0.879 c-1.319-1.148-2.628-2.305-3.922-3.479c-0.061-0.056-0.124-0.11-0.185-0.166c-1.346-1.223-2.674-2.465-3.992-3.716 c-0.325-0.308-0.65-0.619-0.974-0.929c-1.252-1.201-2.495-2.411-3.723-3.636c-0.069-0.068-0.138-0.135-0.207-0.203 c-1.28-1.282-2.544-2.582-3.799-3.891c-0.314-0.328-0.628-0.659-0.943-0.99c-1.181-1.244-2.351-2.499-3.506-3.767 c-0.077-0.086-0.157-0.168-0.234-0.254c-1.214-1.337-2.41-2.69-3.595-4.053c-0.305-0.349-0.608-0.701-0.91-1.053 c-1.109-1.287-2.207-2.582-3.29-3.891c-0.085-0.101-0.169-0.2-0.254-0.302c-1.146-1.39-2.273-2.795-3.39-4.208 c-0.292-0.37-0.582-0.74-0.872-1.112c-1.037-1.327-2.064-2.661-3.074-4.008c-0.088-0.118-0.178-0.234-0.267-0.353 c-1.076-1.439-2.133-2.895-3.178-4.358c-0.278-0.39-0.554-0.779-0.83-1.17c-0.964-1.365-1.918-2.736-2.855-4.119 c-0.09-0.134-0.184-0.266-0.275-0.4c-1.003-1.487-1.987-2.99-2.961-4.499c-0.263-0.408-0.524-0.817-0.786-1.228 c-0.888-1.394-1.764-2.795-2.626-4.207c-0.096-0.157-0.194-0.311-0.288-0.467c-0.727-1.197-1.445-2.4-2.153-3.61l-0.121-0.236 c-4.412-7.562-8.459-15.363-12.091-23.393l-0.01-0.019c-0.006-0.01-0.01-0.021-0.014-0.031c-0.878-1.941-1.731-3.897-2.561-5.864 c-0.298-0.706-0.579-1.421-0.87-2.132c-0.525-1.276-1.053-2.549-1.557-3.834c-0.331-0.841-0.643-1.693-0.965-2.54 c-0.443-1.164-0.889-2.327-1.316-3.499c-0.329-0.904-0.641-1.815-0.959-2.724c-0.395-1.128-0.794-2.254-1.174-3.389 c-0.314-0.939-0.614-1.887-0.918-2.832c-0.36-1.115-0.719-2.232-1.064-3.355c-0.296-0.962-0.578-1.93-0.861-2.897 c-0.328-1.117-0.656-2.236-0.969-3.36c-0.272-0.978-0.534-1.961-0.796-2.944c-0.299-1.123-0.593-2.248-0.878-3.378 c-0.25-0.992-0.49-1.987-0.728-2.983c-0.269-1.134-0.534-2.272-0.79-3.411c-0.224-0.998-0.441-2-0.653-3.003 c-0.244-1.149-0.477-2.301-0.705-3.454c-0.198-1.004-0.393-2.009-0.579-3.017c-0.215-1.166-0.42-2.336-0.619-3.508 c-0.17-1.004-0.341-2.009-0.5-3.017c-0.188-1.191-0.362-2.386-0.533-3.582c-0.142-0.997-0.287-1.995-0.419-2.995 c-0.16-1.222-0.304-2.45-0.446-3.677c-0.116-0.985-0.235-1.968-0.338-2.956c-0.132-1.266-0.246-2.537-0.36-3.808 c-0.086-0.957-0.179-1.912-0.255-2.873c-0.107-1.339-0.187-2.685-0.272-4.029c-0.057-0.902-0.124-1.799-0.171-2.702 c-0.078-1.497-0.129-3.001-0.181-4.503c-0.027-0.759-0.067-1.514-0.086-2.273c-0.06-2.266-0.092-4.539-0.092-6.82 c0-6.627,0.252-13.196,0.747-19.696c0.329-4.333,0.767-8.637,1.31-12.908c0.272-2.136,0.57-4.263,0.894-6.381 C39.098,96.993,140.791,4.413,264.905,0.169C261.948,0.068,258.983,0,256.001,0C127.872,0,21.726,94.132,2.951,217.015 c-0.324,2.118-0.622,4.245-0.894,6.381c-0.542,4.271-0.981,8.575-1.31,12.908c-0.494,6.5-0.746,13.069-0.746,19.696 c0,2.281,0.032,4.553,0.092,6.821c0.02,0.76,0.059,1.515,0.086,2.273c0.052,1.504,0.104,3.007,0.181,4.503 c0.048,0.904,0.116,1.801,0.171,2.702c0.085,1.345,0.165,2.69,0.272,4.029c0.075,0.961,0.168,1.916,0.255,2.873 c0.115,1.271,0.227,2.542,0.36,3.808c0.104,0.988,0.223,1.971,0.338,2.956c0.144,1.228,0.287,2.454,0.446,3.677 c0.131,1.001,0.276,1.998,0.419,2.995c0.171,1.197,0.346,2.391,0.534,3.582c0.16,1.008,0.329,2.013,0.5,3.017 c0.199,1.172,0.403,2.342,0.619,3.508c0.186,1.008,0.381,2.013,0.579,3.017c0.227,1.154,0.461,2.305,0.705,3.454 c0.211,1.003,0.43,2.005,0.653,3.003c0.255,1.14,0.521,2.277,0.79,3.411c0.238,0.996,0.479,1.991,0.728,2.983 c0.285,1.13,0.579,2.254,0.878,3.378c0.26,0.983,0.524,1.966,0.796,2.944c0.314,1.124,0.641,2.243,0.969,3.36 c0.285,0.967,0.567,1.934,0.861,2.897c0.345,1.123,0.705,2.238,1.064,3.355c0.304,0.945,0.604,1.892,0.918,2.832 c0.381,1.135,0.778,2.262,1.174,3.389c0.318,0.908,0.63,1.82,0.959,2.724c0.426,1.172,0.872,2.335,1.316,3.499 c0.322,0.847,0.634,1.697,0.965,2.54c0.504,1.286,1.033,2.56,1.557,3.834c0.293,0.71,0.573,1.426,0.87,2.132 c0.83,1.967,1.683,3.922,2.561,5.864c0.004,0.01,0.009,0.021,0.014,0.031l0.01,0.019c3.633,8.03,7.679,15.831,12.091,23.393 l0.121,0.236c0.708,1.21,1.425,2.413,2.153,3.61c0.095,0.157,0.193,0.311,0.288,0.467c0.861,1.412,1.739,2.813,2.626,4.207 c0.262,0.41,0.523,0.819,0.786,1.228c0.974,1.509,1.958,3.012,2.961,4.499c0.091,0.134,0.185,0.266,0.275,0.4 c0.938,1.384,1.891,2.755,2.855,4.119c0.276,0.391,0.552,0.78,0.83,1.17c1.045,1.463,2.103,2.918,3.178,4.358 c0.089,0.119,0.179,0.235,0.267,0.353c1.011,1.348,2.037,2.681,3.074,4.008c0.289,0.371,0.58,0.742,0.872,1.112 c1.117,1.414,2.244,2.819,3.39,4.208c0.083,0.101,0.168,0.2,0.254,0.302c1.083,1.309,2.182,2.605,3.29,3.891 c0.303,0.352,0.605,0.703,0.91,1.053c1.185,1.362,2.382,2.716,3.595,4.053c0.077,0.086,0.157,0.168,0.234,0.254 c1.155,1.269,2.326,2.522,3.506,3.767c0.314,0.331,0.628,0.661,0.943,0.99c1.254,1.309,2.519,2.609,3.799,3.891 c0.069,0.068,0.138,0.135,0.207,0.203c1.228,1.225,2.471,2.435,3.723,3.636c0.324,0.311,0.649,0.621,0.974,0.929 c1.319,1.251,2.647,2.493,3.992,3.716c0.061,0.056,0.124,0.11,0.185,0.166c1.293,1.174,2.603,2.332,3.922,3.479 c0.337,0.294,0.675,0.587,1.013,0.879c1.38,1.189,2.769,2.369,4.174,3.528c0.052,0.043,0.105,0.085,0.157,0.127 c1.362,1.123,2.739,2.227,4.125,3.322c0.346,0.274,0.692,0.547,1.041,0.818c1.439,1.126,2.889,2.243,4.353,3.338 c0.046,0.033,0.092,0.067,0.138,0.101c1.422,1.063,2.861,2.108,4.306,3.141c0.358,0.256,0.718,0.512,1.077,0.767 c1.496,1.057,2.999,2.106,4.519,3.132c0.04,0.027,0.08,0.053,0.121,0.081c1.483,1.002,2.981,1.982,4.484,2.952 c0.367,0.236,0.733,0.472,1.102,0.707c1.55,0.988,3.109,1.967,4.683,2.923c0.031,0.02,0.065,0.038,0.096,0.058 c1.542,0.935,3.095,1.85,4.659,2.754c0.378,0.219,0.758,0.437,1.136,0.654c1.602,0.916,3.211,1.82,4.835,2.702 c0.022,0.012,0.043,0.023,0.066,0.035c1.598,0.868,3.211,1.714,4.828,2.548c0.391,0.201,0.78,0.401,1.17,0.6 c1.648,0.838,3.305,1.666,4.972,2.471c0.027,0.012,0.055,0.024,0.08,0.038c1.641,0.79,3.293,1.557,4.953,2.313 c0.401,0.183,0.804,0.365,1.205,0.545c1.693,0.76,3.393,1.509,5.104,2.234c0.021,0.009,0.041,0.017,0.062,0.026 c1.688,0.713,3.387,1.402,5.092,2.08c0.415,0.165,0.83,0.329,1.247,0.492c1.734,0.679,3.473,1.345,5.225,1.987 c0.02,0.007,0.039,0.013,0.059,0.02c1.729,0.633,3.469,1.241,5.216,1.838c0.429,0.146,0.855,0.29,1.282,0.434 c1.773,0.594,3.552,1.178,5.341,1.734c0.014,0.004,0.028,0.008,0.041,0.012c1.773,0.551,3.556,1.076,5.346,1.591 c0.437,0.125,0.874,0.249,1.311,0.373c1.809,0.509,3.623,1.005,5.448,1.475c0.02,0.004,0.038,0.009,0.057,0.013 c1.804,0.464,3.617,0.902,5.436,1.327c0.449,0.105,0.899,0.209,1.349,0.312c1.842,0.42,3.689,0.828,5.547,1.208 c0.013,0.002,0.026,0.004,0.039,0.008c1.841,0.376,3.693,0.726,5.549,1.063c0.46,0.083,0.918,0.166,1.378,0.246 c1.874,0.329,3.752,0.647,5.64,0.935c0.013,0.001,0.023,0.003,0.037,0.004c1.874,0.286,3.757,0.544,5.643,0.79 c0.467,0.061,0.937,0.12,1.407,0.179c1.902,0.237,3.81,0.46,5.727,0.654c0.011,0.001,0.022,0.001,0.032,0.003 c1.902,0.193,3.811,0.357,5.725,0.509c0.482,0.038,0.962,0.075,1.444,0.11c1.929,0.141,3.862,0.269,5.801,0.368 c0.007,0,0.013,0,0.019,0c1.933,0.098,3.873,0.166,5.818,0.222c0.488,0.013,0.976,0.026,1.465,0.037 c1.955,0.045,3.912,0.075,5.876,0.075c1.965,0,3.921-0.03,5.876-0.075c0.488-0.011,0.977-0.023,1.464-0.037 c0.523-0.014,1.042-0.042,1.564-0.059C263.485,511.783,262.065,511.74,260.651,511.667z"/> </g>
</svg>